%TF.GenerationSoftware,KiCad,Pcbnew,9.0.6-9.0.6~ubuntu22.04.1*%
%TF.CreationDate,2025-12-13T13:38:44-06:00*%
%TF.ProjectId,absolute_encoder_breakout,6162736f-6c75-4746-955f-656e636f6465,rev?*%
%TF.SameCoordinates,Original*%
%TF.FileFunction,Copper,L1,Top*%
%TF.FilePolarity,Positive*%
%FSLAX46Y46*%
G04 Gerber Fmt 4.6, Leading zero omitted, Abs format (unit mm)*
G04 Created by KiCad (PCBNEW 9.0.6-9.0.6~ubuntu22.04.1) date 2025-12-13 13:38:44*
%MOMM*%
%LPD*%
G01*
G04 APERTURE LIST*
G04 Aperture macros list*
%AMRoundRect*
0 Rectangle with rounded corners*
0 $1 Rounding radius*
0 $2 $3 $4 $5 $6 $7 $8 $9 X,Y pos of 4 corners*
0 Add a 4 corners polygon primitive as box body*
4,1,4,$2,$3,$4,$5,$6,$7,$8,$9,$2,$3,0*
0 Add four circle primitives for the rounded corners*
1,1,$1+$1,$2,$3*
1,1,$1+$1,$4,$5*
1,1,$1+$1,$6,$7*
1,1,$1+$1,$8,$9*
0 Add four rect primitives between the rounded corners*
20,1,$1+$1,$2,$3,$4,$5,0*
20,1,$1+$1,$4,$5,$6,$7,0*
20,1,$1+$1,$6,$7,$8,$9,0*
20,1,$1+$1,$8,$9,$2,$3,0*%
G04 Aperture macros list end*
%TA.AperFunction,SMDPad,CuDef*%
%ADD10RoundRect,0.150000X0.150000X-0.825000X0.150000X0.825000X-0.150000X0.825000X-0.150000X-0.825000X0*%
%TD*%
%TA.AperFunction,ComponentPad*%
%ADD11RoundRect,0.250000X-0.625000X0.350000X-0.625000X-0.350000X0.625000X-0.350000X0.625000X0.350000X0*%
%TD*%
%TA.AperFunction,ComponentPad*%
%ADD12O,1.750000X1.200000*%
%TD*%
%TA.AperFunction,ViaPad*%
%ADD13C,0.600000*%
%TD*%
%TA.AperFunction,Conductor*%
%ADD14C,0.254000*%
%TD*%
G04 APERTURE END LIST*
D10*
%TO.P,U1,1,VDD5V*%
%TO.N,Net-(J1-Pin_1)*%
X137414000Y-77086000D03*
%TO.P,U1,2,VDD3V3*%
X138684000Y-77086000D03*
%TO.P,U1,3,OUT*%
%TO.N,Net-(J1-Pin_2)*%
X139954000Y-77086000D03*
%TO.P,U1,4,GND*%
%TO.N,GND*%
X141224000Y-77086000D03*
%TO.P,U1,5,PGO*%
%TO.N,unconnected-(U1-PGO-Pad5)*%
X141224000Y-72136000D03*
%TO.P,U1,6,SDA*%
%TO.N,unconnected-(U1-SDA-Pad6)*%
X139954000Y-72136000D03*
%TO.P,U1,7,SCL*%
%TO.N,unconnected-(U1-SCL-Pad7)*%
X138684000Y-72136000D03*
%TO.P,U1,8,DIR*%
%TO.N,Net-(U1-DIR)*%
X137414000Y-72136000D03*
%TD*%
D11*
%TO.P,J1,1,Pin_1*%
%TO.N,Net-(J1-Pin_1)*%
X143854000Y-72676000D03*
D12*
%TO.P,J1,2,Pin_2*%
%TO.N,Net-(J1-Pin_2)*%
X143854000Y-74676000D03*
%TO.P,J1,3,Pin_3*%
%TO.N,GND*%
X143854000Y-76676000D03*
%TD*%
D13*
%TO.N,Net-(U1-DIR)*%
X137414000Y-72136000D03*
%TO.N,GND*%
X138049000Y-74803000D03*
%TD*%
D14*
%TO.N,Net-(J1-Pin_1)*%
X142240000Y-73660000D02*
X139700000Y-73660000D01*
X138684000Y-74676000D02*
X139700000Y-73660000D01*
X137414000Y-74422000D02*
X137414000Y-77086000D01*
X142394000Y-73660000D02*
X142240000Y-73660000D01*
X138176000Y-73660000D02*
X137414000Y-74422000D01*
X138684000Y-77086000D02*
X138684000Y-74676000D01*
X143346000Y-72708000D02*
X142394000Y-73660000D01*
X139700000Y-73660000D02*
X138176000Y-73660000D01*
%TO.N,Net-(J1-Pin_2)*%
X143346000Y-74708000D02*
X140684000Y-74708000D01*
X140684000Y-74708000D02*
X139954000Y-75438000D01*
X139954000Y-75438000D02*
X139954000Y-77086000D01*
%TD*%
%TA.AperFunction,Conductor*%
%TO.N,GND*%
G36*
X145295028Y-70605292D02*
G01*
X145310292Y-70607011D01*
X145388609Y-70615836D01*
X145416107Y-70622112D01*
X145498271Y-70650863D01*
X145523682Y-70663100D01*
X145597390Y-70709414D01*
X145619449Y-70727006D01*
X145680993Y-70788550D01*
X145698585Y-70810609D01*
X145744896Y-70884312D01*
X145757138Y-70909733D01*
X145785885Y-70991887D01*
X145792164Y-71019394D01*
X145796076Y-71054108D01*
X145801755Y-71104517D01*
X145802708Y-71112970D01*
X145803500Y-71127078D01*
X145803500Y-78224921D01*
X145802708Y-78239029D01*
X145792164Y-78332605D01*
X145785885Y-78360112D01*
X145757138Y-78442266D01*
X145744896Y-78467687D01*
X145698585Y-78541390D01*
X145680993Y-78563449D01*
X145619449Y-78624993D01*
X145597390Y-78642585D01*
X145523687Y-78688896D01*
X145498266Y-78701138D01*
X145416112Y-78729885D01*
X145388605Y-78736164D01*
X145295029Y-78746708D01*
X145280921Y-78747500D01*
X137167079Y-78747500D01*
X137152971Y-78746708D01*
X137059394Y-78736164D01*
X137031887Y-78729885D01*
X136949733Y-78701138D01*
X136924312Y-78688896D01*
X136850609Y-78642585D01*
X136828550Y-78624993D01*
X136767006Y-78563449D01*
X136749414Y-78541390D01*
X136703100Y-78467682D01*
X136690863Y-78442271D01*
X136662112Y-78360107D01*
X136655836Y-78332609D01*
X136645292Y-78239028D01*
X136644500Y-78224921D01*
X136644500Y-76227738D01*
X136913500Y-76227738D01*
X136913500Y-77944261D01*
X136923427Y-78012394D01*
X136974801Y-78117482D01*
X136974803Y-78117485D01*
X137057514Y-78200196D01*
X137057517Y-78200198D01*
X137162607Y-78251573D01*
X137230740Y-78261500D01*
X137230745Y-78261500D01*
X137597255Y-78261500D01*
X137597260Y-78261500D01*
X137665393Y-78251573D01*
X137770483Y-78200198D01*
X137853198Y-78117483D01*
X137904573Y-78012393D01*
X137914500Y-77944260D01*
X137914500Y-76227740D01*
X137904573Y-76159607D01*
X137853198Y-76054517D01*
X137853196Y-76054514D01*
X137778405Y-75979723D01*
X137744379Y-75917411D01*
X137741500Y-75890628D01*
X137741500Y-74609845D01*
X137761502Y-74541724D01*
X137778405Y-74520750D01*
X138274750Y-74024405D01*
X138286867Y-74017788D01*
X138295929Y-74007371D01*
X138317505Y-74001058D01*
X138337062Y-73990379D01*
X138350676Y-73991352D01*
X138363845Y-73987500D01*
X138605155Y-73987500D01*
X138673276Y-74007502D01*
X138719769Y-74061158D01*
X138729873Y-74131432D01*
X138700379Y-74196012D01*
X138694250Y-74202595D01*
X138482910Y-74413935D01*
X138454348Y-74442497D01*
X138421936Y-74474908D01*
X138421932Y-74474913D01*
X138378819Y-74549587D01*
X138378818Y-74549590D01*
X138356500Y-74632880D01*
X138356500Y-75890628D01*
X138336498Y-75958749D01*
X138319595Y-75979723D01*
X138244803Y-76054514D01*
X138244801Y-76054517D01*
X138193427Y-76159605D01*
X138183500Y-76227738D01*
X138183500Y-77944261D01*
X138193427Y-78012394D01*
X138244801Y-78117482D01*
X138244803Y-78117485D01*
X138327514Y-78200196D01*
X138327517Y-78200198D01*
X138432607Y-78251573D01*
X138500740Y-78261500D01*
X138500745Y-78261500D01*
X138867255Y-78261500D01*
X138867260Y-78261500D01*
X138935393Y-78251573D01*
X139040483Y-78200198D01*
X139123198Y-78117483D01*
X139174573Y-78012393D01*
X139184500Y-77944260D01*
X139184500Y-76227740D01*
X139184500Y-76227738D01*
X139453500Y-76227738D01*
X139453500Y-77944261D01*
X139463427Y-78012394D01*
X139514801Y-78117482D01*
X139514803Y-78117485D01*
X139597514Y-78200196D01*
X139597517Y-78200198D01*
X139702607Y-78251573D01*
X139770740Y-78261500D01*
X139770745Y-78261500D01*
X140137255Y-78261500D01*
X140137260Y-78261500D01*
X140205393Y-78251573D01*
X140310483Y-78200198D01*
X140393198Y-78117483D01*
X140444573Y-78012393D01*
X140454500Y-77944260D01*
X140454500Y-76227740D01*
X140444573Y-76159607D01*
X140393198Y-76054517D01*
X140393196Y-76054514D01*
X140318405Y-75979723D01*
X140284379Y-75917411D01*
X140281500Y-75890628D01*
X140281500Y-75625845D01*
X140301502Y-75557724D01*
X140318405Y-75536750D01*
X140782750Y-75072405D01*
X140845062Y-75038379D01*
X140871845Y-75035500D01*
X142789109Y-75035500D01*
X142857230Y-75055502D01*
X142893874Y-75091498D01*
X142957207Y-75186284D01*
X142957211Y-75186289D01*
X143068711Y-75297789D01*
X143199821Y-75385394D01*
X143345503Y-75445737D01*
X143500158Y-75476500D01*
X143500159Y-75476500D01*
X144207841Y-75476500D01*
X144207842Y-75476500D01*
X144362497Y-75445737D01*
X144508179Y-75385394D01*
X144639289Y-75297789D01*
X144750789Y-75186289D01*
X144838394Y-75055179D01*
X144898737Y-74909497D01*
X144929500Y-74754842D01*
X144929500Y-74597158D01*
X144898737Y-74442503D01*
X144838394Y-74296821D01*
X144750789Y-74165711D01*
X144639289Y-74054211D01*
X144508179Y-73966606D01*
X144400647Y-73922065D01*
X144362502Y-73906265D01*
X144362497Y-73906263D01*
X144207844Y-73875500D01*
X144207842Y-73875500D01*
X143500158Y-73875500D01*
X143500155Y-73875500D01*
X143345502Y-73906263D01*
X143345497Y-73906265D01*
X143199820Y-73966606D01*
X143068715Y-74054208D01*
X143068708Y-74054213D01*
X142957213Y-74165708D01*
X142957208Y-74165715D01*
X142869605Y-74296821D01*
X142869603Y-74296825D01*
X142867161Y-74302722D01*
X142822611Y-74358002D01*
X142755247Y-74380420D01*
X142750754Y-74380500D01*
X140640880Y-74380500D01*
X140557590Y-74402818D01*
X140557587Y-74402819D01*
X140482913Y-74445932D01*
X140482907Y-74445937D01*
X140295965Y-74632880D01*
X139752910Y-75175935D01*
X139722423Y-75206422D01*
X139691936Y-75236908D01*
X139691932Y-75236913D01*
X139648819Y-75311587D01*
X139648818Y-75311590D01*
X139626500Y-75394880D01*
X139626500Y-75890628D01*
X139606498Y-75958749D01*
X139589595Y-75979723D01*
X139514803Y-76054514D01*
X139514801Y-76054517D01*
X139463427Y-76159605D01*
X139453500Y-76227738D01*
X139184500Y-76227738D01*
X139174573Y-76159607D01*
X139123198Y-76054517D01*
X139123196Y-76054514D01*
X139048405Y-75979723D01*
X139014379Y-75917411D01*
X139011500Y-75890628D01*
X139011500Y-74863845D01*
X139031502Y-74795724D01*
X139048405Y-74774750D01*
X139798750Y-74024405D01*
X139861062Y-73990379D01*
X139887845Y-73987500D01*
X142437116Y-73987500D01*
X142520410Y-73965181D01*
X142595090Y-73922065D01*
X143013654Y-73503499D01*
X143075964Y-73469476D01*
X143136558Y-73473190D01*
X143136816Y-73472011D01*
X143144297Y-73473645D01*
X143144298Y-73473645D01*
X143144301Y-73473646D01*
X143174734Y-73476500D01*
X143174736Y-73476500D01*
X144533264Y-73476500D01*
X144533266Y-73476500D01*
X144563699Y-73473646D01*
X144691882Y-73428793D01*
X144733694Y-73397935D01*
X144801150Y-73348150D01*
X144881791Y-73238885D01*
X144881793Y-73238881D01*
X144895093Y-73200874D01*
X144926646Y-73110699D01*
X144929500Y-73080266D01*
X144929500Y-72271734D01*
X144926646Y-72241301D01*
X144881793Y-72113118D01*
X144881791Y-72113114D01*
X144801150Y-72003849D01*
X144691885Y-71923208D01*
X144691881Y-71923206D01*
X144563704Y-71878355D01*
X144563700Y-71878354D01*
X144533266Y-71875500D01*
X143174734Y-71875500D01*
X143174733Y-71875500D01*
X143144299Y-71878354D01*
X143144295Y-71878355D01*
X143016118Y-71923206D01*
X143016114Y-71923208D01*
X142906849Y-72003849D01*
X142826208Y-72113114D01*
X142826206Y-72113118D01*
X142781355Y-72241295D01*
X142781354Y-72241299D01*
X142778500Y-72271733D01*
X142778500Y-72760155D01*
X142758498Y-72828276D01*
X142741595Y-72849250D01*
X142295250Y-73295595D01*
X142232938Y-73329621D01*
X142206155Y-73332500D01*
X141784374Y-73332500D01*
X141716253Y-73312498D01*
X141669760Y-73258842D01*
X141659656Y-73188568D01*
X141671177Y-73151161D01*
X141690957Y-73110700D01*
X141714573Y-73062393D01*
X141724500Y-72994260D01*
X141724500Y-71277740D01*
X141714573Y-71209607D01*
X141663198Y-71104517D01*
X141663196Y-71104514D01*
X141580485Y-71021803D01*
X141580482Y-71021801D01*
X141475394Y-70970427D01*
X141407261Y-70960500D01*
X141407260Y-70960500D01*
X141040740Y-70960500D01*
X141040738Y-70960500D01*
X140972605Y-70970427D01*
X140867517Y-71021801D01*
X140867514Y-71021803D01*
X140784803Y-71104514D01*
X140784801Y-71104517D01*
X140733427Y-71209605D01*
X140723500Y-71277738D01*
X140723500Y-72994261D01*
X140733427Y-73062393D01*
X140776823Y-73151161D01*
X140777112Y-73152856D01*
X140778240Y-73154158D01*
X140783068Y-73187738D01*
X140788772Y-73221145D01*
X140788098Y-73222727D01*
X140788344Y-73224432D01*
X140774257Y-73255275D01*
X140760988Y-73286479D01*
X140759564Y-73287447D01*
X140758850Y-73289012D01*
X140730344Y-73307331D01*
X140702292Y-73326421D01*
X140700106Y-73326764D01*
X140699124Y-73327396D01*
X140663626Y-73332500D01*
X140514374Y-73332500D01*
X140446253Y-73312498D01*
X140399760Y-73258842D01*
X140389656Y-73188568D01*
X140401177Y-73151161D01*
X140420957Y-73110700D01*
X140444573Y-73062393D01*
X140454500Y-72994260D01*
X140454500Y-71277740D01*
X140444573Y-71209607D01*
X140393198Y-71104517D01*
X140393196Y-71104514D01*
X140310485Y-71021803D01*
X140310482Y-71021801D01*
X140205394Y-70970427D01*
X140137261Y-70960500D01*
X140137260Y-70960500D01*
X139770740Y-70960500D01*
X139770738Y-70960500D01*
X139702605Y-70970427D01*
X139597517Y-71021801D01*
X139597514Y-71021803D01*
X139514803Y-71104514D01*
X139514801Y-71104517D01*
X139463427Y-71209605D01*
X139453500Y-71277738D01*
X139453500Y-72994261D01*
X139463427Y-73062393D01*
X139506823Y-73151161D01*
X139507112Y-73152856D01*
X139508240Y-73154158D01*
X139513068Y-73187738D01*
X139518772Y-73221145D01*
X139518098Y-73222727D01*
X139518344Y-73224432D01*
X139504257Y-73255275D01*
X139490988Y-73286479D01*
X139489564Y-73287447D01*
X139488850Y-73289012D01*
X139460344Y-73307331D01*
X139432292Y-73326421D01*
X139430106Y-73326764D01*
X139429124Y-73327396D01*
X139393626Y-73332500D01*
X139244374Y-73332500D01*
X139176253Y-73312498D01*
X139129760Y-73258842D01*
X139119656Y-73188568D01*
X139131177Y-73151161D01*
X139150957Y-73110700D01*
X139174573Y-73062393D01*
X139184500Y-72994260D01*
X139184500Y-71277740D01*
X139174573Y-71209607D01*
X139123198Y-71104517D01*
X139123196Y-71104514D01*
X139040485Y-71021803D01*
X139040482Y-71021801D01*
X138935394Y-70970427D01*
X138867261Y-70960500D01*
X138867260Y-70960500D01*
X138500740Y-70960500D01*
X138500738Y-70960500D01*
X138432605Y-70970427D01*
X138327517Y-71021801D01*
X138327514Y-71021803D01*
X138244803Y-71104514D01*
X138244801Y-71104517D01*
X138193427Y-71209605D01*
X138183500Y-71277738D01*
X138183500Y-72994261D01*
X138193427Y-73062394D01*
X138236883Y-73151285D01*
X138248832Y-73221268D01*
X138221048Y-73286603D01*
X138162352Y-73326544D01*
X138140138Y-73331544D01*
X138132885Y-73332499D01*
X138049590Y-73354818D01*
X137983169Y-73393166D01*
X137983167Y-73393167D01*
X137974910Y-73397935D01*
X137925199Y-73447645D01*
X137925166Y-73447677D01*
X137497345Y-73875500D01*
X137212910Y-74159935D01*
X137182423Y-74190422D01*
X137151936Y-74220908D01*
X137151932Y-74220913D01*
X137108819Y-74295587D01*
X137108818Y-74295590D01*
X137086500Y-74378880D01*
X137086500Y-75890628D01*
X137066498Y-75958749D01*
X137049595Y-75979723D01*
X136974803Y-76054514D01*
X136974801Y-76054517D01*
X136923427Y-76159605D01*
X136913500Y-76227738D01*
X136644500Y-76227738D01*
X136644500Y-71277738D01*
X136913500Y-71277738D01*
X136913500Y-72994261D01*
X136923427Y-73062394D01*
X136974801Y-73167482D01*
X136974803Y-73167485D01*
X137057514Y-73250196D01*
X137057517Y-73250198D01*
X137162607Y-73301573D01*
X137230740Y-73311500D01*
X137230745Y-73311500D01*
X137597255Y-73311500D01*
X137597260Y-73311500D01*
X137665393Y-73301573D01*
X137770483Y-73250198D01*
X137853198Y-73167483D01*
X137904573Y-73062393D01*
X137914500Y-72994260D01*
X137914500Y-71277740D01*
X137904573Y-71209607D01*
X137853198Y-71104517D01*
X137853196Y-71104514D01*
X137770485Y-71021803D01*
X137770482Y-71021801D01*
X137665394Y-70970427D01*
X137597261Y-70960500D01*
X137597260Y-70960500D01*
X137230740Y-70960500D01*
X137230738Y-70960500D01*
X137162605Y-70970427D01*
X137057517Y-71021801D01*
X137057514Y-71021803D01*
X136974803Y-71104514D01*
X136974801Y-71104517D01*
X136923427Y-71209605D01*
X136913500Y-71277738D01*
X136644500Y-71277738D01*
X136644500Y-71127078D01*
X136645292Y-71112971D01*
X136645355Y-71112407D01*
X136655836Y-71019388D01*
X136662112Y-70991894D01*
X136690865Y-70909724D01*
X136703098Y-70884320D01*
X136749416Y-70810605D01*
X136767002Y-70788554D01*
X136828554Y-70727002D01*
X136850605Y-70709416D01*
X136924320Y-70663098D01*
X136949724Y-70650865D01*
X137031894Y-70622112D01*
X137059388Y-70615836D01*
X137139780Y-70606778D01*
X137152972Y-70605292D01*
X137167079Y-70604500D01*
X137225892Y-70604500D01*
X145222108Y-70604500D01*
X145280921Y-70604500D01*
X145295028Y-70605292D01*
G37*
%TD.AperFunction*%
%TD*%
M02*
