%TF.GenerationSoftware,KiCad,Pcbnew,9.0.6-9.0.6~ubuntu22.04.1*%
%TF.CreationDate,2025-12-13T13:38:44-06:00*%
%TF.ProjectId,absolute_encoder_breakout,6162736f-6c75-4746-955f-656e636f6465,rev?*%
%TF.SameCoordinates,Original*%
%TF.FileFunction,Legend,Bot*%
%TF.FilePolarity,Positive*%
%FSLAX46Y46*%
G04 Gerber Fmt 4.6, Leading zero omitted, Abs format (unit mm)*
G04 Created by KiCad (PCBNEW 9.0.6-9.0.6~ubuntu22.04.1) date 2025-12-13 13:38:44*
%MOMM*%
%LPD*%
G01*
G04 APERTURE LIST*
%ADD10C,0.101600*%
%ADD11C,0.150000*%
%ADD12C,0.120000*%
G04 APERTURE END LIST*
D10*
X141925205Y-75952895D02*
X141755872Y-75952895D01*
X141683300Y-76218990D02*
X141925205Y-76218990D01*
X141925205Y-76218990D02*
X141925205Y-75710990D01*
X141925205Y-75710990D02*
X141683300Y-75710990D01*
X141465586Y-75880323D02*
X141465586Y-76218990D01*
X141465586Y-75928704D02*
X141441396Y-75904514D01*
X141441396Y-75904514D02*
X141393015Y-75880323D01*
X141393015Y-75880323D02*
X141320443Y-75880323D01*
X141320443Y-75880323D02*
X141272062Y-75904514D01*
X141272062Y-75904514D02*
X141247872Y-75952895D01*
X141247872Y-75952895D02*
X141247872Y-76218990D01*
X140788253Y-76194800D02*
X140836634Y-76218990D01*
X140836634Y-76218990D02*
X140933396Y-76218990D01*
X140933396Y-76218990D02*
X140981777Y-76194800D01*
X140981777Y-76194800D02*
X141005967Y-76170609D01*
X141005967Y-76170609D02*
X141030158Y-76122228D01*
X141030158Y-76122228D02*
X141030158Y-75977085D01*
X141030158Y-75977085D02*
X141005967Y-75928704D01*
X141005967Y-75928704D02*
X140981777Y-75904514D01*
X140981777Y-75904514D02*
X140933396Y-75880323D01*
X140933396Y-75880323D02*
X140836634Y-75880323D01*
X140836634Y-75880323D02*
X140788253Y-75904514D01*
X140497967Y-76218990D02*
X140546348Y-76194800D01*
X140546348Y-76194800D02*
X140570538Y-76170609D01*
X140570538Y-76170609D02*
X140594729Y-76122228D01*
X140594729Y-76122228D02*
X140594729Y-75977085D01*
X140594729Y-75977085D02*
X140570538Y-75928704D01*
X140570538Y-75928704D02*
X140546348Y-75904514D01*
X140546348Y-75904514D02*
X140497967Y-75880323D01*
X140497967Y-75880323D02*
X140425395Y-75880323D01*
X140425395Y-75880323D02*
X140377014Y-75904514D01*
X140377014Y-75904514D02*
X140352824Y-75928704D01*
X140352824Y-75928704D02*
X140328633Y-75977085D01*
X140328633Y-75977085D02*
X140328633Y-76122228D01*
X140328633Y-76122228D02*
X140352824Y-76170609D01*
X140352824Y-76170609D02*
X140377014Y-76194800D01*
X140377014Y-76194800D02*
X140425395Y-76218990D01*
X140425395Y-76218990D02*
X140497967Y-76218990D01*
X139893205Y-76218990D02*
X139893205Y-75710990D01*
X139893205Y-76194800D02*
X139941586Y-76218990D01*
X139941586Y-76218990D02*
X140038348Y-76218990D01*
X140038348Y-76218990D02*
X140086729Y-76194800D01*
X140086729Y-76194800D02*
X140110919Y-76170609D01*
X140110919Y-76170609D02*
X140135110Y-76122228D01*
X140135110Y-76122228D02*
X140135110Y-75977085D01*
X140135110Y-75977085D02*
X140110919Y-75928704D01*
X140110919Y-75928704D02*
X140086729Y-75904514D01*
X140086729Y-75904514D02*
X140038348Y-75880323D01*
X140038348Y-75880323D02*
X139941586Y-75880323D01*
X139941586Y-75880323D02*
X139893205Y-75904514D01*
X139457776Y-76194800D02*
X139506157Y-76218990D01*
X139506157Y-76218990D02*
X139602919Y-76218990D01*
X139602919Y-76218990D02*
X139651300Y-76194800D01*
X139651300Y-76194800D02*
X139675491Y-76146419D01*
X139675491Y-76146419D02*
X139675491Y-75952895D01*
X139675491Y-75952895D02*
X139651300Y-75904514D01*
X139651300Y-75904514D02*
X139602919Y-75880323D01*
X139602919Y-75880323D02*
X139506157Y-75880323D01*
X139506157Y-75880323D02*
X139457776Y-75904514D01*
X139457776Y-75904514D02*
X139433586Y-75952895D01*
X139433586Y-75952895D02*
X139433586Y-76001276D01*
X139433586Y-76001276D02*
X139675491Y-76049657D01*
X139215871Y-76218990D02*
X139215871Y-75880323D01*
X139215871Y-75977085D02*
X139191681Y-75928704D01*
X139191681Y-75928704D02*
X139167490Y-75904514D01*
X139167490Y-75904514D02*
X139119109Y-75880323D01*
X139119109Y-75880323D02*
X139070728Y-75880323D01*
X138345014Y-75952895D02*
X138272442Y-75977085D01*
X138272442Y-75977085D02*
X138248252Y-76001276D01*
X138248252Y-76001276D02*
X138224061Y-76049657D01*
X138224061Y-76049657D02*
X138224061Y-76122228D01*
X138224061Y-76122228D02*
X138248252Y-76170609D01*
X138248252Y-76170609D02*
X138272442Y-76194800D01*
X138272442Y-76194800D02*
X138320823Y-76218990D01*
X138320823Y-76218990D02*
X138514347Y-76218990D01*
X138514347Y-76218990D02*
X138514347Y-75710990D01*
X138514347Y-75710990D02*
X138345014Y-75710990D01*
X138345014Y-75710990D02*
X138296633Y-75735180D01*
X138296633Y-75735180D02*
X138272442Y-75759371D01*
X138272442Y-75759371D02*
X138248252Y-75807752D01*
X138248252Y-75807752D02*
X138248252Y-75856133D01*
X138248252Y-75856133D02*
X138272442Y-75904514D01*
X138272442Y-75904514D02*
X138296633Y-75928704D01*
X138296633Y-75928704D02*
X138345014Y-75952895D01*
X138345014Y-75952895D02*
X138514347Y-75952895D01*
X138006347Y-76218990D02*
X138006347Y-75880323D01*
X138006347Y-75977085D02*
X137982157Y-75928704D01*
X137982157Y-75928704D02*
X137957966Y-75904514D01*
X137957966Y-75904514D02*
X137909585Y-75880323D01*
X137909585Y-75880323D02*
X137861204Y-75880323D01*
X137691871Y-76218990D02*
X137691871Y-75710990D01*
X137643490Y-76025466D02*
X137498347Y-76218990D01*
X137498347Y-75880323D02*
X137691871Y-76073847D01*
X137208062Y-76218990D02*
X137256443Y-76194800D01*
X137256443Y-76194800D02*
X137280633Y-76170609D01*
X137280633Y-76170609D02*
X137304824Y-76122228D01*
X137304824Y-76122228D02*
X137304824Y-75977085D01*
X137304824Y-75977085D02*
X137280633Y-75928704D01*
X137280633Y-75928704D02*
X137256443Y-75904514D01*
X137256443Y-75904514D02*
X137208062Y-75880323D01*
X137208062Y-75880323D02*
X137135490Y-75880323D01*
X137135490Y-75880323D02*
X137087109Y-75904514D01*
X137087109Y-75904514D02*
X137062919Y-75928704D01*
X137062919Y-75928704D02*
X137038728Y-75977085D01*
X137038728Y-75977085D02*
X137038728Y-76122228D01*
X137038728Y-76122228D02*
X137062919Y-76170609D01*
X137062919Y-76170609D02*
X137087109Y-76194800D01*
X137087109Y-76194800D02*
X137135490Y-76218990D01*
X137135490Y-76218990D02*
X137208062Y-76218990D01*
X136603300Y-75880323D02*
X136603300Y-76218990D01*
X136821014Y-75880323D02*
X136821014Y-76146419D01*
X136821014Y-76146419D02*
X136796824Y-76194800D01*
X136796824Y-76194800D02*
X136748443Y-76218990D01*
X136748443Y-76218990D02*
X136675871Y-76218990D01*
X136675871Y-76218990D02*
X136627490Y-76194800D01*
X136627490Y-76194800D02*
X136603300Y-76170609D01*
X136433967Y-75880323D02*
X136240443Y-75880323D01*
X136361395Y-75710990D02*
X136361395Y-76146419D01*
X136361395Y-76146419D02*
X136337205Y-76194800D01*
X136337205Y-76194800D02*
X136288824Y-76218990D01*
X136288824Y-76218990D02*
X136240443Y-76218990D01*
X141634919Y-77036842D02*
X141804253Y-76794937D01*
X141925205Y-77036842D02*
X141925205Y-76528842D01*
X141925205Y-76528842D02*
X141731681Y-76528842D01*
X141731681Y-76528842D02*
X141683300Y-76553032D01*
X141683300Y-76553032D02*
X141659110Y-76577223D01*
X141659110Y-76577223D02*
X141634919Y-76625604D01*
X141634919Y-76625604D02*
X141634919Y-76698175D01*
X141634919Y-76698175D02*
X141659110Y-76746556D01*
X141659110Y-76746556D02*
X141683300Y-76770747D01*
X141683300Y-76770747D02*
X141731681Y-76794937D01*
X141731681Y-76794937D02*
X141925205Y-76794937D01*
X141223681Y-77012652D02*
X141272062Y-77036842D01*
X141272062Y-77036842D02*
X141368824Y-77036842D01*
X141368824Y-77036842D02*
X141417205Y-77012652D01*
X141417205Y-77012652D02*
X141441396Y-76964271D01*
X141441396Y-76964271D02*
X141441396Y-76770747D01*
X141441396Y-76770747D02*
X141417205Y-76722366D01*
X141417205Y-76722366D02*
X141368824Y-76698175D01*
X141368824Y-76698175D02*
X141272062Y-76698175D01*
X141272062Y-76698175D02*
X141223681Y-76722366D01*
X141223681Y-76722366D02*
X141199491Y-76770747D01*
X141199491Y-76770747D02*
X141199491Y-76819128D01*
X141199491Y-76819128D02*
X141441396Y-76867509D01*
X141030157Y-76698175D02*
X140909205Y-77036842D01*
X140909205Y-77036842D02*
X140788252Y-76698175D01*
X140328633Y-77036842D02*
X140618919Y-77036842D01*
X140473776Y-77036842D02*
X140473776Y-76528842D01*
X140473776Y-76528842D02*
X140522157Y-76601413D01*
X140522157Y-76601413D02*
X140570538Y-76649794D01*
X140570538Y-76649794D02*
X140618919Y-76673985D01*
X139748061Y-76577223D02*
X139723870Y-76553032D01*
X139723870Y-76553032D02*
X139675489Y-76528842D01*
X139675489Y-76528842D02*
X139554537Y-76528842D01*
X139554537Y-76528842D02*
X139506156Y-76553032D01*
X139506156Y-76553032D02*
X139481965Y-76577223D01*
X139481965Y-76577223D02*
X139457775Y-76625604D01*
X139457775Y-76625604D02*
X139457775Y-76673985D01*
X139457775Y-76673985D02*
X139481965Y-76746556D01*
X139481965Y-76746556D02*
X139772251Y-77036842D01*
X139772251Y-77036842D02*
X139457775Y-77036842D01*
X139143298Y-76528842D02*
X139094917Y-76528842D01*
X139094917Y-76528842D02*
X139046536Y-76553032D01*
X139046536Y-76553032D02*
X139022346Y-76577223D01*
X139022346Y-76577223D02*
X138998155Y-76625604D01*
X138998155Y-76625604D02*
X138973965Y-76722366D01*
X138973965Y-76722366D02*
X138973965Y-76843318D01*
X138973965Y-76843318D02*
X138998155Y-76940080D01*
X138998155Y-76940080D02*
X139022346Y-76988461D01*
X139022346Y-76988461D02*
X139046536Y-77012652D01*
X139046536Y-77012652D02*
X139094917Y-77036842D01*
X139094917Y-77036842D02*
X139143298Y-77036842D01*
X139143298Y-77036842D02*
X139191679Y-77012652D01*
X139191679Y-77012652D02*
X139215870Y-76988461D01*
X139215870Y-76988461D02*
X139240060Y-76940080D01*
X139240060Y-76940080D02*
X139264251Y-76843318D01*
X139264251Y-76843318D02*
X139264251Y-76722366D01*
X139264251Y-76722366D02*
X139240060Y-76625604D01*
X139240060Y-76625604D02*
X139215870Y-76577223D01*
X139215870Y-76577223D02*
X139191679Y-76553032D01*
X139191679Y-76553032D02*
X139143298Y-76528842D01*
X138780441Y-76577223D02*
X138756250Y-76553032D01*
X138756250Y-76553032D02*
X138707869Y-76528842D01*
X138707869Y-76528842D02*
X138586917Y-76528842D01*
X138586917Y-76528842D02*
X138538536Y-76553032D01*
X138538536Y-76553032D02*
X138514345Y-76577223D01*
X138514345Y-76577223D02*
X138490155Y-76625604D01*
X138490155Y-76625604D02*
X138490155Y-76673985D01*
X138490155Y-76673985D02*
X138514345Y-76746556D01*
X138514345Y-76746556D02*
X138804631Y-77036842D01*
X138804631Y-77036842D02*
X138490155Y-77036842D01*
X138054726Y-76528842D02*
X138151488Y-76528842D01*
X138151488Y-76528842D02*
X138199869Y-76553032D01*
X138199869Y-76553032D02*
X138224059Y-76577223D01*
X138224059Y-76577223D02*
X138272440Y-76649794D01*
X138272440Y-76649794D02*
X138296631Y-76746556D01*
X138296631Y-76746556D02*
X138296631Y-76940080D01*
X138296631Y-76940080D02*
X138272440Y-76988461D01*
X138272440Y-76988461D02*
X138248250Y-77012652D01*
X138248250Y-77012652D02*
X138199869Y-77036842D01*
X138199869Y-77036842D02*
X138103107Y-77036842D01*
X138103107Y-77036842D02*
X138054726Y-77012652D01*
X138054726Y-77012652D02*
X138030535Y-76988461D01*
X138030535Y-76988461D02*
X138006345Y-76940080D01*
X138006345Y-76940080D02*
X138006345Y-76819128D01*
X138006345Y-76819128D02*
X138030535Y-76770747D01*
X138030535Y-76770747D02*
X138054726Y-76746556D01*
X138054726Y-76746556D02*
X138103107Y-76722366D01*
X138103107Y-76722366D02*
X138199869Y-76722366D01*
X138199869Y-76722366D02*
X138248250Y-76746556D01*
X138248250Y-76746556D02*
X138272440Y-76770747D01*
X138272440Y-76770747D02*
X138296631Y-76819128D01*
X141683300Y-77854694D02*
X141925205Y-77854694D01*
X141925205Y-77854694D02*
X141925205Y-77346694D01*
X141296253Y-77516027D02*
X141296253Y-77854694D01*
X141513967Y-77516027D02*
X141513967Y-77782123D01*
X141513967Y-77782123D02*
X141489777Y-77830504D01*
X141489777Y-77830504D02*
X141441396Y-77854694D01*
X141441396Y-77854694D02*
X141368824Y-77854694D01*
X141368824Y-77854694D02*
X141320443Y-77830504D01*
X141320443Y-77830504D02*
X141296253Y-77806313D01*
X140836634Y-77830504D02*
X140885015Y-77854694D01*
X140885015Y-77854694D02*
X140981777Y-77854694D01*
X140981777Y-77854694D02*
X141030158Y-77830504D01*
X141030158Y-77830504D02*
X141054348Y-77806313D01*
X141054348Y-77806313D02*
X141078539Y-77757932D01*
X141078539Y-77757932D02*
X141078539Y-77612789D01*
X141078539Y-77612789D02*
X141054348Y-77564408D01*
X141054348Y-77564408D02*
X141030158Y-77540218D01*
X141030158Y-77540218D02*
X140981777Y-77516027D01*
X140981777Y-77516027D02*
X140885015Y-77516027D01*
X140885015Y-77516027D02*
X140836634Y-77540218D01*
X140401205Y-77854694D02*
X140401205Y-77588599D01*
X140401205Y-77588599D02*
X140425395Y-77540218D01*
X140425395Y-77540218D02*
X140473776Y-77516027D01*
X140473776Y-77516027D02*
X140570538Y-77516027D01*
X140570538Y-77516027D02*
X140618919Y-77540218D01*
X140401205Y-77830504D02*
X140449586Y-77854694D01*
X140449586Y-77854694D02*
X140570538Y-77854694D01*
X140570538Y-77854694D02*
X140618919Y-77830504D01*
X140618919Y-77830504D02*
X140643110Y-77782123D01*
X140643110Y-77782123D02*
X140643110Y-77733742D01*
X140643110Y-77733742D02*
X140618919Y-77685361D01*
X140618919Y-77685361D02*
X140570538Y-77661170D01*
X140570538Y-77661170D02*
X140449586Y-77661170D01*
X140449586Y-77661170D02*
X140401205Y-77636980D01*
X140183491Y-77830504D02*
X140135110Y-77854694D01*
X140135110Y-77854694D02*
X140038348Y-77854694D01*
X140038348Y-77854694D02*
X139989967Y-77830504D01*
X139989967Y-77830504D02*
X139965776Y-77782123D01*
X139965776Y-77782123D02*
X139965776Y-77757932D01*
X139965776Y-77757932D02*
X139989967Y-77709551D01*
X139989967Y-77709551D02*
X140038348Y-77685361D01*
X140038348Y-77685361D02*
X140110919Y-77685361D01*
X140110919Y-77685361D02*
X140159300Y-77661170D01*
X140159300Y-77661170D02*
X140183491Y-77612789D01*
X140183491Y-77612789D02*
X140183491Y-77588599D01*
X140183491Y-77588599D02*
X140159300Y-77540218D01*
X140159300Y-77540218D02*
X140110919Y-77516027D01*
X140110919Y-77516027D02*
X140038348Y-77516027D01*
X140038348Y-77516027D02*
X139989967Y-77540218D01*
X139191681Y-77588599D02*
X139119109Y-77612789D01*
X139119109Y-77612789D02*
X139094919Y-77636980D01*
X139094919Y-77636980D02*
X139070728Y-77685361D01*
X139070728Y-77685361D02*
X139070728Y-77757932D01*
X139070728Y-77757932D02*
X139094919Y-77806313D01*
X139094919Y-77806313D02*
X139119109Y-77830504D01*
X139119109Y-77830504D02*
X139167490Y-77854694D01*
X139167490Y-77854694D02*
X139361014Y-77854694D01*
X139361014Y-77854694D02*
X139361014Y-77346694D01*
X139361014Y-77346694D02*
X139191681Y-77346694D01*
X139191681Y-77346694D02*
X139143300Y-77370884D01*
X139143300Y-77370884D02*
X139119109Y-77395075D01*
X139119109Y-77395075D02*
X139094919Y-77443456D01*
X139094919Y-77443456D02*
X139094919Y-77491837D01*
X139094919Y-77491837D02*
X139119109Y-77540218D01*
X139119109Y-77540218D02*
X139143300Y-77564408D01*
X139143300Y-77564408D02*
X139191681Y-77588599D01*
X139191681Y-77588599D02*
X139361014Y-77588599D01*
X138780443Y-77854694D02*
X138828824Y-77830504D01*
X138828824Y-77830504D02*
X138853014Y-77806313D01*
X138853014Y-77806313D02*
X138877205Y-77757932D01*
X138877205Y-77757932D02*
X138877205Y-77612789D01*
X138877205Y-77612789D02*
X138853014Y-77564408D01*
X138853014Y-77564408D02*
X138828824Y-77540218D01*
X138828824Y-77540218D02*
X138780443Y-77516027D01*
X138780443Y-77516027D02*
X138707871Y-77516027D01*
X138707871Y-77516027D02*
X138659490Y-77540218D01*
X138659490Y-77540218D02*
X138635300Y-77564408D01*
X138635300Y-77564408D02*
X138611109Y-77612789D01*
X138611109Y-77612789D02*
X138611109Y-77757932D01*
X138611109Y-77757932D02*
X138635300Y-77806313D01*
X138635300Y-77806313D02*
X138659490Y-77830504D01*
X138659490Y-77830504D02*
X138707871Y-77854694D01*
X138707871Y-77854694D02*
X138780443Y-77854694D01*
X138199871Y-77830504D02*
X138248252Y-77854694D01*
X138248252Y-77854694D02*
X138345014Y-77854694D01*
X138345014Y-77854694D02*
X138393395Y-77830504D01*
X138393395Y-77830504D02*
X138417586Y-77782123D01*
X138417586Y-77782123D02*
X138417586Y-77588599D01*
X138417586Y-77588599D02*
X138393395Y-77540218D01*
X138393395Y-77540218D02*
X138345014Y-77516027D01*
X138345014Y-77516027D02*
X138248252Y-77516027D01*
X138248252Y-77516027D02*
X138199871Y-77540218D01*
X138199871Y-77540218D02*
X138175681Y-77588599D01*
X138175681Y-77588599D02*
X138175681Y-77636980D01*
X138175681Y-77636980D02*
X138417586Y-77685361D01*
X138006347Y-77516027D02*
X137885395Y-77854694D01*
X137764442Y-77516027D02*
X137885395Y-77854694D01*
X137885395Y-77854694D02*
X137933776Y-77975646D01*
X137933776Y-77975646D02*
X137957966Y-77999837D01*
X137957966Y-77999837D02*
X138006347Y-78024027D01*
X137570918Y-77854694D02*
X137570918Y-77516027D01*
X137570918Y-77346694D02*
X137595109Y-77370884D01*
X137595109Y-77370884D02*
X137570918Y-77395075D01*
X137570918Y-77395075D02*
X137546728Y-77370884D01*
X137546728Y-77370884D02*
X137570918Y-77346694D01*
X137570918Y-77346694D02*
X137570918Y-77395075D01*
X137329013Y-77516027D02*
X137329013Y-77854694D01*
X137329013Y-77564408D02*
X137304823Y-77540218D01*
X137304823Y-77540218D02*
X137256442Y-77516027D01*
X137256442Y-77516027D02*
X137183870Y-77516027D01*
X137183870Y-77516027D02*
X137135489Y-77540218D01*
X137135489Y-77540218D02*
X137111299Y-77588599D01*
X137111299Y-77588599D02*
X137111299Y-77854694D01*
X136869394Y-77854694D02*
X136869394Y-77346694D01*
X136821013Y-77661170D02*
X136675870Y-77854694D01*
X136675870Y-77516027D02*
X136869394Y-77709551D01*
X141997777Y-78164546D02*
X141707491Y-78164546D01*
X141852634Y-78672546D02*
X141852634Y-78164546D01*
X141586538Y-78333879D02*
X141465586Y-78672546D01*
X141344633Y-78333879D02*
X141465586Y-78672546D01*
X141465586Y-78672546D02*
X141513967Y-78793498D01*
X141513967Y-78793498D02*
X141538157Y-78817689D01*
X141538157Y-78817689D02*
X141586538Y-78841879D01*
X141078538Y-78672546D02*
X141126919Y-78648356D01*
X141126919Y-78648356D02*
X141151109Y-78599975D01*
X141151109Y-78599975D02*
X141151109Y-78164546D01*
X140691490Y-78648356D02*
X140739871Y-78672546D01*
X140739871Y-78672546D02*
X140836633Y-78672546D01*
X140836633Y-78672546D02*
X140885014Y-78648356D01*
X140885014Y-78648356D02*
X140909205Y-78599975D01*
X140909205Y-78599975D02*
X140909205Y-78406451D01*
X140909205Y-78406451D02*
X140885014Y-78358070D01*
X140885014Y-78358070D02*
X140836633Y-78333879D01*
X140836633Y-78333879D02*
X140739871Y-78333879D01*
X140739871Y-78333879D02*
X140691490Y-78358070D01*
X140691490Y-78358070D02*
X140667300Y-78406451D01*
X140667300Y-78406451D02*
X140667300Y-78454832D01*
X140667300Y-78454832D02*
X140909205Y-78503213D01*
X140449585Y-78672546D02*
X140449585Y-78333879D01*
X140449585Y-78430641D02*
X140425395Y-78382260D01*
X140425395Y-78382260D02*
X140401204Y-78358070D01*
X140401204Y-78358070D02*
X140352823Y-78333879D01*
X140352823Y-78333879D02*
X140304442Y-78333879D01*
X139748061Y-78672546D02*
X139748061Y-78164546D01*
X139748061Y-78406451D02*
X139457775Y-78406451D01*
X139457775Y-78672546D02*
X139457775Y-78164546D01*
X138998157Y-78333879D02*
X138998157Y-78672546D01*
X139215871Y-78333879D02*
X139215871Y-78599975D01*
X139215871Y-78599975D02*
X139191681Y-78648356D01*
X139191681Y-78648356D02*
X139143300Y-78672546D01*
X139143300Y-78672546D02*
X139070728Y-78672546D01*
X139070728Y-78672546D02*
X139022347Y-78648356D01*
X139022347Y-78648356D02*
X138998157Y-78624165D01*
X138538538Y-78333879D02*
X138538538Y-78745117D01*
X138538538Y-78745117D02*
X138562728Y-78793498D01*
X138562728Y-78793498D02*
X138586919Y-78817689D01*
X138586919Y-78817689D02*
X138635300Y-78841879D01*
X138635300Y-78841879D02*
X138707871Y-78841879D01*
X138707871Y-78841879D02*
X138756252Y-78817689D01*
X138538538Y-78648356D02*
X138586919Y-78672546D01*
X138586919Y-78672546D02*
X138683681Y-78672546D01*
X138683681Y-78672546D02*
X138732062Y-78648356D01*
X138732062Y-78648356D02*
X138756252Y-78624165D01*
X138756252Y-78624165D02*
X138780443Y-78575784D01*
X138780443Y-78575784D02*
X138780443Y-78430641D01*
X138780443Y-78430641D02*
X138756252Y-78382260D01*
X138756252Y-78382260D02*
X138732062Y-78358070D01*
X138732062Y-78358070D02*
X138683681Y-78333879D01*
X138683681Y-78333879D02*
X138586919Y-78333879D01*
X138586919Y-78333879D02*
X138538538Y-78358070D01*
X138296633Y-78672546D02*
X138296633Y-78164546D01*
X138078919Y-78672546D02*
X138078919Y-78406451D01*
X138078919Y-78406451D02*
X138103109Y-78358070D01*
X138103109Y-78358070D02*
X138151490Y-78333879D01*
X138151490Y-78333879D02*
X138224062Y-78333879D01*
X138224062Y-78333879D02*
X138272443Y-78358070D01*
X138272443Y-78358070D02*
X138296633Y-78382260D01*
X137643490Y-78648356D02*
X137691871Y-78672546D01*
X137691871Y-78672546D02*
X137788633Y-78672546D01*
X137788633Y-78672546D02*
X137837014Y-78648356D01*
X137837014Y-78648356D02*
X137861205Y-78599975D01*
X137861205Y-78599975D02*
X137861205Y-78406451D01*
X137861205Y-78406451D02*
X137837014Y-78358070D01*
X137837014Y-78358070D02*
X137788633Y-78333879D01*
X137788633Y-78333879D02*
X137691871Y-78333879D01*
X137691871Y-78333879D02*
X137643490Y-78358070D01*
X137643490Y-78358070D02*
X137619300Y-78406451D01*
X137619300Y-78406451D02*
X137619300Y-78454832D01*
X137619300Y-78454832D02*
X137861205Y-78503213D01*
X137425776Y-78648356D02*
X137377395Y-78672546D01*
X137377395Y-78672546D02*
X137280633Y-78672546D01*
X137280633Y-78672546D02*
X137232252Y-78648356D01*
X137232252Y-78648356D02*
X137208061Y-78599975D01*
X137208061Y-78599975D02*
X137208061Y-78575784D01*
X137208061Y-78575784D02*
X137232252Y-78527403D01*
X137232252Y-78527403D02*
X137280633Y-78503213D01*
X137280633Y-78503213D02*
X137353204Y-78503213D01*
X137353204Y-78503213D02*
X137401585Y-78479022D01*
X137401585Y-78479022D02*
X137425776Y-78430641D01*
X137425776Y-78430641D02*
X137425776Y-78406451D01*
X137425776Y-78406451D02*
X137401585Y-78358070D01*
X137401585Y-78358070D02*
X137353204Y-78333879D01*
X137353204Y-78333879D02*
X137280633Y-78333879D01*
X137280633Y-78333879D02*
X137232252Y-78358070D01*
D11*
X140684819Y-71216666D02*
X141399104Y-71216666D01*
X141399104Y-71216666D02*
X141541961Y-71169047D01*
X141541961Y-71169047D02*
X141637200Y-71073809D01*
X141637200Y-71073809D02*
X141684819Y-70930952D01*
X141684819Y-70930952D02*
X141684819Y-70835714D01*
X141684819Y-72216666D02*
X141684819Y-71645238D01*
X141684819Y-71930952D02*
X140684819Y-71930952D01*
X140684819Y-71930952D02*
X140827676Y-71835714D01*
X140827676Y-71835714D02*
X140922914Y-71740476D01*
X140922914Y-71740476D02*
X140970533Y-71645238D01*
X137707666Y-73606819D02*
X138040999Y-73130628D01*
X138279094Y-73606819D02*
X138279094Y-72606819D01*
X138279094Y-72606819D02*
X137898142Y-72606819D01*
X137898142Y-72606819D02*
X137802904Y-72654438D01*
X137802904Y-72654438D02*
X137755285Y-72702057D01*
X137755285Y-72702057D02*
X137707666Y-72797295D01*
X137707666Y-72797295D02*
X137707666Y-72940152D01*
X137707666Y-72940152D02*
X137755285Y-73035390D01*
X137755285Y-73035390D02*
X137802904Y-73083009D01*
X137802904Y-73083009D02*
X137898142Y-73130628D01*
X137898142Y-73130628D02*
X138279094Y-73130628D01*
X136755285Y-73606819D02*
X137326713Y-73606819D01*
X137040999Y-73606819D02*
X137040999Y-72606819D01*
X137040999Y-72606819D02*
X137136237Y-72749676D01*
X137136237Y-72749676D02*
X137231475Y-72844914D01*
X137231475Y-72844914D02*
X137326713Y-72892533D01*
X137834666Y-75162580D02*
X137882285Y-75210200D01*
X137882285Y-75210200D02*
X138025142Y-75257819D01*
X138025142Y-75257819D02*
X138120380Y-75257819D01*
X138120380Y-75257819D02*
X138263237Y-75210200D01*
X138263237Y-75210200D02*
X138358475Y-75114961D01*
X138358475Y-75114961D02*
X138406094Y-75019723D01*
X138406094Y-75019723D02*
X138453713Y-74829247D01*
X138453713Y-74829247D02*
X138453713Y-74686390D01*
X138453713Y-74686390D02*
X138406094Y-74495914D01*
X138406094Y-74495914D02*
X138358475Y-74400676D01*
X138358475Y-74400676D02*
X138263237Y-74305438D01*
X138263237Y-74305438D02*
X138120380Y-74257819D01*
X138120380Y-74257819D02*
X138025142Y-74257819D01*
X138025142Y-74257819D02*
X137882285Y-74305438D01*
X137882285Y-74305438D02*
X137834666Y-74353057D01*
X136882285Y-75257819D02*
X137453713Y-75257819D01*
X137167999Y-75257819D02*
X137167999Y-74257819D01*
X137167999Y-74257819D02*
X137263237Y-74400676D01*
X137263237Y-74400676D02*
X137358475Y-74495914D01*
X137358475Y-74495914D02*
X137453713Y-74543533D01*
D12*
%TO.C,J1*%
X142394000Y-70616000D02*
X150214000Y-70616000D01*
X142394000Y-71536000D02*
X142394000Y-70616000D01*
X142394000Y-77816000D02*
X143994000Y-77816000D01*
X142394000Y-78736000D02*
X142394000Y-77816000D01*
X143994000Y-70616000D02*
X143994000Y-71536000D01*
X143994000Y-71536000D02*
X142394000Y-71536000D01*
X143994000Y-71816000D02*
X142779000Y-71816000D01*
X143994000Y-71816000D02*
X143994000Y-71536000D01*
X143994000Y-77816000D02*
X143994000Y-77536000D01*
X143994000Y-78736000D02*
X143994000Y-77816000D01*
X145854000Y-73176000D02*
X145854000Y-76176000D01*
X145854000Y-76176000D02*
X150214000Y-76176000D01*
X146354000Y-71376000D02*
X147954000Y-71376000D01*
X146354000Y-72376000D02*
X146354000Y-71376000D01*
X146354000Y-76976000D02*
X146354000Y-77976000D01*
X146354000Y-77976000D02*
X147954000Y-77976000D01*
X147954000Y-71376000D02*
X147954000Y-72376000D01*
X147954000Y-71876000D02*
X150214000Y-71876000D01*
X147954000Y-72376000D02*
X146354000Y-72376000D01*
X147954000Y-72376000D02*
X150214000Y-72376000D01*
X147954000Y-76976000D02*
X146354000Y-76976000D01*
X147954000Y-77976000D02*
X147954000Y-76976000D01*
X150214000Y-70616000D02*
X150214000Y-78736000D01*
X150214000Y-73176000D02*
X145854000Y-73176000D01*
X150214000Y-78736000D02*
X142394000Y-78736000D01*
%TO.C,R1*%
X140462724Y-72629500D02*
X139953276Y-72629500D01*
X140462724Y-73674500D02*
X139953276Y-73674500D01*
%TO.C,C1*%
X140354267Y-74293000D02*
X140061733Y-74293000D01*
X140354267Y-75313000D02*
X140061733Y-75313000D01*
%TD*%
M02*
