%TF.GenerationSoftware,KiCad,Pcbnew,9.0.6-9.0.6~ubuntu22.04.1*%
%TF.CreationDate,2025-12-13T13:38:44-06:00*%
%TF.ProjectId,absolute_encoder_breakout,6162736f-6c75-4746-955f-656e636f6465,rev?*%
%TF.SameCoordinates,Original*%
%TF.FileFunction,Legend,Top*%
%TF.FilePolarity,Positive*%
%FSLAX46Y46*%
G04 Gerber Fmt 4.6, Leading zero omitted, Abs format (unit mm)*
G04 Created by KiCad (PCBNEW 9.0.6-9.0.6~ubuntu22.04.1) date 2025-12-13 13:38:44*
%MOMM*%
%LPD*%
G01*
G04 APERTURE LIST*
%ADD10C,0.047625*%
%ADD11C,0.069850*%
%ADD12C,0.074600*%
%ADD13C,0.063500*%
%ADD14C,0.150000*%
%ADD15C,0.120000*%
G04 APERTURE END LIST*
D10*
X142490104Y-72235760D02*
X142490104Y-72471617D01*
X142490104Y-72471617D02*
X142344961Y-72344617D01*
X142344961Y-72344617D02*
X142344961Y-72399046D01*
X142344961Y-72399046D02*
X142326818Y-72435332D01*
X142326818Y-72435332D02*
X142308675Y-72453474D01*
X142308675Y-72453474D02*
X142272389Y-72471617D01*
X142272389Y-72471617D02*
X142181675Y-72471617D01*
X142181675Y-72471617D02*
X142145389Y-72453474D01*
X142145389Y-72453474D02*
X142127247Y-72435332D01*
X142127247Y-72435332D02*
X142109104Y-72399046D01*
X142109104Y-72399046D02*
X142109104Y-72290189D01*
X142109104Y-72290189D02*
X142127247Y-72253903D01*
X142127247Y-72253903D02*
X142145389Y-72235760D01*
X142490104Y-72580474D02*
X142109104Y-72707474D01*
X142109104Y-72707474D02*
X142490104Y-72834474D01*
X142490104Y-72925188D02*
X142490104Y-73161045D01*
X142490104Y-73161045D02*
X142344961Y-73034045D01*
X142344961Y-73034045D02*
X142344961Y-73088474D01*
X142344961Y-73088474D02*
X142326818Y-73124760D01*
X142326818Y-73124760D02*
X142308675Y-73142902D01*
X142308675Y-73142902D02*
X142272389Y-73161045D01*
X142272389Y-73161045D02*
X142181675Y-73161045D01*
X142181675Y-73161045D02*
X142145389Y-73142902D01*
X142145389Y-73142902D02*
X142127247Y-73124760D01*
X142127247Y-73124760D02*
X142109104Y-73088474D01*
X142109104Y-73088474D02*
X142109104Y-72979617D01*
X142109104Y-72979617D02*
X142127247Y-72943331D01*
X142127247Y-72943331D02*
X142145389Y-72925188D01*
D11*
X137439739Y-70483332D02*
X137058739Y-70483332D01*
X137058739Y-70483332D02*
X137439739Y-70265618D01*
X137439739Y-70265618D02*
X137058739Y-70265618D01*
D12*
X141521350Y-70490350D02*
X141539492Y-70435922D01*
X141539492Y-70435922D02*
X141539492Y-70345207D01*
X141539492Y-70345207D02*
X141521350Y-70308922D01*
X141521350Y-70308922D02*
X141503207Y-70290779D01*
X141503207Y-70290779D02*
X141466921Y-70272636D01*
X141466921Y-70272636D02*
X141430635Y-70272636D01*
X141430635Y-70272636D02*
X141394350Y-70290779D01*
X141394350Y-70290779D02*
X141376207Y-70308922D01*
X141376207Y-70308922D02*
X141358064Y-70345207D01*
X141358064Y-70345207D02*
X141339921Y-70417779D01*
X141339921Y-70417779D02*
X141321778Y-70454064D01*
X141321778Y-70454064D02*
X141303635Y-70472207D01*
X141303635Y-70472207D02*
X141267350Y-70490350D01*
X141267350Y-70490350D02*
X141231064Y-70490350D01*
X141231064Y-70490350D02*
X141194778Y-70472207D01*
X141194778Y-70472207D02*
X141176635Y-70454064D01*
X141176635Y-70454064D02*
X141158492Y-70417779D01*
X141158492Y-70417779D02*
X141158492Y-70327064D01*
X141158492Y-70327064D02*
X141176635Y-70272636D01*
D13*
X141669803Y-70458224D02*
X141669803Y-70264700D01*
D10*
X142481961Y-76521617D02*
X142500104Y-76485332D01*
X142500104Y-76485332D02*
X142500104Y-76430903D01*
X142500104Y-76430903D02*
X142481961Y-76376474D01*
X142481961Y-76376474D02*
X142445675Y-76340189D01*
X142445675Y-76340189D02*
X142409389Y-76322046D01*
X142409389Y-76322046D02*
X142336818Y-76303903D01*
X142336818Y-76303903D02*
X142282389Y-76303903D01*
X142282389Y-76303903D02*
X142209818Y-76322046D01*
X142209818Y-76322046D02*
X142173532Y-76340189D01*
X142173532Y-76340189D02*
X142137247Y-76376474D01*
X142137247Y-76376474D02*
X142119104Y-76430903D01*
X142119104Y-76430903D02*
X142119104Y-76467189D01*
X142119104Y-76467189D02*
X142137247Y-76521617D01*
X142137247Y-76521617D02*
X142155389Y-76539760D01*
X142155389Y-76539760D02*
X142282389Y-76539760D01*
X142282389Y-76539760D02*
X142282389Y-76467189D01*
X142119104Y-76703046D02*
X142500104Y-76703046D01*
X142500104Y-76703046D02*
X142119104Y-76920760D01*
X142119104Y-76920760D02*
X142500104Y-76920760D01*
X142119104Y-77102189D02*
X142500104Y-77102189D01*
X142500104Y-77102189D02*
X142500104Y-77192903D01*
X142500104Y-77192903D02*
X142481961Y-77247332D01*
X142481961Y-77247332D02*
X142445675Y-77283617D01*
X142445675Y-77283617D02*
X142409389Y-77301760D01*
X142409389Y-77301760D02*
X142336818Y-77319903D01*
X142336818Y-77319903D02*
X142282389Y-77319903D01*
X142282389Y-77319903D02*
X142209818Y-77301760D01*
X142209818Y-77301760D02*
X142173532Y-77283617D01*
X142173532Y-77283617D02*
X142137247Y-77247332D01*
X142137247Y-77247332D02*
X142119104Y-77192903D01*
X142119104Y-77192903D02*
X142119104Y-77102189D01*
X142139104Y-74232046D02*
X142520104Y-74232046D01*
X142520104Y-74232046D02*
X142520104Y-74377189D01*
X142520104Y-74377189D02*
X142501961Y-74413474D01*
X142501961Y-74413474D02*
X142483818Y-74431617D01*
X142483818Y-74431617D02*
X142447532Y-74449760D01*
X142447532Y-74449760D02*
X142393104Y-74449760D01*
X142393104Y-74449760D02*
X142356818Y-74431617D01*
X142356818Y-74431617D02*
X142338675Y-74413474D01*
X142338675Y-74413474D02*
X142320532Y-74377189D01*
X142320532Y-74377189D02*
X142320532Y-74232046D01*
X142520104Y-74576760D02*
X142139104Y-74667474D01*
X142139104Y-74667474D02*
X142411247Y-74740046D01*
X142411247Y-74740046D02*
X142139104Y-74812617D01*
X142139104Y-74812617D02*
X142520104Y-74903332D01*
X142139104Y-75048475D02*
X142520104Y-75048475D01*
X142520104Y-75048475D02*
X142247961Y-75175475D01*
X142247961Y-75175475D02*
X142520104Y-75302475D01*
X142520104Y-75302475D02*
X142139104Y-75302475D01*
D13*
X137559803Y-70458224D02*
X137559803Y-70264700D01*
D14*
X138773819Y-75372904D02*
X139583342Y-75372904D01*
X139583342Y-75372904D02*
X139678580Y-75325285D01*
X139678580Y-75325285D02*
X139726200Y-75277666D01*
X139726200Y-75277666D02*
X139773819Y-75182428D01*
X139773819Y-75182428D02*
X139773819Y-74991952D01*
X139773819Y-74991952D02*
X139726200Y-74896714D01*
X139726200Y-74896714D02*
X139678580Y-74849095D01*
X139678580Y-74849095D02*
X139583342Y-74801476D01*
X139583342Y-74801476D02*
X138773819Y-74801476D01*
X139773819Y-73801476D02*
X139773819Y-74372904D01*
X139773819Y-74087190D02*
X138773819Y-74087190D01*
X138773819Y-74087190D02*
X138916676Y-74182428D01*
X138916676Y-74182428D02*
X139011914Y-74277666D01*
X139011914Y-74277666D02*
X139059533Y-74372904D01*
D15*
%TO.C,U1*%
X136759000Y-74611000D02*
X136759000Y-72661000D01*
X136759000Y-74611000D02*
X136759000Y-76561000D01*
X141879000Y-74611000D02*
X141879000Y-72661000D01*
X141879000Y-74611000D02*
X141879000Y-76561000D01*
X136854000Y-77311000D02*
X136524000Y-77551000D01*
X136524000Y-77071000D01*
X136854000Y-77311000D01*
G36*
X136854000Y-77311000D02*
G01*
X136524000Y-77551000D01*
X136524000Y-77071000D01*
X136854000Y-77311000D01*
G37*
%TD*%
M02*
