%TF.GenerationSoftware,KiCad,Pcbnew,9.0.6-9.0.6~ubuntu22.04.1*%
%TF.CreationDate,2025-12-13T13:38:44-06:00*%
%TF.ProjectId,absolute_encoder_breakout,6162736f-6c75-4746-955f-656e636f6465,rev?*%
%TF.SameCoordinates,Original*%
%TF.FileFunction,Copper,L2,Bot*%
%TF.FilePolarity,Positive*%
%FSLAX46Y46*%
G04 Gerber Fmt 4.6, Leading zero omitted, Abs format (unit mm)*
G04 Created by KiCad (PCBNEW 9.0.6-9.0.6~ubuntu22.04.1) date 2025-12-13 13:38:44*
%MOMM*%
%LPD*%
G01*
G04 APERTURE LIST*
G04 Aperture macros list*
%AMRoundRect*
0 Rectangle with rounded corners*
0 $1 Rounding radius*
0 $2 $3 $4 $5 $6 $7 $8 $9 X,Y pos of 4 corners*
0 Add a 4 corners polygon primitive as box body*
4,1,4,$2,$3,$4,$5,$6,$7,$8,$9,$2,$3,0*
0 Add four circle primitives for the rounded corners*
1,1,$1+$1,$2,$3*
1,1,$1+$1,$4,$5*
1,1,$1+$1,$6,$7*
1,1,$1+$1,$8,$9*
0 Add four rect primitives between the rounded corners*
20,1,$1+$1,$2,$3,$4,$5,0*
20,1,$1+$1,$4,$5,$6,$7,0*
20,1,$1+$1,$6,$7,$8,$9,0*
20,1,$1+$1,$8,$9,$2,$3,0*%
G04 Aperture macros list end*
%TA.AperFunction,ComponentPad*%
%ADD10RoundRect,0.250000X-0.625000X0.350000X-0.625000X-0.350000X0.625000X-0.350000X0.625000X0.350000X0*%
%TD*%
%TA.AperFunction,ComponentPad*%
%ADD11O,1.750000X1.200000*%
%TD*%
%TA.AperFunction,SMDPad,CuDef*%
%ADD12RoundRect,0.237500X0.250000X0.237500X-0.250000X0.237500X-0.250000X-0.237500X0.250000X-0.237500X0*%
%TD*%
%TA.AperFunction,SMDPad,CuDef*%
%ADD13RoundRect,0.237500X0.300000X0.237500X-0.300000X0.237500X-0.300000X-0.237500X0.300000X-0.237500X0*%
%TD*%
%TA.AperFunction,ViaPad*%
%ADD14C,0.600000*%
%TD*%
%TA.AperFunction,Conductor*%
%ADD15C,0.254000*%
%TD*%
G04 APERTURE END LIST*
D10*
%TO.P,J1,1,Pin_1*%
%TO.N,Net-(J1-Pin_1)*%
X143854000Y-72676000D03*
D11*
%TO.P,J1,2,Pin_2*%
%TO.N,Net-(J1-Pin_2)*%
X143854000Y-74676000D03*
%TO.P,J1,3,Pin_3*%
%TO.N,GND*%
X143854000Y-76676000D03*
%TD*%
D12*
%TO.P,R1,1*%
%TO.N,Net-(J1-Pin_1)*%
X141120500Y-73152000D03*
%TO.P,R1,2*%
%TO.N,Net-(U1-DIR)*%
X139295500Y-73152000D03*
%TD*%
D13*
%TO.P,C1,1*%
%TO.N,Net-(J1-Pin_1)*%
X141070500Y-74803000D03*
%TO.P,C1,2*%
%TO.N,GND*%
X139345500Y-74803000D03*
%TD*%
D14*
%TO.N,Net-(U1-DIR)*%
X137414000Y-72136000D03*
%TO.N,GND*%
X138049000Y-74803000D03*
%TD*%
D15*
%TO.N,Net-(U1-DIR)*%
X137414000Y-72898000D02*
X137414000Y-72136000D01*
X139295500Y-73152000D02*
X137668000Y-73152000D01*
X137668000Y-73152000D02*
X137414000Y-72898000D01*
%TO.N,Net-(J1-Pin_1)*%
X141097000Y-74776500D02*
X141097000Y-73175500D01*
X143346000Y-72708000D02*
X142430000Y-72708000D01*
X142430000Y-72708000D02*
X141986000Y-73152000D01*
X141097000Y-73175500D02*
X141120500Y-73152000D01*
X141070500Y-74803000D02*
X141097000Y-74776500D01*
X141986000Y-73152000D02*
X141120500Y-73152000D01*
%TD*%
%TA.AperFunction,Conductor*%
%TO.N,GND*%
G36*
X145295028Y-70605292D02*
G01*
X145310292Y-70607011D01*
X145388609Y-70615836D01*
X145416107Y-70622112D01*
X145498271Y-70650863D01*
X145523682Y-70663100D01*
X145597390Y-70709414D01*
X145619449Y-70727006D01*
X145680993Y-70788550D01*
X145698585Y-70810609D01*
X145744896Y-70884312D01*
X145757138Y-70909733D01*
X145785885Y-70991887D01*
X145792164Y-71019394D01*
X145802708Y-71112970D01*
X145803500Y-71127078D01*
X145803500Y-78224921D01*
X145802708Y-78239029D01*
X145792164Y-78332605D01*
X145785885Y-78360112D01*
X145757138Y-78442266D01*
X145744896Y-78467687D01*
X145698585Y-78541390D01*
X145680993Y-78563449D01*
X145619449Y-78624993D01*
X145597390Y-78642585D01*
X145523687Y-78688896D01*
X145498266Y-78701138D01*
X145416112Y-78729885D01*
X145388605Y-78736164D01*
X145295029Y-78746708D01*
X145280921Y-78747500D01*
X137167079Y-78747500D01*
X137152971Y-78746708D01*
X137059394Y-78736164D01*
X137031887Y-78729885D01*
X136949733Y-78701138D01*
X136924312Y-78688896D01*
X136850609Y-78642585D01*
X136828550Y-78624993D01*
X136767006Y-78563449D01*
X136749414Y-78541390D01*
X136703100Y-78467682D01*
X136690863Y-78442271D01*
X136662112Y-78360107D01*
X136655836Y-78332609D01*
X136645292Y-78239028D01*
X136644500Y-78224921D01*
X136644500Y-74512741D01*
X140332500Y-74512741D01*
X140332500Y-75093258D01*
X140335275Y-75122849D01*
X140335276Y-75122854D01*
X140378883Y-75247474D01*
X140378884Y-75247475D01*
X140457289Y-75353711D01*
X140563525Y-75432116D01*
X140563524Y-75432116D01*
X140688145Y-75475723D01*
X140688151Y-75475725D01*
X140717744Y-75478500D01*
X140717747Y-75478500D01*
X141423253Y-75478500D01*
X141423256Y-75478500D01*
X141452849Y-75475725D01*
X141577475Y-75432116D01*
X141683711Y-75353711D01*
X141762116Y-75247475D01*
X141805725Y-75122849D01*
X141808500Y-75093256D01*
X141808500Y-74597155D01*
X142778500Y-74597155D01*
X142778500Y-74597158D01*
X142778500Y-74754842D01*
X142809263Y-74909497D01*
X142869606Y-75055179D01*
X142957211Y-75186289D01*
X143068711Y-75297789D01*
X143199821Y-75385394D01*
X143345503Y-75445737D01*
X143500158Y-75476500D01*
X143500159Y-75476500D01*
X144207841Y-75476500D01*
X144207842Y-75476500D01*
X144362497Y-75445737D01*
X144508179Y-75385394D01*
X144639289Y-75297789D01*
X144750789Y-75186289D01*
X144838394Y-75055179D01*
X144898737Y-74909497D01*
X144929500Y-74754842D01*
X144929500Y-74597158D01*
X144898737Y-74442503D01*
X144838394Y-74296821D01*
X144750789Y-74165711D01*
X144639289Y-74054211D01*
X144508179Y-73966606D01*
X144405429Y-73924046D01*
X144362502Y-73906265D01*
X144362497Y-73906263D01*
X144207844Y-73875500D01*
X144207842Y-73875500D01*
X143500158Y-73875500D01*
X143500155Y-73875500D01*
X143345502Y-73906263D01*
X143345497Y-73906265D01*
X143199820Y-73966606D01*
X143068715Y-74054208D01*
X143068708Y-74054213D01*
X142957213Y-74165708D01*
X142957208Y-74165715D01*
X142869606Y-74296820D01*
X142809265Y-74442497D01*
X142809263Y-74442502D01*
X142778500Y-74597155D01*
X141808500Y-74597155D01*
X141808500Y-74512744D01*
X141805725Y-74483151D01*
X141791501Y-74442503D01*
X141762116Y-74358525D01*
X141683711Y-74252289D01*
X141577475Y-74173884D01*
X141577474Y-74173883D01*
X141577475Y-74173883D01*
X141508884Y-74149882D01*
X141489587Y-74136041D01*
X141467988Y-74126177D01*
X141461278Y-74115736D01*
X141451193Y-74108503D01*
X141442441Y-74086426D01*
X141429604Y-74066451D01*
X141426804Y-74046978D01*
X141425030Y-74042503D01*
X141424500Y-74030953D01*
X141424500Y-73924046D01*
X141444502Y-73855925D01*
X141498158Y-73809432D01*
X141508867Y-73805123D01*
X141577475Y-73781116D01*
X141683711Y-73702711D01*
X141762116Y-73596475D01*
X141765821Y-73585886D01*
X141773521Y-73563884D01*
X141814900Y-73506192D01*
X141880901Y-73480030D01*
X141892450Y-73479500D01*
X142029116Y-73479500D01*
X142112410Y-73457181D01*
X142187090Y-73414065D01*
X142528751Y-73072403D01*
X142556117Y-73057460D01*
X142582347Y-73040604D01*
X142588648Y-73039697D01*
X142591062Y-73038380D01*
X142617845Y-73035500D01*
X142665639Y-73035500D01*
X142733760Y-73055502D01*
X142780253Y-73109158D01*
X142784568Y-73119885D01*
X142826206Y-73238881D01*
X142826208Y-73238885D01*
X142906849Y-73348150D01*
X143016114Y-73428791D01*
X143016118Y-73428793D01*
X143139179Y-73471854D01*
X143144301Y-73473646D01*
X143174734Y-73476500D01*
X143174736Y-73476500D01*
X144533264Y-73476500D01*
X144533266Y-73476500D01*
X144563699Y-73473646D01*
X144691882Y-73428793D01*
X144801150Y-73348150D01*
X144881793Y-73238882D01*
X144926646Y-73110699D01*
X144929500Y-73080266D01*
X144929500Y-72271734D01*
X144926646Y-72241301D01*
X144881793Y-72113118D01*
X144881791Y-72113114D01*
X144801150Y-72003849D01*
X144691885Y-71923208D01*
X144691881Y-71923206D01*
X144563704Y-71878355D01*
X144563700Y-71878354D01*
X144533266Y-71875500D01*
X143174734Y-71875500D01*
X143174733Y-71875500D01*
X143144299Y-71878354D01*
X143144295Y-71878355D01*
X143016118Y-71923206D01*
X143016114Y-71923208D01*
X142906849Y-72003849D01*
X142826208Y-72113114D01*
X142826206Y-72113118D01*
X142781355Y-72241295D01*
X142781354Y-72241299D01*
X142779013Y-72266265D01*
X142752737Y-72332220D01*
X142694975Y-72373500D01*
X142653563Y-72380500D01*
X142386880Y-72380500D01*
X142303590Y-72402818D01*
X142303587Y-72402819D01*
X142228913Y-72445932D01*
X142228903Y-72445940D01*
X141952784Y-72722060D01*
X141890472Y-72756086D01*
X141819657Y-72751021D01*
X141762821Y-72708474D01*
X141762310Y-72707787D01*
X141731724Y-72666345D01*
X141683711Y-72601289D01*
X141577475Y-72522884D01*
X141577474Y-72522883D01*
X141577475Y-72522883D01*
X141452854Y-72479276D01*
X141452849Y-72479275D01*
X141423258Y-72476500D01*
X141423256Y-72476500D01*
X140817744Y-72476500D01*
X140817741Y-72476500D01*
X140788150Y-72479275D01*
X140788145Y-72479276D01*
X140663525Y-72522883D01*
X140557289Y-72601289D01*
X140478883Y-72707525D01*
X140435276Y-72832145D01*
X140435275Y-72832150D01*
X140432500Y-72861741D01*
X140432500Y-73442258D01*
X140435275Y-73471849D01*
X140435276Y-73471854D01*
X140478883Y-73596474D01*
X140478884Y-73596475D01*
X140557289Y-73702711D01*
X140663525Y-73781116D01*
X140685114Y-73788670D01*
X140704410Y-73802509D01*
X140726012Y-73812375D01*
X140732720Y-73822812D01*
X140742804Y-73830045D01*
X140751556Y-73852122D01*
X140764396Y-73872101D01*
X140767195Y-73891570D01*
X140768969Y-73896044D01*
X140769500Y-73907599D01*
X140769500Y-74012407D01*
X140749498Y-74080528D01*
X140695842Y-74127021D01*
X140685116Y-74131336D01*
X140563525Y-74173883D01*
X140457289Y-74252289D01*
X140378883Y-74358525D01*
X140335276Y-74483145D01*
X140335275Y-74483150D01*
X140332500Y-74512741D01*
X136644500Y-74512741D01*
X136644500Y-72070108D01*
X136913500Y-72070108D01*
X136913500Y-72201892D01*
X136924058Y-72241295D01*
X136947607Y-72329183D01*
X136947610Y-72329190D01*
X137013497Y-72443310D01*
X137013499Y-72443313D01*
X137013500Y-72443314D01*
X137049595Y-72479409D01*
X137083620Y-72541719D01*
X137086500Y-72568504D01*
X137086500Y-72941119D01*
X137108818Y-73024409D01*
X137108819Y-73024412D01*
X137151932Y-73099086D01*
X137151940Y-73099096D01*
X137466903Y-73414059D01*
X137466907Y-73414062D01*
X137466910Y-73414065D01*
X137466911Y-73414066D01*
X137466913Y-73414067D01*
X137541587Y-73457180D01*
X137541590Y-73457181D01*
X137603029Y-73473644D01*
X137624884Y-73479500D01*
X137711116Y-73479500D01*
X138523550Y-73479500D01*
X138591671Y-73499502D01*
X138638164Y-73553158D01*
X138642479Y-73563884D01*
X138653883Y-73596474D01*
X138653884Y-73596475D01*
X138732289Y-73702711D01*
X138838525Y-73781116D01*
X138838524Y-73781116D01*
X138927857Y-73812375D01*
X138963151Y-73824725D01*
X138992744Y-73827500D01*
X138992747Y-73827500D01*
X139598253Y-73827500D01*
X139598256Y-73827500D01*
X139627849Y-73824725D01*
X139752475Y-73781116D01*
X139858711Y-73702711D01*
X139937116Y-73596475D01*
X139980725Y-73471849D01*
X139983500Y-73442256D01*
X139983500Y-72861744D01*
X139980725Y-72832151D01*
X139973695Y-72812062D01*
X139937116Y-72707525D01*
X139930455Y-72698500D01*
X139858711Y-72601289D01*
X139752475Y-72522884D01*
X139752474Y-72522883D01*
X139752475Y-72522883D01*
X139627854Y-72479276D01*
X139627849Y-72479275D01*
X139598258Y-72476500D01*
X139598256Y-72476500D01*
X138992744Y-72476500D01*
X138992741Y-72476500D01*
X138963150Y-72479275D01*
X138963145Y-72479276D01*
X138838525Y-72522883D01*
X138732289Y-72601289D01*
X138653883Y-72707525D01*
X138642479Y-72740116D01*
X138601100Y-72797808D01*
X138535099Y-72823970D01*
X138523550Y-72824500D01*
X137867500Y-72824500D01*
X137858674Y-72821908D01*
X137849568Y-72823218D01*
X137825142Y-72812062D01*
X137799379Y-72804498D01*
X137793354Y-72797544D01*
X137784988Y-72793724D01*
X137770473Y-72771138D01*
X137752886Y-72750842D01*
X137750561Y-72740155D01*
X137746604Y-72733998D01*
X137741500Y-72698500D01*
X137741500Y-72568504D01*
X137761502Y-72500383D01*
X137778401Y-72479412D01*
X137814500Y-72443314D01*
X137880392Y-72329186D01*
X137914500Y-72201892D01*
X137914500Y-72070108D01*
X137880392Y-71942814D01*
X137860815Y-71908906D01*
X137814502Y-71828689D01*
X137814494Y-71828679D01*
X137721320Y-71735505D01*
X137721310Y-71735497D01*
X137607190Y-71669610D01*
X137607187Y-71669609D01*
X137607186Y-71669608D01*
X137607184Y-71669607D01*
X137607183Y-71669607D01*
X137573073Y-71660467D01*
X137479892Y-71635500D01*
X137348108Y-71635500D01*
X137279894Y-71653777D01*
X137220816Y-71669607D01*
X137220809Y-71669610D01*
X137106689Y-71735497D01*
X137106679Y-71735505D01*
X137013505Y-71828679D01*
X137013497Y-71828689D01*
X136947610Y-71942809D01*
X136947607Y-71942816D01*
X136925983Y-72023517D01*
X136913500Y-72070108D01*
X136644500Y-72070108D01*
X136644500Y-71127078D01*
X136645292Y-71112971D01*
X136651924Y-71054108D01*
X136655836Y-71019388D01*
X136662112Y-70991894D01*
X136690865Y-70909724D01*
X136703098Y-70884320D01*
X136749416Y-70810605D01*
X136767002Y-70788554D01*
X136828554Y-70727002D01*
X136850605Y-70709416D01*
X136924320Y-70663098D01*
X136949724Y-70650865D01*
X137031894Y-70622112D01*
X137059388Y-70615836D01*
X137139780Y-70606778D01*
X137152972Y-70605292D01*
X137167079Y-70604500D01*
X137225892Y-70604500D01*
X145222108Y-70604500D01*
X145280921Y-70604500D01*
X145295028Y-70605292D01*
G37*
%TD.AperFunction*%
%TD*%
M02*
