%TF.GenerationSoftware,KiCad,Pcbnew,9.0.8-9.0.8~ubuntu22.04.1*%
%TF.CreationDate,2026-03-23T11:58:49-05:00*%
%TF.ProjectId,Main_Board,4d61696e-5f42-46f6-9172-642e6b696361,rev?*%
%TF.SameCoordinates,Original*%
%TF.FileFunction,Copper,L2,Bot*%
%TF.FilePolarity,Positive*%
%FSLAX46Y46*%
G04 Gerber Fmt 4.6, Leading zero omitted, Abs format (unit mm)*
G04 Created by KiCad (PCBNEW 9.0.8-9.0.8~ubuntu22.04.1) date 2026-03-23 11:58:49*
%MOMM*%
%LPD*%
G01*
G04 APERTURE LIST*
G04 Aperture macros list*
%AMRoundRect*
0 Rectangle with rounded corners*
0 $1 Rounding radius*
0 $2 $3 $4 $5 $6 $7 $8 $9 X,Y pos of 4 corners*
0 Add a 4 corners polygon primitive as box body*
4,1,4,$2,$3,$4,$5,$6,$7,$8,$9,$2,$3,0*
0 Add four circle primitives for the rounded corners*
1,1,$1+$1,$2,$3*
1,1,$1+$1,$4,$5*
1,1,$1+$1,$6,$7*
1,1,$1+$1,$8,$9*
0 Add four rect primitives between the rounded corners*
20,1,$1+$1,$2,$3,$4,$5,0*
20,1,$1+$1,$4,$5,$6,$7,0*
20,1,$1+$1,$6,$7,$8,$9,0*
20,1,$1+$1,$8,$9,$2,$3,0*%
G04 Aperture macros list end*
%TA.AperFunction,ComponentPad*%
%ADD10C,0.800000*%
%TD*%
%TA.AperFunction,ComponentPad*%
%ADD11C,6.400000*%
%TD*%
%TA.AperFunction,ComponentPad*%
%ADD12O,2.200000X3.500000*%
%TD*%
%TA.AperFunction,ComponentPad*%
%ADD13R,1.500000X2.500000*%
%TD*%
%TA.AperFunction,ComponentPad*%
%ADD14O,1.500000X2.500000*%
%TD*%
%TA.AperFunction,ComponentPad*%
%ADD15RoundRect,0.250000X-0.350000X-0.625000X0.350000X-0.625000X0.350000X0.625000X-0.350000X0.625000X0*%
%TD*%
%TA.AperFunction,ComponentPad*%
%ADD16O,1.200000X1.750000*%
%TD*%
%TA.AperFunction,ComponentPad*%
%ADD17RoundRect,0.250000X0.350000X0.625000X-0.350000X0.625000X-0.350000X-0.625000X0.350000X-0.625000X0*%
%TD*%
%TA.AperFunction,ComponentPad*%
%ADD18C,1.308000*%
%TD*%
%TA.AperFunction,ViaPad*%
%ADD19C,0.600000*%
%TD*%
%TA.AperFunction,Conductor*%
%ADD20C,0.254000*%
%TD*%
G04 APERTURE END LIST*
D10*
%TO.P,H4,1,1*%
%TO.N,GND*%
X170320000Y-98425000D03*
X171022944Y-96727944D03*
X171022944Y-100122056D03*
X172720000Y-96025000D03*
D11*
X172720000Y-98425000D03*
D10*
X172720000Y-100825000D03*
X174417056Y-96727944D03*
X174417056Y-100122056D03*
X175120000Y-98425000D03*
%TD*%
D12*
%TO.P,SW1,*%
%TO.N,*%
X133386000Y-70072000D03*
X125186000Y-70072000D03*
D13*
%TO.P,SW1,1,A*%
%TO.N,GND*%
X131286000Y-70072000D03*
D14*
%TO.P,SW1,2,B*%
%TO.N,Enable*%
X129286000Y-70072000D03*
%TO.P,SW1,3,C*%
%TO.N,+3V3*%
X127286000Y-70072000D03*
%TD*%
D15*
%TO.P,J6,1,Pin_1*%
%TO.N,+3V3*%
X162370000Y-99060000D03*
D16*
%TO.P,J6,2,Pin_2*%
%TO.N,Pot*%
X164370000Y-99060000D03*
%TO.P,J6,3,Pin_3*%
%TO.N,GND*%
X166370000Y-99060000D03*
%TD*%
D17*
%TO.P,J7,1,Pin_1*%
%TO.N,Gripper_RVS*%
X159242000Y-71162000D03*
D16*
%TO.P,J7,2,Pin_2*%
%TO.N,GND*%
X157242000Y-71162000D03*
%TD*%
D10*
%TO.P,H1,1,1*%
%TO.N,GND*%
X116980000Y-71755000D03*
X117682944Y-70057944D03*
X117682944Y-73452056D03*
X119380000Y-69355000D03*
D11*
X119380000Y-71755000D03*
D10*
X119380000Y-74155000D03*
X121077056Y-70057944D03*
X121077056Y-73452056D03*
X121780000Y-71755000D03*
%TD*%
D17*
%TO.P,J8,1,Pin_1*%
%TO.N,Roll_FWD*%
X152146000Y-71120000D03*
D16*
%TO.P,J8,2,Pin_2*%
%TO.N,GND*%
X150146000Y-71120000D03*
%TD*%
D10*
%TO.P,H3,1,1*%
%TO.N,GND*%
X116980000Y-98425000D03*
X117682944Y-96727944D03*
X117682944Y-100122056D03*
X119380000Y-96025000D03*
D11*
X119380000Y-98425000D03*
D10*
X119380000Y-100825000D03*
X121077056Y-96727944D03*
X121077056Y-100122056D03*
X121780000Y-98425000D03*
%TD*%
D15*
%TO.P,J4,1,Pin_1*%
%TO.N,+3V3*%
X134938000Y-99018000D03*
D16*
%TO.P,J4,2,Pin_2*%
%TO.N,AE3*%
X136938000Y-99018000D03*
%TO.P,J4,3,Pin_3*%
%TO.N,GND*%
X138938000Y-99018000D03*
%TD*%
D15*
%TO.P,J3,1,Pin_1*%
%TO.N,+3V3*%
X144050000Y-99060000D03*
D16*
%TO.P,J3,2,Pin_2*%
%TO.N,AE2*%
X146050000Y-99060000D03*
%TO.P,J3,3,Pin_3*%
%TO.N,GND*%
X148050000Y-99060000D03*
%TD*%
D17*
%TO.P,J1,1,Pin_1*%
%TO.N,Gripper_FWD*%
X166370000Y-71120000D03*
D16*
%TO.P,J1,2,Pin_2*%
%TO.N,GND*%
X164370000Y-71120000D03*
%TD*%
D10*
%TO.P,H2,1,1*%
%TO.N,GND*%
X170320000Y-71755000D03*
X171022944Y-70057944D03*
X171022944Y-73452056D03*
X172720000Y-69355000D03*
D11*
X172720000Y-71755000D03*
D10*
X172720000Y-74155000D03*
X174417056Y-70057944D03*
X174417056Y-73452056D03*
X175120000Y-71755000D03*
%TD*%
D15*
%TO.P,J5,1,Pin_1*%
%TO.N,+3V3*%
X125762000Y-99018000D03*
D16*
%TO.P,J5,2,Pin_2*%
%TO.N,AE4*%
X127762000Y-99018000D03*
%TO.P,J5,3,Pin_3*%
%TO.N,GND*%
X129762000Y-99018000D03*
%TD*%
D17*
%TO.P,J9,1,Pin_1*%
%TO.N,Roll_RVS*%
X145018000Y-71162000D03*
D16*
%TO.P,J9,2,Pin_2*%
%TO.N,GND*%
X143018000Y-71162000D03*
%TD*%
D18*
%TO.P,U1,0,RX1*%
%TO.N,unconnected-(U1-RX1-Pad0)*%
X119380000Y-92710000D03*
%TO.P,U1,1,TX1*%
%TO.N,unconnected-(U1-TX1-Pad1)*%
X121920000Y-92710000D03*
%TO.P,U1,2,OUT2*%
%TO.N,unconnected-(U1-OUT2-Pad2)*%
X124460000Y-92710000D03*
%TO.P,U1,3,LRCLK2*%
%TO.N,unconnected-(U1-LRCLK2-Pad3)*%
X127000000Y-92710000D03*
%TO.P,U1,3.3V_1,3.3V*%
%TO.N,+3V3*%
X152400000Y-92710000D03*
%TO.P,U1,3.3V_2,3.3V*%
X121920000Y-77470000D03*
%TO.P,U1,4,BCLK2*%
%TO.N,unconnected-(U1-BCLK2-Pad4)*%
X129540000Y-92710000D03*
%TO.P,U1,5,IN2*%
%TO.N,unconnected-(U1-IN2-Pad5)*%
X132080000Y-92710000D03*
%TO.P,U1,6,OUT1D*%
%TO.N,unconnected-(U1-OUT1D-Pad6)*%
X134620000Y-92710000D03*
%TO.P,U1,7,RX2*%
%TO.N,unconnected-(U1-RX2-Pad7)*%
X137160000Y-92710000D03*
%TO.P,U1,8,TX2*%
%TO.N,unconnected-(U1-TX2-Pad8)*%
X139700000Y-92710000D03*
%TO.P,U1,9,OUT1C*%
%TO.N,unconnected-(U1-OUT1C-Pad9)*%
X142240000Y-92710000D03*
%TO.P,U1,10,CS1*%
%TO.N,unconnected-(U1-CS1-Pad10)*%
X144780000Y-92710000D03*
%TO.P,U1,11,MOSI*%
%TO.N,unconnected-(U1-MOSI-Pad11)*%
X147320000Y-92710000D03*
%TO.P,U1,12,MISO*%
%TO.N,unconnected-(U1-MISO-Pad12)*%
X149860000Y-92710000D03*
%TO.P,U1,13,SCK*%
%TO.N,unconnected-(U1-SCK-Pad13)*%
X149860000Y-77470000D03*
%TO.P,U1,14,A0*%
%TO.N,unconnected-(U1-A0-Pad14)*%
X147320000Y-77470000D03*
%TO.P,U1,15,A1*%
%TO.N,unconnected-(U1-A1-Pad15)*%
X144780000Y-77470000D03*
%TO.P,U1,16,A2*%
%TO.N,Gripper_FWD*%
X142240000Y-77470000D03*
%TO.P,U1,17,A3*%
%TO.N,Gripper_RVS*%
X139700000Y-77470000D03*
%TO.P,U1,18,A4*%
%TO.N,Roll_FWD*%
X137160000Y-77470000D03*
%TO.P,U1,19,A5*%
%TO.N,Roll_RVS*%
X134620000Y-77470000D03*
%TO.P,U1,20,A6*%
%TO.N,Enable*%
X132080000Y-77470000D03*
%TO.P,U1,21,A7*%
%TO.N,unconnected-(U1-A7-Pad21)*%
X129540000Y-77470000D03*
%TO.P,U1,22,A8*%
%TO.N,unconnected-(U1-A8-Pad22)*%
X127000000Y-77470000D03*
%TO.P,U1,23,A9*%
%TO.N,unconnected-(U1-A9-Pad23)*%
X124460000Y-77470000D03*
%TO.P,U1,24,A10*%
%TO.N,AE4*%
X154940000Y-92710000D03*
%TO.P,U1,25,A11*%
%TO.N,AE3*%
X157480000Y-92710000D03*
%TO.P,U1,26,A12*%
%TO.N,AE2*%
X160020000Y-92710000D03*
%TO.P,U1,27,A13*%
%TO.N,AE1*%
X162560000Y-92710000D03*
%TO.P,U1,28,RX7*%
%TO.N,unconnected-(U1-RX7-Pad28)*%
X165100000Y-92710000D03*
%TO.P,U1,29,TX7*%
%TO.N,unconnected-(U1-TX7-Pad29)*%
X167640000Y-92710000D03*
%TO.P,U1,30,CRX3*%
%TO.N,unconnected-(U1-CRX3-Pad30)*%
X170180000Y-92710000D03*
%TO.P,U1,31,CTX3*%
%TO.N,unconnected-(U1-CTX3-Pad31)*%
X172720000Y-92710000D03*
%TO.P,U1,32,OUT1B*%
%TO.N,unconnected-(U1-OUT1B-Pad32)*%
X175260000Y-92710000D03*
%TO.P,U1,33,MCLK2*%
%TO.N,unconnected-(U1-MCLK2-Pad33)*%
X175260000Y-77470000D03*
%TO.P,U1,34,RX8*%
%TO.N,unconnected-(U1-RX8-Pad34)*%
X172720000Y-77470000D03*
%TO.P,U1,35,TX8*%
%TO.N,unconnected-(U1-TX8-Pad35)*%
X170180000Y-77470000D03*
%TO.P,U1,36,CS2*%
%TO.N,unconnected-(U1-CS2-Pad36)*%
X167640000Y-77470000D03*
%TO.P,U1,37,CS3*%
%TO.N,unconnected-(U1-CS3-Pad37)*%
X165100000Y-77470000D03*
%TO.P,U1,38,A14*%
%TO.N,Pot*%
X162560000Y-77470000D03*
%TO.P,U1,39,A15*%
%TO.N,unconnected-(U1-A15-Pad39)*%
X160020000Y-77470000D03*
%TO.P,U1,40,A16*%
%TO.N,unconnected-(U1-A16-Pad40)*%
X157480000Y-77470000D03*
%TO.P,U1,41,A17*%
%TO.N,unconnected-(U1-A17-Pad41)*%
X154940000Y-77470000D03*
%TO.P,U1,GND1,GND*%
%TO.N,GND*%
X116840000Y-92710000D03*
%TO.P,U1,GND2,GND*%
X152400000Y-77470000D03*
%TO.P,U1,GND3,GND*%
X119380000Y-77470000D03*
%TO.P,U1,VIN,VIN*%
%TO.N,unconnected-(U1-PadVIN)*%
X116840000Y-77470000D03*
%TD*%
D15*
%TO.P,J2,1,Pin_1*%
%TO.N,+3V3*%
X153226000Y-99060000D03*
D16*
%TO.P,J2,2,Pin_2*%
%TO.N,AE1*%
X155226000Y-99060000D03*
%TO.P,J2,3,Pin_3*%
%TO.N,GND*%
X157226000Y-99060000D03*
%TD*%
D19*
%TO.N,GND*%
X124714000Y-80010000D03*
X133350000Y-82550000D03*
X150622000Y-99060000D03*
X146050000Y-88900000D03*
X171450000Y-88900000D03*
X154686000Y-71120000D03*
X161798000Y-71120000D03*
X165100000Y-95250000D03*
X137922000Y-68834000D03*
X158750000Y-88900000D03*
X141478000Y-99060000D03*
X120650000Y-82550000D03*
X120650000Y-88900000D03*
X152400000Y-82550000D03*
X127000000Y-82550000D03*
X133350000Y-88900000D03*
X165100000Y-82550000D03*
X147574000Y-71120000D03*
X134366000Y-73406000D03*
X127000000Y-95250000D03*
X171450000Y-82550000D03*
X123952000Y-73406000D03*
X139700000Y-88900000D03*
X165100000Y-88900000D03*
X152400000Y-88900000D03*
X127000000Y-88900000D03*
X139700000Y-82550000D03*
X158750000Y-82550000D03*
X132334000Y-99060000D03*
X159766000Y-99060000D03*
X146050000Y-82550000D03*
%TD*%
D20*
%TO.N,AE1*%
X156210000Y-96266000D02*
X161607500Y-96266000D01*
X155226000Y-97250000D02*
X156210000Y-96266000D01*
X162560000Y-95313500D02*
X162560000Y-92710000D01*
X161607500Y-96266000D02*
X162560000Y-95313500D01*
X155226000Y-99060000D02*
X155226000Y-97250000D01*
%TO.N,AE2*%
X147267000Y-95811000D02*
X146050000Y-97028000D01*
X160020000Y-94742000D02*
X158951000Y-95811000D01*
X160020000Y-92710000D02*
X160020000Y-94742000D01*
X146050000Y-97028000D02*
X146050000Y-99060000D01*
X158951000Y-95811000D02*
X147267000Y-95811000D01*
%TO.N,AE3*%
X136938000Y-96488000D02*
X136938000Y-99018000D01*
X138070000Y-95356000D02*
X136938000Y-96488000D01*
X156358000Y-95356000D02*
X138070000Y-95356000D01*
X157480000Y-92710000D02*
X157480000Y-94234000D01*
X157480000Y-94234000D02*
X156358000Y-95356000D01*
%TO.N,AE4*%
X154940000Y-92710000D02*
X154940000Y-93726000D01*
X128873000Y-94901000D02*
X127762000Y-96012000D01*
X154940000Y-93726000D02*
X153765000Y-94901000D01*
X153765000Y-94901000D02*
X128873000Y-94901000D01*
X127762000Y-96012000D02*
X127762000Y-99018000D01*
%TO.N,Enable*%
X129286000Y-74676000D02*
X132080000Y-77470000D01*
X129286000Y-70072000D02*
X129286000Y-74676000D01*
%TO.N,Gripper_FWD*%
X165354000Y-75946000D02*
X143256000Y-75946000D01*
X142240000Y-76962000D02*
X142240000Y-77470000D01*
X166370000Y-71120000D02*
X166370000Y-74930000D01*
X166370000Y-74930000D02*
X165354000Y-75946000D01*
X143256000Y-75946000D02*
X142240000Y-76962000D01*
%TO.N,Pot*%
X164370000Y-97822000D02*
X163830000Y-97282000D01*
X164370000Y-99060000D02*
X164370000Y-97822000D01*
X163830000Y-97282000D02*
X163830000Y-78740000D01*
X163830000Y-78740000D02*
X162560000Y-77470000D01*
%TO.N,Gripper_RVS*%
X140716000Y-75438000D02*
X139700000Y-76454000D01*
X159242000Y-71162000D02*
X159242000Y-74438000D01*
X159242000Y-74438000D02*
X158242000Y-75438000D01*
X139700000Y-76454000D02*
X139700000Y-77470000D01*
X158242000Y-75438000D02*
X140716000Y-75438000D01*
%TO.N,Roll_FWD*%
X152146000Y-73787000D02*
X151003000Y-74930000D01*
X137160000Y-75946000D02*
X137160000Y-77470000D01*
X138176000Y-74930000D02*
X137160000Y-75946000D01*
X152146000Y-71120000D02*
X152146000Y-73787000D01*
X151003000Y-74930000D02*
X138176000Y-74930000D01*
%TO.N,Roll_RVS*%
X145018000Y-73422000D02*
X144018000Y-74422000D01*
X134620000Y-75438000D02*
X134620000Y-77470000D01*
X135636000Y-74422000D02*
X134620000Y-75438000D01*
X144018000Y-74422000D02*
X135636000Y-74422000D01*
X145018000Y-71162000D02*
X145018000Y-73422000D01*
%TD*%
%TA.AperFunction,Conductor*%
%TO.N,GND*%
G36*
X125027284Y-67911185D02*
G01*
X125073039Y-67963989D01*
X125082983Y-68033147D01*
X125053958Y-68096703D01*
X124995180Y-68134477D01*
X124979643Y-68137973D01*
X124881465Y-68153522D01*
X124686776Y-68216781D01*
X124504386Y-68309715D01*
X124338786Y-68430028D01*
X124194028Y-68574786D01*
X124073715Y-68740386D01*
X123980781Y-68922776D01*
X123917522Y-69117465D01*
X123885500Y-69319648D01*
X123885500Y-70824351D01*
X123917522Y-71026534D01*
X123980781Y-71221223D01*
X124026170Y-71310302D01*
X124062902Y-71382393D01*
X124073715Y-71403613D01*
X124194028Y-71569213D01*
X124338786Y-71713971D01*
X124456187Y-71799266D01*
X124504390Y-71834287D01*
X124620607Y-71893503D01*
X124686776Y-71927218D01*
X124686778Y-71927218D01*
X124686781Y-71927220D01*
X124781143Y-71957880D01*
X124881465Y-71990477D01*
X124982557Y-72006488D01*
X125083648Y-72022500D01*
X125083649Y-72022500D01*
X125288351Y-72022500D01*
X125288352Y-72022500D01*
X125490534Y-71990477D01*
X125685219Y-71927220D01*
X125867610Y-71834287D01*
X125980916Y-71751966D01*
X126033213Y-71713971D01*
X126033215Y-71713968D01*
X126033219Y-71713966D01*
X126177966Y-71569219D01*
X126177968Y-71569215D01*
X126177971Y-71569213D01*
X126298284Y-71403614D01*
X126298285Y-71403613D01*
X126298287Y-71403610D01*
X126381174Y-71240934D01*
X126429147Y-71190140D01*
X126496968Y-71173345D01*
X126563103Y-71195882D01*
X126579339Y-71209550D01*
X126680088Y-71310299D01*
X126680092Y-71310302D01*
X126835762Y-71414318D01*
X126835768Y-71414321D01*
X126835769Y-71414322D01*
X127008749Y-71485973D01*
X127192379Y-71522499D01*
X127192383Y-71522500D01*
X127192384Y-71522500D01*
X127379617Y-71522500D01*
X127379618Y-71522499D01*
X127563251Y-71485973D01*
X127736231Y-71414322D01*
X127891908Y-71310302D01*
X128024302Y-71177908D01*
X128128322Y-71022231D01*
X128171439Y-70918138D01*
X128215280Y-70863734D01*
X128281574Y-70841669D01*
X128349273Y-70858948D01*
X128396884Y-70910085D01*
X128400561Y-70918138D01*
X128443674Y-71022224D01*
X128443681Y-71022237D01*
X128547697Y-71177907D01*
X128547700Y-71177911D01*
X128680088Y-71310299D01*
X128680092Y-71310302D01*
X128835762Y-71414318D01*
X128835775Y-71414325D01*
X128881952Y-71433452D01*
X128936356Y-71477293D01*
X128958421Y-71543587D01*
X128958500Y-71548013D01*
X128958500Y-74632884D01*
X128958500Y-74719116D01*
X128966642Y-74749500D01*
X128980819Y-74802410D01*
X129023934Y-74877088D01*
X129023936Y-74877091D01*
X131231751Y-77084906D01*
X131265236Y-77146229D01*
X131260252Y-77215921D01*
X131258641Y-77220016D01*
X131258341Y-77220738D01*
X131258336Y-77220754D01*
X131225500Y-77385835D01*
X131225500Y-77554165D01*
X131258336Y-77719241D01*
X131258338Y-77719249D01*
X131322750Y-77874755D01*
X131322755Y-77874764D01*
X131416265Y-78014711D01*
X131416268Y-78014715D01*
X131535284Y-78133731D01*
X131535288Y-78133734D01*
X131675235Y-78227244D01*
X131675241Y-78227247D01*
X131675242Y-78227248D01*
X131830751Y-78291662D01*
X131948884Y-78315160D01*
X131995834Y-78324499D01*
X131995838Y-78324500D01*
X131995839Y-78324500D01*
X132164162Y-78324500D01*
X132164163Y-78324499D01*
X132329249Y-78291662D01*
X132484758Y-78227248D01*
X132624712Y-78133734D01*
X132743734Y-78014712D01*
X132837248Y-77874758D01*
X132901662Y-77719249D01*
X132934500Y-77554161D01*
X132934500Y-77385839D01*
X132934499Y-77385834D01*
X133765500Y-77385834D01*
X133765500Y-77554165D01*
X133798336Y-77719241D01*
X133798338Y-77719249D01*
X133862750Y-77874755D01*
X133862755Y-77874764D01*
X133956265Y-78014711D01*
X133956268Y-78014715D01*
X134075284Y-78133731D01*
X134075288Y-78133734D01*
X134215235Y-78227244D01*
X134215241Y-78227247D01*
X134215242Y-78227248D01*
X134370751Y-78291662D01*
X134488884Y-78315160D01*
X134535834Y-78324499D01*
X134535838Y-78324500D01*
X134535839Y-78324500D01*
X134704162Y-78324500D01*
X134704163Y-78324499D01*
X134869249Y-78291662D01*
X135024758Y-78227248D01*
X135164712Y-78133734D01*
X135283734Y-78014712D01*
X135377248Y-77874758D01*
X135441662Y-77719249D01*
X135474500Y-77554161D01*
X135474500Y-77385839D01*
X135441662Y-77220751D01*
X135377248Y-77065242D01*
X135377247Y-77065241D01*
X135377244Y-77065235D01*
X135283734Y-76925288D01*
X135283731Y-76925284D01*
X135164715Y-76806268D01*
X135164711Y-76806265D01*
X135024764Y-76712755D01*
X135024749Y-76712747D01*
X135024043Y-76712455D01*
X135023729Y-76712202D01*
X135019388Y-76709882D01*
X135019828Y-76709058D01*
X134969641Y-76668612D01*
X134947579Y-76602317D01*
X134947500Y-76597896D01*
X134947500Y-75625017D01*
X134967185Y-75557978D01*
X134983819Y-75537336D01*
X135735336Y-74785819D01*
X135796659Y-74752334D01*
X135823017Y-74749500D01*
X137593983Y-74749500D01*
X137661022Y-74769185D01*
X137706777Y-74821989D01*
X137716721Y-74891147D01*
X137687696Y-74954703D01*
X137681664Y-74961181D01*
X136897936Y-75744908D01*
X136897934Y-75744911D01*
X136854819Y-75819589D01*
X136832500Y-75902885D01*
X136832500Y-76597896D01*
X136812815Y-76664935D01*
X136760011Y-76710690D01*
X136755957Y-76712455D01*
X136755250Y-76712747D01*
X136755235Y-76712755D01*
X136615288Y-76806265D01*
X136615284Y-76806268D01*
X136496268Y-76925284D01*
X136496265Y-76925288D01*
X136402755Y-77065235D01*
X136402750Y-77065244D01*
X136338338Y-77220750D01*
X136338336Y-77220758D01*
X136305500Y-77385834D01*
X136305500Y-77554165D01*
X136338336Y-77719241D01*
X136338338Y-77719249D01*
X136402750Y-77874755D01*
X136402755Y-77874764D01*
X136496265Y-78014711D01*
X136496268Y-78014715D01*
X136615284Y-78133731D01*
X136615288Y-78133734D01*
X136755235Y-78227244D01*
X136755241Y-78227247D01*
X136755242Y-78227248D01*
X136910751Y-78291662D01*
X137028884Y-78315160D01*
X137075834Y-78324499D01*
X137075838Y-78324500D01*
X137075839Y-78324500D01*
X137244162Y-78324500D01*
X137244163Y-78324499D01*
X137409249Y-78291662D01*
X137564758Y-78227248D01*
X137704712Y-78133734D01*
X137823734Y-78014712D01*
X137917248Y-77874758D01*
X137981662Y-77719249D01*
X138014500Y-77554161D01*
X138014500Y-77385839D01*
X137981662Y-77220751D01*
X137917248Y-77065242D01*
X137917247Y-77065241D01*
X137917244Y-77065235D01*
X137823734Y-76925288D01*
X137823731Y-76925284D01*
X137704715Y-76806268D01*
X137704711Y-76806265D01*
X137564764Y-76712755D01*
X137564749Y-76712747D01*
X137564043Y-76712455D01*
X137563729Y-76712202D01*
X137559388Y-76709882D01*
X137559828Y-76709058D01*
X137509641Y-76668612D01*
X137487579Y-76602317D01*
X137487500Y-76597896D01*
X137487500Y-76133017D01*
X137507185Y-76065978D01*
X137523819Y-76045336D01*
X138275336Y-75293819D01*
X138336659Y-75260334D01*
X138363017Y-75257500D01*
X140133983Y-75257500D01*
X140201022Y-75277185D01*
X140246777Y-75329989D01*
X140256721Y-75399147D01*
X140227696Y-75462703D01*
X140221664Y-75469181D01*
X139437936Y-76252908D01*
X139437934Y-76252911D01*
X139394819Y-76327589D01*
X139372500Y-76410885D01*
X139372500Y-76597896D01*
X139352815Y-76664935D01*
X139300011Y-76710690D01*
X139295957Y-76712455D01*
X139295250Y-76712747D01*
X139295235Y-76712755D01*
X139155288Y-76806265D01*
X139155284Y-76806268D01*
X139036268Y-76925284D01*
X139036265Y-76925288D01*
X138942755Y-77065235D01*
X138942750Y-77065244D01*
X138878338Y-77220750D01*
X138878336Y-77220758D01*
X138845500Y-77385834D01*
X138845500Y-77554165D01*
X138878336Y-77719241D01*
X138878338Y-77719249D01*
X138942750Y-77874755D01*
X138942755Y-77874764D01*
X139036265Y-78014711D01*
X139036268Y-78014715D01*
X139155284Y-78133731D01*
X139155288Y-78133734D01*
X139295235Y-78227244D01*
X139295241Y-78227247D01*
X139295242Y-78227248D01*
X139450751Y-78291662D01*
X139568884Y-78315160D01*
X139615834Y-78324499D01*
X139615838Y-78324500D01*
X139615839Y-78324500D01*
X139784162Y-78324500D01*
X139784163Y-78324499D01*
X139949249Y-78291662D01*
X140104758Y-78227248D01*
X140244712Y-78133734D01*
X140363734Y-78014712D01*
X140457248Y-77874758D01*
X140521662Y-77719249D01*
X140554500Y-77554161D01*
X140554500Y-77385839D01*
X140521662Y-77220751D01*
X140457248Y-77065242D01*
X140457247Y-77065241D01*
X140457244Y-77065235D01*
X140363734Y-76925288D01*
X140363731Y-76925284D01*
X140244715Y-76806268D01*
X140244711Y-76806265D01*
X140110284Y-76716443D01*
X140065479Y-76662831D01*
X140056772Y-76593506D01*
X140086927Y-76530478D01*
X140091475Y-76525679D01*
X140815336Y-75801819D01*
X140876659Y-75768334D01*
X140903017Y-75765500D01*
X142673983Y-75765500D01*
X142741022Y-75785185D01*
X142786777Y-75837989D01*
X142796721Y-75907147D01*
X142767696Y-75970703D01*
X142761664Y-75977181D01*
X142141873Y-76596970D01*
X142080550Y-76630455D01*
X142078384Y-76630906D01*
X141990756Y-76648336D01*
X141990750Y-76648338D01*
X141835244Y-76712750D01*
X141835235Y-76712755D01*
X141695288Y-76806265D01*
X141695284Y-76806268D01*
X141576268Y-76925284D01*
X141576265Y-76925288D01*
X141482755Y-77065235D01*
X141482750Y-77065244D01*
X141418338Y-77220750D01*
X141418336Y-77220758D01*
X141385500Y-77385834D01*
X141385500Y-77554165D01*
X141418336Y-77719241D01*
X141418338Y-77719249D01*
X141482750Y-77874755D01*
X141482755Y-77874764D01*
X141576265Y-78014711D01*
X141576268Y-78014715D01*
X141695284Y-78133731D01*
X141695288Y-78133734D01*
X141835235Y-78227244D01*
X141835241Y-78227247D01*
X141835242Y-78227248D01*
X141990751Y-78291662D01*
X142108884Y-78315160D01*
X142155834Y-78324499D01*
X142155838Y-78324500D01*
X142155839Y-78324500D01*
X142324162Y-78324500D01*
X142324163Y-78324499D01*
X142489249Y-78291662D01*
X142644758Y-78227248D01*
X142784712Y-78133734D01*
X142903734Y-78014712D01*
X142997248Y-77874758D01*
X143061662Y-77719249D01*
X143094500Y-77554161D01*
X143094500Y-77385839D01*
X143094499Y-77385834D01*
X143925500Y-77385834D01*
X143925500Y-77554165D01*
X143958336Y-77719241D01*
X143958338Y-77719249D01*
X144022750Y-77874755D01*
X144022755Y-77874764D01*
X144116265Y-78014711D01*
X144116268Y-78014715D01*
X144235284Y-78133731D01*
X144235288Y-78133734D01*
X144375235Y-78227244D01*
X144375241Y-78227247D01*
X144375242Y-78227248D01*
X144530751Y-78291662D01*
X144648884Y-78315160D01*
X144695834Y-78324499D01*
X144695838Y-78324500D01*
X144695839Y-78324500D01*
X144864162Y-78324500D01*
X144864163Y-78324499D01*
X145029249Y-78291662D01*
X145184758Y-78227248D01*
X145324712Y-78133734D01*
X145443734Y-78014712D01*
X145537248Y-77874758D01*
X145601662Y-77719249D01*
X145634500Y-77554161D01*
X145634500Y-77385839D01*
X145634499Y-77385834D01*
X146465500Y-77385834D01*
X146465500Y-77554165D01*
X146498336Y-77719241D01*
X146498338Y-77719249D01*
X146562750Y-77874755D01*
X146562755Y-77874764D01*
X146656265Y-78014711D01*
X146656268Y-78014715D01*
X146775284Y-78133731D01*
X146775288Y-78133734D01*
X146915235Y-78227244D01*
X146915241Y-78227247D01*
X146915242Y-78227248D01*
X147070751Y-78291662D01*
X147188884Y-78315160D01*
X147235834Y-78324499D01*
X147235838Y-78324500D01*
X147235839Y-78324500D01*
X147404162Y-78324500D01*
X147404163Y-78324499D01*
X147569249Y-78291662D01*
X147724758Y-78227248D01*
X147864712Y-78133734D01*
X147983734Y-78014712D01*
X148077248Y-77874758D01*
X148141662Y-77719249D01*
X148174500Y-77554161D01*
X148174500Y-77385839D01*
X148174499Y-77385834D01*
X149005500Y-77385834D01*
X149005500Y-77554165D01*
X149038336Y-77719241D01*
X149038338Y-77719249D01*
X149102750Y-77874755D01*
X149102755Y-77874764D01*
X149196265Y-78014711D01*
X149196268Y-78014715D01*
X149315284Y-78133731D01*
X149315288Y-78133734D01*
X149455235Y-78227244D01*
X149455241Y-78227247D01*
X149455242Y-78227248D01*
X149610751Y-78291662D01*
X149728884Y-78315160D01*
X149775834Y-78324499D01*
X149775838Y-78324500D01*
X149775839Y-78324500D01*
X149944162Y-78324500D01*
X149944163Y-78324499D01*
X150109249Y-78291662D01*
X150264758Y-78227248D01*
X150404712Y-78133734D01*
X150523734Y-78014712D01*
X150617248Y-77874758D01*
X150681662Y-77719249D01*
X150714500Y-77554161D01*
X150714500Y-77385839D01*
X150714499Y-77385834D01*
X154085500Y-77385834D01*
X154085500Y-77554165D01*
X154118336Y-77719241D01*
X154118338Y-77719249D01*
X154182750Y-77874755D01*
X154182755Y-77874764D01*
X154276265Y-78014711D01*
X154276268Y-78014715D01*
X154395284Y-78133731D01*
X154395288Y-78133734D01*
X154535235Y-78227244D01*
X154535241Y-78227247D01*
X154535242Y-78227248D01*
X154690751Y-78291662D01*
X154808884Y-78315160D01*
X154855834Y-78324499D01*
X154855838Y-78324500D01*
X154855839Y-78324500D01*
X155024162Y-78324500D01*
X155024163Y-78324499D01*
X155189249Y-78291662D01*
X155344758Y-78227248D01*
X155484712Y-78133734D01*
X155603734Y-78014712D01*
X155697248Y-77874758D01*
X155761662Y-77719249D01*
X155794500Y-77554161D01*
X155794500Y-77385839D01*
X155794499Y-77385834D01*
X156625500Y-77385834D01*
X156625500Y-77554165D01*
X156658336Y-77719241D01*
X156658338Y-77719249D01*
X156722750Y-77874755D01*
X156722755Y-77874764D01*
X156816265Y-78014711D01*
X156816268Y-78014715D01*
X156935284Y-78133731D01*
X156935288Y-78133734D01*
X157075235Y-78227244D01*
X157075241Y-78227247D01*
X157075242Y-78227248D01*
X157230751Y-78291662D01*
X157348884Y-78315160D01*
X157395834Y-78324499D01*
X157395838Y-78324500D01*
X157395839Y-78324500D01*
X157564162Y-78324500D01*
X157564163Y-78324499D01*
X157729249Y-78291662D01*
X157884758Y-78227248D01*
X158024712Y-78133734D01*
X158143734Y-78014712D01*
X158237248Y-77874758D01*
X158301662Y-77719249D01*
X158334500Y-77554161D01*
X158334500Y-77385839D01*
X158334499Y-77385834D01*
X159165500Y-77385834D01*
X159165500Y-77554165D01*
X159198336Y-77719241D01*
X159198338Y-77719249D01*
X159262750Y-77874755D01*
X159262755Y-77874764D01*
X159356265Y-78014711D01*
X159356268Y-78014715D01*
X159475284Y-78133731D01*
X159475288Y-78133734D01*
X159615235Y-78227244D01*
X159615241Y-78227247D01*
X159615242Y-78227248D01*
X159770751Y-78291662D01*
X159888884Y-78315160D01*
X159935834Y-78324499D01*
X159935838Y-78324500D01*
X159935839Y-78324500D01*
X160104162Y-78324500D01*
X160104163Y-78324499D01*
X160269249Y-78291662D01*
X160424758Y-78227248D01*
X160564712Y-78133734D01*
X160683734Y-78014712D01*
X160777248Y-77874758D01*
X160841662Y-77719249D01*
X160874500Y-77554161D01*
X160874500Y-77385839D01*
X160841662Y-77220751D01*
X160777248Y-77065242D01*
X160777247Y-77065241D01*
X160777244Y-77065235D01*
X160683734Y-76925288D01*
X160683731Y-76925284D01*
X160564715Y-76806268D01*
X160564711Y-76806265D01*
X160424764Y-76712755D01*
X160424755Y-76712750D01*
X160269249Y-76648338D01*
X160269241Y-76648336D01*
X160104165Y-76615500D01*
X160104161Y-76615500D01*
X159935839Y-76615500D01*
X159935834Y-76615500D01*
X159770758Y-76648336D01*
X159770750Y-76648338D01*
X159615244Y-76712750D01*
X159615235Y-76712755D01*
X159475288Y-76806265D01*
X159475284Y-76806268D01*
X159356268Y-76925284D01*
X159356265Y-76925288D01*
X159262755Y-77065235D01*
X159262750Y-77065244D01*
X159198338Y-77220750D01*
X159198336Y-77220758D01*
X159165500Y-77385834D01*
X158334499Y-77385834D01*
X158301662Y-77220751D01*
X158237248Y-77065242D01*
X158237247Y-77065241D01*
X158237244Y-77065235D01*
X158143734Y-76925288D01*
X158143731Y-76925284D01*
X158024715Y-76806268D01*
X158024711Y-76806265D01*
X157884764Y-76712755D01*
X157884755Y-76712750D01*
X157729249Y-76648338D01*
X157729241Y-76648336D01*
X157564165Y-76615500D01*
X157564161Y-76615500D01*
X157395839Y-76615500D01*
X157395834Y-76615500D01*
X157230758Y-76648336D01*
X157230750Y-76648338D01*
X157075244Y-76712750D01*
X157075235Y-76712755D01*
X156935288Y-76806265D01*
X156935284Y-76806268D01*
X156816268Y-76925284D01*
X156816265Y-76925288D01*
X156722755Y-77065235D01*
X156722750Y-77065244D01*
X156658338Y-77220750D01*
X156658336Y-77220758D01*
X156625500Y-77385834D01*
X155794499Y-77385834D01*
X155761662Y-77220751D01*
X155697248Y-77065242D01*
X155697247Y-77065241D01*
X155697244Y-77065235D01*
X155603734Y-76925288D01*
X155603731Y-76925284D01*
X155484715Y-76806268D01*
X155484711Y-76806265D01*
X155344764Y-76712755D01*
X155344755Y-76712750D01*
X155189249Y-76648338D01*
X155189241Y-76648336D01*
X155024165Y-76615500D01*
X155024161Y-76615500D01*
X154855839Y-76615500D01*
X154855834Y-76615500D01*
X154690758Y-76648336D01*
X154690750Y-76648338D01*
X154535244Y-76712750D01*
X154535235Y-76712755D01*
X154395288Y-76806265D01*
X154395284Y-76806268D01*
X154276268Y-76925284D01*
X154276265Y-76925288D01*
X154182755Y-77065235D01*
X154182750Y-77065244D01*
X154118338Y-77220750D01*
X154118336Y-77220758D01*
X154085500Y-77385834D01*
X150714499Y-77385834D01*
X150681662Y-77220751D01*
X150617248Y-77065242D01*
X150617247Y-77065241D01*
X150617244Y-77065235D01*
X150523734Y-76925288D01*
X150523731Y-76925284D01*
X150404715Y-76806268D01*
X150404711Y-76806265D01*
X150264764Y-76712755D01*
X150264755Y-76712750D01*
X150109249Y-76648338D01*
X150109241Y-76648336D01*
X149944165Y-76615500D01*
X149944161Y-76615500D01*
X149775839Y-76615500D01*
X149775834Y-76615500D01*
X149610758Y-76648336D01*
X149610750Y-76648338D01*
X149455244Y-76712750D01*
X149455235Y-76712755D01*
X149315288Y-76806265D01*
X149315284Y-76806268D01*
X149196268Y-76925284D01*
X149196265Y-76925288D01*
X149102755Y-77065235D01*
X149102750Y-77065244D01*
X149038338Y-77220750D01*
X149038336Y-77220758D01*
X149005500Y-77385834D01*
X148174499Y-77385834D01*
X148141662Y-77220751D01*
X148077248Y-77065242D01*
X148077247Y-77065241D01*
X148077244Y-77065235D01*
X147983734Y-76925288D01*
X147983731Y-76925284D01*
X147864715Y-76806268D01*
X147864711Y-76806265D01*
X147724764Y-76712755D01*
X147724755Y-76712750D01*
X147569249Y-76648338D01*
X147569241Y-76648336D01*
X147404165Y-76615500D01*
X147404161Y-76615500D01*
X147235839Y-76615500D01*
X147235834Y-76615500D01*
X147070758Y-76648336D01*
X147070750Y-76648338D01*
X146915244Y-76712750D01*
X146915235Y-76712755D01*
X146775288Y-76806265D01*
X146775284Y-76806268D01*
X146656268Y-76925284D01*
X146656265Y-76925288D01*
X146562755Y-77065235D01*
X146562750Y-77065244D01*
X146498338Y-77220750D01*
X146498336Y-77220758D01*
X146465500Y-77385834D01*
X145634499Y-77385834D01*
X145601662Y-77220751D01*
X145537248Y-77065242D01*
X145537247Y-77065241D01*
X145537244Y-77065235D01*
X145443734Y-76925288D01*
X145443731Y-76925284D01*
X145324715Y-76806268D01*
X145324711Y-76806265D01*
X145184764Y-76712755D01*
X145184755Y-76712750D01*
X145029249Y-76648338D01*
X145029241Y-76648336D01*
X144864165Y-76615500D01*
X144864161Y-76615500D01*
X144695839Y-76615500D01*
X144695834Y-76615500D01*
X144530758Y-76648336D01*
X144530750Y-76648338D01*
X144375244Y-76712750D01*
X144375235Y-76712755D01*
X144235288Y-76806265D01*
X144235284Y-76806268D01*
X144116268Y-76925284D01*
X144116265Y-76925288D01*
X144022755Y-77065235D01*
X144022750Y-77065244D01*
X143958338Y-77220750D01*
X143958336Y-77220758D01*
X143925500Y-77385834D01*
X143094499Y-77385834D01*
X143061662Y-77220751D01*
X142997248Y-77065242D01*
X142997247Y-77065241D01*
X142997244Y-77065235D01*
X142903733Y-76925286D01*
X142901169Y-76922162D01*
X142873854Y-76857853D01*
X142885644Y-76788985D01*
X142909336Y-76755818D01*
X143355336Y-76309819D01*
X143416659Y-76276334D01*
X143443017Y-76273500D01*
X165397114Y-76273500D01*
X165397116Y-76273500D01*
X165480410Y-76251181D01*
X165555090Y-76208065D01*
X166632065Y-75131090D01*
X166675181Y-75056410D01*
X166697500Y-74973116D01*
X166697500Y-74886884D01*
X166697500Y-72315614D01*
X166717185Y-72248575D01*
X166769989Y-72202820D01*
X166797591Y-72195452D01*
X166797330Y-72194256D01*
X166804701Y-72192646D01*
X166868790Y-72170219D01*
X166932882Y-72147793D01*
X167042150Y-72067150D01*
X167122793Y-71957882D01*
X167152950Y-71871699D01*
X167167646Y-71829701D01*
X167167646Y-71829699D01*
X167170500Y-71799269D01*
X167170500Y-70440730D01*
X167167646Y-70410300D01*
X167167646Y-70410298D01*
X167122793Y-70282119D01*
X167122792Y-70282117D01*
X167118649Y-70276503D01*
X167042150Y-70172850D01*
X166932882Y-70092207D01*
X166932880Y-70092206D01*
X166804700Y-70047353D01*
X166774270Y-70044500D01*
X166774266Y-70044500D01*
X165965734Y-70044500D01*
X165965730Y-70044500D01*
X165935300Y-70047353D01*
X165935298Y-70047353D01*
X165807119Y-70092206D01*
X165807117Y-70092207D01*
X165697850Y-70172850D01*
X165617207Y-70282117D01*
X165617206Y-70282119D01*
X165572353Y-70410298D01*
X165572353Y-70410300D01*
X165569500Y-70440730D01*
X165569500Y-71799269D01*
X165572353Y-71829699D01*
X165572353Y-71829701D01*
X165617206Y-71957880D01*
X165617207Y-71957882D01*
X165697850Y-72067150D01*
X165807118Y-72147793D01*
X165839163Y-72159006D01*
X165935298Y-72192646D01*
X165942670Y-72194256D01*
X165942082Y-72196944D01*
X165994959Y-72217992D01*
X166035600Y-72274826D01*
X166042500Y-72315614D01*
X166042500Y-74742983D01*
X166022815Y-74810022D01*
X166006181Y-74830664D01*
X165254664Y-75582181D01*
X165193341Y-75615666D01*
X165166983Y-75618500D01*
X158824017Y-75618500D01*
X158756978Y-75598815D01*
X158711223Y-75546011D01*
X158701279Y-75476853D01*
X158730304Y-75413297D01*
X158736336Y-75406819D01*
X159105144Y-75038011D01*
X159504065Y-74639090D01*
X159547181Y-74564410D01*
X159569500Y-74481116D01*
X159569500Y-74394884D01*
X159569500Y-72357614D01*
X159589185Y-72290575D01*
X159641989Y-72244820D01*
X159669591Y-72237452D01*
X159669330Y-72236256D01*
X159676701Y-72234646D01*
X159740790Y-72212219D01*
X159804882Y-72189793D01*
X159914150Y-72109150D01*
X159994793Y-71999882D01*
X160017219Y-71935790D01*
X160039646Y-71871701D01*
X160039646Y-71871699D01*
X160042500Y-71841269D01*
X160042500Y-70482730D01*
X160039646Y-70452300D01*
X160039646Y-70452298D01*
X159994793Y-70324119D01*
X159994792Y-70324117D01*
X159914150Y-70214850D01*
X159804882Y-70134207D01*
X159804880Y-70134206D01*
X159676700Y-70089353D01*
X159646270Y-70086500D01*
X159646266Y-70086500D01*
X158837734Y-70086500D01*
X158837730Y-70086500D01*
X158807300Y-70089353D01*
X158807298Y-70089353D01*
X158679119Y-70134206D01*
X158679117Y-70134207D01*
X158569850Y-70214850D01*
X158489207Y-70324117D01*
X158489206Y-70324119D01*
X158444353Y-70452298D01*
X158444353Y-70452300D01*
X158441500Y-70482730D01*
X158441500Y-71841269D01*
X158444353Y-71871699D01*
X158444353Y-71871701D01*
X158485916Y-71990477D01*
X158489207Y-71999882D01*
X158569850Y-72109150D01*
X158679118Y-72189793D01*
X158711163Y-72201006D01*
X158807298Y-72234646D01*
X158814670Y-72236256D01*
X158814082Y-72238944D01*
X158866959Y-72259992D01*
X158907600Y-72316826D01*
X158914500Y-72357614D01*
X158914500Y-74250983D01*
X158894815Y-74318022D01*
X158878181Y-74338664D01*
X158142664Y-75074181D01*
X158081341Y-75107666D01*
X158054983Y-75110500D01*
X151585017Y-75110500D01*
X151517978Y-75090815D01*
X151472223Y-75038011D01*
X151462279Y-74968853D01*
X151491304Y-74905297D01*
X151497336Y-74898819D01*
X151935302Y-74460853D01*
X152408065Y-73988090D01*
X152451181Y-73913410D01*
X152473500Y-73830116D01*
X152473500Y-73743884D01*
X152473500Y-72315614D01*
X152493185Y-72248575D01*
X152545989Y-72202820D01*
X152573591Y-72195452D01*
X152573330Y-72194256D01*
X152580701Y-72192646D01*
X152644790Y-72170219D01*
X152708882Y-72147793D01*
X152818150Y-72067150D01*
X152898793Y-71957882D01*
X152928950Y-71871699D01*
X152943646Y-71829701D01*
X152943646Y-71829699D01*
X152946500Y-71799269D01*
X152946500Y-70440730D01*
X152943646Y-70410300D01*
X152943646Y-70410298D01*
X152898793Y-70282119D01*
X152898792Y-70282117D01*
X152894649Y-70276503D01*
X152818150Y-70172850D01*
X152708882Y-70092207D01*
X152708880Y-70092206D01*
X152580700Y-70047353D01*
X152550270Y-70044500D01*
X152550266Y-70044500D01*
X151741734Y-70044500D01*
X151741730Y-70044500D01*
X151711300Y-70047353D01*
X151711298Y-70047353D01*
X151583119Y-70092206D01*
X151583117Y-70092207D01*
X151473850Y-70172850D01*
X151393207Y-70282117D01*
X151393206Y-70282119D01*
X151348353Y-70410298D01*
X151348353Y-70410300D01*
X151345500Y-70440730D01*
X151345500Y-71799269D01*
X151348353Y-71829699D01*
X151348353Y-71829701D01*
X151393206Y-71957880D01*
X151393207Y-71957882D01*
X151473850Y-72067150D01*
X151583118Y-72147793D01*
X151615163Y-72159006D01*
X151711298Y-72192646D01*
X151718670Y-72194256D01*
X151718082Y-72196944D01*
X151770959Y-72217992D01*
X151811600Y-72274826D01*
X151818500Y-72315614D01*
X151818500Y-73599983D01*
X151798815Y-73667022D01*
X151782181Y-73687664D01*
X150903664Y-74566181D01*
X150842341Y-74599666D01*
X150815983Y-74602500D01*
X144600017Y-74602500D01*
X144532978Y-74582815D01*
X144487223Y-74530011D01*
X144477279Y-74460853D01*
X144506304Y-74397297D01*
X144512336Y-74390819D01*
X144844974Y-74058181D01*
X145280065Y-73623090D01*
X145323181Y-73548410D01*
X145345500Y-73465116D01*
X145345500Y-73378884D01*
X145345500Y-72357614D01*
X145365185Y-72290575D01*
X145417989Y-72244820D01*
X145445591Y-72237452D01*
X145445330Y-72236256D01*
X145452701Y-72234646D01*
X145516790Y-72212219D01*
X145580882Y-72189793D01*
X145690150Y-72109150D01*
X145770793Y-71999882D01*
X145793219Y-71935790D01*
X145815646Y-71871701D01*
X145815646Y-71871699D01*
X145818500Y-71841269D01*
X145818500Y-70482730D01*
X145815646Y-70452300D01*
X145815646Y-70452298D01*
X145770793Y-70324119D01*
X145770792Y-70324117D01*
X145690150Y-70214850D01*
X145580882Y-70134207D01*
X145580880Y-70134206D01*
X145452700Y-70089353D01*
X145422270Y-70086500D01*
X145422266Y-70086500D01*
X144613734Y-70086500D01*
X144613730Y-70086500D01*
X144583300Y-70089353D01*
X144583298Y-70089353D01*
X144455119Y-70134206D01*
X144455117Y-70134207D01*
X144345850Y-70214850D01*
X144265207Y-70324117D01*
X144265206Y-70324119D01*
X144220353Y-70452298D01*
X144220353Y-70452300D01*
X144217500Y-70482730D01*
X144217500Y-71841269D01*
X144220353Y-71871699D01*
X144220353Y-71871701D01*
X144261916Y-71990477D01*
X144265207Y-71999882D01*
X144345850Y-72109150D01*
X144455118Y-72189793D01*
X144487163Y-72201006D01*
X144583298Y-72234646D01*
X144590670Y-72236256D01*
X144590082Y-72238944D01*
X144642959Y-72259992D01*
X144683600Y-72316826D01*
X144690500Y-72357614D01*
X144690500Y-73234983D01*
X144670815Y-73302022D01*
X144654181Y-73322664D01*
X143918664Y-74058181D01*
X143857341Y-74091666D01*
X143830983Y-74094500D01*
X135679116Y-74094500D01*
X135592884Y-74094500D01*
X135537354Y-74109379D01*
X135509589Y-74116819D01*
X135434911Y-74159934D01*
X135434908Y-74159936D01*
X134357936Y-75236908D01*
X134357934Y-75236911D01*
X134314819Y-75311589D01*
X134292500Y-75394885D01*
X134292500Y-76597896D01*
X134272815Y-76664935D01*
X134220011Y-76710690D01*
X134215957Y-76712455D01*
X134215250Y-76712747D01*
X134215235Y-76712755D01*
X134075288Y-76806265D01*
X134075284Y-76806268D01*
X133956268Y-76925284D01*
X133956265Y-76925288D01*
X133862755Y-77065235D01*
X133862750Y-77065244D01*
X133798338Y-77220750D01*
X133798336Y-77220758D01*
X133765500Y-77385834D01*
X132934499Y-77385834D01*
X132901662Y-77220751D01*
X132837248Y-77065242D01*
X132837247Y-77065241D01*
X132837244Y-77065235D01*
X132743734Y-76925288D01*
X132743731Y-76925284D01*
X132624715Y-76806268D01*
X132624711Y-76806265D01*
X132484764Y-76712755D01*
X132484755Y-76712750D01*
X132329249Y-76648338D01*
X132329241Y-76648336D01*
X132164165Y-76615500D01*
X132164161Y-76615500D01*
X131995839Y-76615500D01*
X131995835Y-76615500D01*
X131830754Y-76648336D01*
X131830738Y-76648341D01*
X131830016Y-76648641D01*
X131829607Y-76648684D01*
X131824919Y-76650107D01*
X131824649Y-76649216D01*
X131760545Y-76656095D01*
X131698073Y-76624808D01*
X131694906Y-76621751D01*
X129649819Y-74576664D01*
X129616334Y-74515341D01*
X129613500Y-74488983D01*
X129613500Y-71548013D01*
X129633185Y-71480974D01*
X129685989Y-71435219D01*
X129690048Y-71433452D01*
X129736224Y-71414325D01*
X129736224Y-71414324D01*
X129736231Y-71414322D01*
X129891908Y-71310302D01*
X130024302Y-71177908D01*
X130128322Y-71022231D01*
X130199973Y-70849251D01*
X130236500Y-70665616D01*
X130236500Y-69478384D01*
X130199973Y-69294749D01*
X130128322Y-69121769D01*
X130128321Y-69121768D01*
X130128318Y-69121762D01*
X130024302Y-68966092D01*
X130024299Y-68966088D01*
X129891911Y-68833700D01*
X129891907Y-68833697D01*
X129736237Y-68729681D01*
X129736228Y-68729676D01*
X129563251Y-68658027D01*
X129563243Y-68658025D01*
X129379620Y-68621500D01*
X129379616Y-68621500D01*
X129192384Y-68621500D01*
X129192379Y-68621500D01*
X129008756Y-68658025D01*
X129008748Y-68658027D01*
X128835771Y-68729676D01*
X128835762Y-68729681D01*
X128680092Y-68833697D01*
X128680088Y-68833700D01*
X128547700Y-68966088D01*
X128547697Y-68966092D01*
X128443681Y-69121762D01*
X128443676Y-69121772D01*
X128400561Y-69225862D01*
X128356720Y-69280265D01*
X128290426Y-69302330D01*
X128222726Y-69285051D01*
X128175116Y-69233913D01*
X128171439Y-69225862D01*
X128128323Y-69121772D01*
X128128323Y-69121771D01*
X128128322Y-69121769D01*
X128128320Y-69121766D01*
X128128318Y-69121762D01*
X128024302Y-68966092D01*
X128024299Y-68966088D01*
X127891911Y-68833700D01*
X127891907Y-68833697D01*
X127736237Y-68729681D01*
X127736228Y-68729676D01*
X127563251Y-68658027D01*
X127563243Y-68658025D01*
X127379620Y-68621500D01*
X127379616Y-68621500D01*
X127192384Y-68621500D01*
X127192379Y-68621500D01*
X127008756Y-68658025D01*
X127008748Y-68658027D01*
X126835771Y-68729676D01*
X126835762Y-68729681D01*
X126680092Y-68833697D01*
X126579339Y-68934450D01*
X126518016Y-68967934D01*
X126448324Y-68962950D01*
X126392391Y-68921078D01*
X126381173Y-68903063D01*
X126345829Y-68833697D01*
X126298287Y-68740390D01*
X126298285Y-68740387D01*
X126298284Y-68740385D01*
X126177971Y-68574786D01*
X126033213Y-68430028D01*
X125867613Y-68309715D01*
X125867612Y-68309714D01*
X125867610Y-68309713D01*
X125810653Y-68280691D01*
X125685223Y-68216781D01*
X125490534Y-68153522D01*
X125392357Y-68137973D01*
X125329222Y-68108044D01*
X125292291Y-68048732D01*
X125293289Y-67978870D01*
X125331899Y-67920637D01*
X125395863Y-67892523D01*
X125411755Y-67891500D01*
X133160245Y-67891500D01*
X133227284Y-67911185D01*
X133273039Y-67963989D01*
X133282983Y-68033147D01*
X133253958Y-68096703D01*
X133195180Y-68134477D01*
X133179643Y-68137973D01*
X133081465Y-68153522D01*
X132886776Y-68216781D01*
X132704386Y-68309715D01*
X132538786Y-68430028D01*
X132394028Y-68574786D01*
X132273715Y-68740386D01*
X132180781Y-68922776D01*
X132117522Y-69117465D01*
X132085500Y-69319648D01*
X132085500Y-70824351D01*
X132117522Y-71026534D01*
X132180781Y-71221223D01*
X132226170Y-71310302D01*
X132262902Y-71382393D01*
X132273715Y-71403613D01*
X132394028Y-71569213D01*
X132538786Y-71713971D01*
X132656187Y-71799266D01*
X132704390Y-71834287D01*
X132820607Y-71893503D01*
X132886776Y-71927218D01*
X132886778Y-71927218D01*
X132886781Y-71927220D01*
X132981143Y-71957880D01*
X133081465Y-71990477D01*
X133182557Y-72006488D01*
X133283648Y-72022500D01*
X133283649Y-72022500D01*
X133488351Y-72022500D01*
X133488352Y-72022500D01*
X133690534Y-71990477D01*
X133885219Y-71927220D01*
X134067610Y-71834287D01*
X134180916Y-71751966D01*
X134233213Y-71713971D01*
X134233215Y-71713968D01*
X134233219Y-71713966D01*
X134377966Y-71569219D01*
X134377968Y-71569215D01*
X134377971Y-71569213D01*
X134430732Y-71496590D01*
X134498287Y-71403610D01*
X134591220Y-71221219D01*
X134654477Y-71026534D01*
X134686500Y-70824352D01*
X134686500Y-69319648D01*
X134655159Y-69121769D01*
X134654477Y-69117465D01*
X134605891Y-68967934D01*
X134591220Y-68922781D01*
X134591218Y-68922778D01*
X134591218Y-68922776D01*
X134545829Y-68833697D01*
X134498287Y-68740390D01*
X134490503Y-68729676D01*
X134377971Y-68574786D01*
X134233213Y-68430028D01*
X134067613Y-68309715D01*
X134067612Y-68309714D01*
X134067610Y-68309713D01*
X134010653Y-68280691D01*
X133885223Y-68216781D01*
X133690534Y-68153522D01*
X133592357Y-68137973D01*
X133529222Y-68108044D01*
X133492291Y-68048732D01*
X133493289Y-67978870D01*
X133531899Y-67920637D01*
X133595863Y-67892523D01*
X133611755Y-67891500D01*
X172680118Y-67891500D01*
X172716949Y-67891500D01*
X172723032Y-67891648D01*
X173092607Y-67909805D01*
X173104715Y-67910998D01*
X173467704Y-67964842D01*
X173479641Y-67967216D01*
X173835624Y-68056385D01*
X173847241Y-68059910D01*
X174192759Y-68183538D01*
X174203988Y-68188188D01*
X174535751Y-68345100D01*
X174546459Y-68350824D01*
X174861216Y-68539482D01*
X174871331Y-68546240D01*
X175133106Y-68740386D01*
X175166089Y-68764848D01*
X175175495Y-68772568D01*
X175447401Y-69019009D01*
X175455990Y-69027598D01*
X175635686Y-69225862D01*
X175702431Y-69299504D01*
X175710151Y-69308910D01*
X175928757Y-69603665D01*
X175935517Y-69613783D01*
X176124168Y-69928528D01*
X176129903Y-69939256D01*
X176199544Y-70086500D01*
X176286808Y-70271004D01*
X176291464Y-70282247D01*
X176415084Y-70627741D01*
X176418617Y-70639386D01*
X176507783Y-70995360D01*
X176510157Y-71007295D01*
X176564001Y-71370284D01*
X176565194Y-71382393D01*
X176583351Y-71751966D01*
X176583500Y-71758051D01*
X176583500Y-98421948D01*
X176583351Y-98428033D01*
X176565194Y-98797606D01*
X176564001Y-98809715D01*
X176510157Y-99172704D01*
X176507783Y-99184639D01*
X176418617Y-99540613D01*
X176415084Y-99552258D01*
X176291464Y-99897752D01*
X176286808Y-99908995D01*
X176129905Y-100240739D01*
X176124168Y-100251471D01*
X175935517Y-100566216D01*
X175928757Y-100576334D01*
X175710151Y-100871089D01*
X175702431Y-100880495D01*
X175455998Y-101152393D01*
X175447393Y-101160998D01*
X175175495Y-101407431D01*
X175166089Y-101415151D01*
X174871334Y-101633757D01*
X174861216Y-101640517D01*
X174546471Y-101829168D01*
X174535739Y-101834905D01*
X174203995Y-101991808D01*
X174192752Y-101996464D01*
X173847258Y-102120084D01*
X173835613Y-102123617D01*
X173479639Y-102212783D01*
X173467704Y-102215157D01*
X173104715Y-102269001D01*
X173092606Y-102270194D01*
X172744721Y-102287285D01*
X172723031Y-102288351D01*
X172716949Y-102288500D01*
X119383051Y-102288500D01*
X119376968Y-102288351D01*
X119354017Y-102287223D01*
X119007393Y-102270194D01*
X118995284Y-102269001D01*
X118632295Y-102215157D01*
X118620360Y-102212783D01*
X118264386Y-102123617D01*
X118252745Y-102120085D01*
X118079994Y-102058274D01*
X117907247Y-101996464D01*
X117896004Y-101991808D01*
X117564260Y-101834905D01*
X117553533Y-101829170D01*
X117238783Y-101640517D01*
X117228665Y-101633757D01*
X116933910Y-101415151D01*
X116924504Y-101407431D01*
X116880610Y-101367648D01*
X116652598Y-101160990D01*
X116644009Y-101152401D01*
X116397568Y-100880495D01*
X116389848Y-100871089D01*
X116171242Y-100576334D01*
X116164482Y-100566216D01*
X116126197Y-100502341D01*
X115975824Y-100251459D01*
X115970100Y-100240751D01*
X115813188Y-99908988D01*
X115808535Y-99897752D01*
X115793553Y-99855880D01*
X115684910Y-99552241D01*
X115681385Y-99540624D01*
X115592216Y-99184639D01*
X115589842Y-99172704D01*
X115535998Y-98809715D01*
X115534805Y-98797605D01*
X115530312Y-98706158D01*
X115516649Y-98428032D01*
X115516500Y-98421948D01*
X115516500Y-98338730D01*
X124961500Y-98338730D01*
X124961500Y-99697269D01*
X124964353Y-99727699D01*
X124964353Y-99727701D01*
X125005500Y-99845288D01*
X125009207Y-99855882D01*
X125089850Y-99965150D01*
X125199118Y-100045793D01*
X125241845Y-100060744D01*
X125327299Y-100090646D01*
X125357730Y-100093500D01*
X125357734Y-100093500D01*
X126166270Y-100093500D01*
X126196699Y-100090646D01*
X126196701Y-100090646D01*
X126260790Y-100068219D01*
X126324882Y-100045793D01*
X126434150Y-99965150D01*
X126514793Y-99855882D01*
X126544950Y-99769699D01*
X126559646Y-99727701D01*
X126559646Y-99727699D01*
X126562500Y-99697269D01*
X126562500Y-98664153D01*
X126961500Y-98664153D01*
X126961500Y-99371846D01*
X126992261Y-99526489D01*
X126992264Y-99526501D01*
X127052602Y-99672172D01*
X127052609Y-99672185D01*
X127140210Y-99803288D01*
X127140213Y-99803292D01*
X127251707Y-99914786D01*
X127251711Y-99914789D01*
X127382814Y-100002390D01*
X127382827Y-100002397D01*
X127487596Y-100045793D01*
X127528503Y-100062737D01*
X127668810Y-100090646D01*
X127683153Y-100093499D01*
X127683156Y-100093500D01*
X127683158Y-100093500D01*
X127840844Y-100093500D01*
X127840845Y-100093499D01*
X127995497Y-100062737D01*
X128141179Y-100002394D01*
X128272289Y-99914789D01*
X128383789Y-99803289D01*
X128471394Y-99672179D01*
X128531737Y-99526497D01*
X128562500Y-99371842D01*
X128562500Y-98664158D01*
X128562500Y-98664155D01*
X128562499Y-98664153D01*
X128554146Y-98622160D01*
X128531737Y-98509503D01*
X128531735Y-98509498D01*
X128479474Y-98383327D01*
X128479458Y-98383289D01*
X128478394Y-98380722D01*
X128471394Y-98363821D01*
X128471391Y-98363816D01*
X128471390Y-98363814D01*
X128454629Y-98338730D01*
X134137500Y-98338730D01*
X134137500Y-99697269D01*
X134140353Y-99727699D01*
X134140353Y-99727701D01*
X134181500Y-99845288D01*
X134185207Y-99855882D01*
X134265850Y-99965150D01*
X134375118Y-100045793D01*
X134417845Y-100060744D01*
X134503299Y-100090646D01*
X134533730Y-100093500D01*
X134533734Y-100093500D01*
X135342270Y-100093500D01*
X135372699Y-100090646D01*
X135372701Y-100090646D01*
X135436790Y-100068219D01*
X135500882Y-100045793D01*
X135610150Y-99965150D01*
X135690793Y-99855882D01*
X135720950Y-99769699D01*
X135735646Y-99727701D01*
X135735646Y-99727699D01*
X135738500Y-99697269D01*
X135738500Y-98338730D01*
X135735646Y-98308300D01*
X135735646Y-98308298D01*
X135690793Y-98180119D01*
X135690792Y-98180117D01*
X135610150Y-98070850D01*
X135500882Y-97990207D01*
X135500880Y-97990206D01*
X135372700Y-97945353D01*
X135342270Y-97942500D01*
X135342266Y-97942500D01*
X134533734Y-97942500D01*
X134533730Y-97942500D01*
X134503300Y-97945353D01*
X134503298Y-97945353D01*
X134375119Y-97990206D01*
X134375117Y-97990207D01*
X134265850Y-98070850D01*
X134185207Y-98180117D01*
X134185206Y-98180119D01*
X134140353Y-98308298D01*
X134140353Y-98308300D01*
X134137500Y-98338730D01*
X128454629Y-98338730D01*
X128383789Y-98232711D01*
X128383786Y-98232707D01*
X128272292Y-98121213D01*
X128272288Y-98121210D01*
X128144609Y-98035897D01*
X128099804Y-97982285D01*
X128089500Y-97932795D01*
X128089500Y-96199017D01*
X128109185Y-96131978D01*
X128125819Y-96111336D01*
X128972336Y-95264819D01*
X129033659Y-95231334D01*
X129060017Y-95228500D01*
X137434983Y-95228500D01*
X137502022Y-95248185D01*
X137547777Y-95300989D01*
X137557721Y-95370147D01*
X137528696Y-95433703D01*
X137522664Y-95440181D01*
X136675936Y-96286908D01*
X136675934Y-96286911D01*
X136632819Y-96361589D01*
X136610500Y-96444885D01*
X136610500Y-97932795D01*
X136590815Y-97999834D01*
X136555391Y-98035897D01*
X136427711Y-98121210D01*
X136427707Y-98121213D01*
X136316213Y-98232707D01*
X136316210Y-98232711D01*
X136228609Y-98363814D01*
X136228602Y-98363827D01*
X136168264Y-98509498D01*
X136168261Y-98509510D01*
X136137500Y-98664153D01*
X136137500Y-99371846D01*
X136168261Y-99526489D01*
X136168264Y-99526501D01*
X136228602Y-99672172D01*
X136228609Y-99672185D01*
X136316210Y-99803288D01*
X136316213Y-99803292D01*
X136427707Y-99914786D01*
X136427711Y-99914789D01*
X136558814Y-100002390D01*
X136558827Y-100002397D01*
X136663596Y-100045793D01*
X136704503Y-100062737D01*
X136844810Y-100090646D01*
X136859153Y-100093499D01*
X136859156Y-100093500D01*
X136859158Y-100093500D01*
X137016844Y-100093500D01*
X137016845Y-100093499D01*
X137171497Y-100062737D01*
X137317179Y-100002394D01*
X137448289Y-99914789D01*
X137559789Y-99803289D01*
X137647394Y-99672179D01*
X137707737Y-99526497D01*
X137738500Y-99371842D01*
X137738500Y-98664158D01*
X137738500Y-98664155D01*
X137738499Y-98664153D01*
X137730146Y-98622160D01*
X137707737Y-98509503D01*
X137664640Y-98405457D01*
X137654398Y-98380730D01*
X143249500Y-98380730D01*
X143249500Y-99739269D01*
X143252353Y-99769699D01*
X143252353Y-99769701D01*
X143297206Y-99897880D01*
X143297207Y-99897882D01*
X143377850Y-100007150D01*
X143487118Y-100087793D01*
X143503425Y-100093499D01*
X143615299Y-100132646D01*
X143645730Y-100135500D01*
X143645734Y-100135500D01*
X144454270Y-100135500D01*
X144484699Y-100132646D01*
X144484701Y-100132646D01*
X144548790Y-100110219D01*
X144612882Y-100087793D01*
X144722150Y-100007150D01*
X144802793Y-99897882D01*
X144825219Y-99833790D01*
X144847646Y-99769701D01*
X144847646Y-99769699D01*
X144850500Y-99739269D01*
X144850500Y-98380730D01*
X144847646Y-98350300D01*
X144847646Y-98350298D01*
X144814006Y-98254163D01*
X144802793Y-98222118D01*
X144722150Y-98112850D01*
X144612882Y-98032207D01*
X144612880Y-98032206D01*
X144484700Y-97987353D01*
X144454270Y-97984500D01*
X144454266Y-97984500D01*
X143645734Y-97984500D01*
X143645730Y-97984500D01*
X143615300Y-97987353D01*
X143615298Y-97987353D01*
X143487119Y-98032206D01*
X143487117Y-98032207D01*
X143377850Y-98112850D01*
X143297207Y-98222117D01*
X143297206Y-98222119D01*
X143252353Y-98350298D01*
X143252353Y-98350300D01*
X143249500Y-98380730D01*
X137654398Y-98380730D01*
X137647397Y-98363826D01*
X137647390Y-98363814D01*
X137559789Y-98232711D01*
X137559786Y-98232707D01*
X137448292Y-98121213D01*
X137448288Y-98121210D01*
X137320609Y-98035897D01*
X137275804Y-97982285D01*
X137265500Y-97932795D01*
X137265500Y-96675017D01*
X137285185Y-96607978D01*
X137301819Y-96587336D01*
X138169336Y-95719819D01*
X138230659Y-95686334D01*
X138257017Y-95683500D01*
X146631983Y-95683500D01*
X146699022Y-95703185D01*
X146744777Y-95755989D01*
X146754721Y-95825147D01*
X146725696Y-95888703D01*
X146719664Y-95895181D01*
X145787936Y-96826908D01*
X145787934Y-96826911D01*
X145744819Y-96901589D01*
X145722500Y-96984885D01*
X145722500Y-97974795D01*
X145702815Y-98041834D01*
X145667391Y-98077897D01*
X145539711Y-98163210D01*
X145539707Y-98163213D01*
X145428213Y-98274707D01*
X145428210Y-98274711D01*
X145340609Y-98405814D01*
X145340602Y-98405827D01*
X145280264Y-98551498D01*
X145280261Y-98551510D01*
X145249500Y-98706153D01*
X145249500Y-99413846D01*
X145280261Y-99568489D01*
X145280264Y-99568501D01*
X145340602Y-99714172D01*
X145340609Y-99714185D01*
X145428210Y-99845288D01*
X145428213Y-99845292D01*
X145539707Y-99956786D01*
X145539711Y-99956789D01*
X145670814Y-100044390D01*
X145670827Y-100044397D01*
X145789374Y-100093500D01*
X145816503Y-100104737D01*
X145956810Y-100132646D01*
X145971153Y-100135499D01*
X145971156Y-100135500D01*
X145971158Y-100135500D01*
X146128844Y-100135500D01*
X146128845Y-100135499D01*
X146283497Y-100104737D01*
X146396166Y-100058067D01*
X146429172Y-100044397D01*
X146429172Y-100044396D01*
X146429179Y-100044394D01*
X146560289Y-99956789D01*
X146671789Y-99845289D01*
X146759394Y-99714179D01*
X146819737Y-99568497D01*
X146850500Y-99413842D01*
X146850500Y-98706158D01*
X146850500Y-98706155D01*
X146850499Y-98706153D01*
X146842145Y-98664153D01*
X146819737Y-98551503D01*
X146802338Y-98509498D01*
X146767474Y-98425327D01*
X146767458Y-98425289D01*
X146766074Y-98421948D01*
X146759394Y-98405821D01*
X146759391Y-98405816D01*
X146759390Y-98405814D01*
X146742629Y-98380730D01*
X152425500Y-98380730D01*
X152425500Y-99739269D01*
X152428353Y-99769699D01*
X152428353Y-99769701D01*
X152473206Y-99897880D01*
X152473207Y-99897882D01*
X152553850Y-100007150D01*
X152663118Y-100087793D01*
X152679425Y-100093499D01*
X152791299Y-100132646D01*
X152821730Y-100135500D01*
X152821734Y-100135500D01*
X153630270Y-100135500D01*
X153660699Y-100132646D01*
X153660701Y-100132646D01*
X153724790Y-100110219D01*
X153788882Y-100087793D01*
X153898150Y-100007150D01*
X153978793Y-99897882D01*
X154001219Y-99833790D01*
X154023646Y-99769701D01*
X154023646Y-99769699D01*
X154026500Y-99739269D01*
X154026500Y-98380730D01*
X154023646Y-98350300D01*
X154023646Y-98350298D01*
X153990006Y-98254163D01*
X153978793Y-98222118D01*
X153898150Y-98112850D01*
X153788882Y-98032207D01*
X153788880Y-98032206D01*
X153660700Y-97987353D01*
X153630270Y-97984500D01*
X153630266Y-97984500D01*
X152821734Y-97984500D01*
X152821730Y-97984500D01*
X152791300Y-97987353D01*
X152791298Y-97987353D01*
X152663119Y-98032206D01*
X152663117Y-98032207D01*
X152553850Y-98112850D01*
X152473207Y-98222117D01*
X152473206Y-98222119D01*
X152428353Y-98350298D01*
X152428353Y-98350300D01*
X152425500Y-98380730D01*
X146742629Y-98380730D01*
X146671789Y-98274711D01*
X146671786Y-98274707D01*
X146560292Y-98163213D01*
X146560288Y-98163210D01*
X146432609Y-98077897D01*
X146387804Y-98024285D01*
X146377500Y-97974795D01*
X146377500Y-97215017D01*
X146397185Y-97147978D01*
X146413819Y-97127336D01*
X147366336Y-96174819D01*
X147427659Y-96141334D01*
X147454017Y-96138500D01*
X155574983Y-96138500D01*
X155642022Y-96158185D01*
X155687777Y-96210989D01*
X155697721Y-96280147D01*
X155668696Y-96343703D01*
X155662664Y-96350181D01*
X154963936Y-97048908D01*
X154963934Y-97048911D01*
X154920819Y-97123589D01*
X154898500Y-97206885D01*
X154898500Y-97974795D01*
X154878815Y-98041834D01*
X154843391Y-98077897D01*
X154715711Y-98163210D01*
X154715707Y-98163213D01*
X154604213Y-98274707D01*
X154604210Y-98274711D01*
X154516609Y-98405814D01*
X154516602Y-98405827D01*
X154456264Y-98551498D01*
X154456261Y-98551510D01*
X154425500Y-98706153D01*
X154425500Y-99413846D01*
X154456261Y-99568489D01*
X154456264Y-99568501D01*
X154516602Y-99714172D01*
X154516609Y-99714185D01*
X154604210Y-99845288D01*
X154604213Y-99845292D01*
X154715707Y-99956786D01*
X154715711Y-99956789D01*
X154846814Y-100044390D01*
X154846827Y-100044397D01*
X154965374Y-100093500D01*
X154992503Y-100104737D01*
X155132810Y-100132646D01*
X155147153Y-100135499D01*
X155147156Y-100135500D01*
X155147158Y-100135500D01*
X155304844Y-100135500D01*
X155304845Y-100135499D01*
X155459497Y-100104737D01*
X155572166Y-100058067D01*
X155605172Y-100044397D01*
X155605172Y-100044396D01*
X155605179Y-100044394D01*
X155736289Y-99956789D01*
X155847789Y-99845289D01*
X155935394Y-99714179D01*
X155995737Y-99568497D01*
X156026500Y-99413842D01*
X156026500Y-98706158D01*
X156026500Y-98706155D01*
X156026499Y-98706153D01*
X156018145Y-98664153D01*
X155995737Y-98551503D01*
X155978338Y-98509498D01*
X155943474Y-98425327D01*
X155943458Y-98425289D01*
X155942074Y-98421948D01*
X155935394Y-98405821D01*
X155935391Y-98405816D01*
X155935390Y-98405814D01*
X155918629Y-98380730D01*
X161569500Y-98380730D01*
X161569500Y-99739269D01*
X161572353Y-99769699D01*
X161572353Y-99769701D01*
X161617206Y-99897880D01*
X161617207Y-99897882D01*
X161697850Y-100007150D01*
X161807118Y-100087793D01*
X161823425Y-100093499D01*
X161935299Y-100132646D01*
X161965730Y-100135500D01*
X161965734Y-100135500D01*
X162774270Y-100135500D01*
X162804699Y-100132646D01*
X162804701Y-100132646D01*
X162868790Y-100110219D01*
X162932882Y-100087793D01*
X163042150Y-100007150D01*
X163122793Y-99897882D01*
X163145219Y-99833790D01*
X163167646Y-99769701D01*
X163167646Y-99769699D01*
X163170500Y-99739269D01*
X163170500Y-98380730D01*
X163167646Y-98350300D01*
X163167646Y-98350298D01*
X163134006Y-98254163D01*
X163122793Y-98222118D01*
X163042150Y-98112850D01*
X162932882Y-98032207D01*
X162932880Y-98032206D01*
X162804700Y-97987353D01*
X162774270Y-97984500D01*
X162774266Y-97984500D01*
X161965734Y-97984500D01*
X161965730Y-97984500D01*
X161935300Y-97987353D01*
X161935298Y-97987353D01*
X161807119Y-98032206D01*
X161807117Y-98032207D01*
X161697850Y-98112850D01*
X161617207Y-98222117D01*
X161617206Y-98222119D01*
X161572353Y-98350298D01*
X161572353Y-98350300D01*
X161569500Y-98380730D01*
X155918629Y-98380730D01*
X155847789Y-98274711D01*
X155847786Y-98274707D01*
X155736292Y-98163213D01*
X155736288Y-98163210D01*
X155608609Y-98077897D01*
X155563804Y-98024285D01*
X155553500Y-97974795D01*
X155553500Y-97437017D01*
X155573185Y-97369978D01*
X155589819Y-97349336D01*
X156309336Y-96629819D01*
X156370659Y-96596334D01*
X156397017Y-96593500D01*
X161650614Y-96593500D01*
X161650616Y-96593500D01*
X161733910Y-96571181D01*
X161808590Y-96528065D01*
X162822065Y-95514590D01*
X162865181Y-95439910D01*
X162887500Y-95356616D01*
X162887500Y-95270384D01*
X162887500Y-93582103D01*
X162907185Y-93515064D01*
X162959989Y-93469309D01*
X162964031Y-93467548D01*
X162964758Y-93467248D01*
X163104712Y-93373734D01*
X163223734Y-93254712D01*
X163275397Y-93177391D01*
X163329009Y-93132586D01*
X163398334Y-93123879D01*
X163461362Y-93154033D01*
X163498082Y-93213476D01*
X163502500Y-93246282D01*
X163502500Y-97238884D01*
X163502500Y-97325116D01*
X163508990Y-97349336D01*
X163524819Y-97408410D01*
X163567934Y-97483088D01*
X163567936Y-97483091D01*
X163985666Y-97900821D01*
X164019151Y-97962144D01*
X164014167Y-98031836D01*
X163972295Y-98087769D01*
X163966877Y-98091604D01*
X163859707Y-98163213D01*
X163748213Y-98274707D01*
X163748210Y-98274711D01*
X163660609Y-98405814D01*
X163660602Y-98405827D01*
X163600264Y-98551498D01*
X163600261Y-98551510D01*
X163569500Y-98706153D01*
X163569500Y-99413846D01*
X163600261Y-99568489D01*
X163600264Y-99568501D01*
X163660602Y-99714172D01*
X163660609Y-99714185D01*
X163748210Y-99845288D01*
X163748213Y-99845292D01*
X163859707Y-99956786D01*
X163859711Y-99956789D01*
X163990814Y-100044390D01*
X163990827Y-100044397D01*
X164109374Y-100093500D01*
X164136503Y-100104737D01*
X164276810Y-100132646D01*
X164291153Y-100135499D01*
X164291156Y-100135500D01*
X164291158Y-100135500D01*
X164448844Y-100135500D01*
X164448845Y-100135499D01*
X164603497Y-100104737D01*
X164716166Y-100058067D01*
X164749172Y-100044397D01*
X164749172Y-100044396D01*
X164749179Y-100044394D01*
X164880289Y-99956789D01*
X164991789Y-99845289D01*
X165079394Y-99714179D01*
X165139737Y-99568497D01*
X165170500Y-99413842D01*
X165170500Y-98706158D01*
X165170500Y-98706155D01*
X165170499Y-98706153D01*
X165162145Y-98664153D01*
X165139737Y-98551503D01*
X165122338Y-98509498D01*
X165079397Y-98405827D01*
X165079390Y-98405814D01*
X164991789Y-98274711D01*
X164991786Y-98274707D01*
X164880292Y-98163213D01*
X164880288Y-98163210D01*
X164752609Y-98077897D01*
X164707804Y-98024285D01*
X164697500Y-97974795D01*
X164697500Y-97778885D01*
X164697500Y-97778884D01*
X164675181Y-97695590D01*
X164632065Y-97620910D01*
X164571090Y-97559935D01*
X164193819Y-97182664D01*
X164160334Y-97121341D01*
X164157500Y-97094983D01*
X164157500Y-93246282D01*
X164177185Y-93179243D01*
X164229989Y-93133488D01*
X164299147Y-93123544D01*
X164362703Y-93152569D01*
X164384601Y-93177390D01*
X164408713Y-93213476D01*
X164436267Y-93254714D01*
X164555284Y-93373731D01*
X164555288Y-93373734D01*
X164695235Y-93467244D01*
X164695244Y-93467249D01*
X164730472Y-93481840D01*
X164850751Y-93531662D01*
X165015834Y-93564499D01*
X165015838Y-93564500D01*
X165015839Y-93564500D01*
X165184162Y-93564500D01*
X165184163Y-93564499D01*
X165349249Y-93531662D01*
X165504758Y-93467248D01*
X165644712Y-93373734D01*
X165763734Y-93254712D01*
X165857248Y-93114758D01*
X165921662Y-92959249D01*
X165954500Y-92794161D01*
X165954500Y-92625839D01*
X165954499Y-92625834D01*
X166785500Y-92625834D01*
X166785500Y-92794165D01*
X166818336Y-92959241D01*
X166818338Y-92959249D01*
X166882750Y-93114755D01*
X166882755Y-93114764D01*
X166976265Y-93254711D01*
X166976268Y-93254715D01*
X167095284Y-93373731D01*
X167095288Y-93373734D01*
X167235235Y-93467244D01*
X167235244Y-93467249D01*
X167270472Y-93481840D01*
X167390751Y-93531662D01*
X167555834Y-93564499D01*
X167555838Y-93564500D01*
X167555839Y-93564500D01*
X167724162Y-93564500D01*
X167724163Y-93564499D01*
X167889249Y-93531662D01*
X168044758Y-93467248D01*
X168184712Y-93373734D01*
X168303734Y-93254712D01*
X168397248Y-93114758D01*
X168461662Y-92959249D01*
X168494500Y-92794161D01*
X168494500Y-92625839D01*
X168494499Y-92625834D01*
X169325500Y-92625834D01*
X169325500Y-92794165D01*
X169358336Y-92959241D01*
X169358338Y-92959249D01*
X169422750Y-93114755D01*
X169422755Y-93114764D01*
X169516265Y-93254711D01*
X169516268Y-93254715D01*
X169635284Y-93373731D01*
X169635288Y-93373734D01*
X169775235Y-93467244D01*
X169775244Y-93467249D01*
X169810472Y-93481840D01*
X169930751Y-93531662D01*
X170095834Y-93564499D01*
X170095838Y-93564500D01*
X170095839Y-93564500D01*
X170264162Y-93564500D01*
X170264163Y-93564499D01*
X170429249Y-93531662D01*
X170584758Y-93467248D01*
X170724712Y-93373734D01*
X170843734Y-93254712D01*
X170937248Y-93114758D01*
X171001662Y-92959249D01*
X171034500Y-92794161D01*
X171034500Y-92625839D01*
X171034499Y-92625834D01*
X171865500Y-92625834D01*
X171865500Y-92794165D01*
X171898336Y-92959241D01*
X171898338Y-92959249D01*
X171962750Y-93114755D01*
X171962755Y-93114764D01*
X172056265Y-93254711D01*
X172056268Y-93254715D01*
X172175284Y-93373731D01*
X172175288Y-93373734D01*
X172315235Y-93467244D01*
X172315244Y-93467249D01*
X172350472Y-93481840D01*
X172470751Y-93531662D01*
X172635834Y-93564499D01*
X172635838Y-93564500D01*
X172635839Y-93564500D01*
X172804162Y-93564500D01*
X172804163Y-93564499D01*
X172969249Y-93531662D01*
X173124758Y-93467248D01*
X173264712Y-93373734D01*
X173383734Y-93254712D01*
X173477248Y-93114758D01*
X173541662Y-92959249D01*
X173574500Y-92794161D01*
X173574500Y-92625839D01*
X173574499Y-92625834D01*
X174405500Y-92625834D01*
X174405500Y-92794165D01*
X174438336Y-92959241D01*
X174438338Y-92959249D01*
X174502750Y-93114755D01*
X174502755Y-93114764D01*
X174596265Y-93254711D01*
X174596268Y-93254715D01*
X174715284Y-93373731D01*
X174715288Y-93373734D01*
X174855235Y-93467244D01*
X174855244Y-93467249D01*
X174890472Y-93481840D01*
X175010751Y-93531662D01*
X175175834Y-93564499D01*
X175175838Y-93564500D01*
X175175839Y-93564500D01*
X175344162Y-93564500D01*
X175344163Y-93564499D01*
X175509249Y-93531662D01*
X175664758Y-93467248D01*
X175804712Y-93373734D01*
X175923734Y-93254712D01*
X176017248Y-93114758D01*
X176081662Y-92959249D01*
X176114500Y-92794161D01*
X176114500Y-92625839D01*
X176081662Y-92460751D01*
X176017248Y-92305242D01*
X176017247Y-92305241D01*
X176017244Y-92305235D01*
X175923734Y-92165288D01*
X175923731Y-92165284D01*
X175804715Y-92046268D01*
X175804711Y-92046265D01*
X175664764Y-91952755D01*
X175664755Y-91952750D01*
X175509249Y-91888338D01*
X175509241Y-91888336D01*
X175344165Y-91855500D01*
X175344161Y-91855500D01*
X175175839Y-91855500D01*
X175175834Y-91855500D01*
X175010758Y-91888336D01*
X175010750Y-91888338D01*
X174855244Y-91952750D01*
X174855235Y-91952755D01*
X174715288Y-92046265D01*
X174715284Y-92046268D01*
X174596268Y-92165284D01*
X174596265Y-92165288D01*
X174502755Y-92305235D01*
X174502750Y-92305244D01*
X174438338Y-92460750D01*
X174438336Y-92460758D01*
X174405500Y-92625834D01*
X173574499Y-92625834D01*
X173541662Y-92460751D01*
X173477248Y-92305242D01*
X173477247Y-92305241D01*
X173477244Y-92305235D01*
X173383734Y-92165288D01*
X173383731Y-92165284D01*
X173264715Y-92046268D01*
X173264711Y-92046265D01*
X173124764Y-91952755D01*
X173124755Y-91952750D01*
X172969249Y-91888338D01*
X172969241Y-91888336D01*
X172804165Y-91855500D01*
X172804161Y-91855500D01*
X172635839Y-91855500D01*
X172635834Y-91855500D01*
X172470758Y-91888336D01*
X172470750Y-91888338D01*
X172315244Y-91952750D01*
X172315235Y-91952755D01*
X172175288Y-92046265D01*
X172175284Y-92046268D01*
X172056268Y-92165284D01*
X172056265Y-92165288D01*
X171962755Y-92305235D01*
X171962750Y-92305244D01*
X171898338Y-92460750D01*
X171898336Y-92460758D01*
X171865500Y-92625834D01*
X171034499Y-92625834D01*
X171001662Y-92460751D01*
X170937248Y-92305242D01*
X170937247Y-92305241D01*
X170937244Y-92305235D01*
X170843734Y-92165288D01*
X170843731Y-92165284D01*
X170724715Y-92046268D01*
X170724711Y-92046265D01*
X170584764Y-91952755D01*
X170584755Y-91952750D01*
X170429249Y-91888338D01*
X170429241Y-91888336D01*
X170264165Y-91855500D01*
X170264161Y-91855500D01*
X170095839Y-91855500D01*
X170095834Y-91855500D01*
X169930758Y-91888336D01*
X169930750Y-91888338D01*
X169775244Y-91952750D01*
X169775235Y-91952755D01*
X169635288Y-92046265D01*
X169635284Y-92046268D01*
X169516268Y-92165284D01*
X169516265Y-92165288D01*
X169422755Y-92305235D01*
X169422750Y-92305244D01*
X169358338Y-92460750D01*
X169358336Y-92460758D01*
X169325500Y-92625834D01*
X168494499Y-92625834D01*
X168461662Y-92460751D01*
X168397248Y-92305242D01*
X168397247Y-92305241D01*
X168397244Y-92305235D01*
X168303734Y-92165288D01*
X168303731Y-92165284D01*
X168184715Y-92046268D01*
X168184711Y-92046265D01*
X168044764Y-91952755D01*
X168044755Y-91952750D01*
X167889249Y-91888338D01*
X167889241Y-91888336D01*
X167724165Y-91855500D01*
X167724161Y-91855500D01*
X167555839Y-91855500D01*
X167555834Y-91855500D01*
X167390758Y-91888336D01*
X167390750Y-91888338D01*
X167235244Y-91952750D01*
X167235235Y-91952755D01*
X167095288Y-92046265D01*
X167095284Y-92046268D01*
X166976268Y-92165284D01*
X166976265Y-92165288D01*
X166882755Y-92305235D01*
X166882750Y-92305244D01*
X166818338Y-92460750D01*
X166818336Y-92460758D01*
X166785500Y-92625834D01*
X165954499Y-92625834D01*
X165921662Y-92460751D01*
X165857248Y-92305242D01*
X165857247Y-92305241D01*
X165857244Y-92305235D01*
X165763734Y-92165288D01*
X165763731Y-92165284D01*
X165644715Y-92046268D01*
X165644711Y-92046265D01*
X165504764Y-91952755D01*
X165504755Y-91952750D01*
X165349249Y-91888338D01*
X165349241Y-91888336D01*
X165184165Y-91855500D01*
X165184161Y-91855500D01*
X165015839Y-91855500D01*
X165015834Y-91855500D01*
X164850758Y-91888336D01*
X164850750Y-91888338D01*
X164695244Y-91952750D01*
X164695235Y-91952755D01*
X164555288Y-92046265D01*
X164555284Y-92046268D01*
X164436268Y-92165284D01*
X164436265Y-92165288D01*
X164384602Y-92242608D01*
X164330990Y-92287413D01*
X164261665Y-92296120D01*
X164198637Y-92265966D01*
X164161918Y-92206523D01*
X164157500Y-92173717D01*
X164157500Y-78696885D01*
X164157500Y-78696884D01*
X164135181Y-78613590D01*
X164092065Y-78538910D01*
X164031090Y-78477935D01*
X163408247Y-77855092D01*
X163374762Y-77793769D01*
X163379746Y-77724077D01*
X163381347Y-77720007D01*
X163381662Y-77719249D01*
X163414500Y-77554161D01*
X163414500Y-77385839D01*
X163414499Y-77385834D01*
X164245500Y-77385834D01*
X164245500Y-77554165D01*
X164278336Y-77719241D01*
X164278338Y-77719249D01*
X164342750Y-77874755D01*
X164342755Y-77874764D01*
X164436265Y-78014711D01*
X164436268Y-78014715D01*
X164555284Y-78133731D01*
X164555288Y-78133734D01*
X164695235Y-78227244D01*
X164695241Y-78227247D01*
X164695242Y-78227248D01*
X164850751Y-78291662D01*
X164968884Y-78315160D01*
X165015834Y-78324499D01*
X165015838Y-78324500D01*
X165015839Y-78324500D01*
X165184162Y-78324500D01*
X165184163Y-78324499D01*
X165349249Y-78291662D01*
X165504758Y-78227248D01*
X165644712Y-78133734D01*
X165763734Y-78014712D01*
X165857248Y-77874758D01*
X165921662Y-77719249D01*
X165954500Y-77554161D01*
X165954500Y-77385839D01*
X165954499Y-77385834D01*
X166785500Y-77385834D01*
X166785500Y-77554165D01*
X166818336Y-77719241D01*
X166818338Y-77719249D01*
X166882750Y-77874755D01*
X166882755Y-77874764D01*
X166976265Y-78014711D01*
X166976268Y-78014715D01*
X167095284Y-78133731D01*
X167095288Y-78133734D01*
X167235235Y-78227244D01*
X167235241Y-78227247D01*
X167235242Y-78227248D01*
X167390751Y-78291662D01*
X167508884Y-78315160D01*
X167555834Y-78324499D01*
X167555838Y-78324500D01*
X167555839Y-78324500D01*
X167724162Y-78324500D01*
X167724163Y-78324499D01*
X167889249Y-78291662D01*
X168044758Y-78227248D01*
X168184712Y-78133734D01*
X168303734Y-78014712D01*
X168397248Y-77874758D01*
X168461662Y-77719249D01*
X168494500Y-77554161D01*
X168494500Y-77385839D01*
X168494499Y-77385834D01*
X169325500Y-77385834D01*
X169325500Y-77554165D01*
X169358336Y-77719241D01*
X169358338Y-77719249D01*
X169422750Y-77874755D01*
X169422755Y-77874764D01*
X169516265Y-78014711D01*
X169516268Y-78014715D01*
X169635284Y-78133731D01*
X169635288Y-78133734D01*
X169775235Y-78227244D01*
X169775241Y-78227247D01*
X169775242Y-78227248D01*
X169930751Y-78291662D01*
X170048884Y-78315160D01*
X170095834Y-78324499D01*
X170095838Y-78324500D01*
X170095839Y-78324500D01*
X170264162Y-78324500D01*
X170264163Y-78324499D01*
X170429249Y-78291662D01*
X170584758Y-78227248D01*
X170724712Y-78133734D01*
X170843734Y-78014712D01*
X170937248Y-77874758D01*
X171001662Y-77719249D01*
X171034500Y-77554161D01*
X171034500Y-77385839D01*
X171034499Y-77385834D01*
X171865500Y-77385834D01*
X171865500Y-77554165D01*
X171898336Y-77719241D01*
X171898338Y-77719249D01*
X171962750Y-77874755D01*
X171962755Y-77874764D01*
X172056265Y-78014711D01*
X172056268Y-78014715D01*
X172175284Y-78133731D01*
X172175288Y-78133734D01*
X172315235Y-78227244D01*
X172315241Y-78227247D01*
X172315242Y-78227248D01*
X172470751Y-78291662D01*
X172588884Y-78315160D01*
X172635834Y-78324499D01*
X172635838Y-78324500D01*
X172635839Y-78324500D01*
X172804162Y-78324500D01*
X172804163Y-78324499D01*
X172969249Y-78291662D01*
X173124758Y-78227248D01*
X173264712Y-78133734D01*
X173383734Y-78014712D01*
X173477248Y-77874758D01*
X173541662Y-77719249D01*
X173574500Y-77554161D01*
X173574500Y-77385839D01*
X173574499Y-77385834D01*
X174405500Y-77385834D01*
X174405500Y-77554165D01*
X174438336Y-77719241D01*
X174438338Y-77719249D01*
X174502750Y-77874755D01*
X174502755Y-77874764D01*
X174596265Y-78014711D01*
X174596268Y-78014715D01*
X174715284Y-78133731D01*
X174715288Y-78133734D01*
X174855235Y-78227244D01*
X174855241Y-78227247D01*
X174855242Y-78227248D01*
X175010751Y-78291662D01*
X175128884Y-78315160D01*
X175175834Y-78324499D01*
X175175838Y-78324500D01*
X175175839Y-78324500D01*
X175344162Y-78324500D01*
X175344163Y-78324499D01*
X175509249Y-78291662D01*
X175664758Y-78227248D01*
X175804712Y-78133734D01*
X175923734Y-78014712D01*
X176017248Y-77874758D01*
X176081662Y-77719249D01*
X176114500Y-77554161D01*
X176114500Y-77385839D01*
X176081662Y-77220751D01*
X176017248Y-77065242D01*
X176017247Y-77065241D01*
X176017244Y-77065235D01*
X175923734Y-76925288D01*
X175923731Y-76925284D01*
X175804715Y-76806268D01*
X175804711Y-76806265D01*
X175664764Y-76712755D01*
X175664755Y-76712750D01*
X175509249Y-76648338D01*
X175509241Y-76648336D01*
X175344165Y-76615500D01*
X175344161Y-76615500D01*
X175175839Y-76615500D01*
X175175834Y-76615500D01*
X175010758Y-76648336D01*
X175010750Y-76648338D01*
X174855244Y-76712750D01*
X174855235Y-76712755D01*
X174715288Y-76806265D01*
X174715284Y-76806268D01*
X174596268Y-76925284D01*
X174596265Y-76925288D01*
X174502755Y-77065235D01*
X174502750Y-77065244D01*
X174438338Y-77220750D01*
X174438336Y-77220758D01*
X174405500Y-77385834D01*
X173574499Y-77385834D01*
X173541662Y-77220751D01*
X173477248Y-77065242D01*
X173477247Y-77065241D01*
X173477244Y-77065235D01*
X173383734Y-76925288D01*
X173383731Y-76925284D01*
X173264715Y-76806268D01*
X173264711Y-76806265D01*
X173124764Y-76712755D01*
X173124755Y-76712750D01*
X172969249Y-76648338D01*
X172969241Y-76648336D01*
X172804165Y-76615500D01*
X172804161Y-76615500D01*
X172635839Y-76615500D01*
X172635834Y-76615500D01*
X172470758Y-76648336D01*
X172470750Y-76648338D01*
X172315244Y-76712750D01*
X172315235Y-76712755D01*
X172175288Y-76806265D01*
X172175284Y-76806268D01*
X172056268Y-76925284D01*
X172056265Y-76925288D01*
X171962755Y-77065235D01*
X171962750Y-77065244D01*
X171898338Y-77220750D01*
X171898336Y-77220758D01*
X171865500Y-77385834D01*
X171034499Y-77385834D01*
X171001662Y-77220751D01*
X170937248Y-77065242D01*
X170937247Y-77065241D01*
X170937244Y-77065235D01*
X170843734Y-76925288D01*
X170843731Y-76925284D01*
X170724715Y-76806268D01*
X170724711Y-76806265D01*
X170584764Y-76712755D01*
X170584755Y-76712750D01*
X170429249Y-76648338D01*
X170429241Y-76648336D01*
X170264165Y-76615500D01*
X170264161Y-76615500D01*
X170095839Y-76615500D01*
X170095834Y-76615500D01*
X169930758Y-76648336D01*
X169930750Y-76648338D01*
X169775244Y-76712750D01*
X169775235Y-76712755D01*
X169635288Y-76806265D01*
X169635284Y-76806268D01*
X169516268Y-76925284D01*
X169516265Y-76925288D01*
X169422755Y-77065235D01*
X169422750Y-77065244D01*
X169358338Y-77220750D01*
X169358336Y-77220758D01*
X169325500Y-77385834D01*
X168494499Y-77385834D01*
X168461662Y-77220751D01*
X168397248Y-77065242D01*
X168397247Y-77065241D01*
X168397244Y-77065235D01*
X168303734Y-76925288D01*
X168303731Y-76925284D01*
X168184715Y-76806268D01*
X168184711Y-76806265D01*
X168044764Y-76712755D01*
X168044755Y-76712750D01*
X167889249Y-76648338D01*
X167889241Y-76648336D01*
X167724165Y-76615500D01*
X167724161Y-76615500D01*
X167555839Y-76615500D01*
X167555834Y-76615500D01*
X167390758Y-76648336D01*
X167390750Y-76648338D01*
X167235244Y-76712750D01*
X167235235Y-76712755D01*
X167095288Y-76806265D01*
X167095284Y-76806268D01*
X166976268Y-76925284D01*
X166976265Y-76925288D01*
X166882755Y-77065235D01*
X166882750Y-77065244D01*
X166818338Y-77220750D01*
X166818336Y-77220758D01*
X166785500Y-77385834D01*
X165954499Y-77385834D01*
X165921662Y-77220751D01*
X165857248Y-77065242D01*
X165857247Y-77065241D01*
X165857244Y-77065235D01*
X165763734Y-76925288D01*
X165763731Y-76925284D01*
X165644715Y-76806268D01*
X165644711Y-76806265D01*
X165504764Y-76712755D01*
X165504755Y-76712750D01*
X165349249Y-76648338D01*
X165349241Y-76648336D01*
X165184165Y-76615500D01*
X165184161Y-76615500D01*
X165015839Y-76615500D01*
X165015834Y-76615500D01*
X164850758Y-76648336D01*
X164850750Y-76648338D01*
X164695244Y-76712750D01*
X164695235Y-76712755D01*
X164555288Y-76806265D01*
X164555284Y-76806268D01*
X164436268Y-76925284D01*
X164436265Y-76925288D01*
X164342755Y-77065235D01*
X164342750Y-77065244D01*
X164278338Y-77220750D01*
X164278336Y-77220758D01*
X164245500Y-77385834D01*
X163414499Y-77385834D01*
X163381662Y-77220751D01*
X163317248Y-77065242D01*
X163317247Y-77065241D01*
X163317244Y-77065235D01*
X163223734Y-76925288D01*
X163223731Y-76925284D01*
X163104715Y-76806268D01*
X163104711Y-76806265D01*
X162964764Y-76712755D01*
X162964755Y-76712750D01*
X162809249Y-76648338D01*
X162809241Y-76648336D01*
X162644165Y-76615500D01*
X162644161Y-76615500D01*
X162475839Y-76615500D01*
X162475834Y-76615500D01*
X162310758Y-76648336D01*
X162310750Y-76648338D01*
X162155244Y-76712750D01*
X162155235Y-76712755D01*
X162015288Y-76806265D01*
X162015284Y-76806268D01*
X161896268Y-76925284D01*
X161896265Y-76925288D01*
X161802755Y-77065235D01*
X161802750Y-77065244D01*
X161738338Y-77220750D01*
X161738336Y-77220758D01*
X161705500Y-77385834D01*
X161705500Y-77554165D01*
X161738336Y-77719241D01*
X161738338Y-77719249D01*
X161802750Y-77874755D01*
X161802755Y-77874764D01*
X161896265Y-78014711D01*
X161896268Y-78014715D01*
X162015284Y-78133731D01*
X162015288Y-78133734D01*
X162155235Y-78227244D01*
X162155241Y-78227247D01*
X162155242Y-78227248D01*
X162310751Y-78291662D01*
X162428884Y-78315160D01*
X162475834Y-78324499D01*
X162475838Y-78324500D01*
X162475839Y-78324500D01*
X162644162Y-78324500D01*
X162644163Y-78324499D01*
X162725618Y-78308297D01*
X162809240Y-78291664D01*
X162809240Y-78291663D01*
X162809249Y-78291662D01*
X162809945Y-78291373D01*
X162810338Y-78291331D01*
X162815076Y-78289894D01*
X162815348Y-78290791D01*
X162879409Y-78283895D01*
X162941893Y-78315160D01*
X162945092Y-78318247D01*
X163466181Y-78839336D01*
X163499666Y-78900659D01*
X163502500Y-78927017D01*
X163502500Y-92173717D01*
X163482815Y-92240756D01*
X163430011Y-92286511D01*
X163360853Y-92296455D01*
X163297297Y-92267430D01*
X163275398Y-92242608D01*
X163223734Y-92165288D01*
X163223731Y-92165284D01*
X163104715Y-92046268D01*
X163104711Y-92046265D01*
X162964764Y-91952755D01*
X162964755Y-91952750D01*
X162809249Y-91888338D01*
X162809241Y-91888336D01*
X162644165Y-91855500D01*
X162644161Y-91855500D01*
X162475839Y-91855500D01*
X162475834Y-91855500D01*
X162310758Y-91888336D01*
X162310750Y-91888338D01*
X162155244Y-91952750D01*
X162155235Y-91952755D01*
X162015288Y-92046265D01*
X162015284Y-92046268D01*
X161896268Y-92165284D01*
X161896265Y-92165288D01*
X161802755Y-92305235D01*
X161802750Y-92305244D01*
X161738338Y-92460750D01*
X161738336Y-92460758D01*
X161705500Y-92625834D01*
X161705500Y-92794165D01*
X161738336Y-92959241D01*
X161738338Y-92959249D01*
X161802750Y-93114755D01*
X161802755Y-93114764D01*
X161896265Y-93254711D01*
X161896268Y-93254715D01*
X162015284Y-93373731D01*
X162015292Y-93373737D01*
X162155231Y-93467241D01*
X162155233Y-93467242D01*
X162155242Y-93467248D01*
X162155949Y-93467540D01*
X162156259Y-93467791D01*
X162160613Y-93470118D01*
X162160171Y-93470943D01*
X162210353Y-93511379D01*
X162232421Y-93577672D01*
X162232500Y-93582103D01*
X162232500Y-95126483D01*
X162212815Y-95193522D01*
X162196181Y-95214164D01*
X161508164Y-95902181D01*
X161446841Y-95935666D01*
X161420483Y-95938500D01*
X159586017Y-95938500D01*
X159518978Y-95918815D01*
X159473223Y-95866011D01*
X159463279Y-95796853D01*
X159492304Y-95733297D01*
X159498336Y-95726819D01*
X159883302Y-95341853D01*
X160282065Y-94943090D01*
X160325181Y-94868410D01*
X160347500Y-94785116D01*
X160347500Y-94698884D01*
X160347500Y-93582103D01*
X160367185Y-93515064D01*
X160419989Y-93469309D01*
X160424031Y-93467548D01*
X160424758Y-93467248D01*
X160564712Y-93373734D01*
X160683734Y-93254712D01*
X160777248Y-93114758D01*
X160841662Y-92959249D01*
X160874500Y-92794161D01*
X160874500Y-92625839D01*
X160841662Y-92460751D01*
X160777248Y-92305242D01*
X160777247Y-92305241D01*
X160777244Y-92305235D01*
X160683734Y-92165288D01*
X160683731Y-92165284D01*
X160564715Y-92046268D01*
X160564711Y-92046265D01*
X160424764Y-91952755D01*
X160424755Y-91952750D01*
X160269249Y-91888338D01*
X160269241Y-91888336D01*
X160104165Y-91855500D01*
X160104161Y-91855500D01*
X159935839Y-91855500D01*
X159935834Y-91855500D01*
X159770758Y-91888336D01*
X159770750Y-91888338D01*
X159615244Y-91952750D01*
X159615235Y-91952755D01*
X159475288Y-92046265D01*
X159475284Y-92046268D01*
X159356268Y-92165284D01*
X159356265Y-92165288D01*
X159262755Y-92305235D01*
X159262750Y-92305244D01*
X159198338Y-92460750D01*
X159198336Y-92460758D01*
X159165500Y-92625834D01*
X159165500Y-92794165D01*
X159198336Y-92959241D01*
X159198338Y-92959249D01*
X159262750Y-93114755D01*
X159262755Y-93114764D01*
X159356265Y-93254711D01*
X159356268Y-93254715D01*
X159475284Y-93373731D01*
X159475292Y-93373737D01*
X159615231Y-93467241D01*
X159615233Y-93467242D01*
X159615242Y-93467248D01*
X159615949Y-93467540D01*
X159616259Y-93467791D01*
X159620613Y-93470118D01*
X159620171Y-93470943D01*
X159670353Y-93511379D01*
X159692421Y-93577672D01*
X159692500Y-93582103D01*
X159692500Y-94554983D01*
X159672815Y-94622022D01*
X159656181Y-94642664D01*
X158851664Y-95447181D01*
X158790341Y-95480666D01*
X158763983Y-95483500D01*
X156993017Y-95483500D01*
X156925978Y-95463815D01*
X156880223Y-95411011D01*
X156870279Y-95341853D01*
X156899304Y-95278297D01*
X156905336Y-95271819D01*
X157308745Y-94868410D01*
X157742065Y-94435090D01*
X157785181Y-94360410D01*
X157807500Y-94277116D01*
X157807500Y-94190884D01*
X157807500Y-93582103D01*
X157827185Y-93515064D01*
X157879989Y-93469309D01*
X157884031Y-93467548D01*
X157884758Y-93467248D01*
X158024712Y-93373734D01*
X158143734Y-93254712D01*
X158237248Y-93114758D01*
X158301662Y-92959249D01*
X158334500Y-92794161D01*
X158334500Y-92625839D01*
X158301662Y-92460751D01*
X158237248Y-92305242D01*
X158237247Y-92305241D01*
X158237244Y-92305235D01*
X158143734Y-92165288D01*
X158143731Y-92165284D01*
X158024715Y-92046268D01*
X158024711Y-92046265D01*
X157884764Y-91952755D01*
X157884755Y-91952750D01*
X157729249Y-91888338D01*
X157729241Y-91888336D01*
X157564165Y-91855500D01*
X157564161Y-91855500D01*
X157395839Y-91855500D01*
X157395834Y-91855500D01*
X157230758Y-91888336D01*
X157230750Y-91888338D01*
X157075244Y-91952750D01*
X157075235Y-91952755D01*
X156935288Y-92046265D01*
X156935284Y-92046268D01*
X156816268Y-92165284D01*
X156816265Y-92165288D01*
X156722755Y-92305235D01*
X156722750Y-92305244D01*
X156658338Y-92460750D01*
X156658336Y-92460758D01*
X156625500Y-92625834D01*
X156625500Y-92794165D01*
X156658336Y-92959241D01*
X156658338Y-92959249D01*
X156722750Y-93114755D01*
X156722755Y-93114764D01*
X156816265Y-93254711D01*
X156816268Y-93254715D01*
X156935284Y-93373731D01*
X156935292Y-93373737D01*
X157075231Y-93467241D01*
X157075233Y-93467242D01*
X157075242Y-93467248D01*
X157075949Y-93467540D01*
X157076259Y-93467791D01*
X157080613Y-93470118D01*
X157080171Y-93470943D01*
X157130353Y-93511379D01*
X157152421Y-93577672D01*
X157152500Y-93582103D01*
X157152500Y-94046983D01*
X157132815Y-94114022D01*
X157116181Y-94134664D01*
X156258664Y-94992181D01*
X156197341Y-95025666D01*
X156170983Y-95028500D01*
X154400017Y-95028500D01*
X154332978Y-95008815D01*
X154287223Y-94956011D01*
X154277279Y-94886853D01*
X154306304Y-94823297D01*
X154312336Y-94816819D01*
X154694067Y-94435088D01*
X155202065Y-93927090D01*
X155245181Y-93852410D01*
X155267500Y-93769116D01*
X155267500Y-93682884D01*
X155267500Y-93582103D01*
X155287185Y-93515064D01*
X155339989Y-93469309D01*
X155344031Y-93467548D01*
X155344758Y-93467248D01*
X155484712Y-93373734D01*
X155603734Y-93254712D01*
X155697248Y-93114758D01*
X155761662Y-92959249D01*
X155794500Y-92794161D01*
X155794500Y-92625839D01*
X155761662Y-92460751D01*
X155697248Y-92305242D01*
X155697247Y-92305241D01*
X155697244Y-92305235D01*
X155603734Y-92165288D01*
X155603731Y-92165284D01*
X155484715Y-92046268D01*
X155484711Y-92046265D01*
X155344764Y-91952755D01*
X155344755Y-91952750D01*
X155189249Y-91888338D01*
X155189241Y-91888336D01*
X155024165Y-91855500D01*
X155024161Y-91855500D01*
X154855839Y-91855500D01*
X154855834Y-91855500D01*
X154690758Y-91888336D01*
X154690750Y-91888338D01*
X154535244Y-91952750D01*
X154535235Y-91952755D01*
X154395288Y-92046265D01*
X154395284Y-92046268D01*
X154276268Y-92165284D01*
X154276265Y-92165288D01*
X154182755Y-92305235D01*
X154182750Y-92305244D01*
X154118338Y-92460750D01*
X154118336Y-92460758D01*
X154085500Y-92625834D01*
X154085500Y-92794165D01*
X154118336Y-92959241D01*
X154118338Y-92959249D01*
X154182750Y-93114755D01*
X154182755Y-93114764D01*
X154276265Y-93254711D01*
X154276268Y-93254715D01*
X154395285Y-93373732D01*
X154395288Y-93373734D01*
X154529716Y-93463556D01*
X154574521Y-93517166D01*
X154583228Y-93586491D01*
X154553074Y-93649519D01*
X154548506Y-93654338D01*
X153665664Y-94537181D01*
X153604341Y-94570666D01*
X153577983Y-94573500D01*
X128916116Y-94573500D01*
X128829884Y-94573500D01*
X128774354Y-94588379D01*
X128746589Y-94595819D01*
X128671911Y-94638934D01*
X128671908Y-94638936D01*
X127499936Y-95810908D01*
X127499934Y-95810911D01*
X127456819Y-95885589D01*
X127434500Y-95968885D01*
X127434500Y-97932795D01*
X127414815Y-97999834D01*
X127379391Y-98035897D01*
X127251711Y-98121210D01*
X127251707Y-98121213D01*
X127140213Y-98232707D01*
X127140210Y-98232711D01*
X127052609Y-98363814D01*
X127052602Y-98363827D01*
X126992264Y-98509498D01*
X126992261Y-98509510D01*
X126961500Y-98664153D01*
X126562500Y-98664153D01*
X126562500Y-98338730D01*
X126559646Y-98308300D01*
X126559646Y-98308298D01*
X126514793Y-98180119D01*
X126514792Y-98180117D01*
X126434150Y-98070850D01*
X126324882Y-97990207D01*
X126324880Y-97990206D01*
X126196700Y-97945353D01*
X126166270Y-97942500D01*
X126166266Y-97942500D01*
X125357734Y-97942500D01*
X125357730Y-97942500D01*
X125327300Y-97945353D01*
X125327298Y-97945353D01*
X125199119Y-97990206D01*
X125199117Y-97990207D01*
X125089850Y-98070850D01*
X125009207Y-98180117D01*
X125009206Y-98180119D01*
X124964353Y-98308298D01*
X124964353Y-98308300D01*
X124961500Y-98338730D01*
X115516500Y-98338730D01*
X115516500Y-92625834D01*
X118525500Y-92625834D01*
X118525500Y-92794165D01*
X118558336Y-92959241D01*
X118558338Y-92959249D01*
X118622750Y-93114755D01*
X118622755Y-93114764D01*
X118716265Y-93254711D01*
X118716268Y-93254715D01*
X118835284Y-93373731D01*
X118835288Y-93373734D01*
X118975235Y-93467244D01*
X118975244Y-93467249D01*
X119010472Y-93481840D01*
X119130751Y-93531662D01*
X119295834Y-93564499D01*
X119295838Y-93564500D01*
X119295839Y-93564500D01*
X119464162Y-93564500D01*
X119464163Y-93564499D01*
X119629249Y-93531662D01*
X119784758Y-93467248D01*
X119924712Y-93373734D01*
X120043734Y-93254712D01*
X120137248Y-93114758D01*
X120201662Y-92959249D01*
X120234500Y-92794161D01*
X120234500Y-92625839D01*
X120234499Y-92625834D01*
X121065500Y-92625834D01*
X121065500Y-92794165D01*
X121098336Y-92959241D01*
X121098338Y-92959249D01*
X121162750Y-93114755D01*
X121162755Y-93114764D01*
X121256265Y-93254711D01*
X121256268Y-93254715D01*
X121375284Y-93373731D01*
X121375288Y-93373734D01*
X121515235Y-93467244D01*
X121515244Y-93467249D01*
X121550472Y-93481840D01*
X121670751Y-93531662D01*
X121835834Y-93564499D01*
X121835838Y-93564500D01*
X121835839Y-93564500D01*
X122004162Y-93564500D01*
X122004163Y-93564499D01*
X122169249Y-93531662D01*
X122324758Y-93467248D01*
X122464712Y-93373734D01*
X122583734Y-93254712D01*
X122677248Y-93114758D01*
X122741662Y-92959249D01*
X122774500Y-92794161D01*
X122774500Y-92625839D01*
X122774499Y-92625834D01*
X123605500Y-92625834D01*
X123605500Y-92794165D01*
X123638336Y-92959241D01*
X123638338Y-92959249D01*
X123702750Y-93114755D01*
X123702755Y-93114764D01*
X123796265Y-93254711D01*
X123796268Y-93254715D01*
X123915284Y-93373731D01*
X123915288Y-93373734D01*
X124055235Y-93467244D01*
X124055244Y-93467249D01*
X124090472Y-93481840D01*
X124210751Y-93531662D01*
X124375834Y-93564499D01*
X124375838Y-93564500D01*
X124375839Y-93564500D01*
X124544162Y-93564500D01*
X124544163Y-93564499D01*
X124709249Y-93531662D01*
X124864758Y-93467248D01*
X125004712Y-93373734D01*
X125123734Y-93254712D01*
X125217248Y-93114758D01*
X125281662Y-92959249D01*
X125314500Y-92794161D01*
X125314500Y-92625839D01*
X125314499Y-92625834D01*
X126145500Y-92625834D01*
X126145500Y-92794165D01*
X126178336Y-92959241D01*
X126178338Y-92959249D01*
X126242750Y-93114755D01*
X126242755Y-93114764D01*
X126336265Y-93254711D01*
X126336268Y-93254715D01*
X126455284Y-93373731D01*
X126455288Y-93373734D01*
X126595235Y-93467244D01*
X126595244Y-93467249D01*
X126630472Y-93481840D01*
X126750751Y-93531662D01*
X126915834Y-93564499D01*
X126915838Y-93564500D01*
X126915839Y-93564500D01*
X127084162Y-93564500D01*
X127084163Y-93564499D01*
X127249249Y-93531662D01*
X127404758Y-93467248D01*
X127544712Y-93373734D01*
X127663734Y-93254712D01*
X127757248Y-93114758D01*
X127821662Y-92959249D01*
X127854500Y-92794161D01*
X127854500Y-92625839D01*
X127854499Y-92625834D01*
X128685500Y-92625834D01*
X128685500Y-92794165D01*
X128718336Y-92959241D01*
X128718338Y-92959249D01*
X128782750Y-93114755D01*
X128782755Y-93114764D01*
X128876265Y-93254711D01*
X128876268Y-93254715D01*
X128995284Y-93373731D01*
X128995288Y-93373734D01*
X129135235Y-93467244D01*
X129135244Y-93467249D01*
X129170472Y-93481840D01*
X129290751Y-93531662D01*
X129455834Y-93564499D01*
X129455838Y-93564500D01*
X129455839Y-93564500D01*
X129624162Y-93564500D01*
X129624163Y-93564499D01*
X129789249Y-93531662D01*
X129944758Y-93467248D01*
X130084712Y-93373734D01*
X130203734Y-93254712D01*
X130297248Y-93114758D01*
X130361662Y-92959249D01*
X130394500Y-92794161D01*
X130394500Y-92625839D01*
X130394499Y-92625834D01*
X131225500Y-92625834D01*
X131225500Y-92794165D01*
X131258336Y-92959241D01*
X131258338Y-92959249D01*
X131322750Y-93114755D01*
X131322755Y-93114764D01*
X131416265Y-93254711D01*
X131416268Y-93254715D01*
X131535284Y-93373731D01*
X131535288Y-93373734D01*
X131675235Y-93467244D01*
X131675244Y-93467249D01*
X131710472Y-93481840D01*
X131830751Y-93531662D01*
X131995834Y-93564499D01*
X131995838Y-93564500D01*
X131995839Y-93564500D01*
X132164162Y-93564500D01*
X132164163Y-93564499D01*
X132329249Y-93531662D01*
X132484758Y-93467248D01*
X132624712Y-93373734D01*
X132743734Y-93254712D01*
X132837248Y-93114758D01*
X132901662Y-92959249D01*
X132934500Y-92794161D01*
X132934500Y-92625839D01*
X132934499Y-92625834D01*
X133765500Y-92625834D01*
X133765500Y-92794165D01*
X133798336Y-92959241D01*
X133798338Y-92959249D01*
X133862750Y-93114755D01*
X133862755Y-93114764D01*
X133956265Y-93254711D01*
X133956268Y-93254715D01*
X134075284Y-93373731D01*
X134075288Y-93373734D01*
X134215235Y-93467244D01*
X134215244Y-93467249D01*
X134250472Y-93481840D01*
X134370751Y-93531662D01*
X134535834Y-93564499D01*
X134535838Y-93564500D01*
X134535839Y-93564500D01*
X134704162Y-93564500D01*
X134704163Y-93564499D01*
X134869249Y-93531662D01*
X135024758Y-93467248D01*
X135164712Y-93373734D01*
X135283734Y-93254712D01*
X135377248Y-93114758D01*
X135441662Y-92959249D01*
X135474500Y-92794161D01*
X135474500Y-92625839D01*
X135474499Y-92625834D01*
X136305500Y-92625834D01*
X136305500Y-92794165D01*
X136338336Y-92959241D01*
X136338338Y-92959249D01*
X136402750Y-93114755D01*
X136402755Y-93114764D01*
X136496265Y-93254711D01*
X136496268Y-93254715D01*
X136615284Y-93373731D01*
X136615288Y-93373734D01*
X136755235Y-93467244D01*
X136755244Y-93467249D01*
X136790472Y-93481840D01*
X136910751Y-93531662D01*
X137075834Y-93564499D01*
X137075838Y-93564500D01*
X137075839Y-93564500D01*
X137244162Y-93564500D01*
X137244163Y-93564499D01*
X137409249Y-93531662D01*
X137564758Y-93467248D01*
X137704712Y-93373734D01*
X137823734Y-93254712D01*
X137917248Y-93114758D01*
X137981662Y-92959249D01*
X138014500Y-92794161D01*
X138014500Y-92625839D01*
X138014499Y-92625834D01*
X138845500Y-92625834D01*
X138845500Y-92794165D01*
X138878336Y-92959241D01*
X138878338Y-92959249D01*
X138942750Y-93114755D01*
X138942755Y-93114764D01*
X139036265Y-93254711D01*
X139036268Y-93254715D01*
X139155284Y-93373731D01*
X139155288Y-93373734D01*
X139295235Y-93467244D01*
X139295244Y-93467249D01*
X139330472Y-93481840D01*
X139450751Y-93531662D01*
X139615834Y-93564499D01*
X139615838Y-93564500D01*
X139615839Y-93564500D01*
X139784162Y-93564500D01*
X139784163Y-93564499D01*
X139949249Y-93531662D01*
X140104758Y-93467248D01*
X140244712Y-93373734D01*
X140363734Y-93254712D01*
X140457248Y-93114758D01*
X140521662Y-92959249D01*
X140554500Y-92794161D01*
X140554500Y-92625839D01*
X140554499Y-92625834D01*
X141385500Y-92625834D01*
X141385500Y-92794165D01*
X141418336Y-92959241D01*
X141418338Y-92959249D01*
X141482750Y-93114755D01*
X141482755Y-93114764D01*
X141576265Y-93254711D01*
X141576268Y-93254715D01*
X141695284Y-93373731D01*
X141695288Y-93373734D01*
X141835235Y-93467244D01*
X141835244Y-93467249D01*
X141870472Y-93481840D01*
X141990751Y-93531662D01*
X142155834Y-93564499D01*
X142155838Y-93564500D01*
X142155839Y-93564500D01*
X142324162Y-93564500D01*
X142324163Y-93564499D01*
X142489249Y-93531662D01*
X142644758Y-93467248D01*
X142784712Y-93373734D01*
X142903734Y-93254712D01*
X142997248Y-93114758D01*
X143061662Y-92959249D01*
X143094500Y-92794161D01*
X143094500Y-92625839D01*
X143094499Y-92625834D01*
X143925500Y-92625834D01*
X143925500Y-92794165D01*
X143958336Y-92959241D01*
X143958338Y-92959249D01*
X144022750Y-93114755D01*
X144022755Y-93114764D01*
X144116265Y-93254711D01*
X144116268Y-93254715D01*
X144235284Y-93373731D01*
X144235288Y-93373734D01*
X144375235Y-93467244D01*
X144375244Y-93467249D01*
X144410472Y-93481840D01*
X144530751Y-93531662D01*
X144695834Y-93564499D01*
X144695838Y-93564500D01*
X144695839Y-93564500D01*
X144864162Y-93564500D01*
X144864163Y-93564499D01*
X145029249Y-93531662D01*
X145184758Y-93467248D01*
X145324712Y-93373734D01*
X145443734Y-93254712D01*
X145537248Y-93114758D01*
X145601662Y-92959249D01*
X145634500Y-92794161D01*
X145634500Y-92625839D01*
X145634499Y-92625834D01*
X146465500Y-92625834D01*
X146465500Y-92794165D01*
X146498336Y-92959241D01*
X146498338Y-92959249D01*
X146562750Y-93114755D01*
X146562755Y-93114764D01*
X146656265Y-93254711D01*
X146656268Y-93254715D01*
X146775284Y-93373731D01*
X146775288Y-93373734D01*
X146915235Y-93467244D01*
X146915244Y-93467249D01*
X146950472Y-93481840D01*
X147070751Y-93531662D01*
X147235834Y-93564499D01*
X147235838Y-93564500D01*
X147235839Y-93564500D01*
X147404162Y-93564500D01*
X147404163Y-93564499D01*
X147569249Y-93531662D01*
X147724758Y-93467248D01*
X147864712Y-93373734D01*
X147983734Y-93254712D01*
X148077248Y-93114758D01*
X148141662Y-92959249D01*
X148174500Y-92794161D01*
X148174500Y-92625839D01*
X148174499Y-92625834D01*
X149005500Y-92625834D01*
X149005500Y-92794165D01*
X149038336Y-92959241D01*
X149038338Y-92959249D01*
X149102750Y-93114755D01*
X149102755Y-93114764D01*
X149196265Y-93254711D01*
X149196268Y-93254715D01*
X149315284Y-93373731D01*
X149315288Y-93373734D01*
X149455235Y-93467244D01*
X149455244Y-93467249D01*
X149490472Y-93481840D01*
X149610751Y-93531662D01*
X149775834Y-93564499D01*
X149775838Y-93564500D01*
X149775839Y-93564500D01*
X149944162Y-93564500D01*
X149944163Y-93564499D01*
X150109249Y-93531662D01*
X150264758Y-93467248D01*
X150404712Y-93373734D01*
X150523734Y-93254712D01*
X150617248Y-93114758D01*
X150681662Y-92959249D01*
X150714500Y-92794161D01*
X150714500Y-92625839D01*
X150714499Y-92625834D01*
X151545500Y-92625834D01*
X151545500Y-92794165D01*
X151578336Y-92959241D01*
X151578338Y-92959249D01*
X151642750Y-93114755D01*
X151642755Y-93114764D01*
X151736265Y-93254711D01*
X151736268Y-93254715D01*
X151855284Y-93373731D01*
X151855288Y-93373734D01*
X151995235Y-93467244D01*
X151995244Y-93467249D01*
X152030472Y-93481840D01*
X152150751Y-93531662D01*
X152315834Y-93564499D01*
X152315838Y-93564500D01*
X152315839Y-93564500D01*
X152484162Y-93564500D01*
X152484163Y-93564499D01*
X152649249Y-93531662D01*
X152804758Y-93467248D01*
X152944712Y-93373734D01*
X153063734Y-93254712D01*
X153157248Y-93114758D01*
X153221662Y-92959249D01*
X153254500Y-92794161D01*
X153254500Y-92625839D01*
X153221662Y-92460751D01*
X153157248Y-92305242D01*
X153157247Y-92305241D01*
X153157244Y-92305235D01*
X153063734Y-92165288D01*
X153063731Y-92165284D01*
X152944715Y-92046268D01*
X152944711Y-92046265D01*
X152804764Y-91952755D01*
X152804755Y-91952750D01*
X152649249Y-91888338D01*
X152649241Y-91888336D01*
X152484165Y-91855500D01*
X152484161Y-91855500D01*
X152315839Y-91855500D01*
X152315834Y-91855500D01*
X152150758Y-91888336D01*
X152150750Y-91888338D01*
X151995244Y-91952750D01*
X151995235Y-91952755D01*
X151855288Y-92046265D01*
X151855284Y-92046268D01*
X151736268Y-92165284D01*
X151736265Y-92165288D01*
X151642755Y-92305235D01*
X151642750Y-92305244D01*
X151578338Y-92460750D01*
X151578336Y-92460758D01*
X151545500Y-92625834D01*
X150714499Y-92625834D01*
X150681662Y-92460751D01*
X150617248Y-92305242D01*
X150617247Y-92305241D01*
X150617244Y-92305235D01*
X150523734Y-92165288D01*
X150523731Y-92165284D01*
X150404715Y-92046268D01*
X150404711Y-92046265D01*
X150264764Y-91952755D01*
X150264755Y-91952750D01*
X150109249Y-91888338D01*
X150109241Y-91888336D01*
X149944165Y-91855500D01*
X149944161Y-91855500D01*
X149775839Y-91855500D01*
X149775834Y-91855500D01*
X149610758Y-91888336D01*
X149610750Y-91888338D01*
X149455244Y-91952750D01*
X149455235Y-91952755D01*
X149315288Y-92046265D01*
X149315284Y-92046268D01*
X149196268Y-92165284D01*
X149196265Y-92165288D01*
X149102755Y-92305235D01*
X149102750Y-92305244D01*
X149038338Y-92460750D01*
X149038336Y-92460758D01*
X149005500Y-92625834D01*
X148174499Y-92625834D01*
X148141662Y-92460751D01*
X148077248Y-92305242D01*
X148077247Y-92305241D01*
X148077244Y-92305235D01*
X147983734Y-92165288D01*
X147983731Y-92165284D01*
X147864715Y-92046268D01*
X147864711Y-92046265D01*
X147724764Y-91952755D01*
X147724755Y-91952750D01*
X147569249Y-91888338D01*
X147569241Y-91888336D01*
X147404165Y-91855500D01*
X147404161Y-91855500D01*
X147235839Y-91855500D01*
X147235834Y-91855500D01*
X147070758Y-91888336D01*
X147070750Y-91888338D01*
X146915244Y-91952750D01*
X146915235Y-91952755D01*
X146775288Y-92046265D01*
X146775284Y-92046268D01*
X146656268Y-92165284D01*
X146656265Y-92165288D01*
X146562755Y-92305235D01*
X146562750Y-92305244D01*
X146498338Y-92460750D01*
X146498336Y-92460758D01*
X146465500Y-92625834D01*
X145634499Y-92625834D01*
X145601662Y-92460751D01*
X145537248Y-92305242D01*
X145537247Y-92305241D01*
X145537244Y-92305235D01*
X145443734Y-92165288D01*
X145443731Y-92165284D01*
X145324715Y-92046268D01*
X145324711Y-92046265D01*
X145184764Y-91952755D01*
X145184755Y-91952750D01*
X145029249Y-91888338D01*
X145029241Y-91888336D01*
X144864165Y-91855500D01*
X144864161Y-91855500D01*
X144695839Y-91855500D01*
X144695834Y-91855500D01*
X144530758Y-91888336D01*
X144530750Y-91888338D01*
X144375244Y-91952750D01*
X144375235Y-91952755D01*
X144235288Y-92046265D01*
X144235284Y-92046268D01*
X144116268Y-92165284D01*
X144116265Y-92165288D01*
X144022755Y-92305235D01*
X144022750Y-92305244D01*
X143958338Y-92460750D01*
X143958336Y-92460758D01*
X143925500Y-92625834D01*
X143094499Y-92625834D01*
X143061662Y-92460751D01*
X142997248Y-92305242D01*
X142997247Y-92305241D01*
X142997244Y-92305235D01*
X142903734Y-92165288D01*
X142903731Y-92165284D01*
X142784715Y-92046268D01*
X142784711Y-92046265D01*
X142644764Y-91952755D01*
X142644755Y-91952750D01*
X142489249Y-91888338D01*
X142489241Y-91888336D01*
X142324165Y-91855500D01*
X142324161Y-91855500D01*
X142155839Y-91855500D01*
X142155834Y-91855500D01*
X141990758Y-91888336D01*
X141990750Y-91888338D01*
X141835244Y-91952750D01*
X141835235Y-91952755D01*
X141695288Y-92046265D01*
X141695284Y-92046268D01*
X141576268Y-92165284D01*
X141576265Y-92165288D01*
X141482755Y-92305235D01*
X141482750Y-92305244D01*
X141418338Y-92460750D01*
X141418336Y-92460758D01*
X141385500Y-92625834D01*
X140554499Y-92625834D01*
X140521662Y-92460751D01*
X140457248Y-92305242D01*
X140457247Y-92305241D01*
X140457244Y-92305235D01*
X140363734Y-92165288D01*
X140363731Y-92165284D01*
X140244715Y-92046268D01*
X140244711Y-92046265D01*
X140104764Y-91952755D01*
X140104755Y-91952750D01*
X139949249Y-91888338D01*
X139949241Y-91888336D01*
X139784165Y-91855500D01*
X139784161Y-91855500D01*
X139615839Y-91855500D01*
X139615834Y-91855500D01*
X139450758Y-91888336D01*
X139450750Y-91888338D01*
X139295244Y-91952750D01*
X139295235Y-91952755D01*
X139155288Y-92046265D01*
X139155284Y-92046268D01*
X139036268Y-92165284D01*
X139036265Y-92165288D01*
X138942755Y-92305235D01*
X138942750Y-92305244D01*
X138878338Y-92460750D01*
X138878336Y-92460758D01*
X138845500Y-92625834D01*
X138014499Y-92625834D01*
X137981662Y-92460751D01*
X137917248Y-92305242D01*
X137917247Y-92305241D01*
X137917244Y-92305235D01*
X137823734Y-92165288D01*
X137823731Y-92165284D01*
X137704715Y-92046268D01*
X137704711Y-92046265D01*
X137564764Y-91952755D01*
X137564755Y-91952750D01*
X137409249Y-91888338D01*
X137409241Y-91888336D01*
X137244165Y-91855500D01*
X137244161Y-91855500D01*
X137075839Y-91855500D01*
X137075834Y-91855500D01*
X136910758Y-91888336D01*
X136910750Y-91888338D01*
X136755244Y-91952750D01*
X136755235Y-91952755D01*
X136615288Y-92046265D01*
X136615284Y-92046268D01*
X136496268Y-92165284D01*
X136496265Y-92165288D01*
X136402755Y-92305235D01*
X136402750Y-92305244D01*
X136338338Y-92460750D01*
X136338336Y-92460758D01*
X136305500Y-92625834D01*
X135474499Y-92625834D01*
X135441662Y-92460751D01*
X135377248Y-92305242D01*
X135377247Y-92305241D01*
X135377244Y-92305235D01*
X135283734Y-92165288D01*
X135283731Y-92165284D01*
X135164715Y-92046268D01*
X135164711Y-92046265D01*
X135024764Y-91952755D01*
X135024755Y-91952750D01*
X134869249Y-91888338D01*
X134869241Y-91888336D01*
X134704165Y-91855500D01*
X134704161Y-91855500D01*
X134535839Y-91855500D01*
X134535834Y-91855500D01*
X134370758Y-91888336D01*
X134370750Y-91888338D01*
X134215244Y-91952750D01*
X134215235Y-91952755D01*
X134075288Y-92046265D01*
X134075284Y-92046268D01*
X133956268Y-92165284D01*
X133956265Y-92165288D01*
X133862755Y-92305235D01*
X133862750Y-92305244D01*
X133798338Y-92460750D01*
X133798336Y-92460758D01*
X133765500Y-92625834D01*
X132934499Y-92625834D01*
X132901662Y-92460751D01*
X132837248Y-92305242D01*
X132837247Y-92305241D01*
X132837244Y-92305235D01*
X132743734Y-92165288D01*
X132743731Y-92165284D01*
X132624715Y-92046268D01*
X132624711Y-92046265D01*
X132484764Y-91952755D01*
X132484755Y-91952750D01*
X132329249Y-91888338D01*
X132329241Y-91888336D01*
X132164165Y-91855500D01*
X132164161Y-91855500D01*
X131995839Y-91855500D01*
X131995834Y-91855500D01*
X131830758Y-91888336D01*
X131830750Y-91888338D01*
X131675244Y-91952750D01*
X131675235Y-91952755D01*
X131535288Y-92046265D01*
X131535284Y-92046268D01*
X131416268Y-92165284D01*
X131416265Y-92165288D01*
X131322755Y-92305235D01*
X131322750Y-92305244D01*
X131258338Y-92460750D01*
X131258336Y-92460758D01*
X131225500Y-92625834D01*
X130394499Y-92625834D01*
X130361662Y-92460751D01*
X130297248Y-92305242D01*
X130297247Y-92305241D01*
X130297244Y-92305235D01*
X130203734Y-92165288D01*
X130203731Y-92165284D01*
X130084715Y-92046268D01*
X130084711Y-92046265D01*
X129944764Y-91952755D01*
X129944755Y-91952750D01*
X129789249Y-91888338D01*
X129789241Y-91888336D01*
X129624165Y-91855500D01*
X129624161Y-91855500D01*
X129455839Y-91855500D01*
X129455834Y-91855500D01*
X129290758Y-91888336D01*
X129290750Y-91888338D01*
X129135244Y-91952750D01*
X129135235Y-91952755D01*
X128995288Y-92046265D01*
X128995284Y-92046268D01*
X128876268Y-92165284D01*
X128876265Y-92165288D01*
X128782755Y-92305235D01*
X128782750Y-92305244D01*
X128718338Y-92460750D01*
X128718336Y-92460758D01*
X128685500Y-92625834D01*
X127854499Y-92625834D01*
X127821662Y-92460751D01*
X127757248Y-92305242D01*
X127757247Y-92305241D01*
X127757244Y-92305235D01*
X127663734Y-92165288D01*
X127663731Y-92165284D01*
X127544715Y-92046268D01*
X127544711Y-92046265D01*
X127404764Y-91952755D01*
X127404755Y-91952750D01*
X127249249Y-91888338D01*
X127249241Y-91888336D01*
X127084165Y-91855500D01*
X127084161Y-91855500D01*
X126915839Y-91855500D01*
X126915834Y-91855500D01*
X126750758Y-91888336D01*
X126750750Y-91888338D01*
X126595244Y-91952750D01*
X126595235Y-91952755D01*
X126455288Y-92046265D01*
X126455284Y-92046268D01*
X126336268Y-92165284D01*
X126336265Y-92165288D01*
X126242755Y-92305235D01*
X126242750Y-92305244D01*
X126178338Y-92460750D01*
X126178336Y-92460758D01*
X126145500Y-92625834D01*
X125314499Y-92625834D01*
X125281662Y-92460751D01*
X125217248Y-92305242D01*
X125217247Y-92305241D01*
X125217244Y-92305235D01*
X125123734Y-92165288D01*
X125123731Y-92165284D01*
X125004715Y-92046268D01*
X125004711Y-92046265D01*
X124864764Y-91952755D01*
X124864755Y-91952750D01*
X124709249Y-91888338D01*
X124709241Y-91888336D01*
X124544165Y-91855500D01*
X124544161Y-91855500D01*
X124375839Y-91855500D01*
X124375834Y-91855500D01*
X124210758Y-91888336D01*
X124210750Y-91888338D01*
X124055244Y-91952750D01*
X124055235Y-91952755D01*
X123915288Y-92046265D01*
X123915284Y-92046268D01*
X123796268Y-92165284D01*
X123796265Y-92165288D01*
X123702755Y-92305235D01*
X123702750Y-92305244D01*
X123638338Y-92460750D01*
X123638336Y-92460758D01*
X123605500Y-92625834D01*
X122774499Y-92625834D01*
X122741662Y-92460751D01*
X122677248Y-92305242D01*
X122677247Y-92305241D01*
X122677244Y-92305235D01*
X122583734Y-92165288D01*
X122583731Y-92165284D01*
X122464715Y-92046268D01*
X122464711Y-92046265D01*
X122324764Y-91952755D01*
X122324755Y-91952750D01*
X122169249Y-91888338D01*
X122169241Y-91888336D01*
X122004165Y-91855500D01*
X122004161Y-91855500D01*
X121835839Y-91855500D01*
X121835834Y-91855500D01*
X121670758Y-91888336D01*
X121670750Y-91888338D01*
X121515244Y-91952750D01*
X121515235Y-91952755D01*
X121375288Y-92046265D01*
X121375284Y-92046268D01*
X121256268Y-92165284D01*
X121256265Y-92165288D01*
X121162755Y-92305235D01*
X121162750Y-92305244D01*
X121098338Y-92460750D01*
X121098336Y-92460758D01*
X121065500Y-92625834D01*
X120234499Y-92625834D01*
X120201662Y-92460751D01*
X120137248Y-92305242D01*
X120137247Y-92305241D01*
X120137244Y-92305235D01*
X120043734Y-92165288D01*
X120043731Y-92165284D01*
X119924715Y-92046268D01*
X119924711Y-92046265D01*
X119784764Y-91952755D01*
X119784755Y-91952750D01*
X119629249Y-91888338D01*
X119629241Y-91888336D01*
X119464165Y-91855500D01*
X119464161Y-91855500D01*
X119295839Y-91855500D01*
X119295834Y-91855500D01*
X119130758Y-91888336D01*
X119130750Y-91888338D01*
X118975244Y-91952750D01*
X118975235Y-91952755D01*
X118835288Y-92046265D01*
X118835284Y-92046268D01*
X118716268Y-92165284D01*
X118716265Y-92165288D01*
X118622755Y-92305235D01*
X118622750Y-92305244D01*
X118558338Y-92460750D01*
X118558336Y-92460758D01*
X118525500Y-92625834D01*
X115516500Y-92625834D01*
X115516500Y-77385834D01*
X115985500Y-77385834D01*
X115985500Y-77554165D01*
X116018336Y-77719241D01*
X116018338Y-77719249D01*
X116082750Y-77874755D01*
X116082755Y-77874764D01*
X116176265Y-78014711D01*
X116176268Y-78014715D01*
X116295284Y-78133731D01*
X116295288Y-78133734D01*
X116435235Y-78227244D01*
X116435241Y-78227247D01*
X116435242Y-78227248D01*
X116590751Y-78291662D01*
X116708884Y-78315160D01*
X116755834Y-78324499D01*
X116755838Y-78324500D01*
X116755839Y-78324500D01*
X116924162Y-78324500D01*
X116924163Y-78324499D01*
X117089249Y-78291662D01*
X117244758Y-78227248D01*
X117384712Y-78133734D01*
X117503734Y-78014712D01*
X117597248Y-77874758D01*
X117661662Y-77719249D01*
X117694500Y-77554161D01*
X117694500Y-77385839D01*
X117694499Y-77385834D01*
X121065500Y-77385834D01*
X121065500Y-77554165D01*
X121098336Y-77719241D01*
X121098338Y-77719249D01*
X121162750Y-77874755D01*
X121162755Y-77874764D01*
X121256265Y-78014711D01*
X121256268Y-78014715D01*
X121375284Y-78133731D01*
X121375288Y-78133734D01*
X121515235Y-78227244D01*
X121515241Y-78227247D01*
X121515242Y-78227248D01*
X121670751Y-78291662D01*
X121788884Y-78315160D01*
X121835834Y-78324499D01*
X121835838Y-78324500D01*
X121835839Y-78324500D01*
X122004162Y-78324500D01*
X122004163Y-78324499D01*
X122169249Y-78291662D01*
X122324758Y-78227248D01*
X122464712Y-78133734D01*
X122583734Y-78014712D01*
X122677248Y-77874758D01*
X122741662Y-77719249D01*
X122774500Y-77554161D01*
X122774500Y-77385839D01*
X122774499Y-77385834D01*
X123605500Y-77385834D01*
X123605500Y-77554165D01*
X123638336Y-77719241D01*
X123638338Y-77719249D01*
X123702750Y-77874755D01*
X123702755Y-77874764D01*
X123796265Y-78014711D01*
X123796268Y-78014715D01*
X123915284Y-78133731D01*
X123915288Y-78133734D01*
X124055235Y-78227244D01*
X124055241Y-78227247D01*
X124055242Y-78227248D01*
X124210751Y-78291662D01*
X124328884Y-78315160D01*
X124375834Y-78324499D01*
X124375838Y-78324500D01*
X124375839Y-78324500D01*
X124544162Y-78324500D01*
X124544163Y-78324499D01*
X124709249Y-78291662D01*
X124864758Y-78227248D01*
X125004712Y-78133734D01*
X125123734Y-78014712D01*
X125217248Y-77874758D01*
X125281662Y-77719249D01*
X125314500Y-77554161D01*
X125314500Y-77385839D01*
X125314499Y-77385834D01*
X126145500Y-77385834D01*
X126145500Y-77554165D01*
X126178336Y-77719241D01*
X126178338Y-77719249D01*
X126242750Y-77874755D01*
X126242755Y-77874764D01*
X126336265Y-78014711D01*
X126336268Y-78014715D01*
X126455284Y-78133731D01*
X126455288Y-78133734D01*
X126595235Y-78227244D01*
X126595241Y-78227247D01*
X126595242Y-78227248D01*
X126750751Y-78291662D01*
X126868884Y-78315160D01*
X126915834Y-78324499D01*
X126915838Y-78324500D01*
X126915839Y-78324500D01*
X127084162Y-78324500D01*
X127084163Y-78324499D01*
X127249249Y-78291662D01*
X127404758Y-78227248D01*
X127544712Y-78133734D01*
X127663734Y-78014712D01*
X127757248Y-77874758D01*
X127821662Y-77719249D01*
X127854500Y-77554161D01*
X127854500Y-77385839D01*
X127854499Y-77385834D01*
X128685500Y-77385834D01*
X128685500Y-77554165D01*
X128718336Y-77719241D01*
X128718338Y-77719249D01*
X128782750Y-77874755D01*
X128782755Y-77874764D01*
X128876265Y-78014711D01*
X128876268Y-78014715D01*
X128995284Y-78133731D01*
X128995288Y-78133734D01*
X129135235Y-78227244D01*
X129135241Y-78227247D01*
X129135242Y-78227248D01*
X129290751Y-78291662D01*
X129408884Y-78315160D01*
X129455834Y-78324499D01*
X129455838Y-78324500D01*
X129455839Y-78324500D01*
X129624162Y-78324500D01*
X129624163Y-78324499D01*
X129789249Y-78291662D01*
X129944758Y-78227248D01*
X130084712Y-78133734D01*
X130203734Y-78014712D01*
X130297248Y-77874758D01*
X130361662Y-77719249D01*
X130394500Y-77554161D01*
X130394500Y-77385839D01*
X130361662Y-77220751D01*
X130297248Y-77065242D01*
X130297247Y-77065241D01*
X130297244Y-77065235D01*
X130203734Y-76925288D01*
X130203731Y-76925284D01*
X130084715Y-76806268D01*
X130084711Y-76806265D01*
X129944764Y-76712755D01*
X129944755Y-76712750D01*
X129789249Y-76648338D01*
X129789241Y-76648336D01*
X129624165Y-76615500D01*
X129624161Y-76615500D01*
X129455839Y-76615500D01*
X129455834Y-76615500D01*
X129290758Y-76648336D01*
X129290750Y-76648338D01*
X129135244Y-76712750D01*
X129135235Y-76712755D01*
X128995288Y-76806265D01*
X128995284Y-76806268D01*
X128876268Y-76925284D01*
X128876265Y-76925288D01*
X128782755Y-77065235D01*
X128782750Y-77065244D01*
X128718338Y-77220750D01*
X128718336Y-77220758D01*
X128685500Y-77385834D01*
X127854499Y-77385834D01*
X127821662Y-77220751D01*
X127757248Y-77065242D01*
X127757247Y-77065241D01*
X127757244Y-77065235D01*
X127663734Y-76925288D01*
X127663731Y-76925284D01*
X127544715Y-76806268D01*
X127544711Y-76806265D01*
X127404764Y-76712755D01*
X127404755Y-76712750D01*
X127249249Y-76648338D01*
X127249241Y-76648336D01*
X127084165Y-76615500D01*
X127084161Y-76615500D01*
X126915839Y-76615500D01*
X126915834Y-76615500D01*
X126750758Y-76648336D01*
X126750750Y-76648338D01*
X126595244Y-76712750D01*
X126595235Y-76712755D01*
X126455288Y-76806265D01*
X126455284Y-76806268D01*
X126336268Y-76925284D01*
X126336265Y-76925288D01*
X126242755Y-77065235D01*
X126242750Y-77065244D01*
X126178338Y-77220750D01*
X126178336Y-77220758D01*
X126145500Y-77385834D01*
X125314499Y-77385834D01*
X125281662Y-77220751D01*
X125217248Y-77065242D01*
X125217247Y-77065241D01*
X125217244Y-77065235D01*
X125123734Y-76925288D01*
X125123731Y-76925284D01*
X125004715Y-76806268D01*
X125004711Y-76806265D01*
X124864764Y-76712755D01*
X124864755Y-76712750D01*
X124709249Y-76648338D01*
X124709241Y-76648336D01*
X124544165Y-76615500D01*
X124544161Y-76615500D01*
X124375839Y-76615500D01*
X124375834Y-76615500D01*
X124210758Y-76648336D01*
X124210750Y-76648338D01*
X124055244Y-76712750D01*
X124055235Y-76712755D01*
X123915288Y-76806265D01*
X123915284Y-76806268D01*
X123796268Y-76925284D01*
X123796265Y-76925288D01*
X123702755Y-77065235D01*
X123702750Y-77065244D01*
X123638338Y-77220750D01*
X123638336Y-77220758D01*
X123605500Y-77385834D01*
X122774499Y-77385834D01*
X122741662Y-77220751D01*
X122677248Y-77065242D01*
X122677247Y-77065241D01*
X122677244Y-77065235D01*
X122583734Y-76925288D01*
X122583731Y-76925284D01*
X122464715Y-76806268D01*
X122464711Y-76806265D01*
X122324764Y-76712755D01*
X122324755Y-76712750D01*
X122169249Y-76648338D01*
X122169241Y-76648336D01*
X122004165Y-76615500D01*
X122004161Y-76615500D01*
X121835839Y-76615500D01*
X121835834Y-76615500D01*
X121670758Y-76648336D01*
X121670750Y-76648338D01*
X121515244Y-76712750D01*
X121515235Y-76712755D01*
X121375288Y-76806265D01*
X121375284Y-76806268D01*
X121256268Y-76925284D01*
X121256265Y-76925288D01*
X121162755Y-77065235D01*
X121162750Y-77065244D01*
X121098338Y-77220750D01*
X121098336Y-77220758D01*
X121065500Y-77385834D01*
X117694499Y-77385834D01*
X117661662Y-77220751D01*
X117597248Y-77065242D01*
X117597247Y-77065241D01*
X117597244Y-77065235D01*
X117503734Y-76925288D01*
X117503731Y-76925284D01*
X117384715Y-76806268D01*
X117384711Y-76806265D01*
X117244764Y-76712755D01*
X117244755Y-76712750D01*
X117089249Y-76648338D01*
X117089241Y-76648336D01*
X116924165Y-76615500D01*
X116924161Y-76615500D01*
X116755839Y-76615500D01*
X116755834Y-76615500D01*
X116590758Y-76648336D01*
X116590750Y-76648338D01*
X116435244Y-76712750D01*
X116435235Y-76712755D01*
X116295288Y-76806265D01*
X116295284Y-76806268D01*
X116176268Y-76925284D01*
X116176265Y-76925288D01*
X116082755Y-77065235D01*
X116082750Y-77065244D01*
X116018338Y-77220750D01*
X116018336Y-77220758D01*
X115985500Y-77385834D01*
X115516500Y-77385834D01*
X115516500Y-71758051D01*
X115516649Y-71751967D01*
X115527922Y-71522499D01*
X115534805Y-71382390D01*
X115535998Y-71370284D01*
X115558110Y-71221219D01*
X115589842Y-71007292D01*
X115592216Y-70995360D01*
X115613576Y-70910085D01*
X115681387Y-70639369D01*
X115684908Y-70627763D01*
X115808540Y-70282233D01*
X115813185Y-70271018D01*
X115970104Y-69939240D01*
X115975819Y-69928548D01*
X116164490Y-69613770D01*
X116171233Y-69603677D01*
X116389856Y-69308899D01*
X116397559Y-69299514D01*
X116644018Y-69027588D01*
X116652588Y-69019018D01*
X116924514Y-68772559D01*
X116933899Y-68764856D01*
X117228677Y-68546233D01*
X117238770Y-68539490D01*
X117553548Y-68350819D01*
X117564240Y-68345104D01*
X117896018Y-68188185D01*
X117907233Y-68183540D01*
X118252763Y-68059908D01*
X118264369Y-68056387D01*
X118620362Y-67967215D01*
X118632292Y-67964842D01*
X118995284Y-67910997D01*
X119007390Y-67909805D01*
X119376967Y-67891648D01*
X119383051Y-67891500D01*
X119419882Y-67891500D01*
X124960245Y-67891500D01*
X125027284Y-67911185D01*
G37*
%TD.AperFunction*%
%TD*%
M02*
