%TF.GenerationSoftware,KiCad,Pcbnew,9.0.8-9.0.8~ubuntu22.04.1*%
%TF.CreationDate,2026-03-23T11:58:49-05:00*%
%TF.ProjectId,Main_Board,4d61696e-5f42-46f6-9172-642e6b696361,rev?*%
%TF.SameCoordinates,Original*%
%TF.FileFunction,Legend,Top*%
%TF.FilePolarity,Positive*%
%FSLAX46Y46*%
G04 Gerber Fmt 4.6, Leading zero omitted, Abs format (unit mm)*
G04 Created by KiCad (PCBNEW 9.0.8-9.0.8~ubuntu22.04.1) date 2026-03-23 11:58:49*
%MOMM*%
%LPD*%
G01*
G04 APERTURE LIST*
%ADD10C,0.190500*%
%ADD11C,0.150000*%
%ADD12C,0.120000*%
%ADD13C,0.127000*%
%ADD14C,0.200000*%
G04 APERTURE END LIST*
D10*
X125165899Y-94384839D02*
X125419899Y-95146839D01*
X125419899Y-95146839D02*
X125673899Y-94384839D01*
X127633326Y-95110554D02*
X127742184Y-95146839D01*
X127742184Y-95146839D02*
X127923612Y-95146839D01*
X127923612Y-95146839D02*
X127996184Y-95110554D01*
X127996184Y-95110554D02*
X128032469Y-95074268D01*
X128032469Y-95074268D02*
X128068755Y-95001696D01*
X128068755Y-95001696D02*
X128068755Y-94929125D01*
X128068755Y-94929125D02*
X128032469Y-94856554D01*
X128032469Y-94856554D02*
X127996184Y-94820268D01*
X127996184Y-94820268D02*
X127923612Y-94783982D01*
X127923612Y-94783982D02*
X127778469Y-94747696D01*
X127778469Y-94747696D02*
X127705898Y-94711411D01*
X127705898Y-94711411D02*
X127669612Y-94675125D01*
X127669612Y-94675125D02*
X127633326Y-94602554D01*
X127633326Y-94602554D02*
X127633326Y-94529982D01*
X127633326Y-94529982D02*
X127669612Y-94457411D01*
X127669612Y-94457411D02*
X127705898Y-94421125D01*
X127705898Y-94421125D02*
X127778469Y-94384839D01*
X127778469Y-94384839D02*
X127959898Y-94384839D01*
X127959898Y-94384839D02*
X128068755Y-94421125D01*
X130536182Y-94421125D02*
X130463611Y-94384839D01*
X130463611Y-94384839D02*
X130354753Y-94384839D01*
X130354753Y-94384839D02*
X130245896Y-94421125D01*
X130245896Y-94421125D02*
X130173325Y-94493696D01*
X130173325Y-94493696D02*
X130137039Y-94566268D01*
X130137039Y-94566268D02*
X130100753Y-94711411D01*
X130100753Y-94711411D02*
X130100753Y-94820268D01*
X130100753Y-94820268D02*
X130137039Y-94965411D01*
X130137039Y-94965411D02*
X130173325Y-95037982D01*
X130173325Y-95037982D02*
X130245896Y-95110554D01*
X130245896Y-95110554D02*
X130354753Y-95146839D01*
X130354753Y-95146839D02*
X130427325Y-95146839D01*
X130427325Y-95146839D02*
X130536182Y-95110554D01*
X130536182Y-95110554D02*
X130572468Y-95074268D01*
X130572468Y-95074268D02*
X130572468Y-94820268D01*
X130572468Y-94820268D02*
X130427325Y-94820268D01*
X133584185Y-75080839D02*
X134055899Y-75080839D01*
X134055899Y-75080839D02*
X133801899Y-75371125D01*
X133801899Y-75371125D02*
X133910756Y-75371125D01*
X133910756Y-75371125D02*
X133983328Y-75407411D01*
X133983328Y-75407411D02*
X134019613Y-75443696D01*
X134019613Y-75443696D02*
X134055899Y-75516268D01*
X134055899Y-75516268D02*
X134055899Y-75697696D01*
X134055899Y-75697696D02*
X134019613Y-75770268D01*
X134019613Y-75770268D02*
X133983328Y-75806554D01*
X133983328Y-75806554D02*
X133910756Y-75842839D01*
X133910756Y-75842839D02*
X133693042Y-75842839D01*
X133693042Y-75842839D02*
X133620470Y-75806554D01*
X133620470Y-75806554D02*
X133584185Y-75770268D01*
X134273613Y-75080839D02*
X134527613Y-75842839D01*
X134527613Y-75842839D02*
X134781613Y-75080839D01*
X134963042Y-75080839D02*
X135434756Y-75080839D01*
X135434756Y-75080839D02*
X135180756Y-75371125D01*
X135180756Y-75371125D02*
X135289613Y-75371125D01*
X135289613Y-75371125D02*
X135362185Y-75407411D01*
X135362185Y-75407411D02*
X135398470Y-75443696D01*
X135398470Y-75443696D02*
X135434756Y-75516268D01*
X135434756Y-75516268D02*
X135434756Y-75697696D01*
X135434756Y-75697696D02*
X135398470Y-75770268D01*
X135398470Y-75770268D02*
X135362185Y-75806554D01*
X135362185Y-75806554D02*
X135289613Y-75842839D01*
X135289613Y-75842839D02*
X135071899Y-75842839D01*
X135071899Y-75842839D02*
X134999327Y-75806554D01*
X134999327Y-75806554D02*
X134963042Y-75770268D01*
X140260756Y-75443696D02*
X140514756Y-75443696D01*
X140623613Y-75842839D02*
X140260756Y-75842839D01*
X140260756Y-75842839D02*
X140260756Y-75080839D01*
X140260756Y-75080839D02*
X140623613Y-75080839D01*
X140950185Y-75842839D02*
X140950185Y-75080839D01*
X140950185Y-75080839D02*
X141385614Y-75842839D01*
X141385614Y-75842839D02*
X141385614Y-75080839D01*
X164535899Y-75117125D02*
X164463328Y-75080839D01*
X164463328Y-75080839D02*
X164354470Y-75080839D01*
X164354470Y-75080839D02*
X164245613Y-75117125D01*
X164245613Y-75117125D02*
X164173042Y-75189696D01*
X164173042Y-75189696D02*
X164136756Y-75262268D01*
X164136756Y-75262268D02*
X164100470Y-75407411D01*
X164100470Y-75407411D02*
X164100470Y-75516268D01*
X164100470Y-75516268D02*
X164136756Y-75661411D01*
X164136756Y-75661411D02*
X164173042Y-75733982D01*
X164173042Y-75733982D02*
X164245613Y-75806554D01*
X164245613Y-75806554D02*
X164354470Y-75842839D01*
X164354470Y-75842839D02*
X164427042Y-75842839D01*
X164427042Y-75842839D02*
X164535899Y-75806554D01*
X164535899Y-75806554D02*
X164572185Y-75770268D01*
X164572185Y-75770268D02*
X164572185Y-75516268D01*
X164572185Y-75516268D02*
X164427042Y-75516268D01*
X166604183Y-75806554D02*
X166713041Y-75842839D01*
X166713041Y-75842839D02*
X166894469Y-75842839D01*
X166894469Y-75842839D02*
X166967041Y-75806554D01*
X166967041Y-75806554D02*
X167003326Y-75770268D01*
X167003326Y-75770268D02*
X167039612Y-75697696D01*
X167039612Y-75697696D02*
X167039612Y-75625125D01*
X167039612Y-75625125D02*
X167003326Y-75552554D01*
X167003326Y-75552554D02*
X166967041Y-75516268D01*
X166967041Y-75516268D02*
X166894469Y-75479982D01*
X166894469Y-75479982D02*
X166749326Y-75443696D01*
X166749326Y-75443696D02*
X166676755Y-75407411D01*
X166676755Y-75407411D02*
X166640469Y-75371125D01*
X166640469Y-75371125D02*
X166604183Y-75298554D01*
X166604183Y-75298554D02*
X166604183Y-75225982D01*
X166604183Y-75225982D02*
X166640469Y-75153411D01*
X166640469Y-75153411D02*
X166676755Y-75117125D01*
X166676755Y-75117125D02*
X166749326Y-75080839D01*
X166749326Y-75080839D02*
X166930755Y-75080839D01*
X166930755Y-75080839D02*
X167039612Y-75117125D01*
D11*
X125203485Y-72759219D02*
X125393961Y-72759219D01*
X125393961Y-72759219D02*
X125489199Y-72806838D01*
X125489199Y-72806838D02*
X125584437Y-72902076D01*
X125584437Y-72902076D02*
X125632056Y-73092552D01*
X125632056Y-73092552D02*
X125632056Y-73425885D01*
X125632056Y-73425885D02*
X125584437Y-73616361D01*
X125584437Y-73616361D02*
X125489199Y-73711600D01*
X125489199Y-73711600D02*
X125393961Y-73759219D01*
X125393961Y-73759219D02*
X125203485Y-73759219D01*
X125203485Y-73759219D02*
X125108247Y-73711600D01*
X125108247Y-73711600D02*
X125013009Y-73616361D01*
X125013009Y-73616361D02*
X124965390Y-73425885D01*
X124965390Y-73425885D02*
X124965390Y-73092552D01*
X124965390Y-73092552D02*
X125013009Y-72902076D01*
X125013009Y-72902076D02*
X125108247Y-72806838D01*
X125108247Y-72806838D02*
X125203485Y-72759219D01*
X126060628Y-73759219D02*
X126060628Y-72759219D01*
X126060628Y-72759219D02*
X126632056Y-73759219D01*
X126632056Y-73759219D02*
X126632056Y-72759219D01*
X131870153Y-72759219D02*
X132060629Y-72759219D01*
X132060629Y-72759219D02*
X132155867Y-72806838D01*
X132155867Y-72806838D02*
X132251105Y-72902076D01*
X132251105Y-72902076D02*
X132298724Y-73092552D01*
X132298724Y-73092552D02*
X132298724Y-73425885D01*
X132298724Y-73425885D02*
X132251105Y-73616361D01*
X132251105Y-73616361D02*
X132155867Y-73711600D01*
X132155867Y-73711600D02*
X132060629Y-73759219D01*
X132060629Y-73759219D02*
X131870153Y-73759219D01*
X131870153Y-73759219D02*
X131774915Y-73711600D01*
X131774915Y-73711600D02*
X131679677Y-73616361D01*
X131679677Y-73616361D02*
X131632058Y-73425885D01*
X131632058Y-73425885D02*
X131632058Y-73092552D01*
X131632058Y-73092552D02*
X131679677Y-72902076D01*
X131679677Y-72902076D02*
X131774915Y-72806838D01*
X131774915Y-72806838D02*
X131870153Y-72759219D01*
X133060629Y-73235409D02*
X132727296Y-73235409D01*
X132727296Y-73759219D02*
X132727296Y-72759219D01*
X132727296Y-72759219D02*
X133203486Y-72759219D01*
X133917772Y-73235409D02*
X133584439Y-73235409D01*
X133584439Y-73759219D02*
X133584439Y-72759219D01*
X133584439Y-72759219D02*
X134060629Y-72759219D01*
X164036666Y-95614819D02*
X164036666Y-96329104D01*
X164036666Y-96329104D02*
X163989047Y-96471961D01*
X163989047Y-96471961D02*
X163893809Y-96567200D01*
X163893809Y-96567200D02*
X163750952Y-96614819D01*
X163750952Y-96614819D02*
X163655714Y-96614819D01*
X164941428Y-95614819D02*
X164750952Y-95614819D01*
X164750952Y-95614819D02*
X164655714Y-95662438D01*
X164655714Y-95662438D02*
X164608095Y-95710057D01*
X164608095Y-95710057D02*
X164512857Y-95852914D01*
X164512857Y-95852914D02*
X164465238Y-96043390D01*
X164465238Y-96043390D02*
X164465238Y-96424342D01*
X164465238Y-96424342D02*
X164512857Y-96519580D01*
X164512857Y-96519580D02*
X164560476Y-96567200D01*
X164560476Y-96567200D02*
X164655714Y-96614819D01*
X164655714Y-96614819D02*
X164846190Y-96614819D01*
X164846190Y-96614819D02*
X164941428Y-96567200D01*
X164941428Y-96567200D02*
X164989047Y-96519580D01*
X164989047Y-96519580D02*
X165036666Y-96424342D01*
X165036666Y-96424342D02*
X165036666Y-96186247D01*
X165036666Y-96186247D02*
X164989047Y-96091009D01*
X164989047Y-96091009D02*
X164941428Y-96043390D01*
X164941428Y-96043390D02*
X164846190Y-95995771D01*
X164846190Y-95995771D02*
X164655714Y-95995771D01*
X164655714Y-95995771D02*
X164560476Y-96043390D01*
X164560476Y-96043390D02*
X164512857Y-96091009D01*
X164512857Y-96091009D02*
X164465238Y-96186247D01*
X156718190Y-73568838D02*
X156622952Y-73521219D01*
X156622952Y-73521219D02*
X156480095Y-73521219D01*
X156480095Y-73521219D02*
X156337238Y-73568838D01*
X156337238Y-73568838D02*
X156242000Y-73664076D01*
X156242000Y-73664076D02*
X156194381Y-73759314D01*
X156194381Y-73759314D02*
X156146762Y-73949790D01*
X156146762Y-73949790D02*
X156146762Y-74092647D01*
X156146762Y-74092647D02*
X156194381Y-74283123D01*
X156194381Y-74283123D02*
X156242000Y-74378361D01*
X156242000Y-74378361D02*
X156337238Y-74473600D01*
X156337238Y-74473600D02*
X156480095Y-74521219D01*
X156480095Y-74521219D02*
X156575333Y-74521219D01*
X156575333Y-74521219D02*
X156718190Y-74473600D01*
X156718190Y-74473600D02*
X156765809Y-74425980D01*
X156765809Y-74425980D02*
X156765809Y-74092647D01*
X156765809Y-74092647D02*
X156575333Y-74092647D01*
X158527714Y-74521219D02*
X158194381Y-74045028D01*
X157956286Y-74521219D02*
X157956286Y-73521219D01*
X157956286Y-73521219D02*
X158337238Y-73521219D01*
X158337238Y-73521219D02*
X158432476Y-73568838D01*
X158432476Y-73568838D02*
X158480095Y-73616457D01*
X158480095Y-73616457D02*
X158527714Y-73711695D01*
X158527714Y-73711695D02*
X158527714Y-73854552D01*
X158527714Y-73854552D02*
X158480095Y-73949790D01*
X158480095Y-73949790D02*
X158432476Y-73997409D01*
X158432476Y-73997409D02*
X158337238Y-74045028D01*
X158337238Y-74045028D02*
X157956286Y-74045028D01*
X158813429Y-73521219D02*
X159146762Y-74521219D01*
X159146762Y-74521219D02*
X159480095Y-73521219D01*
X159765810Y-74473600D02*
X159908667Y-74521219D01*
X159908667Y-74521219D02*
X160146762Y-74521219D01*
X160146762Y-74521219D02*
X160242000Y-74473600D01*
X160242000Y-74473600D02*
X160289619Y-74425980D01*
X160289619Y-74425980D02*
X160337238Y-74330742D01*
X160337238Y-74330742D02*
X160337238Y-74235504D01*
X160337238Y-74235504D02*
X160289619Y-74140266D01*
X160289619Y-74140266D02*
X160242000Y-74092647D01*
X160242000Y-74092647D02*
X160146762Y-74045028D01*
X160146762Y-74045028D02*
X159956286Y-73997409D01*
X159956286Y-73997409D02*
X159861048Y-73949790D01*
X159861048Y-73949790D02*
X159813429Y-73902171D01*
X159813429Y-73902171D02*
X159765810Y-73806933D01*
X159765810Y-73806933D02*
X159765810Y-73711695D01*
X159765810Y-73711695D02*
X159813429Y-73616457D01*
X159813429Y-73616457D02*
X159861048Y-73568838D01*
X159861048Y-73568838D02*
X159956286Y-73521219D01*
X159956286Y-73521219D02*
X160194381Y-73521219D01*
X160194381Y-73521219D02*
X160337238Y-73568838D01*
X148915714Y-73572019D02*
X148915714Y-74286304D01*
X148915714Y-74286304D02*
X148868095Y-74429161D01*
X148868095Y-74429161D02*
X148772857Y-74524400D01*
X148772857Y-74524400D02*
X148630000Y-74572019D01*
X148630000Y-74572019D02*
X148534762Y-74572019D01*
X149820476Y-73572019D02*
X149630000Y-73572019D01*
X149630000Y-73572019D02*
X149534762Y-73619638D01*
X149534762Y-73619638D02*
X149487143Y-73667257D01*
X149487143Y-73667257D02*
X149391905Y-73810114D01*
X149391905Y-73810114D02*
X149344286Y-74000590D01*
X149344286Y-74000590D02*
X149344286Y-74381542D01*
X149344286Y-74381542D02*
X149391905Y-74476780D01*
X149391905Y-74476780D02*
X149439524Y-74524400D01*
X149439524Y-74524400D02*
X149534762Y-74572019D01*
X149534762Y-74572019D02*
X149725238Y-74572019D01*
X149725238Y-74572019D02*
X149820476Y-74524400D01*
X149820476Y-74524400D02*
X149868095Y-74476780D01*
X149868095Y-74476780D02*
X149915714Y-74381542D01*
X149915714Y-74381542D02*
X149915714Y-74143447D01*
X149915714Y-74143447D02*
X149868095Y-74048209D01*
X149868095Y-74048209D02*
X149820476Y-74000590D01*
X149820476Y-74000590D02*
X149725238Y-73952971D01*
X149725238Y-73952971D02*
X149534762Y-73952971D01*
X149534762Y-73952971D02*
X149439524Y-74000590D01*
X149439524Y-74000590D02*
X149391905Y-74048209D01*
X149391905Y-74048209D02*
X149344286Y-74143447D01*
X151439524Y-74048209D02*
X151106191Y-74048209D01*
X151106191Y-74572019D02*
X151106191Y-73572019D01*
X151106191Y-73572019D02*
X151582381Y-73572019D01*
X151868096Y-73572019D02*
X152106191Y-74572019D01*
X152106191Y-74572019D02*
X152296667Y-73857733D01*
X152296667Y-73857733D02*
X152487143Y-74572019D01*
X152487143Y-74572019D02*
X152725239Y-73572019D01*
X153106191Y-74572019D02*
X153106191Y-73572019D01*
X153106191Y-73572019D02*
X153344286Y-73572019D01*
X153344286Y-73572019D02*
X153487143Y-73619638D01*
X153487143Y-73619638D02*
X153582381Y-73714876D01*
X153582381Y-73714876D02*
X153630000Y-73810114D01*
X153630000Y-73810114D02*
X153677619Y-74000590D01*
X153677619Y-74000590D02*
X153677619Y-74143447D01*
X153677619Y-74143447D02*
X153630000Y-74333923D01*
X153630000Y-74333923D02*
X153582381Y-74429161D01*
X153582381Y-74429161D02*
X153487143Y-74524400D01*
X153487143Y-74524400D02*
X153344286Y-74572019D01*
X153344286Y-74572019D02*
X153106191Y-74572019D01*
X136604666Y-95572819D02*
X136604666Y-96287104D01*
X136604666Y-96287104D02*
X136557047Y-96429961D01*
X136557047Y-96429961D02*
X136461809Y-96525200D01*
X136461809Y-96525200D02*
X136318952Y-96572819D01*
X136318952Y-96572819D02*
X136223714Y-96572819D01*
X137509428Y-95906152D02*
X137509428Y-96572819D01*
X137271333Y-95525200D02*
X137033238Y-96239485D01*
X137033238Y-96239485D02*
X137652285Y-96239485D01*
X145716666Y-95614819D02*
X145716666Y-96329104D01*
X145716666Y-96329104D02*
X145669047Y-96471961D01*
X145669047Y-96471961D02*
X145573809Y-96567200D01*
X145573809Y-96567200D02*
X145430952Y-96614819D01*
X145430952Y-96614819D02*
X145335714Y-96614819D01*
X146097619Y-95614819D02*
X146716666Y-95614819D01*
X146716666Y-95614819D02*
X146383333Y-95995771D01*
X146383333Y-95995771D02*
X146526190Y-95995771D01*
X146526190Y-95995771D02*
X146621428Y-96043390D01*
X146621428Y-96043390D02*
X146669047Y-96091009D01*
X146669047Y-96091009D02*
X146716666Y-96186247D01*
X146716666Y-96186247D02*
X146716666Y-96424342D01*
X146716666Y-96424342D02*
X146669047Y-96519580D01*
X146669047Y-96519580D02*
X146621428Y-96567200D01*
X146621428Y-96567200D02*
X146526190Y-96614819D01*
X146526190Y-96614819D02*
X146240476Y-96614819D01*
X146240476Y-96614819D02*
X146145238Y-96567200D01*
X146145238Y-96567200D02*
X146097619Y-96519580D01*
X163734952Y-73518038D02*
X163639714Y-73470419D01*
X163639714Y-73470419D02*
X163496857Y-73470419D01*
X163496857Y-73470419D02*
X163354000Y-73518038D01*
X163354000Y-73518038D02*
X163258762Y-73613276D01*
X163258762Y-73613276D02*
X163211143Y-73708514D01*
X163211143Y-73708514D02*
X163163524Y-73898990D01*
X163163524Y-73898990D02*
X163163524Y-74041847D01*
X163163524Y-74041847D02*
X163211143Y-74232323D01*
X163211143Y-74232323D02*
X163258762Y-74327561D01*
X163258762Y-74327561D02*
X163354000Y-74422800D01*
X163354000Y-74422800D02*
X163496857Y-74470419D01*
X163496857Y-74470419D02*
X163592095Y-74470419D01*
X163592095Y-74470419D02*
X163734952Y-74422800D01*
X163734952Y-74422800D02*
X163782571Y-74375180D01*
X163782571Y-74375180D02*
X163782571Y-74041847D01*
X163782571Y-74041847D02*
X163592095Y-74041847D01*
X165306381Y-73946609D02*
X164973048Y-73946609D01*
X164973048Y-74470419D02*
X164973048Y-73470419D01*
X164973048Y-73470419D02*
X165449238Y-73470419D01*
X165734953Y-73470419D02*
X165973048Y-74470419D01*
X165973048Y-74470419D02*
X166163524Y-73756133D01*
X166163524Y-73756133D02*
X166354000Y-74470419D01*
X166354000Y-74470419D02*
X166592096Y-73470419D01*
X166973048Y-74470419D02*
X166973048Y-73470419D01*
X166973048Y-73470419D02*
X167211143Y-73470419D01*
X167211143Y-73470419D02*
X167354000Y-73518038D01*
X167354000Y-73518038D02*
X167449238Y-73613276D01*
X167449238Y-73613276D02*
X167496857Y-73708514D01*
X167496857Y-73708514D02*
X167544476Y-73898990D01*
X167544476Y-73898990D02*
X167544476Y-74041847D01*
X167544476Y-74041847D02*
X167496857Y-74232323D01*
X167496857Y-74232323D02*
X167449238Y-74327561D01*
X167449238Y-74327561D02*
X167354000Y-74422800D01*
X167354000Y-74422800D02*
X167211143Y-74470419D01*
X167211143Y-74470419D02*
X166973048Y-74470419D01*
X127428666Y-95572819D02*
X127428666Y-96287104D01*
X127428666Y-96287104D02*
X127381047Y-96429961D01*
X127381047Y-96429961D02*
X127285809Y-96525200D01*
X127285809Y-96525200D02*
X127142952Y-96572819D01*
X127142952Y-96572819D02*
X127047714Y-96572819D01*
X128381047Y-95572819D02*
X127904857Y-95572819D01*
X127904857Y-95572819D02*
X127857238Y-96049009D01*
X127857238Y-96049009D02*
X127904857Y-96001390D01*
X127904857Y-96001390D02*
X128000095Y-95953771D01*
X128000095Y-95953771D02*
X128238190Y-95953771D01*
X128238190Y-95953771D02*
X128333428Y-96001390D01*
X128333428Y-96001390D02*
X128381047Y-96049009D01*
X128381047Y-96049009D02*
X128428666Y-96144247D01*
X128428666Y-96144247D02*
X128428666Y-96382342D01*
X128428666Y-96382342D02*
X128381047Y-96477580D01*
X128381047Y-96477580D02*
X128333428Y-96525200D01*
X128333428Y-96525200D02*
X128238190Y-96572819D01*
X128238190Y-96572819D02*
X128000095Y-96572819D01*
X128000095Y-96572819D02*
X127904857Y-96525200D01*
X127904857Y-96525200D02*
X127857238Y-96477580D01*
X142000552Y-73572019D02*
X142000552Y-74286304D01*
X142000552Y-74286304D02*
X141952933Y-74429161D01*
X141952933Y-74429161D02*
X141857695Y-74524400D01*
X141857695Y-74524400D02*
X141714838Y-74572019D01*
X141714838Y-74572019D02*
X141619600Y-74572019D01*
X142905314Y-73572019D02*
X142714838Y-73572019D01*
X142714838Y-73572019D02*
X142619600Y-73619638D01*
X142619600Y-73619638D02*
X142571981Y-73667257D01*
X142571981Y-73667257D02*
X142476743Y-73810114D01*
X142476743Y-73810114D02*
X142429124Y-74000590D01*
X142429124Y-74000590D02*
X142429124Y-74381542D01*
X142429124Y-74381542D02*
X142476743Y-74476780D01*
X142476743Y-74476780D02*
X142524362Y-74524400D01*
X142524362Y-74524400D02*
X142619600Y-74572019D01*
X142619600Y-74572019D02*
X142810076Y-74572019D01*
X142810076Y-74572019D02*
X142905314Y-74524400D01*
X142905314Y-74524400D02*
X142952933Y-74476780D01*
X142952933Y-74476780D02*
X143000552Y-74381542D01*
X143000552Y-74381542D02*
X143000552Y-74143447D01*
X143000552Y-74143447D02*
X142952933Y-74048209D01*
X142952933Y-74048209D02*
X142905314Y-74000590D01*
X142905314Y-74000590D02*
X142810076Y-73952971D01*
X142810076Y-73952971D02*
X142619600Y-73952971D01*
X142619600Y-73952971D02*
X142524362Y-74000590D01*
X142524362Y-74000590D02*
X142476743Y-74048209D01*
X142476743Y-74048209D02*
X142429124Y-74143447D01*
X144762457Y-74572019D02*
X144429124Y-74095828D01*
X144191029Y-74572019D02*
X144191029Y-73572019D01*
X144191029Y-73572019D02*
X144571981Y-73572019D01*
X144571981Y-73572019D02*
X144667219Y-73619638D01*
X144667219Y-73619638D02*
X144714838Y-73667257D01*
X144714838Y-73667257D02*
X144762457Y-73762495D01*
X144762457Y-73762495D02*
X144762457Y-73905352D01*
X144762457Y-73905352D02*
X144714838Y-74000590D01*
X144714838Y-74000590D02*
X144667219Y-74048209D01*
X144667219Y-74048209D02*
X144571981Y-74095828D01*
X144571981Y-74095828D02*
X144191029Y-74095828D01*
X145048172Y-73572019D02*
X145381505Y-74572019D01*
X145381505Y-74572019D02*
X145714838Y-73572019D01*
X146000553Y-74524400D02*
X146143410Y-74572019D01*
X146143410Y-74572019D02*
X146381505Y-74572019D01*
X146381505Y-74572019D02*
X146476743Y-74524400D01*
X146476743Y-74524400D02*
X146524362Y-74476780D01*
X146524362Y-74476780D02*
X146571981Y-74381542D01*
X146571981Y-74381542D02*
X146571981Y-74286304D01*
X146571981Y-74286304D02*
X146524362Y-74191066D01*
X146524362Y-74191066D02*
X146476743Y-74143447D01*
X146476743Y-74143447D02*
X146381505Y-74095828D01*
X146381505Y-74095828D02*
X146191029Y-74048209D01*
X146191029Y-74048209D02*
X146095791Y-74000590D01*
X146095791Y-74000590D02*
X146048172Y-73952971D01*
X146048172Y-73952971D02*
X146000553Y-73857733D01*
X146000553Y-73857733D02*
X146000553Y-73762495D01*
X146000553Y-73762495D02*
X146048172Y-73667257D01*
X146048172Y-73667257D02*
X146095791Y-73619638D01*
X146095791Y-73619638D02*
X146191029Y-73572019D01*
X146191029Y-73572019D02*
X146429124Y-73572019D01*
X146429124Y-73572019D02*
X146571981Y-73619638D01*
X154892666Y-95614819D02*
X154892666Y-96329104D01*
X154892666Y-96329104D02*
X154845047Y-96471961D01*
X154845047Y-96471961D02*
X154749809Y-96567200D01*
X154749809Y-96567200D02*
X154606952Y-96614819D01*
X154606952Y-96614819D02*
X154511714Y-96614819D01*
X155321238Y-95710057D02*
X155368857Y-95662438D01*
X155368857Y-95662438D02*
X155464095Y-95614819D01*
X155464095Y-95614819D02*
X155702190Y-95614819D01*
X155702190Y-95614819D02*
X155797428Y-95662438D01*
X155797428Y-95662438D02*
X155845047Y-95710057D01*
X155845047Y-95710057D02*
X155892666Y-95805295D01*
X155892666Y-95805295D02*
X155892666Y-95900533D01*
X155892666Y-95900533D02*
X155845047Y-96043390D01*
X155845047Y-96043390D02*
X155273619Y-96614819D01*
X155273619Y-96614819D02*
X155892666Y-96614819D01*
D12*
%TO.C,D3*%
X138457000Y-68317000D02*
X138457000Y-70777000D01*
X139927000Y-68317000D02*
X138457000Y-68317000D01*
X139927000Y-70777000D02*
X139927000Y-68317000D01*
%TO.C,SW1*%
X127286000Y-67772000D02*
X124986000Y-67772000D01*
X133586000Y-67772000D02*
X131386000Y-67772000D01*
X133586000Y-72372000D02*
X124986000Y-72372000D01*
%TO.C,J6*%
X160010000Y-96950000D02*
X160010000Y-98200000D01*
X160310000Y-97250000D02*
X160310000Y-101970000D01*
X160310000Y-98560000D02*
X160920000Y-98560000D01*
X160310000Y-99860000D02*
X160920000Y-99860000D01*
X160310000Y-101970000D02*
X168430000Y-101970000D01*
X160920000Y-97860000D02*
X160920000Y-101360000D01*
X160920000Y-101360000D02*
X167820000Y-101360000D01*
X161260000Y-96950000D02*
X160010000Y-96950000D01*
X161770000Y-97050000D02*
X161770000Y-97250000D01*
X162070000Y-97050000D02*
X161770000Y-97050000D01*
X162070000Y-97150000D02*
X161770000Y-97150000D01*
X162070000Y-97250000D02*
X162070000Y-97050000D01*
X162870000Y-97250000D02*
X162870000Y-97860000D01*
X162870000Y-97860000D02*
X160920000Y-97860000D01*
X163270000Y-100860000D02*
X163470000Y-100860000D01*
X163270000Y-101360000D02*
X163270000Y-100860000D01*
X163370000Y-101360000D02*
X163370000Y-100860000D01*
X163470000Y-100860000D02*
X163470000Y-101360000D01*
X165270000Y-100860000D02*
X165470000Y-100860000D01*
X165270000Y-101360000D02*
X165270000Y-100860000D01*
X165370000Y-101360000D02*
X165370000Y-100860000D01*
X165470000Y-100860000D02*
X165470000Y-101360000D01*
X165870000Y-97860000D02*
X165870000Y-97250000D01*
X167820000Y-97860000D02*
X165870000Y-97860000D01*
X167820000Y-101360000D02*
X167820000Y-97860000D01*
X168430000Y-97250000D02*
X160310000Y-97250000D01*
X168430000Y-98560000D02*
X167820000Y-98560000D01*
X168430000Y-99860000D02*
X167820000Y-99860000D01*
X168430000Y-101970000D02*
X168430000Y-97250000D01*
%TO.C,R1*%
X136129500Y-73660724D02*
X136129500Y-73151276D01*
X137174500Y-73660724D02*
X137174500Y-73151276D01*
%TO.C,J7*%
X155182000Y-68252000D02*
X155182000Y-72972000D01*
X155182000Y-70362000D02*
X155792000Y-70362000D01*
X155182000Y-71662000D02*
X155792000Y-71662000D01*
X155182000Y-72972000D02*
X161302000Y-72972000D01*
X155792000Y-68862000D02*
X155792000Y-72362000D01*
X155792000Y-72362000D02*
X157742000Y-72362000D01*
X157742000Y-72362000D02*
X157742000Y-72972000D01*
X158142000Y-69362000D02*
X158142000Y-68862000D01*
X158242000Y-68862000D02*
X158242000Y-69362000D01*
X158342000Y-68862000D02*
X158342000Y-69362000D01*
X158342000Y-69362000D02*
X158142000Y-69362000D01*
X158742000Y-72362000D02*
X160692000Y-72362000D01*
X158742000Y-72972000D02*
X158742000Y-72362000D01*
X159542000Y-72972000D02*
X159542000Y-73172000D01*
X159542000Y-73072000D02*
X159842000Y-73072000D01*
X159542000Y-73172000D02*
X159842000Y-73172000D01*
X159842000Y-73172000D02*
X159842000Y-72972000D01*
X160352000Y-73272000D02*
X161602000Y-73272000D01*
X160692000Y-68862000D02*
X155792000Y-68862000D01*
X160692000Y-72362000D02*
X160692000Y-68862000D01*
X161302000Y-68252000D02*
X155182000Y-68252000D01*
X161302000Y-70362000D02*
X160692000Y-70362000D01*
X161302000Y-71662000D02*
X160692000Y-71662000D01*
X161302000Y-72972000D02*
X161302000Y-68252000D01*
X161602000Y-73272000D02*
X161602000Y-72022000D01*
%TO.C,J8*%
X148086000Y-68210000D02*
X148086000Y-72930000D01*
X148086000Y-70320000D02*
X148696000Y-70320000D01*
X148086000Y-71620000D02*
X148696000Y-71620000D01*
X148086000Y-72930000D02*
X154206000Y-72930000D01*
X148696000Y-68820000D02*
X148696000Y-72320000D01*
X148696000Y-72320000D02*
X150646000Y-72320000D01*
X150646000Y-72320000D02*
X150646000Y-72930000D01*
X151046000Y-69320000D02*
X151046000Y-68820000D01*
X151146000Y-68820000D02*
X151146000Y-69320000D01*
X151246000Y-68820000D02*
X151246000Y-69320000D01*
X151246000Y-69320000D02*
X151046000Y-69320000D01*
X151646000Y-72320000D02*
X153596000Y-72320000D01*
X151646000Y-72930000D02*
X151646000Y-72320000D01*
X152446000Y-72930000D02*
X152446000Y-73130000D01*
X152446000Y-73030000D02*
X152746000Y-73030000D01*
X152446000Y-73130000D02*
X152746000Y-73130000D01*
X152746000Y-73130000D02*
X152746000Y-72930000D01*
X153256000Y-73230000D02*
X154506000Y-73230000D01*
X153596000Y-68820000D02*
X148696000Y-68820000D01*
X153596000Y-72320000D02*
X153596000Y-68820000D01*
X154206000Y-68210000D02*
X148086000Y-68210000D01*
X154206000Y-70320000D02*
X153596000Y-70320000D01*
X154206000Y-71620000D02*
X153596000Y-71620000D01*
X154206000Y-72930000D02*
X154206000Y-68210000D01*
X154506000Y-73230000D02*
X154506000Y-71980000D01*
%TO.C,D1*%
X135917000Y-68317000D02*
X135917000Y-70777000D01*
X137387000Y-68317000D02*
X135917000Y-68317000D01*
X137387000Y-70777000D02*
X137387000Y-68317000D01*
%TO.C,J4*%
X132578000Y-96908000D02*
X132578000Y-98158000D01*
X132878000Y-97208000D02*
X132878000Y-101928000D01*
X132878000Y-98518000D02*
X133488000Y-98518000D01*
X132878000Y-99818000D02*
X133488000Y-99818000D01*
X132878000Y-101928000D02*
X140998000Y-101928000D01*
X133488000Y-97818000D02*
X133488000Y-101318000D01*
X133488000Y-101318000D02*
X140388000Y-101318000D01*
X133828000Y-96908000D02*
X132578000Y-96908000D01*
X134338000Y-97008000D02*
X134338000Y-97208000D01*
X134638000Y-97008000D02*
X134338000Y-97008000D01*
X134638000Y-97108000D02*
X134338000Y-97108000D01*
X134638000Y-97208000D02*
X134638000Y-97008000D01*
X135438000Y-97208000D02*
X135438000Y-97818000D01*
X135438000Y-97818000D02*
X133488000Y-97818000D01*
X135838000Y-100818000D02*
X136038000Y-100818000D01*
X135838000Y-101318000D02*
X135838000Y-100818000D01*
X135938000Y-101318000D02*
X135938000Y-100818000D01*
X136038000Y-100818000D02*
X136038000Y-101318000D01*
X137838000Y-100818000D02*
X138038000Y-100818000D01*
X137838000Y-101318000D02*
X137838000Y-100818000D01*
X137938000Y-101318000D02*
X137938000Y-100818000D01*
X138038000Y-100818000D02*
X138038000Y-101318000D01*
X138438000Y-97818000D02*
X138438000Y-97208000D01*
X140388000Y-97818000D02*
X138438000Y-97818000D01*
X140388000Y-101318000D02*
X140388000Y-97818000D01*
X140998000Y-97208000D02*
X132878000Y-97208000D01*
X140998000Y-98518000D02*
X140388000Y-98518000D01*
X140998000Y-99818000D02*
X140388000Y-99818000D01*
X140998000Y-101928000D02*
X140998000Y-97208000D01*
%TO.C,J3*%
X141690000Y-96950000D02*
X141690000Y-98200000D01*
X141990000Y-97250000D02*
X141990000Y-101970000D01*
X141990000Y-98560000D02*
X142600000Y-98560000D01*
X141990000Y-99860000D02*
X142600000Y-99860000D01*
X141990000Y-101970000D02*
X150110000Y-101970000D01*
X142600000Y-97860000D02*
X142600000Y-101360000D01*
X142600000Y-101360000D02*
X149500000Y-101360000D01*
X142940000Y-96950000D02*
X141690000Y-96950000D01*
X143450000Y-97050000D02*
X143450000Y-97250000D01*
X143750000Y-97050000D02*
X143450000Y-97050000D01*
X143750000Y-97150000D02*
X143450000Y-97150000D01*
X143750000Y-97250000D02*
X143750000Y-97050000D01*
X144550000Y-97250000D02*
X144550000Y-97860000D01*
X144550000Y-97860000D02*
X142600000Y-97860000D01*
X144950000Y-100860000D02*
X145150000Y-100860000D01*
X144950000Y-101360000D02*
X144950000Y-100860000D01*
X145050000Y-101360000D02*
X145050000Y-100860000D01*
X145150000Y-100860000D02*
X145150000Y-101360000D01*
X146950000Y-100860000D02*
X147150000Y-100860000D01*
X146950000Y-101360000D02*
X146950000Y-100860000D01*
X147050000Y-101360000D02*
X147050000Y-100860000D01*
X147150000Y-100860000D02*
X147150000Y-101360000D01*
X147550000Y-97860000D02*
X147550000Y-97250000D01*
X149500000Y-97860000D02*
X147550000Y-97860000D01*
X149500000Y-101360000D02*
X149500000Y-97860000D01*
X150110000Y-97250000D02*
X141990000Y-97250000D01*
X150110000Y-98560000D02*
X149500000Y-98560000D01*
X150110000Y-99860000D02*
X149500000Y-99860000D01*
X150110000Y-101970000D02*
X150110000Y-97250000D01*
%TO.C,C1*%
X122586533Y-79500000D02*
X122879067Y-79500000D01*
X122586533Y-80520000D02*
X122879067Y-80520000D01*
%TO.C,J1*%
X162310000Y-68210000D02*
X162310000Y-72930000D01*
X162310000Y-70320000D02*
X162920000Y-70320000D01*
X162310000Y-71620000D02*
X162920000Y-71620000D01*
X162310000Y-72930000D02*
X168430000Y-72930000D01*
X162920000Y-68820000D02*
X162920000Y-72320000D01*
X162920000Y-72320000D02*
X164870000Y-72320000D01*
X164870000Y-72320000D02*
X164870000Y-72930000D01*
X165270000Y-69320000D02*
X165270000Y-68820000D01*
X165370000Y-68820000D02*
X165370000Y-69320000D01*
X165470000Y-68820000D02*
X165470000Y-69320000D01*
X165470000Y-69320000D02*
X165270000Y-69320000D01*
X165870000Y-72320000D02*
X167820000Y-72320000D01*
X165870000Y-72930000D02*
X165870000Y-72320000D01*
X166670000Y-72930000D02*
X166670000Y-73130000D01*
X166670000Y-73030000D02*
X166970000Y-73030000D01*
X166670000Y-73130000D02*
X166970000Y-73130000D01*
X166970000Y-73130000D02*
X166970000Y-72930000D01*
X167480000Y-73230000D02*
X168730000Y-73230000D01*
X167820000Y-68820000D02*
X162920000Y-68820000D01*
X167820000Y-72320000D02*
X167820000Y-68820000D01*
X168430000Y-68210000D02*
X162310000Y-68210000D01*
X168430000Y-70320000D02*
X167820000Y-70320000D01*
X168430000Y-71620000D02*
X167820000Y-71620000D01*
X168430000Y-72930000D02*
X168430000Y-68210000D01*
X168730000Y-73230000D02*
X168730000Y-71980000D01*
%TO.C,J5*%
X123402000Y-96908000D02*
X123402000Y-98158000D01*
X123702000Y-97208000D02*
X123702000Y-101928000D01*
X123702000Y-98518000D02*
X124312000Y-98518000D01*
X123702000Y-99818000D02*
X124312000Y-99818000D01*
X123702000Y-101928000D02*
X131822000Y-101928000D01*
X124312000Y-97818000D02*
X124312000Y-101318000D01*
X124312000Y-101318000D02*
X131212000Y-101318000D01*
X124652000Y-96908000D02*
X123402000Y-96908000D01*
X125162000Y-97008000D02*
X125162000Y-97208000D01*
X125462000Y-97008000D02*
X125162000Y-97008000D01*
X125462000Y-97108000D02*
X125162000Y-97108000D01*
X125462000Y-97208000D02*
X125462000Y-97008000D01*
X126262000Y-97208000D02*
X126262000Y-97818000D01*
X126262000Y-97818000D02*
X124312000Y-97818000D01*
X126662000Y-100818000D02*
X126862000Y-100818000D01*
X126662000Y-101318000D02*
X126662000Y-100818000D01*
X126762000Y-101318000D02*
X126762000Y-100818000D01*
X126862000Y-100818000D02*
X126862000Y-101318000D01*
X128662000Y-100818000D02*
X128862000Y-100818000D01*
X128662000Y-101318000D02*
X128662000Y-100818000D01*
X128762000Y-101318000D02*
X128762000Y-100818000D01*
X128862000Y-100818000D02*
X128862000Y-101318000D01*
X129262000Y-97818000D02*
X129262000Y-97208000D01*
X131212000Y-97818000D02*
X129262000Y-97818000D01*
X131212000Y-101318000D02*
X131212000Y-97818000D01*
X131822000Y-97208000D02*
X123702000Y-97208000D01*
X131822000Y-98518000D02*
X131212000Y-98518000D01*
X131822000Y-99818000D02*
X131212000Y-99818000D01*
X131822000Y-101928000D02*
X131822000Y-97208000D01*
%TO.C,J9*%
X140958000Y-68252000D02*
X140958000Y-72972000D01*
X140958000Y-70362000D02*
X141568000Y-70362000D01*
X140958000Y-71662000D02*
X141568000Y-71662000D01*
X140958000Y-72972000D02*
X147078000Y-72972000D01*
X141568000Y-68862000D02*
X141568000Y-72362000D01*
X141568000Y-72362000D02*
X143518000Y-72362000D01*
X143518000Y-72362000D02*
X143518000Y-72972000D01*
X143918000Y-69362000D02*
X143918000Y-68862000D01*
X144018000Y-68862000D02*
X144018000Y-69362000D01*
X144118000Y-68862000D02*
X144118000Y-69362000D01*
X144118000Y-69362000D02*
X143918000Y-69362000D01*
X144518000Y-72362000D02*
X146468000Y-72362000D01*
X144518000Y-72972000D02*
X144518000Y-72362000D01*
X145318000Y-72972000D02*
X145318000Y-73172000D01*
X145318000Y-73072000D02*
X145618000Y-73072000D01*
X145318000Y-73172000D02*
X145618000Y-73172000D01*
X145618000Y-73172000D02*
X145618000Y-72972000D01*
X146128000Y-73272000D02*
X147378000Y-73272000D01*
X146468000Y-68862000D02*
X141568000Y-68862000D01*
X146468000Y-72362000D02*
X146468000Y-68862000D01*
X147078000Y-68252000D02*
X140958000Y-68252000D01*
X147078000Y-70362000D02*
X146468000Y-70362000D01*
X147078000Y-71662000D02*
X146468000Y-71662000D01*
X147078000Y-72972000D02*
X147078000Y-68252000D01*
X147378000Y-73272000D02*
X147378000Y-72022000D01*
D13*
%TO.C,U1*%
X114870000Y-89120000D02*
X114870000Y-81060000D01*
X115570000Y-76200000D02*
X115570000Y-81060000D01*
X115570000Y-76200000D02*
X176530000Y-76200000D01*
X115570000Y-81060000D02*
X114870000Y-81060000D01*
X115570000Y-89120000D02*
X114870000Y-89120000D01*
X115570000Y-93980000D02*
X115570000Y-89120000D01*
X176530000Y-76200000D02*
X176530000Y-93980000D01*
X176530000Y-93980000D02*
X115570000Y-93980000D01*
D14*
X122020000Y-94590000D02*
G75*
G02*
X121820000Y-94590000I-100000J0D01*
G01*
X121820000Y-94590000D02*
G75*
G02*
X122020000Y-94590000I100000J0D01*
G01*
D12*
%TO.C,R2*%
X138669500Y-73660724D02*
X138669500Y-73151276D01*
X139714500Y-73660724D02*
X139714500Y-73151276D01*
%TO.C,J2*%
X150866000Y-96950000D02*
X150866000Y-98200000D01*
X151166000Y-97250000D02*
X151166000Y-101970000D01*
X151166000Y-98560000D02*
X151776000Y-98560000D01*
X151166000Y-99860000D02*
X151776000Y-99860000D01*
X151166000Y-101970000D02*
X159286000Y-101970000D01*
X151776000Y-97860000D02*
X151776000Y-101360000D01*
X151776000Y-101360000D02*
X158676000Y-101360000D01*
X152116000Y-96950000D02*
X150866000Y-96950000D01*
X152626000Y-97050000D02*
X152626000Y-97250000D01*
X152926000Y-97050000D02*
X152626000Y-97050000D01*
X152926000Y-97150000D02*
X152626000Y-97150000D01*
X152926000Y-97250000D02*
X152926000Y-97050000D01*
X153726000Y-97250000D02*
X153726000Y-97860000D01*
X153726000Y-97860000D02*
X151776000Y-97860000D01*
X154126000Y-100860000D02*
X154326000Y-100860000D01*
X154126000Y-101360000D02*
X154126000Y-100860000D01*
X154226000Y-101360000D02*
X154226000Y-100860000D01*
X154326000Y-100860000D02*
X154326000Y-101360000D01*
X156126000Y-100860000D02*
X156326000Y-100860000D01*
X156126000Y-101360000D02*
X156126000Y-100860000D01*
X156226000Y-101360000D02*
X156226000Y-100860000D01*
X156326000Y-100860000D02*
X156326000Y-101360000D01*
X156726000Y-97860000D02*
X156726000Y-97250000D01*
X158676000Y-97860000D02*
X156726000Y-97860000D01*
X158676000Y-101360000D02*
X158676000Y-97860000D01*
X159286000Y-97250000D02*
X151166000Y-97250000D01*
X159286000Y-98560000D02*
X158676000Y-98560000D01*
X159286000Y-99860000D02*
X158676000Y-99860000D01*
X159286000Y-101970000D02*
X159286000Y-97250000D01*
%TD*%
M02*
