%TF.GenerationSoftware,KiCad,Pcbnew,9.0.8-9.0.8~ubuntu22.04.1*%
%TF.CreationDate,2026-03-23T11:58:49-05:00*%
%TF.ProjectId,Main_Board,4d61696e-5f42-46f6-9172-642e6b696361,rev?*%
%TF.SameCoordinates,Original*%
%TF.FileFunction,Legend,Bot*%
%TF.FilePolarity,Positive*%
%FSLAX46Y46*%
G04 Gerber Fmt 4.6, Leading zero omitted, Abs format (unit mm)*
G04 Created by KiCad (PCBNEW 9.0.8-9.0.8~ubuntu22.04.1) date 2026-03-23 11:58:49*
%MOMM*%
%LPD*%
G01*
G04 APERTURE LIST*
%ADD10C,0.355600*%
%ADD11C,0.000000*%
%ADD12C,0.010000*%
G04 APERTURE END LIST*
D10*
X174687386Y-81092475D02*
X173840719Y-81092475D01*
X174856719Y-81600475D02*
X174264053Y-79822475D01*
X174264053Y-79822475D02*
X173671386Y-81600475D01*
X173078719Y-81600475D02*
X173078719Y-80415142D01*
X173078719Y-80753809D02*
X172994053Y-80584475D01*
X172994053Y-80584475D02*
X172909386Y-80499809D01*
X172909386Y-80499809D02*
X172740053Y-80415142D01*
X172740053Y-80415142D02*
X172570719Y-80415142D01*
X171978052Y-81600475D02*
X171978052Y-80415142D01*
X171978052Y-80584475D02*
X171893386Y-80499809D01*
X171893386Y-80499809D02*
X171724052Y-80415142D01*
X171724052Y-80415142D02*
X171470052Y-80415142D01*
X171470052Y-80415142D02*
X171300719Y-80499809D01*
X171300719Y-80499809D02*
X171216052Y-80669142D01*
X171216052Y-80669142D02*
X171216052Y-81600475D01*
X171216052Y-80669142D02*
X171131386Y-80499809D01*
X171131386Y-80499809D02*
X170962052Y-80415142D01*
X170962052Y-80415142D02*
X170708052Y-80415142D01*
X170708052Y-80415142D02*
X170538719Y-80499809D01*
X170538719Y-80499809D02*
X170454052Y-80669142D01*
X170454052Y-80669142D02*
X170454052Y-81600475D01*
X167236718Y-81431142D02*
X167321385Y-81515809D01*
X167321385Y-81515809D02*
X167575385Y-81600475D01*
X167575385Y-81600475D02*
X167744718Y-81600475D01*
X167744718Y-81600475D02*
X167998718Y-81515809D01*
X167998718Y-81515809D02*
X168168052Y-81346475D01*
X168168052Y-81346475D02*
X168252718Y-81177142D01*
X168252718Y-81177142D02*
X168337385Y-80838475D01*
X168337385Y-80838475D02*
X168337385Y-80584475D01*
X168337385Y-80584475D02*
X168252718Y-80245809D01*
X168252718Y-80245809D02*
X168168052Y-80076475D01*
X168168052Y-80076475D02*
X167998718Y-79907142D01*
X167998718Y-79907142D02*
X167744718Y-79822475D01*
X167744718Y-79822475D02*
X167575385Y-79822475D01*
X167575385Y-79822475D02*
X167321385Y-79907142D01*
X167321385Y-79907142D02*
X167236718Y-79991809D01*
X166220718Y-81600475D02*
X166390052Y-81515809D01*
X166390052Y-81515809D02*
X166474718Y-81431142D01*
X166474718Y-81431142D02*
X166559385Y-81261809D01*
X166559385Y-81261809D02*
X166559385Y-80753809D01*
X166559385Y-80753809D02*
X166474718Y-80584475D01*
X166474718Y-80584475D02*
X166390052Y-80499809D01*
X166390052Y-80499809D02*
X166220718Y-80415142D01*
X166220718Y-80415142D02*
X165966718Y-80415142D01*
X165966718Y-80415142D02*
X165797385Y-80499809D01*
X165797385Y-80499809D02*
X165712718Y-80584475D01*
X165712718Y-80584475D02*
X165628052Y-80753809D01*
X165628052Y-80753809D02*
X165628052Y-81261809D01*
X165628052Y-81261809D02*
X165712718Y-81431142D01*
X165712718Y-81431142D02*
X165797385Y-81515809D01*
X165797385Y-81515809D02*
X165966718Y-81600475D01*
X165966718Y-81600475D02*
X166220718Y-81600475D01*
X164866051Y-80415142D02*
X164866051Y-81600475D01*
X164866051Y-80584475D02*
X164781385Y-80499809D01*
X164781385Y-80499809D02*
X164612051Y-80415142D01*
X164612051Y-80415142D02*
X164358051Y-80415142D01*
X164358051Y-80415142D02*
X164188718Y-80499809D01*
X164188718Y-80499809D02*
X164104051Y-80669142D01*
X164104051Y-80669142D02*
X164104051Y-81600475D01*
X163511384Y-80415142D02*
X162834051Y-80415142D01*
X163257384Y-79822475D02*
X163257384Y-81346475D01*
X163257384Y-81346475D02*
X163172718Y-81515809D01*
X163172718Y-81515809D02*
X163003384Y-81600475D01*
X163003384Y-81600475D02*
X162834051Y-81600475D01*
X162241384Y-81600475D02*
X162241384Y-80415142D01*
X162241384Y-80753809D02*
X162156718Y-80584475D01*
X162156718Y-80584475D02*
X162072051Y-80499809D01*
X162072051Y-80499809D02*
X161902718Y-80415142D01*
X161902718Y-80415142D02*
X161733384Y-80415142D01*
X160886717Y-81600475D02*
X161056051Y-81515809D01*
X161056051Y-81515809D02*
X161140717Y-81431142D01*
X161140717Y-81431142D02*
X161225384Y-81261809D01*
X161225384Y-81261809D02*
X161225384Y-80753809D01*
X161225384Y-80753809D02*
X161140717Y-80584475D01*
X161140717Y-80584475D02*
X161056051Y-80499809D01*
X161056051Y-80499809D02*
X160886717Y-80415142D01*
X160886717Y-80415142D02*
X160632717Y-80415142D01*
X160632717Y-80415142D02*
X160463384Y-80499809D01*
X160463384Y-80499809D02*
X160378717Y-80584475D01*
X160378717Y-80584475D02*
X160294051Y-80753809D01*
X160294051Y-80753809D02*
X160294051Y-81261809D01*
X160294051Y-81261809D02*
X160378717Y-81431142D01*
X160378717Y-81431142D02*
X160463384Y-81515809D01*
X160463384Y-81515809D02*
X160632717Y-81600475D01*
X160632717Y-81600475D02*
X160886717Y-81600475D01*
X159278050Y-81600475D02*
X159447384Y-81515809D01*
X159447384Y-81515809D02*
X159532050Y-81346475D01*
X159532050Y-81346475D02*
X159532050Y-79822475D01*
X158346717Y-81600475D02*
X158516051Y-81515809D01*
X158516051Y-81515809D02*
X158600717Y-81346475D01*
X158600717Y-81346475D02*
X158600717Y-79822475D01*
X156992051Y-81515809D02*
X157161384Y-81600475D01*
X157161384Y-81600475D02*
X157500051Y-81600475D01*
X157500051Y-81600475D02*
X157669384Y-81515809D01*
X157669384Y-81515809D02*
X157754051Y-81346475D01*
X157754051Y-81346475D02*
X157754051Y-80669142D01*
X157754051Y-80669142D02*
X157669384Y-80499809D01*
X157669384Y-80499809D02*
X157500051Y-80415142D01*
X157500051Y-80415142D02*
X157161384Y-80415142D01*
X157161384Y-80415142D02*
X156992051Y-80499809D01*
X156992051Y-80499809D02*
X156907384Y-80669142D01*
X156907384Y-80669142D02*
X156907384Y-80838475D01*
X156907384Y-80838475D02*
X157754051Y-81007809D01*
X156145384Y-81600475D02*
X156145384Y-80415142D01*
X156145384Y-80753809D02*
X156060718Y-80584475D01*
X156060718Y-80584475D02*
X155976051Y-80499809D01*
X155976051Y-80499809D02*
X155806718Y-80415142D01*
X155806718Y-80415142D02*
X155637384Y-80415142D01*
X154960051Y-81515809D02*
X154960051Y-81600475D01*
X154960051Y-81600475D02*
X155044717Y-81769809D01*
X155044717Y-81769809D02*
X155129384Y-81854475D01*
X151827383Y-81600475D02*
X152420050Y-80753809D01*
X152843383Y-81600475D02*
X152843383Y-79822475D01*
X152843383Y-79822475D02*
X152166050Y-79822475D01*
X152166050Y-79822475D02*
X151996717Y-79907142D01*
X151996717Y-79907142D02*
X151912050Y-79991809D01*
X151912050Y-79991809D02*
X151827383Y-80161142D01*
X151827383Y-80161142D02*
X151827383Y-80415142D01*
X151827383Y-80415142D02*
X151912050Y-80584475D01*
X151912050Y-80584475D02*
X151996717Y-80669142D01*
X151996717Y-80669142D02*
X152166050Y-80753809D01*
X152166050Y-80753809D02*
X152843383Y-80753809D01*
X150388050Y-81515809D02*
X150557383Y-81600475D01*
X150557383Y-81600475D02*
X150896050Y-81600475D01*
X150896050Y-81600475D02*
X151065383Y-81515809D01*
X151065383Y-81515809D02*
X151150050Y-81346475D01*
X151150050Y-81346475D02*
X151150050Y-80669142D01*
X151150050Y-80669142D02*
X151065383Y-80499809D01*
X151065383Y-80499809D02*
X150896050Y-80415142D01*
X150896050Y-80415142D02*
X150557383Y-80415142D01*
X150557383Y-80415142D02*
X150388050Y-80499809D01*
X150388050Y-80499809D02*
X150303383Y-80669142D01*
X150303383Y-80669142D02*
X150303383Y-80838475D01*
X150303383Y-80838475D02*
X151150050Y-81007809D01*
X149710717Y-80415142D02*
X149287383Y-81600475D01*
X149287383Y-81600475D02*
X148864050Y-80415142D01*
X148271383Y-79991809D02*
X148186716Y-79907142D01*
X148186716Y-79907142D02*
X148017383Y-79822475D01*
X148017383Y-79822475D02*
X147594050Y-79822475D01*
X147594050Y-79822475D02*
X147424716Y-79907142D01*
X147424716Y-79907142D02*
X147340050Y-79991809D01*
X147340050Y-79991809D02*
X147255383Y-80161142D01*
X147255383Y-80161142D02*
X147255383Y-80330475D01*
X147255383Y-80330475D02*
X147340050Y-80584475D01*
X147340050Y-80584475D02*
X148356050Y-81600475D01*
X148356050Y-81600475D02*
X147255383Y-81600475D01*
X174602719Y-84462955D02*
X174602719Y-82684955D01*
X174602719Y-82684955D02*
X174010053Y-83954955D01*
X174010053Y-83954955D02*
X173417386Y-82684955D01*
X173417386Y-82684955D02*
X173417386Y-84462955D01*
X171808719Y-84462955D02*
X171808719Y-83531622D01*
X171808719Y-83531622D02*
X171893386Y-83362289D01*
X171893386Y-83362289D02*
X172062719Y-83277622D01*
X172062719Y-83277622D02*
X172401386Y-83277622D01*
X172401386Y-83277622D02*
X172570719Y-83362289D01*
X171808719Y-84378289D02*
X171978053Y-84462955D01*
X171978053Y-84462955D02*
X172401386Y-84462955D01*
X172401386Y-84462955D02*
X172570719Y-84378289D01*
X172570719Y-84378289D02*
X172655386Y-84208955D01*
X172655386Y-84208955D02*
X172655386Y-84039622D01*
X172655386Y-84039622D02*
X172570719Y-83870289D01*
X172570719Y-83870289D02*
X172401386Y-83785622D01*
X172401386Y-83785622D02*
X171978053Y-83785622D01*
X171978053Y-83785622D02*
X171808719Y-83700955D01*
X170962052Y-84462955D02*
X170962052Y-83277622D01*
X170962052Y-83616289D02*
X170877386Y-83446955D01*
X170877386Y-83446955D02*
X170792719Y-83362289D01*
X170792719Y-83362289D02*
X170623386Y-83277622D01*
X170623386Y-83277622D02*
X170454052Y-83277622D01*
X169946052Y-84378289D02*
X169776719Y-84462955D01*
X169776719Y-84462955D02*
X169438052Y-84462955D01*
X169438052Y-84462955D02*
X169268719Y-84378289D01*
X169268719Y-84378289D02*
X169184052Y-84208955D01*
X169184052Y-84208955D02*
X169184052Y-84124289D01*
X169184052Y-84124289D02*
X169268719Y-83954955D01*
X169268719Y-83954955D02*
X169438052Y-83870289D01*
X169438052Y-83870289D02*
X169692052Y-83870289D01*
X169692052Y-83870289D02*
X169861385Y-83785622D01*
X169861385Y-83785622D02*
X169946052Y-83616289D01*
X169946052Y-83616289D02*
X169946052Y-83531622D01*
X169946052Y-83531622D02*
X169861385Y-83362289D01*
X169861385Y-83362289D02*
X169692052Y-83277622D01*
X169692052Y-83277622D02*
X169438052Y-83277622D01*
X169438052Y-83277622D02*
X169268719Y-83362289D01*
X166051385Y-84462955D02*
X166644052Y-83616289D01*
X167067385Y-84462955D02*
X167067385Y-82684955D01*
X167067385Y-82684955D02*
X166390052Y-82684955D01*
X166390052Y-82684955D02*
X166220719Y-82769622D01*
X166220719Y-82769622D02*
X166136052Y-82854289D01*
X166136052Y-82854289D02*
X166051385Y-83023622D01*
X166051385Y-83023622D02*
X166051385Y-83277622D01*
X166051385Y-83277622D02*
X166136052Y-83446955D01*
X166136052Y-83446955D02*
X166220719Y-83531622D01*
X166220719Y-83531622D02*
X166390052Y-83616289D01*
X166390052Y-83616289D02*
X167067385Y-83616289D01*
X165035385Y-84462955D02*
X165204719Y-84378289D01*
X165204719Y-84378289D02*
X165289385Y-84293622D01*
X165289385Y-84293622D02*
X165374052Y-84124289D01*
X165374052Y-84124289D02*
X165374052Y-83616289D01*
X165374052Y-83616289D02*
X165289385Y-83446955D01*
X165289385Y-83446955D02*
X165204719Y-83362289D01*
X165204719Y-83362289D02*
X165035385Y-83277622D01*
X165035385Y-83277622D02*
X164781385Y-83277622D01*
X164781385Y-83277622D02*
X164612052Y-83362289D01*
X164612052Y-83362289D02*
X164527385Y-83446955D01*
X164527385Y-83446955D02*
X164442719Y-83616289D01*
X164442719Y-83616289D02*
X164442719Y-84124289D01*
X164442719Y-84124289D02*
X164527385Y-84293622D01*
X164527385Y-84293622D02*
X164612052Y-84378289D01*
X164612052Y-84378289D02*
X164781385Y-84462955D01*
X164781385Y-84462955D02*
X165035385Y-84462955D01*
X163850052Y-83277622D02*
X163426718Y-84462955D01*
X163426718Y-84462955D02*
X163003385Y-83277622D01*
X161648718Y-84378289D02*
X161818051Y-84462955D01*
X161818051Y-84462955D02*
X162156718Y-84462955D01*
X162156718Y-84462955D02*
X162326051Y-84378289D01*
X162326051Y-84378289D02*
X162410718Y-84208955D01*
X162410718Y-84208955D02*
X162410718Y-83531622D01*
X162410718Y-83531622D02*
X162326051Y-83362289D01*
X162326051Y-83362289D02*
X162156718Y-83277622D01*
X162156718Y-83277622D02*
X161818051Y-83277622D01*
X161818051Y-83277622D02*
X161648718Y-83362289D01*
X161648718Y-83362289D02*
X161564051Y-83531622D01*
X161564051Y-83531622D02*
X161564051Y-83700955D01*
X161564051Y-83700955D02*
X162410718Y-83870289D01*
X160802051Y-84462955D02*
X160802051Y-83277622D01*
X160802051Y-83616289D02*
X160717385Y-83446955D01*
X160717385Y-83446955D02*
X160632718Y-83362289D01*
X160632718Y-83362289D02*
X160463385Y-83277622D01*
X160463385Y-83277622D02*
X160294051Y-83277622D01*
X158346717Y-84462955D02*
X158346717Y-82684955D01*
X158346717Y-82684955D02*
X157923384Y-82684955D01*
X157923384Y-82684955D02*
X157669384Y-82769622D01*
X157669384Y-82769622D02*
X157500051Y-82938955D01*
X157500051Y-82938955D02*
X157415384Y-83108289D01*
X157415384Y-83108289D02*
X157330717Y-83446955D01*
X157330717Y-83446955D02*
X157330717Y-83700955D01*
X157330717Y-83700955D02*
X157415384Y-84039622D01*
X157415384Y-84039622D02*
X157500051Y-84208955D01*
X157500051Y-84208955D02*
X157669384Y-84378289D01*
X157669384Y-84378289D02*
X157923384Y-84462955D01*
X157923384Y-84462955D02*
X158346717Y-84462955D01*
X155891384Y-84378289D02*
X156060717Y-84462955D01*
X156060717Y-84462955D02*
X156399384Y-84462955D01*
X156399384Y-84462955D02*
X156568717Y-84378289D01*
X156568717Y-84378289D02*
X156653384Y-84208955D01*
X156653384Y-84208955D02*
X156653384Y-83531622D01*
X156653384Y-83531622D02*
X156568717Y-83362289D01*
X156568717Y-83362289D02*
X156399384Y-83277622D01*
X156399384Y-83277622D02*
X156060717Y-83277622D01*
X156060717Y-83277622D02*
X155891384Y-83362289D01*
X155891384Y-83362289D02*
X155806717Y-83531622D01*
X155806717Y-83531622D02*
X155806717Y-83700955D01*
X155806717Y-83700955D02*
X156653384Y-83870289D01*
X155129384Y-84378289D02*
X154960051Y-84462955D01*
X154960051Y-84462955D02*
X154621384Y-84462955D01*
X154621384Y-84462955D02*
X154452051Y-84378289D01*
X154452051Y-84378289D02*
X154367384Y-84208955D01*
X154367384Y-84208955D02*
X154367384Y-84124289D01*
X154367384Y-84124289D02*
X154452051Y-83954955D01*
X154452051Y-83954955D02*
X154621384Y-83870289D01*
X154621384Y-83870289D02*
X154875384Y-83870289D01*
X154875384Y-83870289D02*
X155044717Y-83785622D01*
X155044717Y-83785622D02*
X155129384Y-83616289D01*
X155129384Y-83616289D02*
X155129384Y-83531622D01*
X155129384Y-83531622D02*
X155044717Y-83362289D01*
X155044717Y-83362289D02*
X154875384Y-83277622D01*
X154875384Y-83277622D02*
X154621384Y-83277622D01*
X154621384Y-83277622D02*
X154452051Y-83362289D01*
X153605384Y-84462955D02*
X153605384Y-83277622D01*
X153605384Y-82684955D02*
X153690051Y-82769622D01*
X153690051Y-82769622D02*
X153605384Y-82854289D01*
X153605384Y-82854289D02*
X153520718Y-82769622D01*
X153520718Y-82769622D02*
X153605384Y-82684955D01*
X153605384Y-82684955D02*
X153605384Y-82854289D01*
X151996717Y-83277622D02*
X151996717Y-84716955D01*
X151996717Y-84716955D02*
X152081384Y-84886289D01*
X152081384Y-84886289D02*
X152166051Y-84970955D01*
X152166051Y-84970955D02*
X152335384Y-85055622D01*
X152335384Y-85055622D02*
X152589384Y-85055622D01*
X152589384Y-85055622D02*
X152758717Y-84970955D01*
X151996717Y-84378289D02*
X152166051Y-84462955D01*
X152166051Y-84462955D02*
X152504717Y-84462955D01*
X152504717Y-84462955D02*
X152674051Y-84378289D01*
X152674051Y-84378289D02*
X152758717Y-84293622D01*
X152758717Y-84293622D02*
X152843384Y-84124289D01*
X152843384Y-84124289D02*
X152843384Y-83616289D01*
X152843384Y-83616289D02*
X152758717Y-83446955D01*
X152758717Y-83446955D02*
X152674051Y-83362289D01*
X152674051Y-83362289D02*
X152504717Y-83277622D01*
X152504717Y-83277622D02*
X152166051Y-83277622D01*
X152166051Y-83277622D02*
X151996717Y-83362289D01*
X151150050Y-83277622D02*
X151150050Y-84462955D01*
X151150050Y-83446955D02*
X151065384Y-83362289D01*
X151065384Y-83362289D02*
X150896050Y-83277622D01*
X150896050Y-83277622D02*
X150642050Y-83277622D01*
X150642050Y-83277622D02*
X150472717Y-83362289D01*
X150472717Y-83362289D02*
X150388050Y-83531622D01*
X150388050Y-83531622D02*
X150388050Y-84462955D01*
X148440716Y-82684955D02*
X147424716Y-82684955D01*
X147932716Y-84462955D02*
X147932716Y-82684955D01*
X146154716Y-84378289D02*
X146324049Y-84462955D01*
X146324049Y-84462955D02*
X146662716Y-84462955D01*
X146662716Y-84462955D02*
X146832049Y-84378289D01*
X146832049Y-84378289D02*
X146916716Y-84208955D01*
X146916716Y-84208955D02*
X146916716Y-83531622D01*
X146916716Y-83531622D02*
X146832049Y-83362289D01*
X146832049Y-83362289D02*
X146662716Y-83277622D01*
X146662716Y-83277622D02*
X146324049Y-83277622D01*
X146324049Y-83277622D02*
X146154716Y-83362289D01*
X146154716Y-83362289D02*
X146070049Y-83531622D01*
X146070049Y-83531622D02*
X146070049Y-83700955D01*
X146070049Y-83700955D02*
X146916716Y-83870289D01*
X144546049Y-84462955D02*
X144546049Y-83531622D01*
X144546049Y-83531622D02*
X144630716Y-83362289D01*
X144630716Y-83362289D02*
X144800049Y-83277622D01*
X144800049Y-83277622D02*
X145138716Y-83277622D01*
X145138716Y-83277622D02*
X145308049Y-83362289D01*
X144546049Y-84378289D02*
X144715383Y-84462955D01*
X144715383Y-84462955D02*
X145138716Y-84462955D01*
X145138716Y-84462955D02*
X145308049Y-84378289D01*
X145308049Y-84378289D02*
X145392716Y-84208955D01*
X145392716Y-84208955D02*
X145392716Y-84039622D01*
X145392716Y-84039622D02*
X145308049Y-83870289D01*
X145308049Y-83870289D02*
X145138716Y-83785622D01*
X145138716Y-83785622D02*
X144715383Y-83785622D01*
X144715383Y-83785622D02*
X144546049Y-83700955D01*
X143699382Y-84462955D02*
X143699382Y-83277622D01*
X143699382Y-83446955D02*
X143614716Y-83362289D01*
X143614716Y-83362289D02*
X143445382Y-83277622D01*
X143445382Y-83277622D02*
X143191382Y-83277622D01*
X143191382Y-83277622D02*
X143022049Y-83362289D01*
X143022049Y-83362289D02*
X142937382Y-83531622D01*
X142937382Y-83531622D02*
X142937382Y-84462955D01*
X142937382Y-83531622D02*
X142852716Y-83362289D01*
X142852716Y-83362289D02*
X142683382Y-83277622D01*
X142683382Y-83277622D02*
X142429382Y-83277622D01*
X142429382Y-83277622D02*
X142260049Y-83362289D01*
X142260049Y-83362289D02*
X142175382Y-83531622D01*
X142175382Y-83531622D02*
X142175382Y-84462955D01*
X174602719Y-87325435D02*
X174602719Y-85547435D01*
X174602719Y-85547435D02*
X174010053Y-86817435D01*
X174010053Y-86817435D02*
X173417386Y-85547435D01*
X173417386Y-85547435D02*
X173417386Y-87325435D01*
X172570719Y-87325435D02*
X172570719Y-86140102D01*
X172570719Y-85547435D02*
X172655386Y-85632102D01*
X172655386Y-85632102D02*
X172570719Y-85716769D01*
X172570719Y-85716769D02*
X172486053Y-85632102D01*
X172486053Y-85632102D02*
X172570719Y-85547435D01*
X172570719Y-85547435D02*
X172570719Y-85716769D01*
X171808719Y-87240769D02*
X171639386Y-87325435D01*
X171639386Y-87325435D02*
X171300719Y-87325435D01*
X171300719Y-87325435D02*
X171131386Y-87240769D01*
X171131386Y-87240769D02*
X171046719Y-87071435D01*
X171046719Y-87071435D02*
X171046719Y-86986769D01*
X171046719Y-86986769D02*
X171131386Y-86817435D01*
X171131386Y-86817435D02*
X171300719Y-86732769D01*
X171300719Y-86732769D02*
X171554719Y-86732769D01*
X171554719Y-86732769D02*
X171724052Y-86648102D01*
X171724052Y-86648102D02*
X171808719Y-86478769D01*
X171808719Y-86478769D02*
X171808719Y-86394102D01*
X171808719Y-86394102D02*
X171724052Y-86224769D01*
X171724052Y-86224769D02*
X171554719Y-86140102D01*
X171554719Y-86140102D02*
X171300719Y-86140102D01*
X171300719Y-86140102D02*
X171131386Y-86224769D01*
X170369386Y-87240769D02*
X170200053Y-87325435D01*
X170200053Y-87325435D02*
X169861386Y-87325435D01*
X169861386Y-87325435D02*
X169692053Y-87240769D01*
X169692053Y-87240769D02*
X169607386Y-87071435D01*
X169607386Y-87071435D02*
X169607386Y-86986769D01*
X169607386Y-86986769D02*
X169692053Y-86817435D01*
X169692053Y-86817435D02*
X169861386Y-86732769D01*
X169861386Y-86732769D02*
X170115386Y-86732769D01*
X170115386Y-86732769D02*
X170284719Y-86648102D01*
X170284719Y-86648102D02*
X170369386Y-86478769D01*
X170369386Y-86478769D02*
X170369386Y-86394102D01*
X170369386Y-86394102D02*
X170284719Y-86224769D01*
X170284719Y-86224769D02*
X170115386Y-86140102D01*
X170115386Y-86140102D02*
X169861386Y-86140102D01*
X169861386Y-86140102D02*
X169692053Y-86224769D01*
X168591386Y-87325435D02*
X168760720Y-87240769D01*
X168760720Y-87240769D02*
X168845386Y-87156102D01*
X168845386Y-87156102D02*
X168930053Y-86986769D01*
X168930053Y-86986769D02*
X168930053Y-86478769D01*
X168930053Y-86478769D02*
X168845386Y-86309435D01*
X168845386Y-86309435D02*
X168760720Y-86224769D01*
X168760720Y-86224769D02*
X168591386Y-86140102D01*
X168591386Y-86140102D02*
X168337386Y-86140102D01*
X168337386Y-86140102D02*
X168168053Y-86224769D01*
X168168053Y-86224769D02*
X168083386Y-86309435D01*
X168083386Y-86309435D02*
X167998720Y-86478769D01*
X167998720Y-86478769D02*
X167998720Y-86986769D01*
X167998720Y-86986769D02*
X168083386Y-87156102D01*
X168083386Y-87156102D02*
X168168053Y-87240769D01*
X168168053Y-87240769D02*
X168337386Y-87325435D01*
X168337386Y-87325435D02*
X168591386Y-87325435D01*
X166474719Y-86140102D02*
X166474719Y-87325435D01*
X167236719Y-86140102D02*
X167236719Y-87071435D01*
X167236719Y-87071435D02*
X167152053Y-87240769D01*
X167152053Y-87240769D02*
X166982719Y-87325435D01*
X166982719Y-87325435D02*
X166728719Y-87325435D01*
X166728719Y-87325435D02*
X166559386Y-87240769D01*
X166559386Y-87240769D02*
X166474719Y-87156102D01*
X165628052Y-87325435D02*
X165628052Y-86140102D01*
X165628052Y-86478769D02*
X165543386Y-86309435D01*
X165543386Y-86309435D02*
X165458719Y-86224769D01*
X165458719Y-86224769D02*
X165289386Y-86140102D01*
X165289386Y-86140102D02*
X165120052Y-86140102D01*
X164527385Y-87325435D02*
X164527385Y-86140102D01*
X164527385Y-85547435D02*
X164612052Y-85632102D01*
X164612052Y-85632102D02*
X164527385Y-85716769D01*
X164527385Y-85716769D02*
X164442719Y-85632102D01*
X164442719Y-85632102D02*
X164527385Y-85547435D01*
X164527385Y-85547435D02*
X164527385Y-85716769D01*
X162410718Y-87240769D02*
X162156718Y-87325435D01*
X162156718Y-87325435D02*
X161733385Y-87325435D01*
X161733385Y-87325435D02*
X161564051Y-87240769D01*
X161564051Y-87240769D02*
X161479385Y-87156102D01*
X161479385Y-87156102D02*
X161394718Y-86986769D01*
X161394718Y-86986769D02*
X161394718Y-86817435D01*
X161394718Y-86817435D02*
X161479385Y-86648102D01*
X161479385Y-86648102D02*
X161564051Y-86563435D01*
X161564051Y-86563435D02*
X161733385Y-86478769D01*
X161733385Y-86478769D02*
X162072051Y-86394102D01*
X162072051Y-86394102D02*
X162241385Y-86309435D01*
X162241385Y-86309435D02*
X162326051Y-86224769D01*
X162326051Y-86224769D02*
X162410718Y-86055435D01*
X162410718Y-86055435D02*
X162410718Y-85886102D01*
X162410718Y-85886102D02*
X162326051Y-85716769D01*
X162326051Y-85716769D02*
X162241385Y-85632102D01*
X162241385Y-85632102D02*
X162072051Y-85547435D01*
X162072051Y-85547435D02*
X161648718Y-85547435D01*
X161648718Y-85547435D02*
X161394718Y-85632102D01*
X159193385Y-87325435D02*
X159278052Y-87325435D01*
X159278052Y-87325435D02*
X159447385Y-87240769D01*
X159447385Y-87240769D02*
X159701385Y-86986769D01*
X159701385Y-86986769D02*
X160124718Y-86478769D01*
X160124718Y-86478769D02*
X160294052Y-86224769D01*
X160294052Y-86224769D02*
X160378718Y-85970769D01*
X160378718Y-85970769D02*
X160378718Y-85801435D01*
X160378718Y-85801435D02*
X160294052Y-85632102D01*
X160294052Y-85632102D02*
X160124718Y-85547435D01*
X160124718Y-85547435D02*
X160040052Y-85547435D01*
X160040052Y-85547435D02*
X159870718Y-85632102D01*
X159870718Y-85632102D02*
X159786052Y-85801435D01*
X159786052Y-85801435D02*
X159786052Y-85886102D01*
X159786052Y-85886102D02*
X159870718Y-86055435D01*
X159870718Y-86055435D02*
X159955385Y-86140102D01*
X159955385Y-86140102D02*
X160463385Y-86478769D01*
X160463385Y-86478769D02*
X160548052Y-86563435D01*
X160548052Y-86563435D02*
X160632718Y-86732769D01*
X160632718Y-86732769D02*
X160632718Y-86986769D01*
X160632718Y-86986769D02*
X160548052Y-87156102D01*
X160548052Y-87156102D02*
X160463385Y-87240769D01*
X160463385Y-87240769D02*
X160294052Y-87325435D01*
X160294052Y-87325435D02*
X160040052Y-87325435D01*
X160040052Y-87325435D02*
X159870718Y-87240769D01*
X159870718Y-87240769D02*
X159786052Y-87156102D01*
X159786052Y-87156102D02*
X159532052Y-86817435D01*
X159532052Y-86817435D02*
X159447385Y-86563435D01*
X159447385Y-86563435D02*
X159447385Y-86394102D01*
X158685385Y-85547435D02*
X157669385Y-85547435D01*
X158177385Y-87325435D02*
X158177385Y-85547435D01*
X156992052Y-87240769D02*
X156992052Y-87325435D01*
X156992052Y-87325435D02*
X157076718Y-87494769D01*
X157076718Y-87494769D02*
X157161385Y-87579435D01*
X154960051Y-85716769D02*
X154875384Y-85632102D01*
X154875384Y-85632102D02*
X154706051Y-85547435D01*
X154706051Y-85547435D02*
X154282718Y-85547435D01*
X154282718Y-85547435D02*
X154113384Y-85632102D01*
X154113384Y-85632102D02*
X154028718Y-85716769D01*
X154028718Y-85716769D02*
X153944051Y-85886102D01*
X153944051Y-85886102D02*
X153944051Y-86055435D01*
X153944051Y-86055435D02*
X154028718Y-86309435D01*
X154028718Y-86309435D02*
X155044718Y-87325435D01*
X155044718Y-87325435D02*
X153944051Y-87325435D01*
X152843385Y-85547435D02*
X152674051Y-85547435D01*
X152674051Y-85547435D02*
X152504718Y-85632102D01*
X152504718Y-85632102D02*
X152420051Y-85716769D01*
X152420051Y-85716769D02*
X152335385Y-85886102D01*
X152335385Y-85886102D02*
X152250718Y-86224769D01*
X152250718Y-86224769D02*
X152250718Y-86648102D01*
X152250718Y-86648102D02*
X152335385Y-86986769D01*
X152335385Y-86986769D02*
X152420051Y-87156102D01*
X152420051Y-87156102D02*
X152504718Y-87240769D01*
X152504718Y-87240769D02*
X152674051Y-87325435D01*
X152674051Y-87325435D02*
X152843385Y-87325435D01*
X152843385Y-87325435D02*
X153012718Y-87240769D01*
X153012718Y-87240769D02*
X153097385Y-87156102D01*
X153097385Y-87156102D02*
X153182051Y-86986769D01*
X153182051Y-86986769D02*
X153266718Y-86648102D01*
X153266718Y-86648102D02*
X153266718Y-86224769D01*
X153266718Y-86224769D02*
X153182051Y-85886102D01*
X153182051Y-85886102D02*
X153097385Y-85716769D01*
X153097385Y-85716769D02*
X153012718Y-85632102D01*
X153012718Y-85632102D02*
X152843385Y-85547435D01*
X151573385Y-85716769D02*
X151488718Y-85632102D01*
X151488718Y-85632102D02*
X151319385Y-85547435D01*
X151319385Y-85547435D02*
X150896052Y-85547435D01*
X150896052Y-85547435D02*
X150726718Y-85632102D01*
X150726718Y-85632102D02*
X150642052Y-85716769D01*
X150642052Y-85716769D02*
X150557385Y-85886102D01*
X150557385Y-85886102D02*
X150557385Y-86055435D01*
X150557385Y-86055435D02*
X150642052Y-86309435D01*
X150642052Y-86309435D02*
X151658052Y-87325435D01*
X151658052Y-87325435D02*
X150557385Y-87325435D01*
X149033385Y-85547435D02*
X149372052Y-85547435D01*
X149372052Y-85547435D02*
X149541385Y-85632102D01*
X149541385Y-85632102D02*
X149626052Y-85716769D01*
X149626052Y-85716769D02*
X149795385Y-85970769D01*
X149795385Y-85970769D02*
X149880052Y-86309435D01*
X149880052Y-86309435D02*
X149880052Y-86986769D01*
X149880052Y-86986769D02*
X149795385Y-87156102D01*
X149795385Y-87156102D02*
X149710719Y-87240769D01*
X149710719Y-87240769D02*
X149541385Y-87325435D01*
X149541385Y-87325435D02*
X149202719Y-87325435D01*
X149202719Y-87325435D02*
X149033385Y-87240769D01*
X149033385Y-87240769D02*
X148948719Y-87156102D01*
X148948719Y-87156102D02*
X148864052Y-86986769D01*
X148864052Y-86986769D02*
X148864052Y-86563435D01*
X148864052Y-86563435D02*
X148948719Y-86394102D01*
X148948719Y-86394102D02*
X149033385Y-86309435D01*
X149033385Y-86309435D02*
X149202719Y-86224769D01*
X149202719Y-86224769D02*
X149541385Y-86224769D01*
X149541385Y-86224769D02*
X149710719Y-86309435D01*
X149710719Y-86309435D02*
X149795385Y-86394102D01*
X149795385Y-86394102D02*
X149880052Y-86563435D01*
X173756053Y-90187915D02*
X174602719Y-90187915D01*
X174602719Y-90187915D02*
X174602719Y-88409915D01*
X172401386Y-89002582D02*
X172401386Y-90187915D01*
X173163386Y-89002582D02*
X173163386Y-89933915D01*
X173163386Y-89933915D02*
X173078720Y-90103249D01*
X173078720Y-90103249D02*
X172909386Y-90187915D01*
X172909386Y-90187915D02*
X172655386Y-90187915D01*
X172655386Y-90187915D02*
X172486053Y-90103249D01*
X172486053Y-90103249D02*
X172401386Y-90018582D01*
X170792719Y-90103249D02*
X170962053Y-90187915D01*
X170962053Y-90187915D02*
X171300719Y-90187915D01*
X171300719Y-90187915D02*
X171470053Y-90103249D01*
X171470053Y-90103249D02*
X171554719Y-90018582D01*
X171554719Y-90018582D02*
X171639386Y-89849249D01*
X171639386Y-89849249D02*
X171639386Y-89341249D01*
X171639386Y-89341249D02*
X171554719Y-89171915D01*
X171554719Y-89171915D02*
X171470053Y-89087249D01*
X171470053Y-89087249D02*
X171300719Y-89002582D01*
X171300719Y-89002582D02*
X170962053Y-89002582D01*
X170962053Y-89002582D02*
X170792719Y-89087249D01*
X169268719Y-90187915D02*
X169268719Y-89256582D01*
X169268719Y-89256582D02*
X169353386Y-89087249D01*
X169353386Y-89087249D02*
X169522719Y-89002582D01*
X169522719Y-89002582D02*
X169861386Y-89002582D01*
X169861386Y-89002582D02*
X170030719Y-89087249D01*
X169268719Y-90103249D02*
X169438053Y-90187915D01*
X169438053Y-90187915D02*
X169861386Y-90187915D01*
X169861386Y-90187915D02*
X170030719Y-90103249D01*
X170030719Y-90103249D02*
X170115386Y-89933915D01*
X170115386Y-89933915D02*
X170115386Y-89764582D01*
X170115386Y-89764582D02*
X170030719Y-89595249D01*
X170030719Y-89595249D02*
X169861386Y-89510582D01*
X169861386Y-89510582D02*
X169438053Y-89510582D01*
X169438053Y-89510582D02*
X169268719Y-89425915D01*
X168506719Y-90103249D02*
X168337386Y-90187915D01*
X168337386Y-90187915D02*
X167998719Y-90187915D01*
X167998719Y-90187915D02*
X167829386Y-90103249D01*
X167829386Y-90103249D02*
X167744719Y-89933915D01*
X167744719Y-89933915D02*
X167744719Y-89849249D01*
X167744719Y-89849249D02*
X167829386Y-89679915D01*
X167829386Y-89679915D02*
X167998719Y-89595249D01*
X167998719Y-89595249D02*
X168252719Y-89595249D01*
X168252719Y-89595249D02*
X168422052Y-89510582D01*
X168422052Y-89510582D02*
X168506719Y-89341249D01*
X168506719Y-89341249D02*
X168506719Y-89256582D01*
X168506719Y-89256582D02*
X168422052Y-89087249D01*
X168422052Y-89087249D02*
X168252719Y-89002582D01*
X168252719Y-89002582D02*
X167998719Y-89002582D01*
X167998719Y-89002582D02*
X167829386Y-89087249D01*
X165035386Y-89256582D02*
X164781386Y-89341249D01*
X164781386Y-89341249D02*
X164696719Y-89425915D01*
X164696719Y-89425915D02*
X164612052Y-89595249D01*
X164612052Y-89595249D02*
X164612052Y-89849249D01*
X164612052Y-89849249D02*
X164696719Y-90018582D01*
X164696719Y-90018582D02*
X164781386Y-90103249D01*
X164781386Y-90103249D02*
X164950719Y-90187915D01*
X164950719Y-90187915D02*
X165628052Y-90187915D01*
X165628052Y-90187915D02*
X165628052Y-88409915D01*
X165628052Y-88409915D02*
X165035386Y-88409915D01*
X165035386Y-88409915D02*
X164866052Y-88494582D01*
X164866052Y-88494582D02*
X164781386Y-88579249D01*
X164781386Y-88579249D02*
X164696719Y-88748582D01*
X164696719Y-88748582D02*
X164696719Y-88917915D01*
X164696719Y-88917915D02*
X164781386Y-89087249D01*
X164781386Y-89087249D02*
X164866052Y-89171915D01*
X164866052Y-89171915D02*
X165035386Y-89256582D01*
X165035386Y-89256582D02*
X165628052Y-89256582D01*
X163596052Y-90187915D02*
X163765386Y-90103249D01*
X163765386Y-90103249D02*
X163850052Y-90018582D01*
X163850052Y-90018582D02*
X163934719Y-89849249D01*
X163934719Y-89849249D02*
X163934719Y-89341249D01*
X163934719Y-89341249D02*
X163850052Y-89171915D01*
X163850052Y-89171915D02*
X163765386Y-89087249D01*
X163765386Y-89087249D02*
X163596052Y-89002582D01*
X163596052Y-89002582D02*
X163342052Y-89002582D01*
X163342052Y-89002582D02*
X163172719Y-89087249D01*
X163172719Y-89087249D02*
X163088052Y-89171915D01*
X163088052Y-89171915D02*
X163003386Y-89341249D01*
X163003386Y-89341249D02*
X163003386Y-89849249D01*
X163003386Y-89849249D02*
X163088052Y-90018582D01*
X163088052Y-90018582D02*
X163172719Y-90103249D01*
X163172719Y-90103249D02*
X163342052Y-90187915D01*
X163342052Y-90187915D02*
X163596052Y-90187915D01*
X161564052Y-90103249D02*
X161733385Y-90187915D01*
X161733385Y-90187915D02*
X162072052Y-90187915D01*
X162072052Y-90187915D02*
X162241385Y-90103249D01*
X162241385Y-90103249D02*
X162326052Y-89933915D01*
X162326052Y-89933915D02*
X162326052Y-89256582D01*
X162326052Y-89256582D02*
X162241385Y-89087249D01*
X162241385Y-89087249D02*
X162072052Y-89002582D01*
X162072052Y-89002582D02*
X161733385Y-89002582D01*
X161733385Y-89002582D02*
X161564052Y-89087249D01*
X161564052Y-89087249D02*
X161479385Y-89256582D01*
X161479385Y-89256582D02*
X161479385Y-89425915D01*
X161479385Y-89425915D02*
X162326052Y-89595249D01*
X160886719Y-89002582D02*
X160463385Y-90187915D01*
X160040052Y-89002582D02*
X160463385Y-90187915D01*
X160463385Y-90187915D02*
X160632719Y-90611249D01*
X160632719Y-90611249D02*
X160717385Y-90695915D01*
X160717385Y-90695915D02*
X160886719Y-90780582D01*
X159362718Y-90187915D02*
X159362718Y-89002582D01*
X159362718Y-88409915D02*
X159447385Y-88494582D01*
X159447385Y-88494582D02*
X159362718Y-88579249D01*
X159362718Y-88579249D02*
X159278052Y-88494582D01*
X159278052Y-88494582D02*
X159362718Y-88409915D01*
X159362718Y-88409915D02*
X159362718Y-88579249D01*
X158516051Y-89002582D02*
X158516051Y-90187915D01*
X158516051Y-89171915D02*
X158431385Y-89087249D01*
X158431385Y-89087249D02*
X158262051Y-89002582D01*
X158262051Y-89002582D02*
X158008051Y-89002582D01*
X158008051Y-89002582D02*
X157838718Y-89087249D01*
X157838718Y-89087249D02*
X157754051Y-89256582D01*
X157754051Y-89256582D02*
X157754051Y-90187915D01*
X156907384Y-90187915D02*
X156907384Y-88409915D01*
X156738051Y-89510582D02*
X156230051Y-90187915D01*
X156230051Y-89002582D02*
X156907384Y-89679915D01*
X155383385Y-90103249D02*
X155383385Y-90187915D01*
X155383385Y-90187915D02*
X155468051Y-90357249D01*
X155468051Y-90357249D02*
X155552718Y-90441915D01*
X153436051Y-88409915D02*
X153012717Y-90187915D01*
X153012717Y-90187915D02*
X152674051Y-88917915D01*
X152674051Y-88917915D02*
X152335384Y-90187915D01*
X152335384Y-90187915D02*
X151912051Y-88409915D01*
X151234717Y-90187915D02*
X151234717Y-89002582D01*
X151234717Y-88409915D02*
X151319384Y-88494582D01*
X151319384Y-88494582D02*
X151234717Y-88579249D01*
X151234717Y-88579249D02*
X151150051Y-88494582D01*
X151150051Y-88494582D02*
X151234717Y-88409915D01*
X151234717Y-88409915D02*
X151234717Y-88579249D01*
X150134050Y-90187915D02*
X150303384Y-90103249D01*
X150303384Y-90103249D02*
X150388050Y-89933915D01*
X150388050Y-89933915D02*
X150388050Y-88409915D01*
X149202717Y-90187915D02*
X149372051Y-90103249D01*
X149372051Y-90103249D02*
X149456717Y-89933915D01*
X149456717Y-89933915D02*
X149456717Y-88409915D01*
X146239384Y-88494582D02*
X146408717Y-88409915D01*
X146408717Y-88409915D02*
X146662717Y-88409915D01*
X146662717Y-88409915D02*
X146916717Y-88494582D01*
X146916717Y-88494582D02*
X147086051Y-88663915D01*
X147086051Y-88663915D02*
X147170717Y-88833249D01*
X147170717Y-88833249D02*
X147255384Y-89171915D01*
X147255384Y-89171915D02*
X147255384Y-89425915D01*
X147255384Y-89425915D02*
X147170717Y-89764582D01*
X147170717Y-89764582D02*
X147086051Y-89933915D01*
X147086051Y-89933915D02*
X146916717Y-90103249D01*
X146916717Y-90103249D02*
X146662717Y-90187915D01*
X146662717Y-90187915D02*
X146493384Y-90187915D01*
X146493384Y-90187915D02*
X146239384Y-90103249D01*
X146239384Y-90103249D02*
X146154717Y-90018582D01*
X146154717Y-90018582D02*
X146154717Y-89425915D01*
X146154717Y-89425915D02*
X146493384Y-89425915D01*
X145392717Y-90187915D02*
X145392717Y-89002582D01*
X145392717Y-89341249D02*
X145308051Y-89171915D01*
X145308051Y-89171915D02*
X145223384Y-89087249D01*
X145223384Y-89087249D02*
X145054051Y-89002582D01*
X145054051Y-89002582D02*
X144884717Y-89002582D01*
X144038050Y-90187915D02*
X144207384Y-90103249D01*
X144207384Y-90103249D02*
X144292050Y-90018582D01*
X144292050Y-90018582D02*
X144376717Y-89849249D01*
X144376717Y-89849249D02*
X144376717Y-89341249D01*
X144376717Y-89341249D02*
X144292050Y-89171915D01*
X144292050Y-89171915D02*
X144207384Y-89087249D01*
X144207384Y-89087249D02*
X144038050Y-89002582D01*
X144038050Y-89002582D02*
X143784050Y-89002582D01*
X143784050Y-89002582D02*
X143614717Y-89087249D01*
X143614717Y-89087249D02*
X143530050Y-89171915D01*
X143530050Y-89171915D02*
X143445384Y-89341249D01*
X143445384Y-89341249D02*
X143445384Y-89849249D01*
X143445384Y-89849249D02*
X143530050Y-90018582D01*
X143530050Y-90018582D02*
X143614717Y-90103249D01*
X143614717Y-90103249D02*
X143784050Y-90187915D01*
X143784050Y-90187915D02*
X144038050Y-90187915D01*
X142852717Y-89002582D02*
X142429383Y-90187915D01*
X142429383Y-90187915D02*
X142006050Y-89002582D01*
X140651383Y-90103249D02*
X140820716Y-90187915D01*
X140820716Y-90187915D02*
X141159383Y-90187915D01*
X141159383Y-90187915D02*
X141328716Y-90103249D01*
X141328716Y-90103249D02*
X141413383Y-89933915D01*
X141413383Y-89933915D02*
X141413383Y-89256582D01*
X141413383Y-89256582D02*
X141328716Y-89087249D01*
X141328716Y-89087249D02*
X141159383Y-89002582D01*
X141159383Y-89002582D02*
X140820716Y-89002582D01*
X140820716Y-89002582D02*
X140651383Y-89087249D01*
X140651383Y-89087249D02*
X140566716Y-89256582D01*
X140566716Y-89256582D02*
X140566716Y-89425915D01*
X140566716Y-89425915D02*
X141413383Y-89595249D01*
D11*
%TO.C,G\u002A\u002A\u002A*%
G36*
X124237912Y-79890324D02*
G01*
X124229803Y-79898434D01*
X124221693Y-79890324D01*
X124229803Y-79882214D01*
X124237912Y-79890324D01*
G37*
G36*
X124482195Y-82974525D02*
G01*
X124490658Y-83001977D01*
X124485370Y-83032885D01*
X124484627Y-83034314D01*
X124468611Y-83046593D01*
X124454990Y-83034201D01*
X124451746Y-83003996D01*
X124459351Y-82977744D01*
X124473098Y-82967502D01*
X124482195Y-82974525D01*
G37*
G36*
X121058857Y-81076830D02*
G01*
X121048660Y-81083246D01*
X121012085Y-81092741D01*
X120955170Y-81102798D01*
X120884496Y-81112087D01*
X120833105Y-81118098D01*
X120753503Y-81128263D01*
X120684587Y-81138033D01*
X120637146Y-81145933D01*
X120634164Y-81146520D01*
X120567931Y-81160951D01*
X120482619Y-81181512D01*
X120382819Y-81206910D01*
X120273122Y-81235856D01*
X120158118Y-81267060D01*
X120042399Y-81299230D01*
X119930555Y-81331075D01*
X119827177Y-81361307D01*
X119736856Y-81388632D01*
X119664182Y-81411762D01*
X119613747Y-81429406D01*
X119590141Y-81440272D01*
X119589286Y-81440897D01*
X119563492Y-81450505D01*
X119515974Y-81462143D01*
X119456329Y-81473434D01*
X119426612Y-81478612D01*
X119373165Y-81491708D01*
X119344304Y-81508944D01*
X119334499Y-81535066D01*
X119338221Y-81574821D01*
X119339183Y-81583050D01*
X119340825Y-81623236D01*
X119341352Y-81683726D01*
X119340898Y-81755787D01*
X119339597Y-81830683D01*
X119337581Y-81899681D01*
X119334985Y-81954047D01*
X119331942Y-81985046D01*
X119329011Y-82000988D01*
X119328504Y-82014707D01*
X119336805Y-81999161D01*
X119343386Y-81998882D01*
X119350167Y-82029862D01*
X119356848Y-82092145D01*
X119363387Y-82185150D01*
X119369744Y-82308299D01*
X119375880Y-82461010D01*
X119381753Y-82642705D01*
X119383771Y-82706074D01*
X119387892Y-82814721D01*
X119392584Y-82919067D01*
X119397411Y-83009733D01*
X119401938Y-83077346D01*
X119404367Y-83110764D01*
X119407379Y-83171184D01*
X119407653Y-83214764D01*
X119405038Y-83233774D01*
X119404122Y-83234385D01*
X119398154Y-83225626D01*
X119390756Y-83194170D01*
X119381528Y-83137618D01*
X119370070Y-83053568D01*
X119355980Y-82939622D01*
X119354691Y-82928933D01*
X119346076Y-82860647D01*
X119337947Y-82800768D01*
X119331909Y-82761205D01*
X119329426Y-82741721D01*
X119324756Y-82690787D01*
X119319214Y-82618614D01*
X119313294Y-82531767D01*
X119307490Y-82436812D01*
X119307108Y-82430179D01*
X119296092Y-82239682D01*
X119286644Y-82077853D01*
X119278532Y-81941085D01*
X119271525Y-81825772D01*
X119265389Y-81728309D01*
X119259894Y-81645090D01*
X119254807Y-81572509D01*
X119249896Y-81506959D01*
X119244930Y-81444836D01*
X119239676Y-81382534D01*
X119238972Y-81374087D01*
X119233955Y-81296372D01*
X119229721Y-81199963D01*
X119226278Y-81089121D01*
X119223634Y-80968105D01*
X119221798Y-80841177D01*
X119220778Y-80712595D01*
X119220583Y-80586619D01*
X119221222Y-80467511D01*
X119222701Y-80359530D01*
X119225030Y-80266936D01*
X119228218Y-80193988D01*
X119232272Y-80144948D01*
X119237200Y-80124076D01*
X119254443Y-80120448D01*
X119278658Y-80145787D01*
X119283225Y-80154563D01*
X119289143Y-80174433D01*
X119294057Y-80205065D01*
X119298123Y-80249555D01*
X119301499Y-80311000D01*
X119304341Y-80392497D01*
X119306806Y-80497143D01*
X119309052Y-80628034D01*
X119311235Y-80788268D01*
X119312139Y-80855125D01*
X119314896Y-81013480D01*
X119318185Y-81147623D01*
X119321943Y-81255908D01*
X119326106Y-81336690D01*
X119330609Y-81388325D01*
X119335388Y-81409166D01*
X119348763Y-81416809D01*
X119382265Y-81408451D01*
X119397235Y-81400148D01*
X119460265Y-81368953D01*
X119527980Y-81339975D01*
X119591999Y-81316373D01*
X119643942Y-81301307D01*
X119675427Y-81297936D01*
X119703739Y-81298075D01*
X119755145Y-81290652D01*
X119814150Y-81276844D01*
X119858030Y-81264273D01*
X119932052Y-81242280D01*
X120017708Y-81216208D01*
X120108898Y-81187977D01*
X120199524Y-81159507D01*
X120283486Y-81132717D01*
X120354686Y-81109527D01*
X120407023Y-81091856D01*
X120434400Y-81081625D01*
X120436190Y-81080859D01*
X120459551Y-81074360D01*
X120912880Y-81074360D01*
X120920990Y-81082470D01*
X120929100Y-81074360D01*
X120920990Y-81066250D01*
X120912880Y-81074360D01*
X120459551Y-81074360D01*
X120470291Y-81071372D01*
X120524695Y-81060774D01*
X120588487Y-81051220D01*
X120653999Y-81042751D01*
X120788617Y-81024908D01*
X120912869Y-81007860D01*
X121021295Y-80992379D01*
X121108435Y-80979237D01*
X121168830Y-80969205D01*
X121258196Y-80961842D01*
X121379685Y-80970468D01*
X121453060Y-80979419D01*
X121538074Y-80988194D01*
X121610326Y-80994122D01*
X121655371Y-80997365D01*
X121732721Y-81003622D01*
X121821603Y-81011343D01*
X121910390Y-81019543D01*
X121928925Y-81021257D01*
X121991251Y-81026026D01*
X122055726Y-81029111D01*
X122126666Y-81030455D01*
X122208391Y-81030005D01*
X122305216Y-81027705D01*
X122421462Y-81023501D01*
X122561445Y-81017338D01*
X122729483Y-81009162D01*
X122742127Y-81008348D01*
X122806325Y-81000542D01*
X122863753Y-80988822D01*
X122867073Y-80987952D01*
X122926896Y-80979271D01*
X122985401Y-80980224D01*
X122999781Y-80981293D01*
X123052779Y-80979794D01*
X123121847Y-80973181D01*
X123195806Y-80962400D01*
X123202986Y-80961184D01*
X123353266Y-80944471D01*
X123525482Y-80939551D01*
X123711870Y-80946161D01*
X123904667Y-80964039D01*
X124096109Y-80992920D01*
X124129915Y-80998202D01*
X124216308Y-81004975D01*
X124299368Y-81003237D01*
X124369649Y-80993478D01*
X124417708Y-80976189D01*
X124422370Y-80971498D01*
X124427393Y-80951627D01*
X124425719Y-80915070D01*
X124416848Y-80858186D01*
X124400280Y-80777332D01*
X124375516Y-80668868D01*
X124354436Y-80577482D01*
X124320381Y-80421015D01*
X124292477Y-80280500D01*
X124271417Y-80159745D01*
X124257892Y-80062559D01*
X124252595Y-79992754D01*
X124252262Y-79971515D01*
X124252104Y-79903348D01*
X124254238Y-79861108D01*
X124259145Y-79839596D01*
X124267305Y-79833616D01*
X124267362Y-79833617D01*
X124279818Y-79847527D01*
X124297325Y-79881532D01*
X124315371Y-79924812D01*
X124329442Y-79966549D01*
X124335023Y-79995922D01*
X124335023Y-79996441D01*
X124338404Y-80024662D01*
X124347034Y-80073826D01*
X124359109Y-80133619D01*
X124378186Y-80223302D01*
X124400570Y-80329817D01*
X124421097Y-80428813D01*
X124438524Y-80514243D01*
X124451608Y-80580058D01*
X124459105Y-80620209D01*
X124467816Y-80669831D01*
X124493026Y-80794115D01*
X124518112Y-80889614D01*
X124542723Y-80955115D01*
X124566506Y-80989409D01*
X124588935Y-81008568D01*
X124592272Y-81023323D01*
X124572136Y-81041564D01*
X124558560Y-81053802D01*
X124549608Y-81073269D01*
X124550161Y-81105118D01*
X124559157Y-81158954D01*
X124560632Y-81166845D01*
X124585150Y-81329298D01*
X124603413Y-81512285D01*
X124614982Y-81705438D01*
X124619417Y-81898384D01*
X124616277Y-82080754D01*
X124605123Y-82242176D01*
X124598844Y-82302633D01*
X124591850Y-82369903D01*
X124586572Y-82420592D01*
X124581594Y-82463512D01*
X124571623Y-82537355D01*
X124564833Y-82582789D01*
X124559340Y-82619547D01*
X124545878Y-82703340D01*
X124532366Y-82781989D01*
X124519938Y-82848749D01*
X124509726Y-82896871D01*
X124502859Y-82919612D01*
X124489850Y-82930503D01*
X124477826Y-82918798D01*
X124471629Y-82887353D01*
X124473842Y-82842991D01*
X124475301Y-82832292D01*
X124480888Y-82776588D01*
X124486105Y-82704732D01*
X124489986Y-82629518D01*
X124492277Y-82582789D01*
X124513647Y-82582789D01*
X124521757Y-82590899D01*
X124529866Y-82582789D01*
X124521757Y-82574679D01*
X124513647Y-82582789D01*
X124492277Y-82582789D01*
X124493122Y-82565542D01*
X124498779Y-82472505D01*
X124505808Y-82371230D01*
X124513359Y-82274615D01*
X124521227Y-82163345D01*
X124528733Y-81968588D01*
X124528562Y-81779755D01*
X124520578Y-81609609D01*
X124516058Y-81550235D01*
X124510386Y-81475509D01*
X124505808Y-81414973D01*
X124500502Y-81362584D01*
X124490873Y-81289273D01*
X124479502Y-81216544D01*
X124459308Y-81099214D01*
X124399357Y-81108801D01*
X124384380Y-81111003D01*
X124277121Y-81118712D01*
X124162440Y-81115856D01*
X124059496Y-81102776D01*
X124028396Y-81096959D01*
X123956824Y-81085521D01*
X123894252Y-81077727D01*
X123818216Y-81070462D01*
X123821861Y-81135657D01*
X123822446Y-81162793D01*
X123816036Y-81194879D01*
X123797392Y-81208204D01*
X123782536Y-81215386D01*
X123764356Y-81240832D01*
X123762479Y-81262883D01*
X123762612Y-81315888D01*
X123765454Y-81387644D01*
X123770447Y-81470294D01*
X123777032Y-81555980D01*
X123784649Y-81636845D01*
X123792741Y-81705029D01*
X123800748Y-81752677D01*
X123812558Y-81800577D01*
X123826496Y-81832819D01*
X123831080Y-81836684D01*
X123847699Y-81850697D01*
X123883090Y-81863532D01*
X123898195Y-81869006D01*
X123959174Y-81905488D01*
X124023274Y-81962085D01*
X124082775Y-82031236D01*
X124129960Y-82105379D01*
X124147597Y-82145679D01*
X124173247Y-82222293D01*
X124197677Y-82312675D01*
X124218314Y-82406024D01*
X124226801Y-82456883D01*
X124232584Y-82491537D01*
X124237912Y-82558415D01*
X124235217Y-82598593D01*
X124220372Y-82629471D01*
X124185198Y-82655955D01*
X124164156Y-82667521D01*
X124125745Y-82682924D01*
X124095512Y-82688907D01*
X124080735Y-82684505D01*
X124088691Y-82668753D01*
X124102316Y-82652249D01*
X124104637Y-82630979D01*
X124078230Y-82623338D01*
X124074203Y-82623210D01*
X124047722Y-82614474D01*
X124020483Y-82588856D01*
X123988768Y-82541925D01*
X123948859Y-82469251D01*
X123938282Y-82448745D01*
X123875041Y-82317598D01*
X123827438Y-82202547D01*
X123797503Y-82108430D01*
X123794312Y-82096199D01*
X123848640Y-82096199D01*
X123856750Y-82104309D01*
X123864860Y-82096199D01*
X123856750Y-82088089D01*
X123848640Y-82096199D01*
X123794312Y-82096199D01*
X123791814Y-82086621D01*
X123775178Y-82030262D01*
X123759909Y-81986999D01*
X123749895Y-81965859D01*
X123861986Y-81965859D01*
X123866031Y-81998262D01*
X123879071Y-82051111D01*
X123892546Y-82096199D01*
X123899302Y-82118804D01*
X123924925Y-82195741D01*
X123954137Y-82276320D01*
X123985136Y-82354942D01*
X124016122Y-82426006D01*
X124034535Y-82462204D01*
X124065255Y-82512448D01*
X124092172Y-82545941D01*
X124128048Y-82579365D01*
X124116761Y-82543804D01*
X124113450Y-82518237D01*
X124122649Y-82487550D01*
X124131770Y-82456883D01*
X124129053Y-82403102D01*
X124115242Y-82334396D01*
X124091830Y-82258102D01*
X124060312Y-82181552D01*
X124055563Y-82171842D01*
X124020845Y-82112870D01*
X123978649Y-82055324D01*
X123934824Y-82005913D01*
X123895220Y-81971345D01*
X123865688Y-81958332D01*
X123861986Y-81965859D01*
X123749895Y-81965859D01*
X123747842Y-81961524D01*
X123732772Y-81952539D01*
X123707749Y-81966327D01*
X123702856Y-81970009D01*
X123682878Y-81993081D01*
X123667917Y-82028302D01*
X123657356Y-82079718D01*
X123650577Y-82151376D01*
X123646962Y-82247323D01*
X123645895Y-82371606D01*
X123645895Y-82630793D01*
X123602787Y-82651562D01*
X123568560Y-82663383D01*
X123535418Y-82661687D01*
X123501102Y-82642965D01*
X123461999Y-82604369D01*
X123414493Y-82543047D01*
X123354971Y-82456150D01*
X123342060Y-82436613D01*
X123298979Y-82370350D01*
X123264128Y-82315103D01*
X123240801Y-82276169D01*
X123232293Y-82258847D01*
X123229653Y-82250327D01*
X123212011Y-82218201D01*
X123181877Y-82171013D01*
X123144058Y-82115705D01*
X123103364Y-82059221D01*
X123064603Y-82008504D01*
X123032584Y-81970497D01*
X123011685Y-81949570D01*
X122975803Y-81920912D01*
X122950316Y-81909673D01*
X122941895Y-81911014D01*
X122926276Y-81931039D01*
X122927747Y-81969675D01*
X122946545Y-82019961D01*
X122951218Y-82030671D01*
X122965832Y-82076007D01*
X122982138Y-82139100D01*
X122997400Y-82209737D01*
X123004637Y-82245037D01*
X123028106Y-82342441D01*
X123054840Y-82434039D01*
X123082627Y-82513293D01*
X123109251Y-82573667D01*
X123132500Y-82608624D01*
X123146636Y-82619270D01*
X123188576Y-82642041D01*
X123240403Y-82663750D01*
X123263430Y-82672401D01*
X123325927Y-82701057D01*
X123382603Y-82737552D01*
X123441893Y-82787921D01*
X123512229Y-82858196D01*
X123570924Y-82924589D01*
X123607488Y-82979938D01*
X123613894Y-83002385D01*
X123620032Y-83023893D01*
X123610146Y-83059725D01*
X123594114Y-83072984D01*
X123559823Y-83085513D01*
X123520832Y-83091691D01*
X123488851Y-83089886D01*
X123475588Y-83078468D01*
X123473346Y-83071061D01*
X123452736Y-83061269D01*
X123447821Y-83059526D01*
X123421773Y-83040183D01*
X123380147Y-83002817D01*
X123327525Y-82951664D01*
X123268493Y-82890963D01*
X123122590Y-82736999D01*
X123203936Y-82736999D01*
X123208266Y-82749245D01*
X123230303Y-82777608D01*
X123264754Y-82816492D01*
X123306326Y-82860303D01*
X123349728Y-82903446D01*
X123389668Y-82940326D01*
X123420851Y-82965349D01*
X123431461Y-82972631D01*
X123473335Y-83000154D01*
X123494775Y-83009776D01*
X123500735Y-83002385D01*
X123496168Y-82978873D01*
X123489653Y-82962900D01*
X123458797Y-82919669D01*
X123411333Y-82870396D01*
X123354728Y-82821281D01*
X123296448Y-82778522D01*
X123243959Y-82748321D01*
X123204729Y-82736876D01*
X123203936Y-82736999D01*
X123122590Y-82736999D01*
X123107103Y-82720656D01*
X122994891Y-82720656D01*
X122968446Y-82720284D01*
X122892801Y-82712746D01*
X122846537Y-82695342D01*
X122842667Y-82692456D01*
X122812777Y-82661312D01*
X122784321Y-82620061D01*
X122764187Y-82579987D01*
X122759265Y-82552375D01*
X122757121Y-82538870D01*
X122740055Y-82511825D01*
X122739481Y-82511154D01*
X122722293Y-82482028D01*
X122699917Y-82432802D01*
X122677040Y-82373750D01*
X122637246Y-82262029D01*
X122627687Y-82373750D01*
X122617550Y-82451084D01*
X122589308Y-82550225D01*
X122546341Y-82621048D01*
X122488951Y-82663259D01*
X122417437Y-82676567D01*
X122332101Y-82660681D01*
X122316524Y-82654484D01*
X122259304Y-82618465D01*
X122199168Y-82564575D01*
X122142055Y-82500051D01*
X122093905Y-82432125D01*
X122060659Y-82368031D01*
X122048257Y-82315005D01*
X122048221Y-82313158D01*
X122039983Y-82274487D01*
X122021681Y-82229721D01*
X122005002Y-82189748D01*
X121985068Y-82129711D01*
X121966965Y-82064275D01*
X121949969Y-82001719D01*
X121929996Y-81938801D01*
X121912483Y-81893453D01*
X121886140Y-81836684D01*
X121892801Y-81885343D01*
X121899401Y-81930785D01*
X121912492Y-82012020D01*
X121927361Y-82096704D01*
X121942365Y-82175954D01*
X121955864Y-82240886D01*
X121966215Y-82282618D01*
X121975529Y-82316688D01*
X121983805Y-82380018D01*
X121972328Y-82421911D01*
X121940561Y-82445784D01*
X121934990Y-82447954D01*
X121920110Y-82453287D01*
X121906294Y-82454408D01*
X121890094Y-82448661D01*
X121868063Y-82433390D01*
X121836754Y-82405936D01*
X121792719Y-82363645D01*
X121732512Y-82303859D01*
X121652685Y-82223921D01*
X121595256Y-82166833D01*
X121529271Y-82103388D01*
X121478708Y-82058891D01*
X121439573Y-82030577D01*
X121407870Y-82015684D01*
X121379604Y-82011449D01*
X121350781Y-82015107D01*
X121350598Y-82015148D01*
X121313384Y-82033005D01*
X121281579Y-82070451D01*
X121254273Y-82130055D01*
X121230554Y-82214383D01*
X121209511Y-82326004D01*
X121190232Y-82467485D01*
X121189069Y-82476865D01*
X121178502Y-82540185D01*
X121165928Y-82587277D01*
X121153429Y-82610073D01*
X121148415Y-82612601D01*
X121113708Y-82618469D01*
X121066967Y-82616926D01*
X121048178Y-82613923D01*
X121016758Y-82603218D01*
X120984030Y-82581824D01*
X120943470Y-82545030D01*
X120888551Y-82488125D01*
X120853707Y-82451531D01*
X120806274Y-82405676D01*
X120766769Y-82375517D01*
X120727065Y-82355276D01*
X120679037Y-82339177D01*
X120646701Y-82330213D01*
X120595462Y-82320445D01*
X120549620Y-82321477D01*
X120492511Y-82332734D01*
X120457599Y-82342169D01*
X120394575Y-82363862D01*
X120345192Y-82386348D01*
X120340864Y-82388857D01*
X120299891Y-82415358D01*
X120246121Y-82453140D01*
X120187468Y-82496282D01*
X120131845Y-82538866D01*
X120087168Y-82574970D01*
X120061348Y-82598676D01*
X120061243Y-82598794D01*
X120035288Y-82623494D01*
X119996370Y-82655678D01*
X119952073Y-82689706D01*
X119909981Y-82719934D01*
X119877677Y-82740721D01*
X119862745Y-82746425D01*
X119863750Y-82733782D01*
X119882792Y-82701663D01*
X119917590Y-82656056D01*
X119963770Y-82601857D01*
X120016962Y-82543958D01*
X120072793Y-82487255D01*
X120126892Y-82436641D01*
X120174886Y-82397011D01*
X120209203Y-82372198D01*
X120326162Y-82302215D01*
X120437780Y-82260575D01*
X120549134Y-82245823D01*
X120665298Y-82256506D01*
X120721895Y-82268971D01*
X120780250Y-82288919D01*
X120832295Y-82318472D01*
X120886871Y-82362885D01*
X120952820Y-82427415D01*
X121002709Y-82474213D01*
X121046742Y-82503784D01*
X121075015Y-82506271D01*
X121086886Y-82481416D01*
X121103964Y-82330939D01*
X121128141Y-82199131D01*
X121159402Y-82095618D01*
X121198751Y-82018467D01*
X121247188Y-81965750D01*
X121305716Y-81935535D01*
X121375339Y-81925892D01*
X121397144Y-81926320D01*
X121422530Y-81929736D01*
X121448371Y-81939137D01*
X121479540Y-81957502D01*
X121520909Y-81987814D01*
X121577351Y-82033053D01*
X121653739Y-82096199D01*
X121689298Y-82126976D01*
X121733917Y-82168940D01*
X121764344Y-82201566D01*
X121797134Y-82241529D01*
X121843865Y-82294307D01*
X121876267Y-82324710D01*
X121892235Y-82330616D01*
X121893895Y-82323787D01*
X121890186Y-82292851D01*
X121878814Y-82247741D01*
X121877810Y-82244371D01*
X121859432Y-82169305D01*
X121844615Y-82084548D01*
X121834156Y-81998350D01*
X121828852Y-81918958D01*
X121829498Y-81854621D01*
X121836892Y-81813585D01*
X121850109Y-81786119D01*
X121875491Y-81757676D01*
X121902298Y-81759409D01*
X121931124Y-81791826D01*
X121962566Y-81855439D01*
X121997221Y-81950756D01*
X122012252Y-81995552D01*
X122051396Y-82104331D01*
X122093114Y-82211100D01*
X122134389Y-82308607D01*
X122172205Y-82389600D01*
X122203546Y-82446825D01*
X122205274Y-82449521D01*
X122247453Y-82500890D01*
X122299975Y-82546236D01*
X122353394Y-82578568D01*
X122398263Y-82590899D01*
X122402966Y-82590762D01*
X122450862Y-82573054D01*
X122488959Y-82530149D01*
X122511273Y-82468528D01*
X122513611Y-82456498D01*
X122524688Y-82413617D01*
X122535558Y-82388153D01*
X122537467Y-82384981D01*
X122543253Y-82351444D01*
X122542546Y-82294733D01*
X122536257Y-82221879D01*
X122525959Y-82144858D01*
X122567287Y-82144858D01*
X122575396Y-82152968D01*
X122583506Y-82144858D01*
X122575396Y-82136748D01*
X122567287Y-82144858D01*
X122525959Y-82144858D01*
X122525298Y-82139914D01*
X122510581Y-82055871D01*
X122493017Y-81976780D01*
X122473519Y-81909673D01*
X122462899Y-81878743D01*
X122424851Y-81768547D01*
X122395467Y-81684777D01*
X122373457Y-81623931D01*
X122357531Y-81582508D01*
X122346398Y-81557007D01*
X122338770Y-81543926D01*
X122327719Y-81519332D01*
X122318263Y-81480040D01*
X122312432Y-81438001D01*
X122311780Y-81404584D01*
X122317864Y-81391159D01*
X122341568Y-81397951D01*
X122369512Y-81422657D01*
X122398899Y-81468035D01*
X122431175Y-81536824D01*
X122467784Y-81631762D01*
X122510172Y-81755586D01*
X122510899Y-81757794D01*
X122535855Y-81830880D01*
X122566025Y-81915235D01*
X122599116Y-82004882D01*
X122632832Y-82093842D01*
X122652699Y-82144858D01*
X122664880Y-82176138D01*
X122692966Y-82245794D01*
X122714794Y-82296832D01*
X122728071Y-82323274D01*
X122737762Y-82342364D01*
X122755868Y-82383778D01*
X122777476Y-82436812D01*
X122820782Y-82532400D01*
X122866158Y-82600729D01*
X122914499Y-82640199D01*
X122968036Y-82652611D01*
X123029001Y-82639765D01*
X123052065Y-82629724D01*
X123061695Y-82614558D01*
X123047941Y-82587051D01*
X123031056Y-82553505D01*
X123006483Y-82491627D01*
X122979082Y-82412893D01*
X122951350Y-82325239D01*
X122925779Y-82236597D01*
X122904864Y-82154902D01*
X122891099Y-82088089D01*
X122881941Y-82026182D01*
X122879014Y-81978841D01*
X122883836Y-81942288D01*
X122896747Y-81905618D01*
X122903260Y-81891435D01*
X122932829Y-81853478D01*
X122969768Y-81846573D01*
X123017384Y-81869732D01*
X123026969Y-81878055D01*
X123057445Y-81910255D01*
X123099650Y-81958614D01*
X123148402Y-82016805D01*
X123198521Y-82078500D01*
X123244828Y-82137374D01*
X123282142Y-82187099D01*
X123305282Y-82221348D01*
X123323755Y-82251307D01*
X123358863Y-82304678D01*
X123400451Y-82365352D01*
X123443644Y-82426459D01*
X123483564Y-82481128D01*
X123515334Y-82522487D01*
X123534077Y-82543667D01*
X123542597Y-82549796D01*
X123550938Y-82549821D01*
X123555660Y-82535820D01*
X123557243Y-82503201D01*
X123556170Y-82447371D01*
X123552920Y-82363738D01*
X123550939Y-82309949D01*
X123550010Y-82225609D01*
X123553498Y-82157514D01*
X123562149Y-82095120D01*
X123576710Y-82027882D01*
X123582748Y-82003794D01*
X123598247Y-81948674D01*
X123611335Y-81911099D01*
X123619675Y-81898125D01*
X123620482Y-81898281D01*
X123640750Y-81890159D01*
X123672458Y-81868469D01*
X123712944Y-81836684D01*
X123783762Y-81836684D01*
X123791872Y-81844794D01*
X123799981Y-81836684D01*
X123791872Y-81828574D01*
X123783762Y-81836684D01*
X123712944Y-81836684D01*
X123714613Y-81835374D01*
X123690612Y-81690052D01*
X123684832Y-81650651D01*
X123675996Y-81570088D01*
X123669001Y-81480288D01*
X123664002Y-81387185D01*
X123661157Y-81296715D01*
X123660623Y-81214812D01*
X123662557Y-81147411D01*
X123667117Y-81100446D01*
X123674459Y-81079852D01*
X123674960Y-81079466D01*
X123665283Y-81073487D01*
X123632093Y-81065959D01*
X123583527Y-81058063D01*
X123527720Y-81050978D01*
X123472809Y-81045884D01*
X123426929Y-81043960D01*
X123426720Y-81043960D01*
X123386967Y-81045853D01*
X123322722Y-81050874D01*
X123241632Y-81058240D01*
X123151344Y-81067170D01*
X123059503Y-81076881D01*
X122973756Y-81086590D01*
X122901750Y-81095515D01*
X122851131Y-81102875D01*
X122817950Y-81106799D01*
X122810230Y-81107712D01*
X122737150Y-81112534D01*
X122643187Y-81116245D01*
X122533672Y-81118855D01*
X122413936Y-81120372D01*
X122289309Y-81120804D01*
X122165121Y-81120160D01*
X122046704Y-81118449D01*
X121939388Y-81115679D01*
X121848503Y-81111858D01*
X121779381Y-81106996D01*
X121777977Y-81106799D01*
X122226674Y-81106799D01*
X122234783Y-81114909D01*
X122242893Y-81106799D01*
X122234783Y-81098689D01*
X122226674Y-81106799D01*
X121777977Y-81106799D01*
X121737351Y-81101099D01*
X121725672Y-81098681D01*
X121676009Y-81091878D01*
X121607347Y-81085557D01*
X121525394Y-81079922D01*
X121435855Y-81075177D01*
X121344437Y-81071526D01*
X121256844Y-81069174D01*
X121178784Y-81068324D01*
X121115962Y-81069181D01*
X121074085Y-81071948D01*
X121066561Y-81074360D01*
X121058857Y-81076830D01*
G37*
D12*
X131975589Y-84673360D02*
X131970569Y-84678380D01*
X131965549Y-84673360D01*
X131970569Y-84668340D01*
X131975589Y-84673360D01*
G36*
X131975589Y-84673360D02*
G01*
X131970569Y-84678380D01*
X131965549Y-84673360D01*
X131970569Y-84668340D01*
X131975589Y-84673360D01*
G37*
X127877394Y-80078429D02*
X127887997Y-80079731D01*
X127949717Y-80089703D01*
X128008413Y-80104175D01*
X128069029Y-80124791D01*
X128136505Y-80153195D01*
X128215786Y-80191032D01*
X128216486Y-80191379D01*
X128322844Y-80249741D01*
X128433527Y-80321373D01*
X128548913Y-80406671D01*
X128669383Y-80506031D01*
X128795314Y-80619847D01*
X128927085Y-80748515D01*
X129065076Y-80892429D01*
X129209666Y-81051985D01*
X129361234Y-81227578D01*
X129520157Y-81419603D01*
X129686817Y-81628455D01*
X129861590Y-81854530D01*
X130044857Y-82098222D01*
X130055452Y-82112562D01*
X130093009Y-82164135D01*
X130140081Y-82229608D01*
X130195291Y-82307013D01*
X130257264Y-82394385D01*
X130324622Y-82489758D01*
X130395991Y-82591166D01*
X130469994Y-82696642D01*
X130545255Y-82804222D01*
X130620398Y-82911937D01*
X130694047Y-83017824D01*
X130764825Y-83119915D01*
X130831357Y-83216245D01*
X130892267Y-83304848D01*
X130946178Y-83383757D01*
X130991715Y-83451006D01*
X131019032Y-83491456D01*
X131054209Y-83543087D01*
X131084464Y-83586958D01*
X131108240Y-83620835D01*
X131123980Y-83642482D01*
X131130126Y-83649666D01*
X131129746Y-83647541D01*
X131123259Y-83630279D01*
X131109556Y-83597099D01*
X131089372Y-83549653D01*
X131063442Y-83489594D01*
X131032501Y-83418573D01*
X130997285Y-83338244D01*
X130958526Y-83250257D01*
X130916962Y-83156266D01*
X130873326Y-83057923D01*
X130828354Y-82956880D01*
X130782780Y-82854789D01*
X130737340Y-82753302D01*
X130692767Y-82654073D01*
X130649798Y-82558752D01*
X130609167Y-82468993D01*
X130571609Y-82386448D01*
X130537859Y-82312769D01*
X130508652Y-82249608D01*
X130484722Y-82198617D01*
X130460424Y-82147616D01*
X130392338Y-82007113D01*
X130329293Y-81880694D01*
X130271607Y-81768925D01*
X130219596Y-81672369D01*
X130173580Y-81591588D01*
X130133874Y-81527147D01*
X130100797Y-81479608D01*
X130074666Y-81449535D01*
X130055798Y-81437492D01*
X130055560Y-81437450D01*
X130037560Y-81444026D01*
X130018187Y-81467557D01*
X130015621Y-81471630D01*
X130003460Y-81485795D01*
X129997804Y-81483690D01*
X129999514Y-81467923D01*
X130009453Y-81441105D01*
X130020175Y-81425278D01*
X130043250Y-81415683D01*
X130073673Y-81423611D01*
X130110732Y-81448666D01*
X130153716Y-81490448D01*
X130201911Y-81548561D01*
X130236317Y-81595998D01*
X130281869Y-81663581D01*
X130334926Y-81746248D01*
X130394621Y-81842547D01*
X130460089Y-81951026D01*
X130530464Y-82070233D01*
X130604882Y-82198716D01*
X130682476Y-82335022D01*
X130762380Y-82477700D01*
X130843731Y-82625297D01*
X130861234Y-82657295D01*
X130911442Y-82748949D01*
X130964798Y-82846191D01*
X131018750Y-82944376D01*
X131070745Y-83038862D01*
X131118232Y-83125007D01*
X131158657Y-83198166D01*
X131186506Y-83248602D01*
X131232385Y-83332110D01*
X131279849Y-83418931D01*
X131326055Y-83503853D01*
X131368165Y-83581663D01*
X131403336Y-83647148D01*
X131418270Y-83674996D01*
X131447788Y-83729322D01*
X131473659Y-83775993D01*
X131494454Y-83812483D01*
X131508745Y-83836266D01*
X131515101Y-83844812D01*
X131516145Y-83844390D01*
X131526286Y-83833329D01*
X131543354Y-83810290D01*
X131564295Y-83779340D01*
X131569939Y-83770842D01*
X131590195Y-83743113D01*
X131606077Y-83725539D01*
X131614545Y-83721613D01*
X131614976Y-83722307D01*
X131621064Y-83736475D01*
X131633136Y-83766927D01*
X131650392Y-83811535D01*
X131672034Y-83868170D01*
X131697261Y-83934705D01*
X131725277Y-84009010D01*
X131755280Y-84088958D01*
X131786472Y-84172420D01*
X131818054Y-84257267D01*
X131849227Y-84341372D01*
X131879191Y-84422605D01*
X131907148Y-84498839D01*
X131932299Y-84567945D01*
X131942655Y-84597314D01*
X131953010Y-84629080D01*
X131958347Y-84648874D01*
X131957650Y-84653281D01*
X131956793Y-84652163D01*
X131947476Y-84637067D01*
X131930014Y-84606993D01*
X131905608Y-84564098D01*
X131875458Y-84510539D01*
X131840764Y-84448475D01*
X131802726Y-84380062D01*
X131762545Y-84307458D01*
X131721421Y-84232820D01*
X131680554Y-84158307D01*
X131641144Y-84086074D01*
X131604391Y-84018281D01*
X131581630Y-83976609D01*
X131556691Y-83932146D01*
X131536146Y-83896847D01*
X131521665Y-83873572D01*
X131514919Y-83865178D01*
X131512140Y-83866357D01*
X131499346Y-83881104D01*
X131480050Y-83910756D01*
X131455527Y-83952811D01*
X131427051Y-84004768D01*
X131395897Y-84064126D01*
X131363342Y-84128382D01*
X131330659Y-84195037D01*
X131299123Y-84261588D01*
X131270011Y-84325534D01*
X131244596Y-84384375D01*
X131224153Y-84435607D01*
X131185178Y-84539198D01*
X131159923Y-84495844D01*
X131159507Y-84495129D01*
X131146283Y-84472012D01*
X131125409Y-84435088D01*
X131098890Y-84387926D01*
X131068733Y-84334093D01*
X131036944Y-84277156D01*
X131035765Y-84275041D01*
X130998905Y-84209487D01*
X130955466Y-84133086D01*
X130908995Y-84052024D01*
X130863038Y-83972491D01*
X130821143Y-83900674D01*
X130779081Y-83828695D01*
X130731142Y-83746107D01*
X130681905Y-83660819D01*
X130635213Y-83579489D01*
X130594911Y-83508775D01*
X130550315Y-83430508D01*
X130373118Y-83126350D01*
X130185455Y-82814436D01*
X129990343Y-82499803D01*
X129904782Y-82364094D01*
X129802968Y-82203382D01*
X129709815Y-82057402D01*
X129624360Y-81924766D01*
X129545644Y-81804086D01*
X129472707Y-81693974D01*
X129404588Y-81593042D01*
X129340328Y-81499901D01*
X129278965Y-81413164D01*
X129219540Y-81331443D01*
X129161092Y-81253349D01*
X129102661Y-81177494D01*
X129043288Y-81102490D01*
X128982010Y-81026949D01*
X128917869Y-80949484D01*
X128848636Y-80867810D01*
X128709698Y-80711827D01*
X128577193Y-80574241D01*
X128450761Y-80454758D01*
X128330041Y-80353084D01*
X128214671Y-80268926D01*
X128104293Y-80201990D01*
X127998543Y-80151983D01*
X127897063Y-80118611D01*
X127893468Y-80117718D01*
X127806383Y-80104445D01*
X127708199Y-80103662D01*
X127603375Y-80115418D01*
X127573257Y-80120513D01*
X127606009Y-80105335D01*
X127614170Y-80101802D01*
X127667675Y-80086247D01*
X127733389Y-80076769D01*
X127805300Y-80073964D01*
X127877394Y-80078429D01*
G36*
X127877394Y-80078429D02*
G01*
X127887997Y-80079731D01*
X127949717Y-80089703D01*
X128008413Y-80104175D01*
X128069029Y-80124791D01*
X128136505Y-80153195D01*
X128215786Y-80191032D01*
X128216486Y-80191379D01*
X128322844Y-80249741D01*
X128433527Y-80321373D01*
X128548913Y-80406671D01*
X128669383Y-80506031D01*
X128795314Y-80619847D01*
X128927085Y-80748515D01*
X129065076Y-80892429D01*
X129209666Y-81051985D01*
X129361234Y-81227578D01*
X129520157Y-81419603D01*
X129686817Y-81628455D01*
X129861590Y-81854530D01*
X130044857Y-82098222D01*
X130055452Y-82112562D01*
X130093009Y-82164135D01*
X130140081Y-82229608D01*
X130195291Y-82307013D01*
X130257264Y-82394385D01*
X130324622Y-82489758D01*
X130395991Y-82591166D01*
X130469994Y-82696642D01*
X130545255Y-82804222D01*
X130620398Y-82911937D01*
X130694047Y-83017824D01*
X130764825Y-83119915D01*
X130831357Y-83216245D01*
X130892267Y-83304848D01*
X130946178Y-83383757D01*
X130991715Y-83451006D01*
X131019032Y-83491456D01*
X131054209Y-83543087D01*
X131084464Y-83586958D01*
X131108240Y-83620835D01*
X131123980Y-83642482D01*
X131130126Y-83649666D01*
X131129746Y-83647541D01*
X131123259Y-83630279D01*
X131109556Y-83597099D01*
X131089372Y-83549653D01*
X131063442Y-83489594D01*
X131032501Y-83418573D01*
X130997285Y-83338244D01*
X130958526Y-83250257D01*
X130916962Y-83156266D01*
X130873326Y-83057923D01*
X130828354Y-82956880D01*
X130782780Y-82854789D01*
X130737340Y-82753302D01*
X130692767Y-82654073D01*
X130649798Y-82558752D01*
X130609167Y-82468993D01*
X130571609Y-82386448D01*
X130537859Y-82312769D01*
X130508652Y-82249608D01*
X130484722Y-82198617D01*
X130460424Y-82147616D01*
X130392338Y-82007113D01*
X130329293Y-81880694D01*
X130271607Y-81768925D01*
X130219596Y-81672369D01*
X130173580Y-81591588D01*
X130133874Y-81527147D01*
X130100797Y-81479608D01*
X130074666Y-81449535D01*
X130055798Y-81437492D01*
X130055560Y-81437450D01*
X130037560Y-81444026D01*
X130018187Y-81467557D01*
X130015621Y-81471630D01*
X130003460Y-81485795D01*
X129997804Y-81483690D01*
X129999514Y-81467923D01*
X130009453Y-81441105D01*
X130020175Y-81425278D01*
X130043250Y-81415683D01*
X130073673Y-81423611D01*
X130110732Y-81448666D01*
X130153716Y-81490448D01*
X130201911Y-81548561D01*
X130236317Y-81595998D01*
X130281869Y-81663581D01*
X130334926Y-81746248D01*
X130394621Y-81842547D01*
X130460089Y-81951026D01*
X130530464Y-82070233D01*
X130604882Y-82198716D01*
X130682476Y-82335022D01*
X130762380Y-82477700D01*
X130843731Y-82625297D01*
X130861234Y-82657295D01*
X130911442Y-82748949D01*
X130964798Y-82846191D01*
X131018750Y-82944376D01*
X131070745Y-83038862D01*
X131118232Y-83125007D01*
X131158657Y-83198166D01*
X131186506Y-83248602D01*
X131232385Y-83332110D01*
X131279849Y-83418931D01*
X131326055Y-83503853D01*
X131368165Y-83581663D01*
X131403336Y-83647148D01*
X131418270Y-83674996D01*
X131447788Y-83729322D01*
X131473659Y-83775993D01*
X131494454Y-83812483D01*
X131508745Y-83836266D01*
X131515101Y-83844812D01*
X131516145Y-83844390D01*
X131526286Y-83833329D01*
X131543354Y-83810290D01*
X131564295Y-83779340D01*
X131569939Y-83770842D01*
X131590195Y-83743113D01*
X131606077Y-83725539D01*
X131614545Y-83721613D01*
X131614976Y-83722307D01*
X131621064Y-83736475D01*
X131633136Y-83766927D01*
X131650392Y-83811535D01*
X131672034Y-83868170D01*
X131697261Y-83934705D01*
X131725277Y-84009010D01*
X131755280Y-84088958D01*
X131786472Y-84172420D01*
X131818054Y-84257267D01*
X131849227Y-84341372D01*
X131879191Y-84422605D01*
X131907148Y-84498839D01*
X131932299Y-84567945D01*
X131942655Y-84597314D01*
X131953010Y-84629080D01*
X131958347Y-84648874D01*
X131957650Y-84653281D01*
X131956793Y-84652163D01*
X131947476Y-84637067D01*
X131930014Y-84606993D01*
X131905608Y-84564098D01*
X131875458Y-84510539D01*
X131840764Y-84448475D01*
X131802726Y-84380062D01*
X131762545Y-84307458D01*
X131721421Y-84232820D01*
X131680554Y-84158307D01*
X131641144Y-84086074D01*
X131604391Y-84018281D01*
X131581630Y-83976609D01*
X131556691Y-83932146D01*
X131536146Y-83896847D01*
X131521665Y-83873572D01*
X131514919Y-83865178D01*
X131512140Y-83866357D01*
X131499346Y-83881104D01*
X131480050Y-83910756D01*
X131455527Y-83952811D01*
X131427051Y-84004768D01*
X131395897Y-84064126D01*
X131363342Y-84128382D01*
X131330659Y-84195037D01*
X131299123Y-84261588D01*
X131270011Y-84325534D01*
X131244596Y-84384375D01*
X131224153Y-84435607D01*
X131185178Y-84539198D01*
X131159923Y-84495844D01*
X131159507Y-84495129D01*
X131146283Y-84472012D01*
X131125409Y-84435088D01*
X131098890Y-84387926D01*
X131068733Y-84334093D01*
X131036944Y-84277156D01*
X131035765Y-84275041D01*
X130998905Y-84209487D01*
X130955466Y-84133086D01*
X130908995Y-84052024D01*
X130863038Y-83972491D01*
X130821143Y-83900674D01*
X130779081Y-83828695D01*
X130731142Y-83746107D01*
X130681905Y-83660819D01*
X130635213Y-83579489D01*
X130594911Y-83508775D01*
X130550315Y-83430508D01*
X130373118Y-83126350D01*
X130185455Y-82814436D01*
X129990343Y-82499803D01*
X129904782Y-82364094D01*
X129802968Y-82203382D01*
X129709815Y-82057402D01*
X129624360Y-81924766D01*
X129545644Y-81804086D01*
X129472707Y-81693974D01*
X129404588Y-81593042D01*
X129340328Y-81499901D01*
X129278965Y-81413164D01*
X129219540Y-81331443D01*
X129161092Y-81253349D01*
X129102661Y-81177494D01*
X129043288Y-81102490D01*
X128982010Y-81026949D01*
X128917869Y-80949484D01*
X128848636Y-80867810D01*
X128709698Y-80711827D01*
X128577193Y-80574241D01*
X128450761Y-80454758D01*
X128330041Y-80353084D01*
X128214671Y-80268926D01*
X128104293Y-80201990D01*
X127998543Y-80151983D01*
X127897063Y-80118611D01*
X127893468Y-80117718D01*
X127806383Y-80104445D01*
X127708199Y-80103662D01*
X127603375Y-80115418D01*
X127573257Y-80120513D01*
X127606009Y-80105335D01*
X127614170Y-80101802D01*
X127667675Y-80086247D01*
X127733389Y-80076769D01*
X127805300Y-80073964D01*
X127877394Y-80078429D01*
G37*
X137061125Y-87750475D02*
X137059958Y-87851588D01*
X137057574Y-87958301D01*
X137053863Y-88051177D01*
X137048545Y-88133627D01*
X137041340Y-88209058D01*
X137031968Y-88280880D01*
X137020151Y-88352500D01*
X137005608Y-88427326D01*
X137005162Y-88429507D01*
X136995979Y-88485250D01*
X136991386Y-88536920D01*
X136991391Y-88580652D01*
X136996001Y-88612577D01*
X137005222Y-88628829D01*
X137006244Y-88628795D01*
X137013167Y-88617459D01*
X137023815Y-88590360D01*
X137037258Y-88550483D01*
X137052569Y-88500813D01*
X137068817Y-88444333D01*
X137085075Y-88384030D01*
X137100415Y-88322886D01*
X137108719Y-88286365D01*
X137125871Y-88199399D01*
X137142819Y-88099534D01*
X137158970Y-87991411D01*
X137173730Y-87879675D01*
X137186506Y-87768968D01*
X137196703Y-87663932D01*
X137203728Y-87569211D01*
X137206987Y-87489447D01*
X137207598Y-87464069D01*
X137209077Y-87448391D01*
X137212152Y-87449161D01*
X137217686Y-87464348D01*
X137219115Y-87469949D01*
X137222887Y-87499367D01*
X137225724Y-87544806D01*
X137227648Y-87603219D01*
X137228680Y-87671562D01*
X137228842Y-87746788D01*
X137228155Y-87825852D01*
X137226640Y-87905708D01*
X137224319Y-87983310D01*
X137221212Y-88055612D01*
X137217342Y-88119569D01*
X137212729Y-88172135D01*
X137191582Y-88340562D01*
X137164481Y-88507038D01*
X137132832Y-88660671D01*
X137102174Y-88779526D01*
X137097118Y-88799128D01*
X137057821Y-88920079D01*
X137056340Y-88924170D01*
X137041153Y-88972945D01*
X137028747Y-89024136D01*
X137021683Y-89067307D01*
X137020866Y-89075236D01*
X137000651Y-89194284D01*
X136967072Y-89301614D01*
X136920803Y-89396088D01*
X136862513Y-89476567D01*
X136793007Y-89541792D01*
X136792877Y-89541914D01*
X136712565Y-89590989D01*
X136706726Y-89593733D01*
X136666692Y-89611201D01*
X136629951Y-89625229D01*
X136603810Y-89632995D01*
X136583990Y-89639252D01*
X136550009Y-89654886D01*
X136515437Y-89675001D01*
X136485547Y-89693782D01*
X136370856Y-89753258D01*
X136244263Y-89801825D01*
X136142863Y-89829346D01*
X136110396Y-89838158D01*
X135973879Y-89860929D01*
X135839338Y-89868815D01*
X135820195Y-89869231D01*
X135793262Y-89873522D01*
X135769573Y-89885286D01*
X135740470Y-89907949D01*
X135702766Y-89938223D01*
X135593845Y-90009740D01*
X135479821Y-90061910D01*
X135360848Y-90094657D01*
X135296677Y-90102792D01*
X135209579Y-90104709D01*
X135120488Y-90098208D01*
X135038157Y-90083591D01*
X134986685Y-90067856D01*
X134920819Y-90041965D01*
X134851022Y-90009842D01*
X134783682Y-89974445D01*
X134725188Y-89938730D01*
X134658818Y-89891404D01*
X134570875Y-89819947D01*
X134482053Y-89737474D01*
X134391221Y-89642726D01*
X134310638Y-89549874D01*
X134774144Y-89549874D01*
X134776264Y-89554852D01*
X134790422Y-89571051D01*
X134814809Y-89596486D01*
X134847620Y-89629172D01*
X134869854Y-89650593D01*
X134932569Y-89706231D01*
X134991586Y-89749932D01*
X135052318Y-89785416D01*
X135120181Y-89816401D01*
X135161665Y-89830911D01*
X135209989Y-89840639D01*
X135268553Y-89844867D01*
X135281323Y-89845200D01*
X135321990Y-89845403D01*
X135354926Y-89844330D01*
X135373968Y-89842139D01*
X135387017Y-89838064D01*
X135400916Y-89829346D01*
X135394898Y-89821379D01*
X135369073Y-89814782D01*
X135341864Y-89809245D01*
X135290165Y-89795389D01*
X135229549Y-89776408D01*
X135165598Y-89754180D01*
X135103893Y-89730581D01*
X135050016Y-89707489D01*
X135046363Y-89705793D01*
X134970045Y-89667015D01*
X134880384Y-89615621D01*
X134776616Y-89551173D01*
X134774144Y-89549874D01*
X134310638Y-89549874D01*
X134297249Y-89534447D01*
X134254776Y-89481241D01*
X135351594Y-89481241D01*
X135358141Y-89486161D01*
X135380515Y-89494909D01*
X135415081Y-89506410D01*
X135458207Y-89519590D01*
X135506259Y-89533374D01*
X135555602Y-89546687D01*
X135602604Y-89558455D01*
X135643630Y-89567603D01*
X135648562Y-89568604D01*
X135699557Y-89578688D01*
X135735100Y-89584512D01*
X135759073Y-89585960D01*
X135775360Y-89582914D01*
X135787842Y-89575256D01*
X135800402Y-89562871D01*
X135802616Y-89560513D01*
X135812001Y-89549751D01*
X135815331Y-89541792D01*
X135810281Y-89535895D01*
X135794523Y-89531320D01*
X135765733Y-89527329D01*
X135721583Y-89523179D01*
X135659747Y-89518133D01*
X135601583Y-89512848D01*
X135539827Y-89506162D01*
X135483364Y-89499056D01*
X135439565Y-89492392D01*
X135424243Y-89489770D01*
X135388269Y-89484240D01*
X135362460Y-89481192D01*
X135351602Y-89481234D01*
X135351594Y-89481241D01*
X134254776Y-89481241D01*
X134204580Y-89418362D01*
X136341468Y-89418362D01*
X136343619Y-89421065D01*
X136353987Y-89423824D01*
X136379067Y-89427561D01*
X136413059Y-89431318D01*
X136478316Y-89437540D01*
X136538553Y-89388741D01*
X136580675Y-89352786D01*
X136681391Y-89250106D01*
X136774145Y-89130070D01*
X136859574Y-88991889D01*
X136872158Y-88968429D01*
X136888683Y-88930917D01*
X136897719Y-88895065D01*
X136902156Y-88851336D01*
X136906536Y-88779526D01*
X136856634Y-88877142D01*
X136791172Y-88993886D01*
X136710237Y-89110746D01*
X136621309Y-89211508D01*
X136522784Y-89297962D01*
X136413059Y-89371897D01*
X136405097Y-89376588D01*
X136372042Y-89396146D01*
X136352524Y-89408137D01*
X136343384Y-89414798D01*
X136341468Y-89418362D01*
X134204580Y-89418362D01*
X134199006Y-89411379D01*
X134095362Y-89272266D01*
X133985187Y-89115850D01*
X133955656Y-89072934D01*
X133947182Y-89060633D01*
X135057723Y-89060633D01*
X135062743Y-89065653D01*
X135067762Y-89060633D01*
X135062743Y-89055613D01*
X135057723Y-89060633D01*
X133947182Y-89060633D01*
X133918229Y-89018602D01*
X133885307Y-88970878D01*
X133858607Y-88932248D01*
X133839845Y-88905197D01*
X133830738Y-88892210D01*
X133814313Y-88880727D01*
X133780261Y-88869648D01*
X133727486Y-88858905D01*
X133703425Y-88854676D01*
X133476721Y-88804505D01*
X133249596Y-88736073D01*
X133025391Y-88650640D01*
X132807444Y-88549464D01*
X132599095Y-88433801D01*
X132538047Y-88395943D01*
X132328761Y-88251259D01*
X132132179Y-88091601D01*
X131949008Y-87917935D01*
X131779955Y-87731224D01*
X131625727Y-87532433D01*
X131487032Y-87322526D01*
X131364577Y-87102470D01*
X131259067Y-86873227D01*
X131171211Y-86635762D01*
X131101716Y-86391041D01*
X131069936Y-86248404D01*
X131045539Y-86110942D01*
X131028336Y-85974830D01*
X131017807Y-85834876D01*
X131013432Y-85685888D01*
X131014691Y-85522675D01*
X131015033Y-85508146D01*
X131019093Y-85390207D01*
X131025490Y-85285962D01*
X131034879Y-85189735D01*
X131047917Y-85095850D01*
X131065261Y-84998631D01*
X131087567Y-84892403D01*
X131114721Y-84770101D01*
X131092593Y-84741970D01*
X131085728Y-84733702D01*
X131064800Y-84709666D01*
X131033597Y-84674518D01*
X130994179Y-84630528D01*
X130948606Y-84579966D01*
X130898938Y-84525101D01*
X130847235Y-84468203D01*
X130795556Y-84411541D01*
X130745963Y-84357385D01*
X130700514Y-84308004D01*
X130661271Y-84265668D01*
X130630292Y-84232646D01*
X130592991Y-84194764D01*
X130542933Y-84146865D01*
X130488452Y-84097107D01*
X130433251Y-84048724D01*
X130381028Y-84004953D01*
X130335485Y-83969027D01*
X130300321Y-83944182D01*
X130298343Y-83942938D01*
X130253935Y-83921695D01*
X130209176Y-83915057D01*
X130192427Y-83914836D01*
X130174811Y-83913267D01*
X130172816Y-83908683D01*
X130183533Y-83899296D01*
X130187441Y-83896601D01*
X130219910Y-83888137D01*
X130265216Y-83894626D01*
X130323011Y-83915945D01*
X130392948Y-83951970D01*
X130474679Y-84002577D01*
X130479249Y-84005609D01*
X130540913Y-84048437D01*
X130607500Y-84098275D01*
X130680504Y-84156370D01*
X130761421Y-84223970D01*
X130851747Y-84302322D01*
X130952978Y-84392673D01*
X131066609Y-84496271D01*
X131073050Y-84502192D01*
X131111365Y-84537111D01*
X131137935Y-84560177D01*
X131155343Y-84573001D01*
X131166169Y-84577199D01*
X131172993Y-84574384D01*
X131178396Y-84566170D01*
X131184160Y-84556376D01*
X131190776Y-84552914D01*
X131199178Y-84562914D01*
X131212879Y-84588666D01*
X131219691Y-84601840D01*
X131236959Y-84633895D01*
X131250996Y-84658301D01*
X131251549Y-84659214D01*
X131253652Y-84666645D01*
X131242806Y-84659726D01*
X131219636Y-84638848D01*
X131196275Y-84617674D01*
X131177437Y-84602755D01*
X131168671Y-84598690D01*
X131167206Y-84601231D01*
X131160608Y-84618911D01*
X131151365Y-84647871D01*
X131141190Y-84682213D01*
X131131799Y-84716033D01*
X131124907Y-84743432D01*
X131122229Y-84758508D01*
X131123808Y-84762651D01*
X131135674Y-84780870D01*
X131157261Y-84809815D01*
X131186300Y-84846501D01*
X131220523Y-84887940D01*
X131227472Y-84896201D01*
X131269504Y-84946473D01*
X131312619Y-84998481D01*
X131352124Y-85046543D01*
X131383326Y-85084981D01*
X131396291Y-85101046D01*
X131427438Y-85139355D01*
X131467073Y-85187860D01*
X131512454Y-85243214D01*
X131560836Y-85302066D01*
X131609477Y-85361068D01*
X131644720Y-85403981D01*
X131694143Y-85465488D01*
X131734979Y-85518706D01*
X131770185Y-85567826D01*
X131802721Y-85617042D01*
X131835546Y-85670546D01*
X131871617Y-85732530D01*
X131931731Y-85836732D01*
X132061096Y-86054452D01*
X132188918Y-86260061D01*
X132318315Y-86458387D01*
X132452403Y-86654263D01*
X132594299Y-86852519D01*
X132660562Y-86944778D01*
X132718552Y-87029318D01*
X132770314Y-87109585D01*
X132819378Y-87191052D01*
X132869271Y-87279199D01*
X132873337Y-87286546D01*
X132913975Y-87358161D01*
X132958798Y-87434417D01*
X133004418Y-87509712D01*
X133047447Y-87578446D01*
X133084498Y-87635020D01*
X133109262Y-87672618D01*
X133148212Y-87734374D01*
X133191979Y-87806062D01*
X133237914Y-87883270D01*
X133283366Y-87961587D01*
X133325687Y-88036601D01*
X133352357Y-88084401D01*
X133401514Y-88171208D01*
X133452660Y-88260069D01*
X133504710Y-88349210D01*
X133556584Y-88436857D01*
X133607198Y-88521236D01*
X133655469Y-88600575D01*
X133700315Y-88673098D01*
X133740653Y-88737034D01*
X133775400Y-88790607D01*
X133803475Y-88832044D01*
X133823793Y-88859573D01*
X133835273Y-88871418D01*
X133853226Y-88877951D01*
X133894661Y-88886359D01*
X133951521Y-88893310D01*
X134021066Y-88898782D01*
X134100554Y-88902757D01*
X134187244Y-88905214D01*
X134278396Y-88906133D01*
X134371267Y-88905494D01*
X134463118Y-88903277D01*
X134551206Y-88899462D01*
X134632792Y-88894029D01*
X134705134Y-88886957D01*
X134765491Y-88878227D01*
X134765849Y-88878163D01*
X134820206Y-88878163D01*
X134823142Y-88883107D01*
X134838852Y-88898167D01*
X134865157Y-88920481D01*
X134898967Y-88947337D01*
X134925893Y-88968046D01*
X134978989Y-89008106D01*
X135017069Y-89035534D01*
X135040009Y-89050243D01*
X135047683Y-89052145D01*
X135047533Y-89051647D01*
X135038178Y-89042068D01*
X135016768Y-89023885D01*
X134986764Y-88999746D01*
X134951630Y-88972300D01*
X134914829Y-88944196D01*
X134879823Y-88918082D01*
X134850076Y-88896606D01*
X134829049Y-88882416D01*
X134820206Y-88878163D01*
X134765849Y-88878163D01*
X134799543Y-88872133D01*
X134641083Y-88722677D01*
X134719384Y-88785490D01*
X134741335Y-88803264D01*
X134771508Y-88828312D01*
X134793211Y-88847119D01*
X134802803Y-88856583D01*
X134805227Y-88859219D01*
X134821594Y-88863973D01*
X134852416Y-88863207D01*
X134899275Y-88856804D01*
X134963752Y-88844646D01*
X134978993Y-88841415D01*
X135018444Y-88832446D01*
X135065768Y-88821137D01*
X135117049Y-88808484D01*
X135168373Y-88795487D01*
X135215823Y-88783143D01*
X135255486Y-88772450D01*
X135283444Y-88764406D01*
X135295784Y-88760010D01*
X135295116Y-88759191D01*
X135310707Y-88759191D01*
X135311855Y-88761794D01*
X135324556Y-88775558D01*
X135349116Y-88799151D01*
X135383237Y-88830537D01*
X135424621Y-88867681D01*
X135470967Y-88908547D01*
X135519978Y-88951099D01*
X135569355Y-88993302D01*
X135616799Y-89033119D01*
X135640026Y-89052145D01*
X135650388Y-89060633D01*
X135660011Y-89068516D01*
X135674852Y-89080393D01*
X135728065Y-89121858D01*
X135782844Y-89163100D01*
X135833526Y-89199906D01*
X135874449Y-89228063D01*
X135902331Y-89245636D01*
X135939425Y-89266741D01*
X135969407Y-89281174D01*
X135987603Y-89286522D01*
X135992953Y-89286074D01*
X136004290Y-89281604D01*
X136017092Y-89270788D01*
X136032687Y-89251731D01*
X136052403Y-89222534D01*
X136077567Y-89181301D01*
X136109507Y-89126135D01*
X136149550Y-89055140D01*
X136154001Y-89047181D01*
X136195203Y-88972459D01*
X136231904Y-88903454D01*
X136265743Y-88836659D01*
X136298357Y-88768567D01*
X136331384Y-88695671D01*
X136366460Y-88614463D01*
X136405224Y-88521436D01*
X136449312Y-88413083D01*
X136470341Y-88361301D01*
X136498121Y-88293941D01*
X136522804Y-88235311D01*
X136543526Y-88187399D01*
X136559424Y-88152189D01*
X136569634Y-88131668D01*
X136573295Y-88127821D01*
X136572882Y-88133544D01*
X136568331Y-88159370D01*
X136559415Y-88200002D01*
X136546945Y-88252286D01*
X136531734Y-88313066D01*
X136514594Y-88379185D01*
X136496338Y-88447489D01*
X136477778Y-88514822D01*
X136459726Y-88578029D01*
X136442995Y-88633953D01*
X136433320Y-88664465D01*
X136406994Y-88742268D01*
X136375641Y-88829672D01*
X136341441Y-88920917D01*
X136306578Y-89010243D01*
X136273235Y-89091892D01*
X136243595Y-89160103D01*
X136240540Y-89166890D01*
X136226792Y-89199359D01*
X136218111Y-89223188D01*
X136216263Y-89233626D01*
X136216507Y-89233821D01*
X136228945Y-89232054D01*
X136254397Y-89222183D01*
X136288856Y-89206235D01*
X136328310Y-89186237D01*
X136368751Y-89164218D01*
X136406169Y-89142204D01*
X136436554Y-89122224D01*
X136444906Y-89116117D01*
X136505187Y-89065937D01*
X136567419Y-89005028D01*
X136625517Y-88939710D01*
X136673391Y-88876304D01*
X136692223Y-88846572D01*
X136725955Y-88786649D01*
X136761624Y-88716616D01*
X136796570Y-88642006D01*
X136828137Y-88568352D01*
X136853665Y-88501183D01*
X136884173Y-88413591D01*
X136864628Y-88293791D01*
X136858196Y-88255785D01*
X136845695Y-88186433D01*
X136832042Y-88114810D01*
X136819223Y-88051514D01*
X136818283Y-88047042D01*
X136808949Y-88000672D01*
X136801951Y-87962247D01*
X136797952Y-87935656D01*
X136797614Y-87924786D01*
X136799481Y-87924805D01*
X136807930Y-87937443D01*
X136821059Y-87966646D01*
X136838105Y-88010489D01*
X136858303Y-88067050D01*
X136880890Y-88134405D01*
X136882724Y-88139990D01*
X136897636Y-88182660D01*
X136910743Y-88215633D01*
X136920685Y-88235742D01*
X136926106Y-88239820D01*
X136929971Y-88228086D01*
X136936659Y-88198616D01*
X136944809Y-88156349D01*
X136953763Y-88105228D01*
X136962862Y-88049193D01*
X136971446Y-87992187D01*
X136978856Y-87938152D01*
X136984433Y-87891028D01*
X136987198Y-87862755D01*
X136991552Y-87810784D01*
X136995577Y-87754434D01*
X136999100Y-87697191D01*
X137001944Y-87642540D01*
X137003935Y-87593967D01*
X137004900Y-87554956D01*
X137004662Y-87528994D01*
X137003048Y-87519566D01*
X136999564Y-87522361D01*
X136985950Y-87537929D01*
X136965041Y-87564100D01*
X136939690Y-87597372D01*
X136848021Y-87714090D01*
X136683175Y-87898509D01*
X136503442Y-88070735D01*
X136310178Y-88229764D01*
X136104738Y-88374596D01*
X135888478Y-88504228D01*
X135662754Y-88617659D01*
X135428921Y-88713885D01*
X135426663Y-88714716D01*
X135382470Y-88731119D01*
X135345918Y-88744955D01*
X135320749Y-88754791D01*
X135310707Y-88759191D01*
X135295116Y-88759191D01*
X135291689Y-88754992D01*
X135275379Y-88737390D01*
X135248376Y-88708984D01*
X135212532Y-88671708D01*
X135169697Y-88627495D01*
X135121723Y-88578276D01*
X135107539Y-88563743D01*
X135020854Y-88474074D01*
X134928131Y-88376865D01*
X134831380Y-88274303D01*
X134732610Y-88168576D01*
X134633830Y-88061873D01*
X134537048Y-87956383D01*
X134444275Y-87854292D01*
X134357518Y-87757789D01*
X134278788Y-87669063D01*
X134210094Y-87590302D01*
X134153443Y-87523693D01*
X134132614Y-87500031D01*
X134096829Y-87461572D01*
X134050077Y-87412777D01*
X133994234Y-87355553D01*
X133931174Y-87291806D01*
X133862772Y-87223443D01*
X133790905Y-87152369D01*
X133717446Y-87080491D01*
X133676720Y-87040913D01*
X133589513Y-86956440D01*
X133514490Y-86883842D01*
X133450326Y-86821396D01*
X133395695Y-86767378D01*
X133349270Y-86720065D01*
X133309726Y-86677733D01*
X133275737Y-86638659D01*
X133245978Y-86601118D01*
X133219121Y-86563388D01*
X133193842Y-86523744D01*
X133168815Y-86480462D01*
X133142713Y-86431820D01*
X133114210Y-86376093D01*
X133081982Y-86311559D01*
X133044701Y-86236492D01*
X133001042Y-86149170D01*
X132968830Y-86085030D01*
X132912239Y-85971899D01*
X132853727Y-85854344D01*
X132792684Y-85731120D01*
X132728500Y-85600980D01*
X132660566Y-85462678D01*
X132588273Y-85314968D01*
X132511010Y-85156603D01*
X132428169Y-84986337D01*
X132339140Y-84802925D01*
X132243313Y-84605119D01*
X132140079Y-84391675D01*
X132028828Y-84161344D01*
X132009505Y-84121332D01*
X131961083Y-84021233D01*
X131915401Y-83927029D01*
X131873204Y-83840243D01*
X131835239Y-83762401D01*
X131802251Y-83695028D01*
X131774987Y-83639649D01*
X131754192Y-83597788D01*
X131740612Y-83570970D01*
X131734994Y-83560721D01*
X131730943Y-83561255D01*
X131716702Y-83573500D01*
X131695678Y-83597301D01*
X131670780Y-83629539D01*
X131614468Y-83706648D01*
X131603631Y-83677988D01*
X131597780Y-83662545D01*
X131568377Y-83585572D01*
X131534109Y-83496706D01*
X131496314Y-83399352D01*
X131456330Y-83296915D01*
X131415494Y-83192801D01*
X131375145Y-83090415D01*
X131336621Y-82993161D01*
X131301260Y-82904444D01*
X131270400Y-82827670D01*
X131245378Y-82766244D01*
X131215957Y-82695105D01*
X131182909Y-82616489D01*
X131155132Y-82552406D01*
X131131497Y-82500477D01*
X131110875Y-82458325D01*
X131092139Y-82423573D01*
X131074160Y-82393842D01*
X131055810Y-82366756D01*
X131046000Y-82352867D01*
X131028903Y-82327126D01*
X131023646Y-82315025D01*
X131029898Y-82314953D01*
X131047332Y-82325296D01*
X131057414Y-82333578D01*
X131083031Y-82362872D01*
X131116209Y-82408795D01*
X131156346Y-82470308D01*
X131202843Y-82546372D01*
X131255099Y-82635948D01*
X131312513Y-82737997D01*
X131374486Y-82851480D01*
X131440417Y-82975358D01*
X131509706Y-83108593D01*
X131581752Y-83250146D01*
X131604989Y-83296147D01*
X131639003Y-83363006D01*
X131669516Y-83422406D01*
X131695430Y-83472244D01*
X131715652Y-83510423D01*
X131729087Y-83534841D01*
X131734640Y-83543399D01*
X131742245Y-83536627D01*
X131758578Y-83517891D01*
X131779818Y-83491431D01*
X131800032Y-83466936D01*
X131839011Y-83423500D01*
X131887821Y-83371951D01*
X131943416Y-83315294D01*
X132002749Y-83256536D01*
X132062774Y-83198680D01*
X132120445Y-83144734D01*
X132172715Y-83097702D01*
X132216537Y-83060589D01*
X132330778Y-82971976D01*
X132545492Y-82824107D01*
X132767218Y-82695037D01*
X132996170Y-82584676D01*
X133232561Y-82492937D01*
X133476606Y-82419731D01*
X133728519Y-82364969D01*
X133988513Y-82328564D01*
X134029372Y-82325030D01*
X134111981Y-82320584D01*
X134206303Y-82318107D01*
X134307126Y-82317557D01*
X134409239Y-82318896D01*
X134507430Y-82322082D01*
X134596488Y-82327075D01*
X134671201Y-82333835D01*
X134853398Y-82359910D01*
X135106200Y-82413014D01*
X135352425Y-82484810D01*
X135591311Y-82574966D01*
X135822097Y-82683151D01*
X136044021Y-82809032D01*
X136256321Y-82952277D01*
X136458237Y-83112556D01*
X136486460Y-83137376D01*
X136551085Y-83197463D01*
X136621452Y-83266432D01*
X136693338Y-83339922D01*
X136762521Y-83413573D01*
X136824779Y-83483023D01*
X136875889Y-83543913D01*
X136933118Y-83617427D01*
X137081190Y-83829234D01*
X137211103Y-84049568D01*
X137322874Y-84278476D01*
X137416524Y-84516003D01*
X137492070Y-84762193D01*
X137549531Y-85017095D01*
X137588926Y-85280751D01*
X137592493Y-85320274D01*
X137596282Y-85388019D01*
X137598861Y-85467838D01*
X137600230Y-85555142D01*
X137600389Y-85645343D01*
X137599338Y-85733853D01*
X137597077Y-85816085D01*
X137593606Y-85887450D01*
X137588926Y-85943360D01*
X137564705Y-86120124D01*
X137513617Y-86377064D01*
X137444726Y-86624785D01*
X137357994Y-86863400D01*
X137253386Y-87093020D01*
X137130863Y-87313755D01*
X137063737Y-87424190D01*
X137062690Y-87554956D01*
X137061125Y-87750475D01*
G36*
X137061125Y-87750475D02*
G01*
X137059958Y-87851588D01*
X137057574Y-87958301D01*
X137053863Y-88051177D01*
X137048545Y-88133627D01*
X137041340Y-88209058D01*
X137031968Y-88280880D01*
X137020151Y-88352500D01*
X137005608Y-88427326D01*
X137005162Y-88429507D01*
X136995979Y-88485250D01*
X136991386Y-88536920D01*
X136991391Y-88580652D01*
X136996001Y-88612577D01*
X137005222Y-88628829D01*
X137006244Y-88628795D01*
X137013167Y-88617459D01*
X137023815Y-88590360D01*
X137037258Y-88550483D01*
X137052569Y-88500813D01*
X137068817Y-88444333D01*
X137085075Y-88384030D01*
X137100415Y-88322886D01*
X137108719Y-88286365D01*
X137125871Y-88199399D01*
X137142819Y-88099534D01*
X137158970Y-87991411D01*
X137173730Y-87879675D01*
X137186506Y-87768968D01*
X137196703Y-87663932D01*
X137203728Y-87569211D01*
X137206987Y-87489447D01*
X137207598Y-87464069D01*
X137209077Y-87448391D01*
X137212152Y-87449161D01*
X137217686Y-87464348D01*
X137219115Y-87469949D01*
X137222887Y-87499367D01*
X137225724Y-87544806D01*
X137227648Y-87603219D01*
X137228680Y-87671562D01*
X137228842Y-87746788D01*
X137228155Y-87825852D01*
X137226640Y-87905708D01*
X137224319Y-87983310D01*
X137221212Y-88055612D01*
X137217342Y-88119569D01*
X137212729Y-88172135D01*
X137191582Y-88340562D01*
X137164481Y-88507038D01*
X137132832Y-88660671D01*
X137102174Y-88779526D01*
X137097118Y-88799128D01*
X137057821Y-88920079D01*
X137056340Y-88924170D01*
X137041153Y-88972945D01*
X137028747Y-89024136D01*
X137021683Y-89067307D01*
X137020866Y-89075236D01*
X137000651Y-89194284D01*
X136967072Y-89301614D01*
X136920803Y-89396088D01*
X136862513Y-89476567D01*
X136793007Y-89541792D01*
X136792877Y-89541914D01*
X136712565Y-89590989D01*
X136706726Y-89593733D01*
X136666692Y-89611201D01*
X136629951Y-89625229D01*
X136603810Y-89632995D01*
X136583990Y-89639252D01*
X136550009Y-89654886D01*
X136515437Y-89675001D01*
X136485547Y-89693782D01*
X136370856Y-89753258D01*
X136244263Y-89801825D01*
X136142863Y-89829346D01*
X136110396Y-89838158D01*
X135973879Y-89860929D01*
X135839338Y-89868815D01*
X135820195Y-89869231D01*
X135793262Y-89873522D01*
X135769573Y-89885286D01*
X135740470Y-89907949D01*
X135702766Y-89938223D01*
X135593845Y-90009740D01*
X135479821Y-90061910D01*
X135360848Y-90094657D01*
X135296677Y-90102792D01*
X135209579Y-90104709D01*
X135120488Y-90098208D01*
X135038157Y-90083591D01*
X134986685Y-90067856D01*
X134920819Y-90041965D01*
X134851022Y-90009842D01*
X134783682Y-89974445D01*
X134725188Y-89938730D01*
X134658818Y-89891404D01*
X134570875Y-89819947D01*
X134482053Y-89737474D01*
X134391221Y-89642726D01*
X134310638Y-89549874D01*
X134774144Y-89549874D01*
X134776264Y-89554852D01*
X134790422Y-89571051D01*
X134814809Y-89596486D01*
X134847620Y-89629172D01*
X134869854Y-89650593D01*
X134932569Y-89706231D01*
X134991586Y-89749932D01*
X135052318Y-89785416D01*
X135120181Y-89816401D01*
X135161665Y-89830911D01*
X135209989Y-89840639D01*
X135268553Y-89844867D01*
X135281323Y-89845200D01*
X135321990Y-89845403D01*
X135354926Y-89844330D01*
X135373968Y-89842139D01*
X135387017Y-89838064D01*
X135400916Y-89829346D01*
X135394898Y-89821379D01*
X135369073Y-89814782D01*
X135341864Y-89809245D01*
X135290165Y-89795389D01*
X135229549Y-89776408D01*
X135165598Y-89754180D01*
X135103893Y-89730581D01*
X135050016Y-89707489D01*
X135046363Y-89705793D01*
X134970045Y-89667015D01*
X134880384Y-89615621D01*
X134776616Y-89551173D01*
X134774144Y-89549874D01*
X134310638Y-89549874D01*
X134297249Y-89534447D01*
X134254776Y-89481241D01*
X135351594Y-89481241D01*
X135358141Y-89486161D01*
X135380515Y-89494909D01*
X135415081Y-89506410D01*
X135458207Y-89519590D01*
X135506259Y-89533374D01*
X135555602Y-89546687D01*
X135602604Y-89558455D01*
X135643630Y-89567603D01*
X135648562Y-89568604D01*
X135699557Y-89578688D01*
X135735100Y-89584512D01*
X135759073Y-89585960D01*
X135775360Y-89582914D01*
X135787842Y-89575256D01*
X135800402Y-89562871D01*
X135802616Y-89560513D01*
X135812001Y-89549751D01*
X135815331Y-89541792D01*
X135810281Y-89535895D01*
X135794523Y-89531320D01*
X135765733Y-89527329D01*
X135721583Y-89523179D01*
X135659747Y-89518133D01*
X135601583Y-89512848D01*
X135539827Y-89506162D01*
X135483364Y-89499056D01*
X135439565Y-89492392D01*
X135424243Y-89489770D01*
X135388269Y-89484240D01*
X135362460Y-89481192D01*
X135351602Y-89481234D01*
X135351594Y-89481241D01*
X134254776Y-89481241D01*
X134204580Y-89418362D01*
X136341468Y-89418362D01*
X136343619Y-89421065D01*
X136353987Y-89423824D01*
X136379067Y-89427561D01*
X136413059Y-89431318D01*
X136478316Y-89437540D01*
X136538553Y-89388741D01*
X136580675Y-89352786D01*
X136681391Y-89250106D01*
X136774145Y-89130070D01*
X136859574Y-88991889D01*
X136872158Y-88968429D01*
X136888683Y-88930917D01*
X136897719Y-88895065D01*
X136902156Y-88851336D01*
X136906536Y-88779526D01*
X136856634Y-88877142D01*
X136791172Y-88993886D01*
X136710237Y-89110746D01*
X136621309Y-89211508D01*
X136522784Y-89297962D01*
X136413059Y-89371897D01*
X136405097Y-89376588D01*
X136372042Y-89396146D01*
X136352524Y-89408137D01*
X136343384Y-89414798D01*
X136341468Y-89418362D01*
X134204580Y-89418362D01*
X134199006Y-89411379D01*
X134095362Y-89272266D01*
X133985187Y-89115850D01*
X133955656Y-89072934D01*
X133947182Y-89060633D01*
X135057723Y-89060633D01*
X135062743Y-89065653D01*
X135067762Y-89060633D01*
X135062743Y-89055613D01*
X135057723Y-89060633D01*
X133947182Y-89060633D01*
X133918229Y-89018602D01*
X133885307Y-88970878D01*
X133858607Y-88932248D01*
X133839845Y-88905197D01*
X133830738Y-88892210D01*
X133814313Y-88880727D01*
X133780261Y-88869648D01*
X133727486Y-88858905D01*
X133703425Y-88854676D01*
X133476721Y-88804505D01*
X133249596Y-88736073D01*
X133025391Y-88650640D01*
X132807444Y-88549464D01*
X132599095Y-88433801D01*
X132538047Y-88395943D01*
X132328761Y-88251259D01*
X132132179Y-88091601D01*
X131949008Y-87917935D01*
X131779955Y-87731224D01*
X131625727Y-87532433D01*
X131487032Y-87322526D01*
X131364577Y-87102470D01*
X131259067Y-86873227D01*
X131171211Y-86635762D01*
X131101716Y-86391041D01*
X131069936Y-86248404D01*
X131045539Y-86110942D01*
X131028336Y-85974830D01*
X131017807Y-85834876D01*
X131013432Y-85685888D01*
X131014691Y-85522675D01*
X131015033Y-85508146D01*
X131019093Y-85390207D01*
X131025490Y-85285962D01*
X131034879Y-85189735D01*
X131047917Y-85095850D01*
X131065261Y-84998631D01*
X131087567Y-84892403D01*
X131114721Y-84770101D01*
X131092593Y-84741970D01*
X131085728Y-84733702D01*
X131064800Y-84709666D01*
X131033597Y-84674518D01*
X130994179Y-84630528D01*
X130948606Y-84579966D01*
X130898938Y-84525101D01*
X130847235Y-84468203D01*
X130795556Y-84411541D01*
X130745963Y-84357385D01*
X130700514Y-84308004D01*
X130661271Y-84265668D01*
X130630292Y-84232646D01*
X130592991Y-84194764D01*
X130542933Y-84146865D01*
X130488452Y-84097107D01*
X130433251Y-84048724D01*
X130381028Y-84004953D01*
X130335485Y-83969027D01*
X130300321Y-83944182D01*
X130298343Y-83942938D01*
X130253935Y-83921695D01*
X130209176Y-83915057D01*
X130192427Y-83914836D01*
X130174811Y-83913267D01*
X130172816Y-83908683D01*
X130183533Y-83899296D01*
X130187441Y-83896601D01*
X130219910Y-83888137D01*
X130265216Y-83894626D01*
X130323011Y-83915945D01*
X130392948Y-83951970D01*
X130474679Y-84002577D01*
X130479249Y-84005609D01*
X130540913Y-84048437D01*
X130607500Y-84098275D01*
X130680504Y-84156370D01*
X130761421Y-84223970D01*
X130851747Y-84302322D01*
X130952978Y-84392673D01*
X131066609Y-84496271D01*
X131073050Y-84502192D01*
X131111365Y-84537111D01*
X131137935Y-84560177D01*
X131155343Y-84573001D01*
X131166169Y-84577199D01*
X131172993Y-84574384D01*
X131178396Y-84566170D01*
X131184160Y-84556376D01*
X131190776Y-84552914D01*
X131199178Y-84562914D01*
X131212879Y-84588666D01*
X131219691Y-84601840D01*
X131236959Y-84633895D01*
X131250996Y-84658301D01*
X131251549Y-84659214D01*
X131253652Y-84666645D01*
X131242806Y-84659726D01*
X131219636Y-84638848D01*
X131196275Y-84617674D01*
X131177437Y-84602755D01*
X131168671Y-84598690D01*
X131167206Y-84601231D01*
X131160608Y-84618911D01*
X131151365Y-84647871D01*
X131141190Y-84682213D01*
X131131799Y-84716033D01*
X131124907Y-84743432D01*
X131122229Y-84758508D01*
X131123808Y-84762651D01*
X131135674Y-84780870D01*
X131157261Y-84809815D01*
X131186300Y-84846501D01*
X131220523Y-84887940D01*
X131227472Y-84896201D01*
X131269504Y-84946473D01*
X131312619Y-84998481D01*
X131352124Y-85046543D01*
X131383326Y-85084981D01*
X131396291Y-85101046D01*
X131427438Y-85139355D01*
X131467073Y-85187860D01*
X131512454Y-85243214D01*
X131560836Y-85302066D01*
X131609477Y-85361068D01*
X131644720Y-85403981D01*
X131694143Y-85465488D01*
X131734979Y-85518706D01*
X131770185Y-85567826D01*
X131802721Y-85617042D01*
X131835546Y-85670546D01*
X131871617Y-85732530D01*
X131931731Y-85836732D01*
X132061096Y-86054452D01*
X132188918Y-86260061D01*
X132318315Y-86458387D01*
X132452403Y-86654263D01*
X132594299Y-86852519D01*
X132660562Y-86944778D01*
X132718552Y-87029318D01*
X132770314Y-87109585D01*
X132819378Y-87191052D01*
X132869271Y-87279199D01*
X132873337Y-87286546D01*
X132913975Y-87358161D01*
X132958798Y-87434417D01*
X133004418Y-87509712D01*
X133047447Y-87578446D01*
X133084498Y-87635020D01*
X133109262Y-87672618D01*
X133148212Y-87734374D01*
X133191979Y-87806062D01*
X133237914Y-87883270D01*
X133283366Y-87961587D01*
X133325687Y-88036601D01*
X133352357Y-88084401D01*
X133401514Y-88171208D01*
X133452660Y-88260069D01*
X133504710Y-88349210D01*
X133556584Y-88436857D01*
X133607198Y-88521236D01*
X133655469Y-88600575D01*
X133700315Y-88673098D01*
X133740653Y-88737034D01*
X133775400Y-88790607D01*
X133803475Y-88832044D01*
X133823793Y-88859573D01*
X133835273Y-88871418D01*
X133853226Y-88877951D01*
X133894661Y-88886359D01*
X133951521Y-88893310D01*
X134021066Y-88898782D01*
X134100554Y-88902757D01*
X134187244Y-88905214D01*
X134278396Y-88906133D01*
X134371267Y-88905494D01*
X134463118Y-88903277D01*
X134551206Y-88899462D01*
X134632792Y-88894029D01*
X134705134Y-88886957D01*
X134765491Y-88878227D01*
X134765849Y-88878163D01*
X134820206Y-88878163D01*
X134823142Y-88883107D01*
X134838852Y-88898167D01*
X134865157Y-88920481D01*
X134898967Y-88947337D01*
X134925893Y-88968046D01*
X134978989Y-89008106D01*
X135017069Y-89035534D01*
X135040009Y-89050243D01*
X135047683Y-89052145D01*
X135047533Y-89051647D01*
X135038178Y-89042068D01*
X135016768Y-89023885D01*
X134986764Y-88999746D01*
X134951630Y-88972300D01*
X134914829Y-88944196D01*
X134879823Y-88918082D01*
X134850076Y-88896606D01*
X134829049Y-88882416D01*
X134820206Y-88878163D01*
X134765849Y-88878163D01*
X134799543Y-88872133D01*
X134641083Y-88722677D01*
X134719384Y-88785490D01*
X134741335Y-88803264D01*
X134771508Y-88828312D01*
X134793211Y-88847119D01*
X134802803Y-88856583D01*
X134805227Y-88859219D01*
X134821594Y-88863973D01*
X134852416Y-88863207D01*
X134899275Y-88856804D01*
X134963752Y-88844646D01*
X134978993Y-88841415D01*
X135018444Y-88832446D01*
X135065768Y-88821137D01*
X135117049Y-88808484D01*
X135168373Y-88795487D01*
X135215823Y-88783143D01*
X135255486Y-88772450D01*
X135283444Y-88764406D01*
X135295784Y-88760010D01*
X135295116Y-88759191D01*
X135310707Y-88759191D01*
X135311855Y-88761794D01*
X135324556Y-88775558D01*
X135349116Y-88799151D01*
X135383237Y-88830537D01*
X135424621Y-88867681D01*
X135470967Y-88908547D01*
X135519978Y-88951099D01*
X135569355Y-88993302D01*
X135616799Y-89033119D01*
X135640026Y-89052145D01*
X135650388Y-89060633D01*
X135660011Y-89068516D01*
X135674852Y-89080393D01*
X135728065Y-89121858D01*
X135782844Y-89163100D01*
X135833526Y-89199906D01*
X135874449Y-89228063D01*
X135902331Y-89245636D01*
X135939425Y-89266741D01*
X135969407Y-89281174D01*
X135987603Y-89286522D01*
X135992953Y-89286074D01*
X136004290Y-89281604D01*
X136017092Y-89270788D01*
X136032687Y-89251731D01*
X136052403Y-89222534D01*
X136077567Y-89181301D01*
X136109507Y-89126135D01*
X136149550Y-89055140D01*
X136154001Y-89047181D01*
X136195203Y-88972459D01*
X136231904Y-88903454D01*
X136265743Y-88836659D01*
X136298357Y-88768567D01*
X136331384Y-88695671D01*
X136366460Y-88614463D01*
X136405224Y-88521436D01*
X136449312Y-88413083D01*
X136470341Y-88361301D01*
X136498121Y-88293941D01*
X136522804Y-88235311D01*
X136543526Y-88187399D01*
X136559424Y-88152189D01*
X136569634Y-88131668D01*
X136573295Y-88127821D01*
X136572882Y-88133544D01*
X136568331Y-88159370D01*
X136559415Y-88200002D01*
X136546945Y-88252286D01*
X136531734Y-88313066D01*
X136514594Y-88379185D01*
X136496338Y-88447489D01*
X136477778Y-88514822D01*
X136459726Y-88578029D01*
X136442995Y-88633953D01*
X136433320Y-88664465D01*
X136406994Y-88742268D01*
X136375641Y-88829672D01*
X136341441Y-88920917D01*
X136306578Y-89010243D01*
X136273235Y-89091892D01*
X136243595Y-89160103D01*
X136240540Y-89166890D01*
X136226792Y-89199359D01*
X136218111Y-89223188D01*
X136216263Y-89233626D01*
X136216507Y-89233821D01*
X136228945Y-89232054D01*
X136254397Y-89222183D01*
X136288856Y-89206235D01*
X136328310Y-89186237D01*
X136368751Y-89164218D01*
X136406169Y-89142204D01*
X136436554Y-89122224D01*
X136444906Y-89116117D01*
X136505187Y-89065937D01*
X136567419Y-89005028D01*
X136625517Y-88939710D01*
X136673391Y-88876304D01*
X136692223Y-88846572D01*
X136725955Y-88786649D01*
X136761624Y-88716616D01*
X136796570Y-88642006D01*
X136828137Y-88568352D01*
X136853665Y-88501183D01*
X136884173Y-88413591D01*
X136864628Y-88293791D01*
X136858196Y-88255785D01*
X136845695Y-88186433D01*
X136832042Y-88114810D01*
X136819223Y-88051514D01*
X136818283Y-88047042D01*
X136808949Y-88000672D01*
X136801951Y-87962247D01*
X136797952Y-87935656D01*
X136797614Y-87924786D01*
X136799481Y-87924805D01*
X136807930Y-87937443D01*
X136821059Y-87966646D01*
X136838105Y-88010489D01*
X136858303Y-88067050D01*
X136880890Y-88134405D01*
X136882724Y-88139990D01*
X136897636Y-88182660D01*
X136910743Y-88215633D01*
X136920685Y-88235742D01*
X136926106Y-88239820D01*
X136929971Y-88228086D01*
X136936659Y-88198616D01*
X136944809Y-88156349D01*
X136953763Y-88105228D01*
X136962862Y-88049193D01*
X136971446Y-87992187D01*
X136978856Y-87938152D01*
X136984433Y-87891028D01*
X136987198Y-87862755D01*
X136991552Y-87810784D01*
X136995577Y-87754434D01*
X136999100Y-87697191D01*
X137001944Y-87642540D01*
X137003935Y-87593967D01*
X137004900Y-87554956D01*
X137004662Y-87528994D01*
X137003048Y-87519566D01*
X136999564Y-87522361D01*
X136985950Y-87537929D01*
X136965041Y-87564100D01*
X136939690Y-87597372D01*
X136848021Y-87714090D01*
X136683175Y-87898509D01*
X136503442Y-88070735D01*
X136310178Y-88229764D01*
X136104738Y-88374596D01*
X135888478Y-88504228D01*
X135662754Y-88617659D01*
X135428921Y-88713885D01*
X135426663Y-88714716D01*
X135382470Y-88731119D01*
X135345918Y-88744955D01*
X135320749Y-88754791D01*
X135310707Y-88759191D01*
X135295116Y-88759191D01*
X135291689Y-88754992D01*
X135275379Y-88737390D01*
X135248376Y-88708984D01*
X135212532Y-88671708D01*
X135169697Y-88627495D01*
X135121723Y-88578276D01*
X135107539Y-88563743D01*
X135020854Y-88474074D01*
X134928131Y-88376865D01*
X134831380Y-88274303D01*
X134732610Y-88168576D01*
X134633830Y-88061873D01*
X134537048Y-87956383D01*
X134444275Y-87854292D01*
X134357518Y-87757789D01*
X134278788Y-87669063D01*
X134210094Y-87590302D01*
X134153443Y-87523693D01*
X134132614Y-87500031D01*
X134096829Y-87461572D01*
X134050077Y-87412777D01*
X133994234Y-87355553D01*
X133931174Y-87291806D01*
X133862772Y-87223443D01*
X133790905Y-87152369D01*
X133717446Y-87080491D01*
X133676720Y-87040913D01*
X133589513Y-86956440D01*
X133514490Y-86883842D01*
X133450326Y-86821396D01*
X133395695Y-86767378D01*
X133349270Y-86720065D01*
X133309726Y-86677733D01*
X133275737Y-86638659D01*
X133245978Y-86601118D01*
X133219121Y-86563388D01*
X133193842Y-86523744D01*
X133168815Y-86480462D01*
X133142713Y-86431820D01*
X133114210Y-86376093D01*
X133081982Y-86311559D01*
X133044701Y-86236492D01*
X133001042Y-86149170D01*
X132968830Y-86085030D01*
X132912239Y-85971899D01*
X132853727Y-85854344D01*
X132792684Y-85731120D01*
X132728500Y-85600980D01*
X132660566Y-85462678D01*
X132588273Y-85314968D01*
X132511010Y-85156603D01*
X132428169Y-84986337D01*
X132339140Y-84802925D01*
X132243313Y-84605119D01*
X132140079Y-84391675D01*
X132028828Y-84161344D01*
X132009505Y-84121332D01*
X131961083Y-84021233D01*
X131915401Y-83927029D01*
X131873204Y-83840243D01*
X131835239Y-83762401D01*
X131802251Y-83695028D01*
X131774987Y-83639649D01*
X131754192Y-83597788D01*
X131740612Y-83570970D01*
X131734994Y-83560721D01*
X131730943Y-83561255D01*
X131716702Y-83573500D01*
X131695678Y-83597301D01*
X131670780Y-83629539D01*
X131614468Y-83706648D01*
X131603631Y-83677988D01*
X131597780Y-83662545D01*
X131568377Y-83585572D01*
X131534109Y-83496706D01*
X131496314Y-83399352D01*
X131456330Y-83296915D01*
X131415494Y-83192801D01*
X131375145Y-83090415D01*
X131336621Y-82993161D01*
X131301260Y-82904444D01*
X131270400Y-82827670D01*
X131245378Y-82766244D01*
X131215957Y-82695105D01*
X131182909Y-82616489D01*
X131155132Y-82552406D01*
X131131497Y-82500477D01*
X131110875Y-82458325D01*
X131092139Y-82423573D01*
X131074160Y-82393842D01*
X131055810Y-82366756D01*
X131046000Y-82352867D01*
X131028903Y-82327126D01*
X131023646Y-82315025D01*
X131029898Y-82314953D01*
X131047332Y-82325296D01*
X131057414Y-82333578D01*
X131083031Y-82362872D01*
X131116209Y-82408795D01*
X131156346Y-82470308D01*
X131202843Y-82546372D01*
X131255099Y-82635948D01*
X131312513Y-82737997D01*
X131374486Y-82851480D01*
X131440417Y-82975358D01*
X131509706Y-83108593D01*
X131581752Y-83250146D01*
X131604989Y-83296147D01*
X131639003Y-83363006D01*
X131669516Y-83422406D01*
X131695430Y-83472244D01*
X131715652Y-83510423D01*
X131729087Y-83534841D01*
X131734640Y-83543399D01*
X131742245Y-83536627D01*
X131758578Y-83517891D01*
X131779818Y-83491431D01*
X131800032Y-83466936D01*
X131839011Y-83423500D01*
X131887821Y-83371951D01*
X131943416Y-83315294D01*
X132002749Y-83256536D01*
X132062774Y-83198680D01*
X132120445Y-83144734D01*
X132172715Y-83097702D01*
X132216537Y-83060589D01*
X132330778Y-82971976D01*
X132545492Y-82824107D01*
X132767218Y-82695037D01*
X132996170Y-82584676D01*
X133232561Y-82492937D01*
X133476606Y-82419731D01*
X133728519Y-82364969D01*
X133988513Y-82328564D01*
X134029372Y-82325030D01*
X134111981Y-82320584D01*
X134206303Y-82318107D01*
X134307126Y-82317557D01*
X134409239Y-82318896D01*
X134507430Y-82322082D01*
X134596488Y-82327075D01*
X134671201Y-82333835D01*
X134853398Y-82359910D01*
X135106200Y-82413014D01*
X135352425Y-82484810D01*
X135591311Y-82574966D01*
X135822097Y-82683151D01*
X136044021Y-82809032D01*
X136256321Y-82952277D01*
X136458237Y-83112556D01*
X136486460Y-83137376D01*
X136551085Y-83197463D01*
X136621452Y-83266432D01*
X136693338Y-83339922D01*
X136762521Y-83413573D01*
X136824779Y-83483023D01*
X136875889Y-83543913D01*
X136933118Y-83617427D01*
X137081190Y-83829234D01*
X137211103Y-84049568D01*
X137322874Y-84278476D01*
X137416524Y-84516003D01*
X137492070Y-84762193D01*
X137549531Y-85017095D01*
X137588926Y-85280751D01*
X137592493Y-85320274D01*
X137596282Y-85388019D01*
X137598861Y-85467838D01*
X137600230Y-85555142D01*
X137600389Y-85645343D01*
X137599338Y-85733853D01*
X137597077Y-85816085D01*
X137593606Y-85887450D01*
X137588926Y-85943360D01*
X137564705Y-86120124D01*
X137513617Y-86377064D01*
X137444726Y-86624785D01*
X137357994Y-86863400D01*
X137253386Y-87093020D01*
X137130863Y-87313755D01*
X137063737Y-87424190D01*
X137062690Y-87554956D01*
X137061125Y-87750475D01*
G37*
D11*
G36*
X119401101Y-86304874D02*
G01*
X119387913Y-86318062D01*
X119374726Y-86304874D01*
X119387913Y-86291686D01*
X119401101Y-86304874D01*
G37*
G36*
X123462991Y-85830108D02*
G01*
X123449803Y-85843296D01*
X123436615Y-85830108D01*
X123449803Y-85816920D01*
X123462991Y-85830108D01*
G37*
G36*
X120684567Y-88639013D02*
G01*
X120746426Y-88668773D01*
X120774487Y-88685415D01*
X120821854Y-88723747D01*
X120820416Y-88747726D01*
X120813800Y-88750242D01*
X120768503Y-88741803D01*
X120711052Y-88711464D01*
X120661718Y-88671867D01*
X120640769Y-88635658D01*
X120646534Y-88630359D01*
X120684567Y-88639013D01*
G37*
G36*
X123643951Y-88687349D02*
G01*
X123745328Y-88723333D01*
X123874776Y-88785655D01*
X124039524Y-88876750D01*
X124144832Y-88937841D01*
X124230829Y-88990785D01*
X124286770Y-89032125D01*
X124321195Y-89069494D01*
X124342644Y-89110523D01*
X124359658Y-89162844D01*
X124370256Y-89200493D01*
X124390200Y-89279586D01*
X124400396Y-89332514D01*
X124402290Y-89345009D01*
X124414920Y-89391054D01*
X124440928Y-89461628D01*
X124483305Y-89564481D01*
X124545043Y-89707366D01*
X124560119Y-89743697D01*
X124598083Y-89846097D01*
X124631710Y-89949271D01*
X124647563Y-89999944D01*
X124677103Y-90083643D01*
X124701348Y-90140119D01*
X124712466Y-90165099D01*
X124739634Y-90252659D01*
X124767827Y-90374436D01*
X124793964Y-90517865D01*
X124793667Y-90569471D01*
X124765391Y-90629963D01*
X124735089Y-90652359D01*
X124679156Y-90670087D01*
X124666924Y-90668366D01*
X124618523Y-90642099D01*
X124569946Y-90596500D01*
X124536028Y-90547542D01*
X124531605Y-90511201D01*
X124534330Y-90497028D01*
X124527118Y-90441777D01*
X124506067Y-90366376D01*
X124493887Y-90328733D01*
X124473381Y-90254510D01*
X124465276Y-90207587D01*
X124466056Y-90194985D01*
X124483448Y-90170245D01*
X124517145Y-90186800D01*
X124558428Y-90241478D01*
X124564870Y-90252312D01*
X124583937Y-90278015D01*
X124582255Y-90261260D01*
X124570208Y-90222850D01*
X124551125Y-90149163D01*
X124537950Y-90112099D01*
X124514953Y-90089817D01*
X124502340Y-90082171D01*
X124491652Y-90042106D01*
X124483802Y-90003016D01*
X124452927Y-89943197D01*
X124429344Y-89903178D01*
X124413363Y-89847724D01*
X124407764Y-89819868D01*
X124376176Y-89767102D01*
X124374184Y-89765006D01*
X124343695Y-89712462D01*
X124320054Y-89639932D01*
X124319681Y-89638238D01*
X124294917Y-89559415D01*
X124263433Y-89496359D01*
X124259915Y-89491069D01*
X124227716Y-89425767D01*
X124200191Y-89345979D01*
X124174612Y-89285857D01*
X124106377Y-89187953D01*
X124012357Y-89088136D01*
X123905138Y-88999270D01*
X123797306Y-88934216D01*
X123735250Y-88906575D01*
X123657926Y-88880893D01*
X123622562Y-88885831D01*
X123628229Y-88921804D01*
X123673999Y-88989226D01*
X123675216Y-88990781D01*
X123711655Y-89045782D01*
X123726750Y-89085099D01*
X123727818Y-89093479D01*
X123751349Y-89113908D01*
X123771017Y-89127245D01*
X123794530Y-89173254D01*
X123796011Y-89177454D01*
X123824815Y-89230302D01*
X123876520Y-89306430D01*
X123941036Y-89390855D01*
X123983198Y-89442997D01*
X124085736Y-89569435D01*
X124161581Y-89661876D01*
X124215467Y-89725623D01*
X124252126Y-89765975D01*
X124276293Y-89788235D01*
X124292701Y-89797704D01*
X124306083Y-89799682D01*
X124331950Y-89817548D01*
X124348010Y-89865291D01*
X124342935Y-89918374D01*
X124337698Y-89928868D01*
X124291759Y-89955762D01*
X124213838Y-89948411D01*
X124109002Y-89908618D01*
X123982316Y-89838187D01*
X123838848Y-89738922D01*
X123821517Y-89728958D01*
X123805878Y-89738376D01*
X123805933Y-89739165D01*
X123821668Y-89773101D01*
X123860782Y-89839433D01*
X123916609Y-89928086D01*
X123982479Y-90028986D01*
X124051727Y-90132060D01*
X124117683Y-90227232D01*
X124173681Y-90304429D01*
X124213052Y-90353576D01*
X124214306Y-90354963D01*
X124260076Y-90413064D01*
X124287334Y-90460973D01*
X124288793Y-90488150D01*
X124260421Y-90528156D01*
X124209079Y-90549471D01*
X124153647Y-90540820D01*
X124149756Y-90538611D01*
X124095099Y-90494459D01*
X124020229Y-90418514D01*
X123934344Y-90321154D01*
X123846641Y-90212758D01*
X123766314Y-90103706D01*
X123721931Y-90041709D01*
X123639749Y-89936190D01*
X123564767Y-89850991D01*
X123504216Y-89794050D01*
X123465328Y-89773306D01*
X123453837Y-89783835D01*
X123464245Y-89831278D01*
X123504559Y-89918287D01*
X123575389Y-90046373D01*
X123598760Y-90090170D01*
X123629864Y-90169881D01*
X123634002Y-90223061D01*
X123602363Y-90266016D01*
X123534175Y-90298712D01*
X123451735Y-90303431D01*
X123387827Y-90283202D01*
X123281851Y-90229972D01*
X123145785Y-90147611D01*
X122984681Y-90039202D01*
X122803594Y-89907830D01*
X122771176Y-89883677D01*
X122664751Y-89805770D01*
X122564006Y-89733799D01*
X122487083Y-89680780D01*
X122440530Y-89648721D01*
X122384880Y-89606576D01*
X122359498Y-89581778D01*
X122317405Y-89538727D01*
X122248291Y-89527484D01*
X122170072Y-89553602D01*
X122161960Y-89558503D01*
X122111900Y-89594771D01*
X122091444Y-89620737D01*
X122081141Y-89635343D01*
X122034261Y-89643791D01*
X121963193Y-89638417D01*
X121883149Y-89621766D01*
X121809340Y-89596380D01*
X121756978Y-89564804D01*
X121755945Y-89563855D01*
X121709940Y-89525060D01*
X121637423Y-89467363D01*
X121553617Y-89402887D01*
X121518214Y-89376096D01*
X121409925Y-89293907D01*
X121333732Y-89235469D01*
X121281663Y-89194544D01*
X121245748Y-89164895D01*
X121218014Y-89140284D01*
X121216117Y-89138551D01*
X121163646Y-89094040D01*
X121099093Y-89043078D01*
X121073741Y-89023055D01*
X120999464Y-88959924D01*
X120924249Y-88891417D01*
X120916422Y-88883944D01*
X120866056Y-88831545D01*
X120853111Y-88804855D01*
X120874134Y-88797397D01*
X120889209Y-88800017D01*
X120949180Y-88826576D01*
X121029577Y-88874551D01*
X121116153Y-88934986D01*
X121194663Y-88998924D01*
X121262093Y-89055615D01*
X121379742Y-89145272D01*
X121515791Y-89241095D01*
X121566145Y-89275917D01*
X121633759Y-89324899D01*
X121675160Y-89357792D01*
X121769870Y-89430582D01*
X121867489Y-89478098D01*
X121953050Y-89493020D01*
X122017972Y-89473949D01*
X122053671Y-89419486D01*
X122054276Y-89417144D01*
X122096153Y-89345317D01*
X122166230Y-89313101D01*
X122252565Y-89326103D01*
X122254574Y-89326943D01*
X122307085Y-89355696D01*
X122328827Y-89380867D01*
X122330478Y-89388367D01*
X122359361Y-89404043D01*
X122389433Y-89415937D01*
X122449743Y-89452594D01*
X122524210Y-89505385D01*
X122600177Y-89562244D01*
X122722471Y-89652140D01*
X122841685Y-89738042D01*
X122949977Y-89814444D01*
X123039504Y-89875837D01*
X123102426Y-89916712D01*
X123130901Y-89931562D01*
X123148189Y-89938226D01*
X123199687Y-89967881D01*
X123268867Y-90013232D01*
X123317975Y-90045346D01*
X123372996Y-90076164D01*
X123399049Y-90083423D01*
X123390737Y-90063869D01*
X123354613Y-90020183D01*
X123302059Y-89965035D01*
X123245259Y-89910587D01*
X123196395Y-89868999D01*
X123167651Y-89852434D01*
X123158218Y-89848372D01*
X123146480Y-89813897D01*
X123133591Y-89776610D01*
X123094252Y-89726703D01*
X123069975Y-89702186D01*
X123056991Y-89667392D01*
X123081177Y-89622146D01*
X123097349Y-89602344D01*
X123133364Y-89579903D01*
X123191850Y-89570011D01*
X123287838Y-89568787D01*
X123363407Y-89567645D01*
X123464304Y-89552806D01*
X123544890Y-89518408D01*
X123551861Y-89514356D01*
X123639211Y-89480288D01*
X123731927Y-89483136D01*
X123742797Y-89485082D01*
X123798815Y-89492225D01*
X123815280Y-89482437D01*
X123802735Y-89450923D01*
X123781329Y-89420575D01*
X123738213Y-89386544D01*
X123721219Y-89377781D01*
X123700375Y-89351120D01*
X123690336Y-89326674D01*
X123657475Y-89269628D01*
X123609677Y-89195441D01*
X123570830Y-89134177D01*
X123519409Y-89042297D01*
X123485687Y-88968595D01*
X123480019Y-88953465D01*
X123455320Y-88898662D01*
X123437911Y-88876473D01*
X123437614Y-88876455D01*
X123425898Y-88852363D01*
X123417815Y-88796319D01*
X123416976Y-88770424D01*
X123431909Y-88719905D01*
X123483251Y-88689205D01*
X123496498Y-88684643D01*
X123563417Y-88675265D01*
X123643951Y-88687349D01*
G37*
G36*
X123887993Y-86151932D02*
G01*
X123949512Y-86248187D01*
X124009859Y-86357477D01*
X124020468Y-86377840D01*
X124072416Y-86471852D01*
X124137871Y-86584559D01*
X124176119Y-86647761D01*
X124205227Y-86695859D01*
X124234477Y-86743576D01*
X124285244Y-86829510D01*
X124320311Y-86893228D01*
X124333396Y-86923567D01*
X124340553Y-86941345D01*
X124374484Y-86978724D01*
X124377828Y-86981679D01*
X124416485Y-87032231D01*
X124452806Y-87101939D01*
X124458315Y-87114316D01*
X124496191Y-87186653D01*
X124551399Y-87281259D01*
X124614031Y-87380985D01*
X124626587Y-87400243D01*
X124694186Y-87504629D01*
X124757264Y-87603040D01*
X124803595Y-87676421D01*
X124819863Y-87702464D01*
X124871313Y-87783518D01*
X124913224Y-87847865D01*
X124916167Y-87852318D01*
X124953186Y-87911626D01*
X125004788Y-87997784D01*
X125060759Y-88093764D01*
X125063700Y-88098877D01*
X125124544Y-88204420D01*
X125168740Y-88279979D01*
X125205459Y-88340746D01*
X125243875Y-88401915D01*
X125293160Y-88478676D01*
X125328346Y-88538677D01*
X125351138Y-88597380D01*
X125376271Y-88662112D01*
X125382453Y-88767433D01*
X125347159Y-88849589D01*
X125270657Y-88903530D01*
X125266678Y-88905024D01*
X125177849Y-88911904D01*
X125063524Y-88877564D01*
X124923071Y-88801561D01*
X124755861Y-88683453D01*
X124561262Y-88522795D01*
X124338643Y-88319145D01*
X124087373Y-88072060D01*
X124076595Y-88061177D01*
X123986983Y-87973397D01*
X123929205Y-87923116D01*
X123900639Y-87908320D01*
X123898663Y-87926992D01*
X123915543Y-87973229D01*
X123934719Y-88006237D01*
X123935399Y-88006864D01*
X123956355Y-88038128D01*
X123993357Y-88102313D01*
X124038857Y-88186360D01*
X124060201Y-88227104D01*
X124095302Y-88298885D01*
X124108446Y-88341737D01*
X124102022Y-88367950D01*
X124078420Y-88389817D01*
X124072262Y-88394370D01*
X124016049Y-88421677D01*
X123959428Y-88415940D01*
X123892649Y-88373632D01*
X123805963Y-88291225D01*
X123795330Y-88280282D01*
X123733804Y-88220813D01*
X123690420Y-88185437D01*
X123673999Y-88181487D01*
X123655741Y-88208350D01*
X123606552Y-88239391D01*
X123553133Y-88255508D01*
X123500785Y-88246450D01*
X123440316Y-88205745D01*
X123359990Y-88128094D01*
X123270177Y-88034730D01*
X123197663Y-88086365D01*
X123184240Y-88095390D01*
X123075934Y-88134321D01*
X122954808Y-88122144D01*
X122821029Y-88058872D01*
X122768465Y-88026205D01*
X122711396Y-87992722D01*
X122684501Y-87979744D01*
X122683535Y-87980062D01*
X122680014Y-88007434D01*
X122685582Y-88065466D01*
X122686748Y-88073294D01*
X122699512Y-88162529D01*
X122712344Y-88256691D01*
X122715019Y-88276098D01*
X122727042Y-88348984D01*
X122737655Y-88394976D01*
X122730982Y-88434908D01*
X122689504Y-88481405D01*
X122627712Y-88518492D01*
X122561520Y-88533638D01*
X122543606Y-88532879D01*
X122437866Y-88510021D01*
X122307284Y-88460119D01*
X122164045Y-88389636D01*
X122020338Y-88305032D01*
X121888346Y-88212773D01*
X121780258Y-88119319D01*
X121752983Y-88093201D01*
X121700868Y-88049688D01*
X121669471Y-88032496D01*
X121657605Y-88029456D01*
X121624582Y-87999370D01*
X121600797Y-87972273D01*
X121545993Y-87924767D01*
X121480186Y-87875596D01*
X121420123Y-87837067D01*
X121382550Y-87821489D01*
X121359926Y-87812232D01*
X121321444Y-87774518D01*
X121307075Y-87758541D01*
X121254880Y-87711622D01*
X121179120Y-87649816D01*
X121090519Y-87581179D01*
X120999804Y-87513769D01*
X120917699Y-87455643D01*
X120854930Y-87414859D01*
X120822221Y-87399474D01*
X120815045Y-87398564D01*
X120808582Y-87378973D01*
X120802557Y-87366646D01*
X120761901Y-87329693D01*
X120691263Y-87276536D01*
X120599458Y-87214123D01*
X120543886Y-87177600D01*
X120443103Y-87109639D01*
X120358731Y-87050626D01*
X120304803Y-87010271D01*
X120300395Y-87006711D01*
X120237449Y-86962444D01*
X120185785Y-86935960D01*
X120161126Y-86924521D01*
X120139627Y-86898489D01*
X120137188Y-86889413D01*
X120106031Y-86867296D01*
X120083372Y-86856809D01*
X120022426Y-86822119D01*
X119936268Y-86769670D01*
X119835678Y-86705897D01*
X119758702Y-86656721D01*
X119630259Y-86575827D01*
X119576438Y-86542257D01*
X119691236Y-86542257D01*
X119704424Y-86555445D01*
X119717612Y-86542257D01*
X119704424Y-86529069D01*
X119691236Y-86542257D01*
X119576438Y-86542257D01*
X119479696Y-86481916D01*
X119319890Y-86383013D01*
X119163718Y-86287142D01*
X119098316Y-86247197D01*
X118958921Y-86162039D01*
X118856877Y-86099327D01*
X118786734Y-86055311D01*
X118743040Y-86026240D01*
X118720343Y-86008361D01*
X118713191Y-85997923D01*
X118716134Y-85991176D01*
X118723720Y-85984367D01*
X118724282Y-85983910D01*
X118755482Y-85989541D01*
X118817292Y-86018015D01*
X118896941Y-86063495D01*
X118899870Y-86065301D01*
X118979733Y-86112979D01*
X119041246Y-86146893D01*
X119071306Y-86159807D01*
X119073981Y-86160182D01*
X119110533Y-86178024D01*
X119166241Y-86214354D01*
X119178733Y-86222983D01*
X119224382Y-86248770D01*
X119242846Y-86248984D01*
X119244263Y-86246367D01*
X119269193Y-86257806D01*
X119315380Y-86295554D01*
X119347193Y-86323003D01*
X119428554Y-86382218D01*
X119509831Y-86429544D01*
X119577543Y-86457689D01*
X119618209Y-86459359D01*
X119630913Y-86454035D01*
X119627815Y-86472242D01*
X119623098Y-86488099D01*
X119647689Y-86502693D01*
X119692578Y-86514969D01*
X119752994Y-86542257D01*
X119773441Y-86551492D01*
X119878663Y-86606799D01*
X119998258Y-86675371D01*
X120122237Y-86751691D01*
X120240613Y-86830242D01*
X120259455Y-86843288D01*
X120371240Y-86920077D01*
X120483092Y-86996086D01*
X120573364Y-87056587D01*
X120660302Y-87115286D01*
X120772561Y-87192976D01*
X120877990Y-87267595D01*
X120890173Y-87276342D01*
X120974179Y-87336279D01*
X121043313Y-87384998D01*
X121083630Y-87412662D01*
X121112793Y-87433468D01*
X121167841Y-87478602D01*
X121227360Y-87529338D01*
X121318093Y-87600991D01*
X121409964Y-87669132D01*
X121482520Y-87718189D01*
X121518661Y-87742865D01*
X121591332Y-87796687D01*
X121684058Y-87868031D01*
X121785309Y-87948141D01*
X121859636Y-88006520D01*
X122028006Y-88129273D01*
X122183397Y-88229645D01*
X122320640Y-88304966D01*
X122434567Y-88352572D01*
X122520010Y-88369795D01*
X122571801Y-88353967D01*
X122576106Y-88345862D01*
X122576340Y-88306115D01*
X122562177Y-88233628D01*
X122532542Y-88124254D01*
X122486361Y-87973846D01*
X122422558Y-87778258D01*
X122405690Y-87692108D01*
X122420631Y-87630956D01*
X122463912Y-87608341D01*
X122528517Y-87627542D01*
X122607434Y-87691838D01*
X122654226Y-87738113D01*
X122750058Y-87819847D01*
X122846462Y-87888394D01*
X122931131Y-87935403D01*
X122991759Y-87952530D01*
X123028441Y-87951103D01*
X123037086Y-87940779D01*
X123001413Y-87909939D01*
X122969613Y-87876172D01*
X122981631Y-87855828D01*
X122999584Y-87840891D01*
X123014601Y-87792915D01*
X123020858Y-87767624D01*
X123059808Y-87742820D01*
X123123803Y-87744640D01*
X123200452Y-87771687D01*
X123277364Y-87822561D01*
X123314258Y-87853133D01*
X123371426Y-87892091D01*
X123401498Y-87894555D01*
X123410240Y-87862248D01*
X123412430Y-87853632D01*
X123417506Y-87849582D01*
X123654090Y-87849582D01*
X123660811Y-87874241D01*
X123666230Y-87882048D01*
X123690300Y-87900617D01*
X123693908Y-87898899D01*
X123687187Y-87874241D01*
X123681768Y-87866433D01*
X123657697Y-87847865D01*
X123654090Y-87849582D01*
X123417506Y-87849582D01*
X123446842Y-87826176D01*
X123506910Y-87805741D01*
X123571696Y-87797766D01*
X123620261Y-87807691D01*
X123623047Y-87802665D01*
X123609294Y-87764618D01*
X123580039Y-87701034D01*
X123541399Y-87623985D01*
X123499490Y-87545545D01*
X123460428Y-87477785D01*
X123430330Y-87432780D01*
X123419386Y-87416179D01*
X123414907Y-87366936D01*
X123451992Y-87333300D01*
X123522118Y-87325256D01*
X123567760Y-87333777D01*
X123614794Y-87365483D01*
X123654908Y-87433552D01*
X123665830Y-87455261D01*
X123705629Y-87516566D01*
X123740667Y-87548471D01*
X123758258Y-87559232D01*
X123779502Y-87600116D01*
X123783126Y-87615962D01*
X123816334Y-87636857D01*
X123828118Y-87639630D01*
X123875130Y-87669832D01*
X123930673Y-87722579D01*
X123997345Y-87792736D01*
X124095976Y-87891185D01*
X124103939Y-87898899D01*
X124212262Y-88003833D01*
X124335263Y-88120328D01*
X124454042Y-88230316D01*
X124557661Y-88323447D01*
X124635181Y-88389366D01*
X124705265Y-88446907D01*
X124809635Y-88535321D01*
X124905814Y-88619360D01*
X124932972Y-88643210D01*
X125012326Y-88704724D01*
X125075930Y-88735956D01*
X125138141Y-88744646D01*
X125140012Y-88744642D01*
X125208198Y-88735116D01*
X125230177Y-88706323D01*
X125224324Y-88668527D01*
X125202174Y-88607642D01*
X125196021Y-88596697D01*
X125287073Y-88596697D01*
X125293370Y-88631999D01*
X125302373Y-88631590D01*
X125307223Y-88597380D01*
X125302999Y-88571454D01*
X125291287Y-88581445D01*
X125287073Y-88596697D01*
X125196021Y-88596697D01*
X125172946Y-88555652D01*
X125146816Y-88533638D01*
X125141350Y-88532804D01*
X125124674Y-88506738D01*
X125120332Y-88490811D01*
X125094386Y-88437802D01*
X125052816Y-88368265D01*
X125030332Y-88333043D01*
X124981884Y-88255280D01*
X124947312Y-88197346D01*
X124921454Y-88151736D01*
X124880020Y-88078654D01*
X124864152Y-88051722D01*
X124820156Y-87980631D01*
X124768853Y-87900617D01*
X124739234Y-87853028D01*
X124707130Y-87793546D01*
X124696995Y-87762143D01*
X124697600Y-87759128D01*
X124680517Y-87742361D01*
X124655823Y-87722102D01*
X124626094Y-87671514D01*
X124617984Y-87655117D01*
X124574345Y-87582441D01*
X124520469Y-87506664D01*
X124485667Y-87458594D01*
X124424709Y-87364594D01*
X124368057Y-87267595D01*
X124331707Y-87201581D01*
X124215751Y-87001878D01*
X124117547Y-86851320D01*
X124037235Y-86750124D01*
X124019998Y-86730823D01*
X123975404Y-86671598D01*
X123963881Y-86647761D01*
X123990510Y-86647761D01*
X124003697Y-86660949D01*
X124016885Y-86647761D01*
X124003697Y-86634573D01*
X123990510Y-86647761D01*
X123963881Y-86647761D01*
X123954761Y-86628895D01*
X123954558Y-86627783D01*
X123932861Y-86588700D01*
X123884388Y-86526016D01*
X123819170Y-86452762D01*
X123750811Y-86375176D01*
X123692239Y-86298621D01*
X123658424Y-86242169D01*
X123647049Y-86217334D01*
X123605980Y-86139601D01*
X123578863Y-86093867D01*
X123779502Y-86093867D01*
X123792690Y-86107055D01*
X123805878Y-86093867D01*
X123792690Y-86080679D01*
X123779502Y-86093867D01*
X123578863Y-86093867D01*
X123556930Y-86056875D01*
X123536368Y-86020889D01*
X123502161Y-85931874D01*
X123492910Y-85853822D01*
X123508890Y-85798420D01*
X123550375Y-85777356D01*
X123581608Y-85785503D01*
X123613427Y-85816529D01*
X123651399Y-85879198D01*
X123702007Y-85982272D01*
X123702374Y-85983054D01*
X123732360Y-86028468D01*
X123755058Y-86024801D01*
X123757915Y-86021686D01*
X123786043Y-86030650D01*
X123831452Y-86076742D01*
X123844330Y-86093867D01*
X123887993Y-86151932D01*
G37*
%TD*%
M02*
