%TF.GenerationSoftware,KiCad,Pcbnew,9.0.8-9.0.8~ubuntu22.04.1*%
%TF.CreationDate,2026-03-23T11:58:50-05:00*%
%TF.ProjectId,Main_Board,4d61696e-5f42-46f6-9172-642e6b696361,rev?*%
%TF.SameCoordinates,Original*%
%TF.FileFunction,Soldermask,Bot*%
%TF.FilePolarity,Negative*%
%FSLAX46Y46*%
G04 Gerber Fmt 4.6, Leading zero omitted, Abs format (unit mm)*
G04 Created by KiCad (PCBNEW 9.0.8-9.0.8~ubuntu22.04.1) date 2026-03-23 11:58:50*
%MOMM*%
%LPD*%
G01*
G04 APERTURE LIST*
G04 Aperture macros list*
%AMRoundRect*
0 Rectangle with rounded corners*
0 $1 Rounding radius*
0 $2 $3 $4 $5 $6 $7 $8 $9 X,Y pos of 4 corners*
0 Add a 4 corners polygon primitive as box body*
4,1,4,$2,$3,$4,$5,$6,$7,$8,$9,$2,$3,0*
0 Add four circle primitives for the rounded corners*
1,1,$1+$1,$2,$3*
1,1,$1+$1,$4,$5*
1,1,$1+$1,$6,$7*
1,1,$1+$1,$8,$9*
0 Add four rect primitives between the rounded corners*
20,1,$1+$1,$2,$3,$4,$5,0*
20,1,$1+$1,$4,$5,$6,$7,0*
20,1,$1+$1,$6,$7,$8,$9,0*
20,1,$1+$1,$8,$9,$2,$3,0*%
G04 Aperture macros list end*
%ADD10C,0.800000*%
%ADD11C,6.400000*%
%ADD12O,2.200000X3.500000*%
%ADD13R,1.500000X2.500000*%
%ADD14O,1.500000X2.500000*%
%ADD15RoundRect,0.250000X-0.350000X-0.625000X0.350000X-0.625000X0.350000X0.625000X-0.350000X0.625000X0*%
%ADD16O,1.200000X1.750000*%
%ADD17RoundRect,0.250000X0.350000X0.625000X-0.350000X0.625000X-0.350000X-0.625000X0.350000X-0.625000X0*%
%ADD18C,1.308000*%
G04 APERTURE END LIST*
D10*
%TO.C,H4*%
X170320000Y-98425000D03*
X171022944Y-96727944D03*
X171022944Y-100122056D03*
X172720000Y-96025000D03*
D11*
X172720000Y-98425000D03*
D10*
X172720000Y-100825000D03*
X174417056Y-96727944D03*
X174417056Y-100122056D03*
X175120000Y-98425000D03*
%TD*%
D12*
%TO.C,SW1*%
X133386000Y-70072000D03*
X125186000Y-70072000D03*
D13*
X131286000Y-70072000D03*
D14*
X129286000Y-70072000D03*
X127286000Y-70072000D03*
%TD*%
D15*
%TO.C,J6*%
X162370000Y-99060000D03*
D16*
X164370000Y-99060000D03*
X166370000Y-99060000D03*
%TD*%
D17*
%TO.C,J7*%
X159242000Y-71162000D03*
D16*
X157242000Y-71162000D03*
%TD*%
D10*
%TO.C,H1*%
X116980000Y-71755000D03*
X117682944Y-70057944D03*
X117682944Y-73452056D03*
X119380000Y-69355000D03*
D11*
X119380000Y-71755000D03*
D10*
X119380000Y-74155000D03*
X121077056Y-70057944D03*
X121077056Y-73452056D03*
X121780000Y-71755000D03*
%TD*%
D17*
%TO.C,J8*%
X152146000Y-71120000D03*
D16*
X150146000Y-71120000D03*
%TD*%
D10*
%TO.C,H3*%
X116980000Y-98425000D03*
X117682944Y-96727944D03*
X117682944Y-100122056D03*
X119380000Y-96025000D03*
D11*
X119380000Y-98425000D03*
D10*
X119380000Y-100825000D03*
X121077056Y-96727944D03*
X121077056Y-100122056D03*
X121780000Y-98425000D03*
%TD*%
D15*
%TO.C,J4*%
X134938000Y-99018000D03*
D16*
X136938000Y-99018000D03*
X138938000Y-99018000D03*
%TD*%
D15*
%TO.C,J3*%
X144050000Y-99060000D03*
D16*
X146050000Y-99060000D03*
X148050000Y-99060000D03*
%TD*%
D17*
%TO.C,J1*%
X166370000Y-71120000D03*
D16*
X164370000Y-71120000D03*
%TD*%
D10*
%TO.C,H2*%
X170320000Y-71755000D03*
X171022944Y-70057944D03*
X171022944Y-73452056D03*
X172720000Y-69355000D03*
D11*
X172720000Y-71755000D03*
D10*
X172720000Y-74155000D03*
X174417056Y-70057944D03*
X174417056Y-73452056D03*
X175120000Y-71755000D03*
%TD*%
D15*
%TO.C,J5*%
X125762000Y-99018000D03*
D16*
X127762000Y-99018000D03*
X129762000Y-99018000D03*
%TD*%
D17*
%TO.C,J9*%
X145018000Y-71162000D03*
D16*
X143018000Y-71162000D03*
%TD*%
D18*
%TO.C,U1*%
X119380000Y-92710000D03*
X121920000Y-92710000D03*
X124460000Y-92710000D03*
X127000000Y-92710000D03*
X152400000Y-92710000D03*
X121920000Y-77470000D03*
X129540000Y-92710000D03*
X132080000Y-92710000D03*
X134620000Y-92710000D03*
X137160000Y-92710000D03*
X139700000Y-92710000D03*
X142240000Y-92710000D03*
X144780000Y-92710000D03*
X147320000Y-92710000D03*
X149860000Y-92710000D03*
X149860000Y-77470000D03*
X147320000Y-77470000D03*
X144780000Y-77470000D03*
X142240000Y-77470000D03*
X139700000Y-77470000D03*
X137160000Y-77470000D03*
X134620000Y-77470000D03*
X132080000Y-77470000D03*
X129540000Y-77470000D03*
X127000000Y-77470000D03*
X124460000Y-77470000D03*
X154940000Y-92710000D03*
X157480000Y-92710000D03*
X160020000Y-92710000D03*
X162560000Y-92710000D03*
X165100000Y-92710000D03*
X167640000Y-92710000D03*
X170180000Y-92710000D03*
X172720000Y-92710000D03*
X175260000Y-92710000D03*
X175260000Y-77470000D03*
X172720000Y-77470000D03*
X170180000Y-77470000D03*
X167640000Y-77470000D03*
X165100000Y-77470000D03*
X162560000Y-77470000D03*
X160020000Y-77470000D03*
X157480000Y-77470000D03*
X154940000Y-77470000D03*
X116840000Y-92710000D03*
X152400000Y-77470000D03*
X119380000Y-77470000D03*
X116840000Y-77470000D03*
%TD*%
D15*
%TO.C,J2*%
X153226000Y-99060000D03*
D16*
X155226000Y-99060000D03*
X157226000Y-99060000D03*
%TD*%
G36*
X172720734Y-67691009D02*
G01*
X172914204Y-67693382D01*
X172924837Y-67693970D01*
X173310614Y-67731966D01*
X173322651Y-67733752D01*
X173702085Y-67809226D01*
X173713889Y-67812182D01*
X174084118Y-67924490D01*
X174095576Y-67928590D01*
X174453007Y-68076642D01*
X174464007Y-68081845D01*
X174805198Y-68264216D01*
X174815636Y-68270472D01*
X175137317Y-68485412D01*
X175147091Y-68492661D01*
X175446154Y-68738096D01*
X175455170Y-68746268D01*
X175728731Y-69019829D01*
X175736903Y-69028845D01*
X175982338Y-69327908D01*
X175989587Y-69337682D01*
X176204527Y-69659363D01*
X176210783Y-69669801D01*
X176393154Y-70010992D01*
X176398357Y-70021992D01*
X176546409Y-70379423D01*
X176550509Y-70390881D01*
X176662817Y-70761110D01*
X176665773Y-70772914D01*
X176741247Y-71152348D01*
X176743033Y-71164385D01*
X176781029Y-71550162D01*
X176781617Y-71560795D01*
X176783991Y-71754266D01*
X176784000Y-71755787D01*
X176784000Y-76237162D01*
X176764315Y-76304201D01*
X176711511Y-76349956D01*
X176642353Y-76359900D01*
X176597115Y-76344033D01*
X175550115Y-75727961D01*
X175502319Y-75676998D01*
X175489000Y-75621090D01*
X175489000Y-71626983D01*
X175465376Y-71372044D01*
X175465375Y-71372043D01*
X175418327Y-71120352D01*
X175348261Y-70874101D01*
X175255766Y-70635341D01*
X175141644Y-70406154D01*
X175006854Y-70188459D01*
X174852565Y-69984150D01*
X174852558Y-69984140D01*
X174680069Y-69794929D01*
X174490858Y-69622440D01*
X174490848Y-69622433D01*
X174286539Y-69468144D01*
X174068844Y-69333354D01*
X173839657Y-69219232D01*
X173600897Y-69126737D01*
X173354646Y-69056671D01*
X173102953Y-69009622D01*
X172848016Y-68986000D01*
X141171234Y-68986000D01*
X141104195Y-68966315D01*
X141061937Y-68920568D01*
X140500887Y-67873568D01*
X140486573Y-67805180D01*
X140511505Y-67739910D01*
X140567766Y-67698481D01*
X140610184Y-67691000D01*
X172719213Y-67691000D01*
X172720734Y-67691009D01*
G37*
G36*
X123495508Y-67710685D02*
G01*
X123541263Y-67763489D01*
X123551207Y-67832647D01*
X123538577Y-67872029D01*
X122996091Y-68919420D01*
X122947779Y-68969896D01*
X122885970Y-68986391D01*
X119251983Y-68986000D01*
X119251964Y-68986001D01*
X118997046Y-69009622D01*
X118745352Y-69056671D01*
X118499101Y-69126737D01*
X118260341Y-69219232D01*
X118031154Y-69333354D01*
X117813459Y-69468144D01*
X117609150Y-69622433D01*
X117609140Y-69622440D01*
X117419929Y-69794929D01*
X117247440Y-69984140D01*
X117247433Y-69984150D01*
X117093144Y-70188459D01*
X116958354Y-70406154D01*
X116844232Y-70635341D01*
X116751737Y-70874101D01*
X116681671Y-71120352D01*
X116634622Y-71372045D01*
X116611000Y-71626982D01*
X116611000Y-75621090D01*
X116591315Y-75688129D01*
X116549885Y-75727961D01*
X115502885Y-76344033D01*
X115435123Y-76361066D01*
X115368910Y-76338760D01*
X115325267Y-76284197D01*
X115316000Y-76237162D01*
X115316000Y-71755787D01*
X115316009Y-71754266D01*
X115318382Y-71560795D01*
X115318970Y-71550162D01*
X115356966Y-71164385D01*
X115358752Y-71152348D01*
X115434226Y-70772914D01*
X115437182Y-70761110D01*
X115549490Y-70390881D01*
X115553590Y-70379423D01*
X115701642Y-70021992D01*
X115706845Y-70010992D01*
X115889216Y-69669801D01*
X115895472Y-69659363D01*
X116110412Y-69337682D01*
X116117661Y-69327908D01*
X116363096Y-69028845D01*
X116371268Y-69019829D01*
X116644829Y-68746268D01*
X116653845Y-68738096D01*
X116952908Y-68492661D01*
X116962682Y-68485412D01*
X117284363Y-68270472D01*
X117294801Y-68264216D01*
X117635992Y-68081845D01*
X117646992Y-68076642D01*
X118004423Y-67928590D01*
X118015881Y-67924490D01*
X118386110Y-67812182D01*
X118397914Y-67809226D01*
X118777348Y-67733752D01*
X118789385Y-67731966D01*
X119175162Y-67693970D01*
X119185795Y-67693382D01*
X119379266Y-67691009D01*
X119380787Y-67691000D01*
X123428469Y-67691000D01*
X123495508Y-67710685D01*
G37*
G36*
X176715899Y-94127311D02*
G01*
X176766866Y-94175103D01*
X176784000Y-94237997D01*
X176784000Y-98424212D01*
X176783991Y-98425733D01*
X176781617Y-98619204D01*
X176781029Y-98629837D01*
X176743033Y-99015614D01*
X176741247Y-99027651D01*
X176665773Y-99407085D01*
X176662817Y-99418889D01*
X176550509Y-99789118D01*
X176546409Y-99800576D01*
X176398357Y-100158007D01*
X176393154Y-100169007D01*
X176210783Y-100510198D01*
X176204527Y-100520636D01*
X175989587Y-100842317D01*
X175982338Y-100852091D01*
X175736903Y-101151154D01*
X175728731Y-101160170D01*
X175455170Y-101433731D01*
X175446154Y-101441903D01*
X175147091Y-101687338D01*
X175137317Y-101694587D01*
X174815636Y-101909527D01*
X174805198Y-101915783D01*
X174464007Y-102098154D01*
X174453007Y-102103357D01*
X174095576Y-102251409D01*
X174084118Y-102255509D01*
X173713889Y-102367817D01*
X173702085Y-102370773D01*
X173322651Y-102446247D01*
X173310614Y-102448033D01*
X172924837Y-102486029D01*
X172914204Y-102486617D01*
X172720734Y-102488991D01*
X172719213Y-102489000D01*
X119380787Y-102489000D01*
X119379266Y-102488991D01*
X119185795Y-102486617D01*
X119175162Y-102486029D01*
X118789385Y-102448033D01*
X118777348Y-102446247D01*
X118397914Y-102370773D01*
X118386110Y-102367817D01*
X118015881Y-102255509D01*
X118004423Y-102251409D01*
X117646992Y-102103357D01*
X117635992Y-102098154D01*
X117294801Y-101915783D01*
X117284363Y-101909527D01*
X116962682Y-101694587D01*
X116952908Y-101687338D01*
X116653845Y-101441903D01*
X116644829Y-101433731D01*
X116371268Y-101160170D01*
X116363096Y-101151154D01*
X116117661Y-100852091D01*
X116110412Y-100842317D01*
X115895472Y-100520636D01*
X115889216Y-100510198D01*
X115706845Y-100169007D01*
X115701642Y-100158007D01*
X115553590Y-99800576D01*
X115549490Y-99789118D01*
X115437182Y-99418889D01*
X115434226Y-99407085D01*
X115358752Y-99027651D01*
X115356966Y-99015614D01*
X115318970Y-98629837D01*
X115318382Y-98619204D01*
X115316009Y-98425733D01*
X115316000Y-98424212D01*
X115316000Y-94237997D01*
X115335685Y-94170958D01*
X115388489Y-94125203D01*
X115457647Y-94115259D01*
X115517462Y-94141169D01*
X116539880Y-94959104D01*
X116579932Y-95016355D01*
X116586415Y-95055060D01*
X116611000Y-98553019D01*
X116611000Y-98553024D01*
X116634622Y-98807953D01*
X116681671Y-99059646D01*
X116751737Y-99305897D01*
X116844232Y-99544657D01*
X116958354Y-99773844D01*
X117093144Y-99991539D01*
X117247433Y-100195848D01*
X117247440Y-100195858D01*
X117419929Y-100385069D01*
X117609140Y-100557558D01*
X117609150Y-100557565D01*
X117813459Y-100711854D01*
X118031154Y-100846644D01*
X118260341Y-100960766D01*
X118499101Y-101053261D01*
X118745352Y-101123327D01*
X118997043Y-101170375D01*
X118997044Y-101170376D01*
X119251984Y-101194000D01*
X172848016Y-101194000D01*
X173102954Y-101170376D01*
X173102955Y-101170375D01*
X173354646Y-101123327D01*
X173600897Y-101053261D01*
X173839657Y-100960766D01*
X174068844Y-100846644D01*
X174286539Y-100711854D01*
X174490848Y-100557565D01*
X174490858Y-100557558D01*
X174680069Y-100385069D01*
X174852558Y-100195858D01*
X174852565Y-100195848D01*
X175006854Y-99991539D01*
X175141644Y-99773844D01*
X175255766Y-99544657D01*
X175348261Y-99305897D01*
X175418327Y-99059646D01*
X175465375Y-98807955D01*
X175465376Y-98807954D01*
X175488999Y-98553024D01*
X175488999Y-98553018D01*
X175513584Y-95055061D01*
X175533739Y-94988161D01*
X175560119Y-94959104D01*
X176582538Y-94141169D01*
X176647184Y-94114661D01*
X176715899Y-94127311D01*
G37*
M02*
