M48
; DRILL file {KiCad 9.0.8-9.0.8~ubuntu22.04.1} date 2026-03-23T11:58:47-0500
; FORMAT={-:-/ absolute / inch / decimal}
; #@! TF.CreationDate,2026-03-23T11:58:47-05:00
; #@! TF.GenerationSoftware,Kicad,Pcbnew,9.0.8-9.0.8~ubuntu22.04.1
; #@! TF.FileFunction,Plated,1,2,PTH
FMAT,2
INCH
; #@! TA.AperFunction,Plated,PTH,ViaDrill
T1C0.0118
; #@! TA.AperFunction,Plated,PTH,ComponentDrill
T2C0.0197
; #@! TA.AperFunction,Plated,PTH,ComponentDrill
T3C0.0295
; #@! TA.AperFunction,Plated,PTH,ComponentDrill
T4C0.0315
; #@! TA.AperFunction,Plated,PTH,ComponentDrill
T5C0.0354
; #@! TA.AperFunction,Plated,PTH,ComponentDrill
T6C0.0591
; #@! TA.AperFunction,Plated,PTH,ComponentDrill
T7C0.1160
%
G90
G05
T1
X4.75Y-3.25
X4.75Y-3.5
X4.88Y-2.89
X4.91Y-3.15
X5.0Y-3.25
X5.0Y-3.5
X5.0Y-3.75
X5.21Y-3.9
X5.25Y-3.25
X5.25Y-3.5
X5.29Y-2.89
X5.43Y-2.71
X5.5Y-3.25
X5.5Y-3.5
X5.57Y-3.9
X5.75Y-3.25
X5.75Y-3.5
X5.81Y-2.8
X5.93Y-3.9
X6.0Y-3.25
X6.0Y-3.5
X6.09Y-2.8
X6.25Y-3.25
X6.25Y-3.5
X6.29Y-3.9
X6.37Y-2.8
X6.5Y-3.25
X6.5Y-3.5
X6.5Y-3.75
X6.75Y-3.25
X6.75Y-3.5
T2
X4.6055Y-2.825
X4.6055Y-3.875
X4.6332Y-2.7582
X4.6332Y-2.8918
X4.6332Y-3.8082
X4.6332Y-3.9418
X4.7Y-2.7305
X4.7Y-2.9195
X4.7Y-3.7805
X4.7Y-3.9695
X4.7668Y-2.7582
X4.7668Y-2.8918
X4.7668Y-3.8082
X4.7668Y-3.9418
X4.7945Y-2.825
X4.7945Y-3.875
X6.7055Y-2.825
X6.7055Y-3.875
X6.7332Y-2.7582
X6.7332Y-2.8918
X6.7332Y-3.8082
X6.7332Y-3.9418
X6.8Y-2.7305
X6.8Y-2.9195
X6.8Y-3.7805
X6.8Y-3.9695
X6.8668Y-2.7582
X6.8668Y-2.8918
X6.8668Y-3.8082
X6.8668Y-3.9418
X6.8945Y-2.825
X6.8945Y-3.875
T3
X4.9513Y-3.8983
X5.03Y-3.8983
X5.1087Y-3.8983
X5.3125Y-3.8983
X5.3913Y-3.8983
X5.47Y-3.8983
X5.6306Y-2.8017
X5.6713Y-3.9
X5.7094Y-2.8017
X5.75Y-3.9
X5.8287Y-3.9
X5.9113Y-2.8
X5.99Y-2.8
X6.0325Y-3.9
X6.1113Y-3.9
X6.19Y-3.9
X6.1906Y-2.8017
X6.2694Y-2.8017
X6.3925Y-3.9
X6.4713Y-2.8
X6.4713Y-3.9
X6.55Y-2.8
X6.55Y-3.9
T4
X4.6Y-3.05
X4.6Y-3.65
X4.7Y-3.05
X4.7Y-3.65
X4.8Y-3.05
X4.8Y-3.65
X4.9Y-3.05
X4.9Y-3.65
X5.0Y-3.05
X5.0Y-3.65
X5.1Y-3.05
X5.1Y-3.65
X5.2Y-3.05
X5.2Y-3.65
X5.3Y-3.05
X5.3Y-3.65
X5.4Y-3.05
X5.4Y-3.65
X5.5Y-3.05
X5.5Y-3.65
X5.6Y-3.05
X5.6Y-3.65
X5.7Y-3.05
X5.7Y-3.65
X5.8Y-3.05
X5.8Y-3.65
X5.9Y-3.05
X5.9Y-3.65
X6.0Y-3.05
X6.0Y-3.65
X6.1Y-3.05
X6.1Y-3.65
X6.2Y-3.05
X6.2Y-3.65
X6.3Y-3.05
X6.3Y-3.65
X6.4Y-3.05
X6.4Y-3.65
X6.5Y-3.05
X6.5Y-3.65
X6.6Y-3.05
X6.6Y-3.65
X6.7Y-3.05
X6.7Y-3.65
X6.8Y-3.05
X6.8Y-3.65
X6.9Y-3.05
X6.9Y-3.65
T5
X5.0113Y-2.7587
X5.09Y-2.7587
X5.1687Y-2.7587
T6
X4.9286Y-2.7587
X5.2514Y-2.7587
T7
X4.7Y-2.825
X4.7Y-3.875
X6.8Y-2.825
X6.8Y-3.875
M30
